%TF.GenerationSoftware,KiCad,Pcbnew,10.0.5*%
%TF.CreationDate,2026-09-06T17:06:03+05:30*%
%TF.ProjectId,center_tapped_fullwaverectifier_with_filter,63656e74-6572-45f7-9461-707065645f66,rev?*%
%TF.SameCoordinates,Original*%
%TF.FileFunction,Copper,L4,Bot*%
%TF.FilePolarity,Positive*%
%FSLAX46Y46*%
G04 Gerber Fmt 4.6, Leading zero omitted, Abs format (unit mm)*
G04 Created by KiCad (PCBNEW 10.0.5) date 2026-09-06 17:06:03*
%MOMM*%
%LPD*%
G01*
G04 APERTURE LIST*
G04 Aperture macros list*
%AMRoundRect*
0 Rectangle with rounded corners*
0 $1 Rounding radius*
0 $2 $3 $4 $5 $6 $7 $8 $9 X,Y pos of 4 corners*
0 Add a 4 corners polygon primitive as box body*
4,1,4,$2,$3,$4,$5,$6,$7,$8,$9,$2,$3,0*
0 Add four circle primitives for the rounded corners*
1,1,$1+$1,$2,$3*
1,1,$1+$1,$4,$5*
1,1,$1+$1,$6,$7*
1,1,$1+$1,$8,$9*
0 Add four rect primitives between the rounded corners*
20,1,$1+$1,$2,$3,$4,$5,0*
20,1,$1+$1,$4,$5,$6,$7,0*
20,1,$1+$1,$6,$7,$8,$9,0*
20,1,$1+$1,$8,$9,$2,$3,0*%
G04 Aperture macros list end*
%TA.AperFunction,SMDPad,CuDef*%
%ADD10R,3.000000X0.650000*%
%TD*%
%TA.AperFunction,ComponentPad*%
%ADD11RoundRect,0.250000X-0.750000X0.750000X-0.750000X-0.750000X0.750000X-0.750000X0.750000X0.750000X0*%
%TD*%
%TA.AperFunction,ComponentPad*%
%ADD12C,2.000000*%
%TD*%
%TA.AperFunction,SMDPad,CuDef*%
%ADD13R,1.400000X0.760000*%
%TD*%
%TA.AperFunction,SMDPad,CuDef*%
%ADD14RoundRect,0.200000X-0.275000X0.200000X-0.275000X-0.200000X0.275000X-0.200000X0.275000X0.200000X0*%
%TD*%
%TA.AperFunction,SMDPad,CuDef*%
%ADD15RoundRect,0.243750X0.243750X0.456250X-0.243750X0.456250X-0.243750X-0.456250X0.243750X-0.456250X0*%
%TD*%
%TA.AperFunction,ViaPad*%
%ADD16C,0.600000*%
%TD*%
%TA.AperFunction,Conductor*%
%ADD17C,0.200000*%
%TD*%
G04 APERTURE END LIST*
D10*
%TO.P,J2,2,Pin_2_2*%
%TO.N,Net-(D1-K)*%
X135500000Y-81230000D03*
%TO.P,J2,1,Pin_1_1*%
%TO.N,Net-(J2-Pin_1)*%
X138500000Y-82500000D03*
%TD*%
D11*
%TO.P,J1,1,Pin_1_1*%
%TO.N,Net-(J1-Pin_1)*%
X132000000Y-72500000D03*
D12*
%TO.P,J1,2,Pin_2_2*%
%TO.N,Net-(J1-Pin_2)*%
X132000000Y-76310000D03*
%TD*%
D13*
%TO.P,T1,1,AA_1*%
%TO.N,Net-(J1-Pin_1)*%
X141215000Y-71230000D03*
%TO.P,T1,2,AB_2*%
%TO.N,Net-(J1-Pin_2)*%
X141215000Y-73770000D03*
%TO.P,T1,3,SA_3*%
%TO.N,Net-(D2-A)*%
X137785000Y-73770000D03*
%TO.P,T1,4,SC_4*%
%TO.N,Net-(J2-Pin_1)*%
X137785000Y-72500000D03*
%TO.P,T1,5,SB_5*%
%TO.N,Net-(D1-A)*%
X137785000Y-71230000D03*
%TD*%
D14*
%TO.P,R1,1*%
%TO.N,Net-(J2-Pin_1)*%
X141000000Y-76500000D03*
%TO.P,R1,2*%
%TO.N,Net-(D1-K)*%
X141000000Y-78150000D03*
%TD*%
D15*
%TO.P,D2,1,K_1*%
%TO.N,Net-(D1-K)*%
X138937500Y-78500000D03*
%TO.P,D2,2,A_2*%
%TO.N,Net-(D2-A)*%
X137062500Y-78500000D03*
%TD*%
%TO.P,D1,1,K_1*%
%TO.N,Net-(D1-K)*%
X138937500Y-76000000D03*
%TO.P,D1,2,A_2*%
%TO.N,Net-(D1-A)*%
X137062500Y-76000000D03*
%TD*%
D16*
%TO.N,Net-(J1-Pin_1)*%
X140445000Y-72000000D03*
%TO.N,Net-(J1-Pin_2)*%
X140102353Y-73225613D03*
%TO.N,Net-(D1-K)*%
X139143528Y-72600000D03*
%TO.N,Net-(J2-Pin_1)*%
X141500000Y-75000000D03*
%TO.N,Net-(D2-A)*%
X136000000Y-77500000D03*
X135174265Y-73825613D03*
%TO.N,Net-(D1-A)*%
X136500000Y-71400000D03*
X136150000Y-74772828D03*
%TD*%
%TO.N,Net-(D1-K)*%
D17*
X139143528Y-71049999D02*
X139143528Y-72600000D01*
X134574265Y-72477206D02*
X136501471Y-70550000D01*
X138643529Y-70550000D02*
X139143528Y-71049999D01*
X134574265Y-80304265D02*
X134574265Y-72477206D01*
X135500000Y-81230000D02*
X134574265Y-80304265D01*
X136501471Y-70550000D02*
X138643529Y-70550000D01*
X139580000Y-78150000D02*
X141000000Y-78150000D01*
X136500000Y-81230000D02*
X139580000Y-78150000D01*
%TO.N,Net-(J2-Pin_1)*%
X141775000Y-75275000D02*
X141500000Y-75000000D01*
X141775000Y-80225000D02*
X141775000Y-75275000D01*
X139500000Y-82500000D02*
X141775000Y-80225000D01*
X141775000Y-77275000D02*
X141000000Y-76500000D01*
X141775000Y-80225000D02*
X141775000Y-77275000D01*
%TO.N,Net-(D1-K)*%
X136500000Y-80937500D02*
X138937500Y-78500000D01*
X136500000Y-81230000D02*
X136500000Y-80937500D01*
%TO.N,Net-(J1-Pin_1)*%
X141215000Y-71230000D02*
X140500000Y-71945000D01*
X141215000Y-71230000D02*
X141270000Y-71230000D01*
%TO.N,Net-(J1-Pin_2)*%
X140646740Y-73770000D02*
X140102353Y-73225613D01*
X141215000Y-73770000D02*
X140646740Y-73770000D01*
%TO.N,Net-(D1-K)*%
X140737500Y-77800000D02*
X138937500Y-76000000D01*
X138937500Y-78000000D02*
X138937500Y-76000000D01*
%TO.N,Net-(J2-Pin_1)*%
X141500000Y-76000000D02*
X141000000Y-76500000D01*
X138195000Y-72500000D02*
X137785000Y-72500000D01*
X141500000Y-75000000D02*
X141500000Y-76000000D01*
X137785000Y-72500000D02*
X138105000Y-72500000D01*
X141000000Y-75395000D02*
X141000000Y-76500000D01*
X138105000Y-72500000D02*
X141000000Y-75395000D01*
X141695000Y-76000000D02*
X138195000Y-72500000D01*
%TO.N,Net-(D2-A)*%
X135229878Y-73770000D02*
X135174265Y-73825613D01*
X137000000Y-78000000D02*
X137062500Y-78000000D01*
X137062500Y-78000000D02*
X137031250Y-77968750D01*
X136562500Y-77500000D02*
X137062500Y-78000000D01*
X137785000Y-73770000D02*
X135229878Y-73770000D01*
X136000000Y-77500000D02*
X136562500Y-77500000D01*
%TO.N,Net-(D1-A)*%
X136670000Y-71230000D02*
X136500000Y-71400000D01*
X136150000Y-74772828D02*
X136150000Y-75087500D01*
X137785000Y-71230000D02*
X136670000Y-71230000D01*
X136150000Y-75087500D02*
X137062500Y-76000000D01*
%TD*%
M02*
