%TF.GenerationSoftware,KiCad,Pcbnew,10.0.5*%
%TF.CreationDate,2026-09-04T15:49:36+05:30*%
%TF.ProjectId,center_tapped_fullwaverectifier_with_filter,63656e74-6572-45f7-9461-707065645f66,rev?*%
%TF.SameCoordinates,Original*%
%TF.FileFunction,AssemblyDrawing,Top*%
%FSLAX46Y46*%
G04 Gerber Fmt 4.6, Leading zero omitted, Abs format (unit mm)*
G04 Created by KiCad (PCBNEW 10.0.5) date 2026-09-04 15:49:36*
%MOMM*%
%LPD*%
G01*
G04 APERTURE LIST*
%ADD10C,0.150000*%
%ADD11C,0.062500*%
%ADD12C,0.060000*%
%ADD13C,0.080000*%
%ADD14C,0.100000*%
G04 APERTURE END LIST*
D10*
X129238095Y-81954819D02*
X129238095Y-80954819D01*
X129238095Y-81431009D02*
X129809523Y-81431009D01*
X129809523Y-81954819D02*
X129809523Y-80954819D01*
X130190476Y-80954819D02*
X130809523Y-80954819D01*
X130809523Y-80954819D02*
X130476190Y-81335771D01*
X130476190Y-81335771D02*
X130619047Y-81335771D01*
X130619047Y-81335771D02*
X130714285Y-81383390D01*
X130714285Y-81383390D02*
X130761904Y-81431009D01*
X130761904Y-81431009D02*
X130809523Y-81526247D01*
X130809523Y-81526247D02*
X130809523Y-81764342D01*
X130809523Y-81764342D02*
X130761904Y-81859580D01*
X130761904Y-81859580D02*
X130714285Y-81907200D01*
X130714285Y-81907200D02*
X130619047Y-81954819D01*
X130619047Y-81954819D02*
X130333333Y-81954819D01*
X130333333Y-81954819D02*
X130238095Y-81907200D01*
X130238095Y-81907200D02*
X130190476Y-81859580D01*
X142738095Y-81454819D02*
X142738095Y-80454819D01*
X142738095Y-80931009D02*
X143309523Y-80931009D01*
X143309523Y-81454819D02*
X143309523Y-80454819D01*
X144214285Y-80788152D02*
X144214285Y-81454819D01*
X143976190Y-80407200D02*
X143738095Y-81121485D01*
X143738095Y-81121485D02*
X144357142Y-81121485D01*
X128738095Y-67954819D02*
X128738095Y-66954819D01*
X128738095Y-67431009D02*
X129309523Y-67431009D01*
X129309523Y-67954819D02*
X129309523Y-66954819D01*
X130309523Y-67954819D02*
X129738095Y-67954819D01*
X130023809Y-67954819D02*
X130023809Y-66954819D01*
X130023809Y-66954819D02*
X129928571Y-67097676D01*
X129928571Y-67097676D02*
X129833333Y-67192914D01*
X129833333Y-67192914D02*
X129738095Y-67240533D01*
D11*
X127484250Y-78524045D02*
X127508059Y-78452617D01*
X127508059Y-78452617D02*
X127508059Y-78333569D01*
X127508059Y-78333569D02*
X127484250Y-78285950D01*
X127484250Y-78285950D02*
X127460440Y-78262141D01*
X127460440Y-78262141D02*
X127412821Y-78238331D01*
X127412821Y-78238331D02*
X127365202Y-78238331D01*
X127365202Y-78238331D02*
X127317583Y-78262141D01*
X127317583Y-78262141D02*
X127293773Y-78285950D01*
X127293773Y-78285950D02*
X127269964Y-78333569D01*
X127269964Y-78333569D02*
X127246154Y-78428807D01*
X127246154Y-78428807D02*
X127222345Y-78476426D01*
X127222345Y-78476426D02*
X127198535Y-78500236D01*
X127198535Y-78500236D02*
X127150916Y-78524045D01*
X127150916Y-78524045D02*
X127103297Y-78524045D01*
X127103297Y-78524045D02*
X127055678Y-78500236D01*
X127055678Y-78500236D02*
X127031869Y-78476426D01*
X127031869Y-78476426D02*
X127008059Y-78428807D01*
X127008059Y-78428807D02*
X127008059Y-78309760D01*
X127008059Y-78309760D02*
X127031869Y-78238331D01*
X127484250Y-77809760D02*
X127508059Y-77857379D01*
X127508059Y-77857379D02*
X127508059Y-77952617D01*
X127508059Y-77952617D02*
X127484250Y-78000236D01*
X127484250Y-78000236D02*
X127460440Y-78024046D01*
X127460440Y-78024046D02*
X127412821Y-78047855D01*
X127412821Y-78047855D02*
X127269964Y-78047855D01*
X127269964Y-78047855D02*
X127222345Y-78024046D01*
X127222345Y-78024046D02*
X127198535Y-78000236D01*
X127198535Y-78000236D02*
X127174726Y-77952617D01*
X127174726Y-77952617D02*
X127174726Y-77857379D01*
X127174726Y-77857379D02*
X127198535Y-77809760D01*
X127508059Y-77595475D02*
X127174726Y-77595475D01*
X127269964Y-77595475D02*
X127222345Y-77571665D01*
X127222345Y-77571665D02*
X127198535Y-77547856D01*
X127198535Y-77547856D02*
X127174726Y-77500237D01*
X127174726Y-77500237D02*
X127174726Y-77452618D01*
X127484250Y-77095475D02*
X127508059Y-77143094D01*
X127508059Y-77143094D02*
X127508059Y-77238332D01*
X127508059Y-77238332D02*
X127484250Y-77285951D01*
X127484250Y-77285951D02*
X127436630Y-77309760D01*
X127436630Y-77309760D02*
X127246154Y-77309760D01*
X127246154Y-77309760D02*
X127198535Y-77285951D01*
X127198535Y-77285951D02*
X127174726Y-77238332D01*
X127174726Y-77238332D02*
X127174726Y-77143094D01*
X127174726Y-77143094D02*
X127198535Y-77095475D01*
X127198535Y-77095475D02*
X127246154Y-77071665D01*
X127246154Y-77071665D02*
X127293773Y-77071665D01*
X127293773Y-77071665D02*
X127341392Y-77309760D01*
X127174726Y-76904999D02*
X127508059Y-76809761D01*
X127508059Y-76809761D02*
X127269964Y-76714523D01*
X127269964Y-76714523D02*
X127508059Y-76619285D01*
X127508059Y-76619285D02*
X127174726Y-76524047D01*
X127555678Y-76452618D02*
X127555678Y-76071665D01*
X127008059Y-76024046D02*
X127008059Y-75738332D01*
X127508059Y-75881189D02*
X127008059Y-75881189D01*
X127484250Y-75381190D02*
X127508059Y-75428809D01*
X127508059Y-75428809D02*
X127508059Y-75524047D01*
X127508059Y-75524047D02*
X127484250Y-75571666D01*
X127484250Y-75571666D02*
X127436630Y-75595475D01*
X127436630Y-75595475D02*
X127246154Y-75595475D01*
X127246154Y-75595475D02*
X127198535Y-75571666D01*
X127198535Y-75571666D02*
X127174726Y-75524047D01*
X127174726Y-75524047D02*
X127174726Y-75428809D01*
X127174726Y-75428809D02*
X127198535Y-75381190D01*
X127198535Y-75381190D02*
X127246154Y-75357380D01*
X127246154Y-75357380D02*
X127293773Y-75357380D01*
X127293773Y-75357380D02*
X127341392Y-75595475D01*
X127508059Y-75143095D02*
X127174726Y-75143095D01*
X127269964Y-75143095D02*
X127222345Y-75119285D01*
X127222345Y-75119285D02*
X127198535Y-75095476D01*
X127198535Y-75095476D02*
X127174726Y-75047857D01*
X127174726Y-75047857D02*
X127174726Y-75000238D01*
X127508059Y-74833571D02*
X127174726Y-74833571D01*
X127222345Y-74833571D02*
X127198535Y-74809761D01*
X127198535Y-74809761D02*
X127174726Y-74762142D01*
X127174726Y-74762142D02*
X127174726Y-74690714D01*
X127174726Y-74690714D02*
X127198535Y-74643095D01*
X127198535Y-74643095D02*
X127246154Y-74619285D01*
X127246154Y-74619285D02*
X127508059Y-74619285D01*
X127246154Y-74619285D02*
X127198535Y-74595476D01*
X127198535Y-74595476D02*
X127174726Y-74547857D01*
X127174726Y-74547857D02*
X127174726Y-74476428D01*
X127174726Y-74476428D02*
X127198535Y-74428809D01*
X127198535Y-74428809D02*
X127246154Y-74404999D01*
X127246154Y-74404999D02*
X127508059Y-74404999D01*
X127508059Y-74166904D02*
X127174726Y-74166904D01*
X127008059Y-74166904D02*
X127031869Y-74190713D01*
X127031869Y-74190713D02*
X127055678Y-74166904D01*
X127055678Y-74166904D02*
X127031869Y-74143094D01*
X127031869Y-74143094D02*
X127008059Y-74166904D01*
X127008059Y-74166904D02*
X127055678Y-74166904D01*
X127174726Y-73928809D02*
X127508059Y-73928809D01*
X127222345Y-73928809D02*
X127198535Y-73904999D01*
X127198535Y-73904999D02*
X127174726Y-73857380D01*
X127174726Y-73857380D02*
X127174726Y-73785952D01*
X127174726Y-73785952D02*
X127198535Y-73738333D01*
X127198535Y-73738333D02*
X127246154Y-73714523D01*
X127246154Y-73714523D02*
X127508059Y-73714523D01*
X127508059Y-73262142D02*
X127246154Y-73262142D01*
X127246154Y-73262142D02*
X127198535Y-73285952D01*
X127198535Y-73285952D02*
X127174726Y-73333571D01*
X127174726Y-73333571D02*
X127174726Y-73428809D01*
X127174726Y-73428809D02*
X127198535Y-73476428D01*
X127484250Y-73262142D02*
X127508059Y-73309761D01*
X127508059Y-73309761D02*
X127508059Y-73428809D01*
X127508059Y-73428809D02*
X127484250Y-73476428D01*
X127484250Y-73476428D02*
X127436630Y-73500237D01*
X127436630Y-73500237D02*
X127389011Y-73500237D01*
X127389011Y-73500237D02*
X127341392Y-73476428D01*
X127341392Y-73476428D02*
X127317583Y-73428809D01*
X127317583Y-73428809D02*
X127317583Y-73309761D01*
X127317583Y-73309761D02*
X127293773Y-73262142D01*
X127508059Y-72952618D02*
X127484250Y-73000237D01*
X127484250Y-73000237D02*
X127436630Y-73024047D01*
X127436630Y-73024047D02*
X127008059Y-73024047D01*
X127555678Y-72881190D02*
X127555678Y-72500237D01*
X127008059Y-72285952D02*
X127008059Y-72238333D01*
X127008059Y-72238333D02*
X127031869Y-72190714D01*
X127031869Y-72190714D02*
X127055678Y-72166904D01*
X127055678Y-72166904D02*
X127103297Y-72143095D01*
X127103297Y-72143095D02*
X127198535Y-72119285D01*
X127198535Y-72119285D02*
X127317583Y-72119285D01*
X127317583Y-72119285D02*
X127412821Y-72143095D01*
X127412821Y-72143095D02*
X127460440Y-72166904D01*
X127460440Y-72166904D02*
X127484250Y-72190714D01*
X127484250Y-72190714D02*
X127508059Y-72238333D01*
X127508059Y-72238333D02*
X127508059Y-72285952D01*
X127508059Y-72285952D02*
X127484250Y-72333571D01*
X127484250Y-72333571D02*
X127460440Y-72357380D01*
X127460440Y-72357380D02*
X127412821Y-72381190D01*
X127412821Y-72381190D02*
X127317583Y-72404999D01*
X127317583Y-72404999D02*
X127198535Y-72404999D01*
X127198535Y-72404999D02*
X127103297Y-72381190D01*
X127103297Y-72381190D02*
X127055678Y-72357380D01*
X127055678Y-72357380D02*
X127031869Y-72333571D01*
X127031869Y-72333571D02*
X127008059Y-72285952D01*
X127508059Y-71643095D02*
X127508059Y-71928809D01*
X127508059Y-71785952D02*
X127008059Y-71785952D01*
X127008059Y-71785952D02*
X127079488Y-71833571D01*
X127079488Y-71833571D02*
X127127107Y-71881190D01*
X127127107Y-71881190D02*
X127150916Y-71928809D01*
X127508059Y-71476429D02*
X127174726Y-71214524D01*
X127174726Y-71476429D02*
X127508059Y-71214524D01*
X127008059Y-70928810D02*
X127008059Y-70881191D01*
X127008059Y-70881191D02*
X127031869Y-70833572D01*
X127031869Y-70833572D02*
X127055678Y-70809762D01*
X127055678Y-70809762D02*
X127103297Y-70785953D01*
X127103297Y-70785953D02*
X127198535Y-70762143D01*
X127198535Y-70762143D02*
X127317583Y-70762143D01*
X127317583Y-70762143D02*
X127412821Y-70785953D01*
X127412821Y-70785953D02*
X127460440Y-70809762D01*
X127460440Y-70809762D02*
X127484250Y-70833572D01*
X127484250Y-70833572D02*
X127508059Y-70881191D01*
X127508059Y-70881191D02*
X127508059Y-70928810D01*
X127508059Y-70928810D02*
X127484250Y-70976429D01*
X127484250Y-70976429D02*
X127460440Y-71000238D01*
X127460440Y-71000238D02*
X127412821Y-71024048D01*
X127412821Y-71024048D02*
X127317583Y-71047857D01*
X127317583Y-71047857D02*
X127198535Y-71047857D01*
X127198535Y-71047857D02*
X127103297Y-71024048D01*
X127103297Y-71024048D02*
X127055678Y-71000238D01*
X127055678Y-71000238D02*
X127031869Y-70976429D01*
X127031869Y-70976429D02*
X127008059Y-70928810D01*
X127055678Y-70571667D02*
X127031869Y-70547858D01*
X127031869Y-70547858D02*
X127008059Y-70500239D01*
X127008059Y-70500239D02*
X127008059Y-70381191D01*
X127008059Y-70381191D02*
X127031869Y-70333572D01*
X127031869Y-70333572D02*
X127055678Y-70309763D01*
X127055678Y-70309763D02*
X127103297Y-70285953D01*
X127103297Y-70285953D02*
X127150916Y-70285953D01*
X127150916Y-70285953D02*
X127222345Y-70309763D01*
X127222345Y-70309763D02*
X127508059Y-70595477D01*
X127508059Y-70595477D02*
X127508059Y-70285953D01*
D10*
X128504819Y-74738333D02*
X129219104Y-74738333D01*
X129219104Y-74738333D02*
X129361961Y-74785952D01*
X129361961Y-74785952D02*
X129457200Y-74881190D01*
X129457200Y-74881190D02*
X129504819Y-75024047D01*
X129504819Y-75024047D02*
X129504819Y-75119285D01*
X129504819Y-73738333D02*
X129504819Y-74309761D01*
X129504819Y-74024047D02*
X128504819Y-74024047D01*
X128504819Y-74024047D02*
X128647676Y-74119285D01*
X128647676Y-74119285D02*
X128742914Y-74214523D01*
X128742914Y-74214523D02*
X128790533Y-74309761D01*
X142738095Y-67954819D02*
X142738095Y-66954819D01*
X142738095Y-67431009D02*
X143309523Y-67431009D01*
X143309523Y-67954819D02*
X143309523Y-66954819D01*
X143738095Y-67050057D02*
X143785714Y-67002438D01*
X143785714Y-67002438D02*
X143880952Y-66954819D01*
X143880952Y-66954819D02*
X144119047Y-66954819D01*
X144119047Y-66954819D02*
X144214285Y-67002438D01*
X144214285Y-67002438D02*
X144261904Y-67050057D01*
X144261904Y-67050057D02*
X144309523Y-67145295D01*
X144309523Y-67145295D02*
X144309523Y-67240533D01*
X144309523Y-67240533D02*
X144261904Y-67383390D01*
X144261904Y-67383390D02*
X143690476Y-67954819D01*
X143690476Y-67954819D02*
X144309523Y-67954819D01*
D12*
X141181927Y-77391666D02*
X140991451Y-77524999D01*
X141181927Y-77620237D02*
X140781927Y-77620237D01*
X140781927Y-77620237D02*
X140781927Y-77467856D01*
X140781927Y-77467856D02*
X140800975Y-77429761D01*
X140800975Y-77429761D02*
X140820022Y-77410714D01*
X140820022Y-77410714D02*
X140858118Y-77391666D01*
X140858118Y-77391666D02*
X140915260Y-77391666D01*
X140915260Y-77391666D02*
X140953356Y-77410714D01*
X140953356Y-77410714D02*
X140972403Y-77429761D01*
X140972403Y-77429761D02*
X140991451Y-77467856D01*
X140991451Y-77467856D02*
X140991451Y-77620237D01*
X141181927Y-77010714D02*
X141181927Y-77239285D01*
X141181927Y-77124999D02*
X140781927Y-77124999D01*
X140781927Y-77124999D02*
X140839070Y-77163095D01*
X140839070Y-77163095D02*
X140877165Y-77201190D01*
X140877165Y-77201190D02*
X140896213Y-77239285D01*
D13*
X137630952Y-76227149D02*
X137630952Y-75727149D01*
X137630952Y-75727149D02*
X137750000Y-75727149D01*
X137750000Y-75727149D02*
X137821428Y-75750959D01*
X137821428Y-75750959D02*
X137869047Y-75798578D01*
X137869047Y-75798578D02*
X137892857Y-75846197D01*
X137892857Y-75846197D02*
X137916666Y-75941435D01*
X137916666Y-75941435D02*
X137916666Y-76012863D01*
X137916666Y-76012863D02*
X137892857Y-76108101D01*
X137892857Y-76108101D02*
X137869047Y-76155720D01*
X137869047Y-76155720D02*
X137821428Y-76203340D01*
X137821428Y-76203340D02*
X137750000Y-76227149D01*
X137750000Y-76227149D02*
X137630952Y-76227149D01*
X138392857Y-76227149D02*
X138107143Y-76227149D01*
X138250000Y-76227149D02*
X138250000Y-75727149D01*
X138250000Y-75727149D02*
X138202381Y-75798578D01*
X138202381Y-75798578D02*
X138154762Y-75846197D01*
X138154762Y-75846197D02*
X138107143Y-75870006D01*
%TO.C,J1*%
D14*
X128400000Y-72425000D02*
X130225000Y-70600000D01*
X128400000Y-78210000D02*
X128400000Y-72425000D01*
X130225000Y-70600000D02*
X135700000Y-70600000D01*
X132955000Y-73638000D02*
X130862000Y-71545000D01*
X132955000Y-77448000D02*
X130862000Y-75355000D01*
X133138000Y-73455000D02*
X131045000Y-71362000D01*
X133138000Y-77265000D02*
X131045000Y-75172000D01*
X135700000Y-70600000D02*
X135700000Y-78210000D01*
X135700000Y-78210000D02*
X128400000Y-78210000D01*
X133500000Y-72500000D02*
G75*
G02*
X130500000Y-72500000I-1500000J0D01*
G01*
X130500000Y-72500000D02*
G75*
G02*
X133500000Y-72500000I1500000J0D01*
G01*
X133500000Y-76310000D02*
G75*
G02*
X130500000Y-76310000I-1500000J0D01*
G01*
X130500000Y-76310000D02*
G75*
G02*
X133500000Y-76310000I1500000J0D01*
G01*
%TO.C,C1*%
X137900000Y-72200000D02*
X137900000Y-76800000D01*
X137900000Y-72200000D02*
X138900000Y-71200000D01*
X137900000Y-76800000D02*
X138900000Y-77800000D01*
X138495162Y-73170000D02*
X139125162Y-73170000D01*
X138810162Y-72855000D02*
X138810162Y-73485000D01*
X138900000Y-71200000D02*
X144500000Y-71200000D01*
X138900000Y-77800000D02*
X144500000Y-77800000D01*
X144500000Y-71200000D02*
X144500000Y-77800000D01*
X144350000Y-74500000D02*
G75*
G02*
X138050000Y-74500000I-3150000J0D01*
G01*
X138050000Y-74500000D02*
G75*
G02*
X144350000Y-74500000I3150000J0D01*
G01*
%TD*%
M02*
