%TF.GenerationSoftware,KiCad,Pcbnew,10.0.5*%
%TF.CreationDate,2026-09-04T15:49:36+05:30*%
%TF.ProjectId,center_tapped_fullwaverectifier_with_filter,63656e74-6572-45f7-9461-707065645f66,rev?*%
%TF.SameCoordinates,Original*%
%TF.FileFunction,Legend,Bot*%
%TF.FilePolarity,Positive*%
%FSLAX46Y46*%
G04 Gerber Fmt 4.6, Leading zero omitted, Abs format (unit mm)*
G04 Created by KiCad (PCBNEW 10.0.5) date 2026-09-04 15:49:36*
%MOMM*%
%LPD*%
G01*
G04 APERTURE LIST*
%ADD10C,0.120000*%
G04 APERTURE END LIST*
%TO.C,T1*%
D10*
X137900000Y-70400000D02*
X141100000Y-70400000D01*
X137900000Y-70600000D02*
X137900000Y-70400000D01*
X137900000Y-74600000D02*
X137900000Y-74400000D01*
X141100000Y-70400000D02*
X141100000Y-70600000D01*
X141100000Y-71900000D02*
X141100000Y-73100000D01*
X141100000Y-74400000D02*
X141100000Y-74600000D01*
X141100000Y-74600000D02*
X137900000Y-74600000D01*
X141500000Y-70600000D02*
X141740000Y-70270000D01*
X141260000Y-70270000D01*
X141500000Y-70600000D01*
G36*
X141500000Y-70600000D02*
G01*
X141260000Y-70270000D01*
X141740000Y-70270000D01*
X141500000Y-70600000D01*
G37*
%TO.C,R1*%
X140477500Y-77087742D02*
X140477500Y-77562258D01*
X141522500Y-77087742D02*
X141522500Y-77562258D01*
%TO.C,J2*%
X142755000Y-73340000D02*
X142755000Y-75660000D01*
X142755000Y-75660000D02*
X142865000Y-75660000D01*
X142865000Y-73340000D02*
X144135000Y-73340000D01*
X142865000Y-73340000D02*
X144135000Y-73340000D01*
X142865000Y-75660000D02*
X142865000Y-77440000D01*
X144135000Y-75660000D02*
X145515000Y-75660000D01*
X145405000Y-73340000D02*
X145515000Y-73340000D01*
X145515000Y-73340000D02*
X145515000Y-75660000D01*
%TO.C,D2*%
X137000000Y-77540000D02*
X139685000Y-77540000D01*
X139685000Y-77540000D02*
X139685000Y-79460000D01*
X139685000Y-79460000D02*
X137000000Y-79460000D01*
%TO.C,D1*%
X137000000Y-75040000D02*
X139685000Y-75040000D01*
X139685000Y-75040000D02*
X139685000Y-76960000D01*
X139685000Y-76960000D02*
X137000000Y-76960000D01*
%TD*%
M02*
