%TF.GenerationSoftware,KiCad,Pcbnew,10.0.5*%
%TF.CreationDate,2026-09-06T17:06:04+05:30*%
%TF.ProjectId,center_tapped_fullwaverectifier_with_filter,63656e74-6572-45f7-9461-707065645f66,rev?*%
%TF.SameCoordinates,Original*%
%TF.FileFunction,AssemblyDrawing,Bot*%
%FSLAX46Y46*%
G04 Gerber Fmt 4.6, Leading zero omitted, Abs format (unit mm)*
G04 Created by KiCad (PCBNEW 10.0.5) date 2026-09-06 17:06:04*
%MOMM*%
%LPD*%
G01*
G04 APERTURE LIST*
%ADD10C,0.062500*%
%ADD11C,0.150000*%
%ADD12C,0.090000*%
%ADD13C,0.100000*%
G04 APERTURE END LIST*
D10*
X139654760Y-79665440D02*
X139678569Y-79689250D01*
X139678569Y-79689250D02*
X139749998Y-79713059D01*
X139749998Y-79713059D02*
X139797617Y-79713059D01*
X139797617Y-79713059D02*
X139869045Y-79689250D01*
X139869045Y-79689250D02*
X139916664Y-79641630D01*
X139916664Y-79641630D02*
X139940474Y-79594011D01*
X139940474Y-79594011D02*
X139964283Y-79498773D01*
X139964283Y-79498773D02*
X139964283Y-79427345D01*
X139964283Y-79427345D02*
X139940474Y-79332107D01*
X139940474Y-79332107D02*
X139916664Y-79284488D01*
X139916664Y-79284488D02*
X139869045Y-79236869D01*
X139869045Y-79236869D02*
X139797617Y-79213059D01*
X139797617Y-79213059D02*
X139749998Y-79213059D01*
X139749998Y-79213059D02*
X139678569Y-79236869D01*
X139678569Y-79236869D02*
X139654760Y-79260678D01*
X139369045Y-79713059D02*
X139416664Y-79689250D01*
X139416664Y-79689250D02*
X139440474Y-79665440D01*
X139440474Y-79665440D02*
X139464283Y-79617821D01*
X139464283Y-79617821D02*
X139464283Y-79474964D01*
X139464283Y-79474964D02*
X139440474Y-79427345D01*
X139440474Y-79427345D02*
X139416664Y-79403535D01*
X139416664Y-79403535D02*
X139369045Y-79379726D01*
X139369045Y-79379726D02*
X139297617Y-79379726D01*
X139297617Y-79379726D02*
X139249998Y-79403535D01*
X139249998Y-79403535D02*
X139226188Y-79427345D01*
X139226188Y-79427345D02*
X139202379Y-79474964D01*
X139202379Y-79474964D02*
X139202379Y-79617821D01*
X139202379Y-79617821D02*
X139226188Y-79665440D01*
X139226188Y-79665440D02*
X139249998Y-79689250D01*
X139249998Y-79689250D02*
X139297617Y-79713059D01*
X139297617Y-79713059D02*
X139369045Y-79713059D01*
X138988093Y-79379726D02*
X138988093Y-79713059D01*
X138988093Y-79427345D02*
X138964283Y-79403535D01*
X138964283Y-79403535D02*
X138916664Y-79379726D01*
X138916664Y-79379726D02*
X138845236Y-79379726D01*
X138845236Y-79379726D02*
X138797617Y-79403535D01*
X138797617Y-79403535D02*
X138773807Y-79451154D01*
X138773807Y-79451154D02*
X138773807Y-79713059D01*
X138535712Y-79379726D02*
X138535712Y-79713059D01*
X138535712Y-79427345D02*
X138511902Y-79403535D01*
X138511902Y-79403535D02*
X138464283Y-79379726D01*
X138464283Y-79379726D02*
X138392855Y-79379726D01*
X138392855Y-79379726D02*
X138345236Y-79403535D01*
X138345236Y-79403535D02*
X138321426Y-79451154D01*
X138321426Y-79451154D02*
X138321426Y-79713059D01*
X138202379Y-79760678D02*
X137821426Y-79760678D01*
X137607141Y-79213059D02*
X137559522Y-79213059D01*
X137559522Y-79213059D02*
X137511903Y-79236869D01*
X137511903Y-79236869D02*
X137488093Y-79260678D01*
X137488093Y-79260678D02*
X137464284Y-79308297D01*
X137464284Y-79308297D02*
X137440474Y-79403535D01*
X137440474Y-79403535D02*
X137440474Y-79522583D01*
X137440474Y-79522583D02*
X137464284Y-79617821D01*
X137464284Y-79617821D02*
X137488093Y-79665440D01*
X137488093Y-79665440D02*
X137511903Y-79689250D01*
X137511903Y-79689250D02*
X137559522Y-79713059D01*
X137559522Y-79713059D02*
X137607141Y-79713059D01*
X137607141Y-79713059D02*
X137654760Y-79689250D01*
X137654760Y-79689250D02*
X137678569Y-79665440D01*
X137678569Y-79665440D02*
X137702379Y-79617821D01*
X137702379Y-79617821D02*
X137726188Y-79522583D01*
X137726188Y-79522583D02*
X137726188Y-79403535D01*
X137726188Y-79403535D02*
X137702379Y-79308297D01*
X137702379Y-79308297D02*
X137678569Y-79260678D01*
X137678569Y-79260678D02*
X137654760Y-79236869D01*
X137654760Y-79236869D02*
X137607141Y-79213059D01*
X136964284Y-79713059D02*
X137249998Y-79713059D01*
X137107141Y-79713059D02*
X137107141Y-79213059D01*
X137107141Y-79213059D02*
X137154760Y-79284488D01*
X137154760Y-79284488D02*
X137202379Y-79332107D01*
X137202379Y-79332107D02*
X137249998Y-79355916D01*
X136797618Y-79713059D02*
X136535713Y-79379726D01*
X136797618Y-79379726D02*
X136535713Y-79713059D01*
X136249999Y-79213059D02*
X136202380Y-79213059D01*
X136202380Y-79213059D02*
X136154761Y-79236869D01*
X136154761Y-79236869D02*
X136130951Y-79260678D01*
X136130951Y-79260678D02*
X136107142Y-79308297D01*
X136107142Y-79308297D02*
X136083332Y-79403535D01*
X136083332Y-79403535D02*
X136083332Y-79522583D01*
X136083332Y-79522583D02*
X136107142Y-79617821D01*
X136107142Y-79617821D02*
X136130951Y-79665440D01*
X136130951Y-79665440D02*
X136154761Y-79689250D01*
X136154761Y-79689250D02*
X136202380Y-79713059D01*
X136202380Y-79713059D02*
X136249999Y-79713059D01*
X136249999Y-79713059D02*
X136297618Y-79689250D01*
X136297618Y-79689250D02*
X136321427Y-79665440D01*
X136321427Y-79665440D02*
X136345237Y-79617821D01*
X136345237Y-79617821D02*
X136369046Y-79522583D01*
X136369046Y-79522583D02*
X136369046Y-79403535D01*
X136369046Y-79403535D02*
X136345237Y-79308297D01*
X136345237Y-79308297D02*
X136321427Y-79260678D01*
X136321427Y-79260678D02*
X136297618Y-79236869D01*
X136297618Y-79236869D02*
X136249999Y-79213059D01*
X135892856Y-79260678D02*
X135869047Y-79236869D01*
X135869047Y-79236869D02*
X135821428Y-79213059D01*
X135821428Y-79213059D02*
X135702380Y-79213059D01*
X135702380Y-79213059D02*
X135654761Y-79236869D01*
X135654761Y-79236869D02*
X135630952Y-79260678D01*
X135630952Y-79260678D02*
X135607142Y-79308297D01*
X135607142Y-79308297D02*
X135607142Y-79355916D01*
X135607142Y-79355916D02*
X135630952Y-79427345D01*
X135630952Y-79427345D02*
X135916666Y-79713059D01*
X135916666Y-79713059D02*
X135607142Y-79713059D01*
X135511905Y-79760678D02*
X135130952Y-79760678D01*
X135011905Y-79713059D02*
X135011905Y-79213059D01*
X135011905Y-79213059D02*
X134821429Y-79213059D01*
X134821429Y-79213059D02*
X134773810Y-79236869D01*
X134773810Y-79236869D02*
X134750000Y-79260678D01*
X134750000Y-79260678D02*
X134726191Y-79308297D01*
X134726191Y-79308297D02*
X134726191Y-79379726D01*
X134726191Y-79379726D02*
X134750000Y-79427345D01*
X134750000Y-79427345D02*
X134773810Y-79451154D01*
X134773810Y-79451154D02*
X134821429Y-79474964D01*
X134821429Y-79474964D02*
X135011905Y-79474964D01*
X134511905Y-79713059D02*
X134511905Y-79379726D01*
X134511905Y-79213059D02*
X134535714Y-79236869D01*
X134535714Y-79236869D02*
X134511905Y-79260678D01*
X134511905Y-79260678D02*
X134488095Y-79236869D01*
X134488095Y-79236869D02*
X134511905Y-79213059D01*
X134511905Y-79213059D02*
X134511905Y-79260678D01*
X134273810Y-79379726D02*
X134273810Y-79713059D01*
X134273810Y-79427345D02*
X134250000Y-79403535D01*
X134250000Y-79403535D02*
X134202381Y-79379726D01*
X134202381Y-79379726D02*
X134130953Y-79379726D01*
X134130953Y-79379726D02*
X134083334Y-79403535D01*
X134083334Y-79403535D02*
X134059524Y-79451154D01*
X134059524Y-79451154D02*
X134059524Y-79713059D01*
D11*
X136454819Y-81531666D02*
X137169104Y-81531666D01*
X137169104Y-81531666D02*
X137311961Y-81484047D01*
X137311961Y-81484047D02*
X137407200Y-81388809D01*
X137407200Y-81388809D02*
X137454819Y-81245952D01*
X137454819Y-81245952D02*
X137454819Y-81150714D01*
X136550057Y-81960238D02*
X136502438Y-82007857D01*
X136502438Y-82007857D02*
X136454819Y-82103095D01*
X136454819Y-82103095D02*
X136454819Y-82341190D01*
X136454819Y-82341190D02*
X136502438Y-82436428D01*
X136502438Y-82436428D02*
X136550057Y-82484047D01*
X136550057Y-82484047D02*
X136645295Y-82531666D01*
X136645295Y-82531666D02*
X136740533Y-82531666D01*
X136740533Y-82531666D02*
X136883390Y-82484047D01*
X136883390Y-82484047D02*
X137454819Y-81912619D01*
X137454819Y-81912619D02*
X137454819Y-82531666D01*
X146547619Y-74748819D02*
X145976191Y-74748819D01*
X146261905Y-75748819D02*
X146261905Y-74748819D01*
X145642857Y-75748819D02*
X145642857Y-75082152D01*
X145642857Y-75272628D02*
X145595238Y-75177390D01*
X145595238Y-75177390D02*
X145547619Y-75129771D01*
X145547619Y-75129771D02*
X145452381Y-75082152D01*
X145452381Y-75082152D02*
X145357143Y-75082152D01*
X144595238Y-75748819D02*
X144595238Y-75225009D01*
X144595238Y-75225009D02*
X144642857Y-75129771D01*
X144642857Y-75129771D02*
X144738095Y-75082152D01*
X144738095Y-75082152D02*
X144928571Y-75082152D01*
X144928571Y-75082152D02*
X145023809Y-75129771D01*
X144595238Y-75701200D02*
X144690476Y-75748819D01*
X144690476Y-75748819D02*
X144928571Y-75748819D01*
X144928571Y-75748819D02*
X145023809Y-75701200D01*
X145023809Y-75701200D02*
X145071428Y-75605961D01*
X145071428Y-75605961D02*
X145071428Y-75510723D01*
X145071428Y-75510723D02*
X145023809Y-75415485D01*
X145023809Y-75415485D02*
X144928571Y-75367866D01*
X144928571Y-75367866D02*
X144690476Y-75367866D01*
X144690476Y-75367866D02*
X144595238Y-75320247D01*
X144119047Y-75082152D02*
X144119047Y-75748819D01*
X144119047Y-75177390D02*
X144071428Y-75129771D01*
X144071428Y-75129771D02*
X143976190Y-75082152D01*
X143976190Y-75082152D02*
X143833333Y-75082152D01*
X143833333Y-75082152D02*
X143738095Y-75129771D01*
X143738095Y-75129771D02*
X143690476Y-75225009D01*
X143690476Y-75225009D02*
X143690476Y-75748819D01*
X143261904Y-75701200D02*
X143166666Y-75748819D01*
X143166666Y-75748819D02*
X142976190Y-75748819D01*
X142976190Y-75748819D02*
X142880952Y-75701200D01*
X142880952Y-75701200D02*
X142833333Y-75605961D01*
X142833333Y-75605961D02*
X142833333Y-75558342D01*
X142833333Y-75558342D02*
X142880952Y-75463104D01*
X142880952Y-75463104D02*
X142976190Y-75415485D01*
X142976190Y-75415485D02*
X143119047Y-75415485D01*
X143119047Y-75415485D02*
X143214285Y-75367866D01*
X143214285Y-75367866D02*
X143261904Y-75272628D01*
X143261904Y-75272628D02*
X143261904Y-75225009D01*
X143261904Y-75225009D02*
X143214285Y-75129771D01*
X143214285Y-75129771D02*
X143119047Y-75082152D01*
X143119047Y-75082152D02*
X142976190Y-75082152D01*
X142976190Y-75082152D02*
X142880952Y-75129771D01*
X142547618Y-75082152D02*
X142166666Y-75082152D01*
X142404761Y-75748819D02*
X142404761Y-74891676D01*
X142404761Y-74891676D02*
X142357142Y-74796438D01*
X142357142Y-74796438D02*
X142261904Y-74748819D01*
X142261904Y-74748819D02*
X142166666Y-74748819D01*
X141690475Y-75748819D02*
X141785713Y-75701200D01*
X141785713Y-75701200D02*
X141833332Y-75653580D01*
X141833332Y-75653580D02*
X141880951Y-75558342D01*
X141880951Y-75558342D02*
X141880951Y-75272628D01*
X141880951Y-75272628D02*
X141833332Y-75177390D01*
X141833332Y-75177390D02*
X141785713Y-75129771D01*
X141785713Y-75129771D02*
X141690475Y-75082152D01*
X141690475Y-75082152D02*
X141547618Y-75082152D01*
X141547618Y-75082152D02*
X141452380Y-75129771D01*
X141452380Y-75129771D02*
X141404761Y-75177390D01*
X141404761Y-75177390D02*
X141357142Y-75272628D01*
X141357142Y-75272628D02*
X141357142Y-75558342D01*
X141357142Y-75558342D02*
X141404761Y-75653580D01*
X141404761Y-75653580D02*
X141452380Y-75701200D01*
X141452380Y-75701200D02*
X141547618Y-75748819D01*
X141547618Y-75748819D02*
X141690475Y-75748819D01*
X140928570Y-75748819D02*
X140928570Y-75082152D01*
X140928570Y-75272628D02*
X140880951Y-75177390D01*
X140880951Y-75177390D02*
X140833332Y-75129771D01*
X140833332Y-75129771D02*
X140738094Y-75082152D01*
X140738094Y-75082152D02*
X140642856Y-75082152D01*
X140309522Y-75748819D02*
X140309522Y-75082152D01*
X140309522Y-75177390D02*
X140261903Y-75129771D01*
X140261903Y-75129771D02*
X140166665Y-75082152D01*
X140166665Y-75082152D02*
X140023808Y-75082152D01*
X140023808Y-75082152D02*
X139928570Y-75129771D01*
X139928570Y-75129771D02*
X139880951Y-75225009D01*
X139880951Y-75225009D02*
X139880951Y-75748819D01*
X139880951Y-75225009D02*
X139833332Y-75129771D01*
X139833332Y-75129771D02*
X139738094Y-75082152D01*
X139738094Y-75082152D02*
X139595237Y-75082152D01*
X139595237Y-75082152D02*
X139499998Y-75129771D01*
X139499998Y-75129771D02*
X139452379Y-75225009D01*
X139452379Y-75225009D02*
X139452379Y-75748819D01*
X138595237Y-75701200D02*
X138690475Y-75748819D01*
X138690475Y-75748819D02*
X138880951Y-75748819D01*
X138880951Y-75748819D02*
X138976189Y-75701200D01*
X138976189Y-75701200D02*
X139023808Y-75605961D01*
X139023808Y-75605961D02*
X139023808Y-75225009D01*
X139023808Y-75225009D02*
X138976189Y-75129771D01*
X138976189Y-75129771D02*
X138880951Y-75082152D01*
X138880951Y-75082152D02*
X138690475Y-75082152D01*
X138690475Y-75082152D02*
X138595237Y-75129771D01*
X138595237Y-75129771D02*
X138547618Y-75225009D01*
X138547618Y-75225009D02*
X138547618Y-75320247D01*
X138547618Y-75320247D02*
X139023808Y-75415485D01*
X138119046Y-75748819D02*
X138119046Y-75082152D01*
X138119046Y-75272628D02*
X138071427Y-75177390D01*
X138071427Y-75177390D02*
X138023808Y-75129771D01*
X138023808Y-75129771D02*
X137928570Y-75082152D01*
X137928570Y-75082152D02*
X137833332Y-75082152D01*
X137738094Y-75844057D02*
X136976189Y-75844057D01*
X136214284Y-75748819D02*
X136785712Y-75748819D01*
X136499998Y-75748819D02*
X136499998Y-74748819D01*
X136499998Y-74748819D02*
X136595236Y-74891676D01*
X136595236Y-74891676D02*
X136690474Y-74986914D01*
X136690474Y-74986914D02*
X136785712Y-75034533D01*
X135785712Y-75748819D02*
X135785712Y-74748819D01*
X135785712Y-74748819D02*
X135404760Y-74748819D01*
X135404760Y-74748819D02*
X135309522Y-74796438D01*
X135309522Y-74796438D02*
X135261903Y-74844057D01*
X135261903Y-74844057D02*
X135214284Y-74939295D01*
X135214284Y-74939295D02*
X135214284Y-75082152D01*
X135214284Y-75082152D02*
X135261903Y-75177390D01*
X135261903Y-75177390D02*
X135309522Y-75225009D01*
X135309522Y-75225009D02*
X135404760Y-75272628D01*
X135404760Y-75272628D02*
X135785712Y-75272628D01*
X135023808Y-75844057D02*
X134261903Y-75844057D01*
X134071426Y-75701200D02*
X133928569Y-75748819D01*
X133928569Y-75748819D02*
X133690474Y-75748819D01*
X133690474Y-75748819D02*
X133595236Y-75701200D01*
X133595236Y-75701200D02*
X133547617Y-75653580D01*
X133547617Y-75653580D02*
X133499998Y-75558342D01*
X133499998Y-75558342D02*
X133499998Y-75463104D01*
X133499998Y-75463104D02*
X133547617Y-75367866D01*
X133547617Y-75367866D02*
X133595236Y-75320247D01*
X133595236Y-75320247D02*
X133690474Y-75272628D01*
X133690474Y-75272628D02*
X133880950Y-75225009D01*
X133880950Y-75225009D02*
X133976188Y-75177390D01*
X133976188Y-75177390D02*
X134023807Y-75129771D01*
X134023807Y-75129771D02*
X134071426Y-75034533D01*
X134071426Y-75034533D02*
X134071426Y-74939295D01*
X134071426Y-74939295D02*
X134023807Y-74844057D01*
X134023807Y-74844057D02*
X133976188Y-74796438D01*
X133976188Y-74796438D02*
X133880950Y-74748819D01*
X133880950Y-74748819D02*
X133642855Y-74748819D01*
X133642855Y-74748819D02*
X133499998Y-74796438D01*
X133119045Y-75701200D02*
X132976188Y-75748819D01*
X132976188Y-75748819D02*
X132738093Y-75748819D01*
X132738093Y-75748819D02*
X132642855Y-75701200D01*
X132642855Y-75701200D02*
X132595236Y-75653580D01*
X132595236Y-75653580D02*
X132547617Y-75558342D01*
X132547617Y-75558342D02*
X132547617Y-75463104D01*
X132547617Y-75463104D02*
X132595236Y-75367866D01*
X132595236Y-75367866D02*
X132642855Y-75320247D01*
X132642855Y-75320247D02*
X132738093Y-75272628D01*
X132738093Y-75272628D02*
X132928569Y-75225009D01*
X132928569Y-75225009D02*
X133023807Y-75177390D01*
X133023807Y-75177390D02*
X133071426Y-75129771D01*
X133071426Y-75129771D02*
X133119045Y-75034533D01*
X133119045Y-75034533D02*
X133119045Y-74939295D01*
X133119045Y-74939295D02*
X133071426Y-74844057D01*
X133071426Y-74844057D02*
X133023807Y-74796438D01*
X133023807Y-74796438D02*
X132928569Y-74748819D01*
X132928569Y-74748819D02*
X132690474Y-74748819D01*
X132690474Y-74748819D02*
X132547617Y-74796438D01*
D12*
X139957143Y-72172891D02*
X139614286Y-72172891D01*
X139785714Y-72772891D02*
X139785714Y-72172891D01*
X139100000Y-72772891D02*
X139442857Y-72772891D01*
X139271428Y-72772891D02*
X139271428Y-72172891D01*
X139271428Y-72172891D02*
X139328571Y-72258605D01*
X139328571Y-72258605D02*
X139385714Y-72315748D01*
X139385714Y-72315748D02*
X139442857Y-72344320D01*
%TO.C,J2*%
D13*
X138050000Y-80595000D02*
X135950000Y-80595000D01*
X138050000Y-80595000D02*
X138050000Y-82700000D01*
X134500000Y-81030000D02*
X135950000Y-81030000D01*
X135950000Y-81430000D02*
X134500000Y-81430000D01*
X134500000Y-81430000D02*
X134500000Y-81030000D01*
X139500000Y-82300000D02*
X138050000Y-82300000D01*
X139500000Y-82700000D02*
X139500000Y-82300000D01*
X138050000Y-82700000D02*
X139500000Y-82700000D01*
X138050000Y-82700000D02*
X137615000Y-83135000D01*
X135950000Y-83135000D02*
X135950000Y-80595000D01*
X135950000Y-83135000D02*
X137615000Y-83135000D01*
%TO.C,T1*%
X138105000Y-70585000D02*
X138105000Y-74415000D01*
X138105000Y-74415000D02*
X140895000Y-74415000D01*
X140197500Y-70585000D02*
X138105000Y-70585000D01*
X140895000Y-71282500D02*
X140197500Y-70585000D01*
X140895000Y-74415000D02*
X140895000Y-71282500D01*
%TO.C,R1*%
X140587500Y-76525000D02*
X141412500Y-76525000D01*
X141412500Y-78125000D01*
X140587500Y-78125000D01*
X140587500Y-76525000D01*
%TO.C,D2*%
X137000000Y-77900000D02*
X138700000Y-77900000D01*
X137000000Y-79100000D02*
X137000000Y-77900000D01*
X138700000Y-77900000D02*
X139000000Y-78200000D01*
X139000000Y-78200000D02*
X139000000Y-79100000D01*
X139000000Y-79100000D02*
X137000000Y-79100000D01*
%TO.C,D1*%
X137000000Y-75400000D02*
X138700000Y-75400000D01*
X137000000Y-76600000D02*
X137000000Y-75400000D01*
X138700000Y-75400000D02*
X139000000Y-75700000D01*
X139000000Y-75700000D02*
X139000000Y-76600000D01*
X139000000Y-76600000D02*
X137000000Y-76600000D01*
%TD*%
M02*
