%TF.GenerationSoftware,KiCad,Pcbnew,10.0.5*%
%TF.CreationDate,2026-09-04T15:49:36+05:30*%
%TF.ProjectId,center_tapped_fullwaverectifier_with_filter,63656e74-6572-45f7-9461-707065645f66,rev?*%
%TF.SameCoordinates,Original*%
%TF.FileFunction,AssemblyDrawing,Bot*%
%FSLAX46Y46*%
G04 Gerber Fmt 4.6, Leading zero omitted, Abs format (unit mm)*
G04 Created by KiCad (PCBNEW 10.0.5) date 2026-09-04 15:49:36*
%MOMM*%
%LPD*%
G01*
G04 APERTURE LIST*
%ADD10C,0.150000*%
%ADD11C,0.090000*%
%ADD12C,0.062500*%
%ADD13C,0.100000*%
G04 APERTURE END LIST*
D10*
X146547619Y-74748819D02*
X145976191Y-74748819D01*
X146261905Y-75748819D02*
X146261905Y-74748819D01*
X145642857Y-75748819D02*
X145642857Y-75082152D01*
X145642857Y-75272628D02*
X145595238Y-75177390D01*
X145595238Y-75177390D02*
X145547619Y-75129771D01*
X145547619Y-75129771D02*
X145452381Y-75082152D01*
X145452381Y-75082152D02*
X145357143Y-75082152D01*
X144595238Y-75748819D02*
X144595238Y-75225009D01*
X144595238Y-75225009D02*
X144642857Y-75129771D01*
X144642857Y-75129771D02*
X144738095Y-75082152D01*
X144738095Y-75082152D02*
X144928571Y-75082152D01*
X144928571Y-75082152D02*
X145023809Y-75129771D01*
X144595238Y-75701200D02*
X144690476Y-75748819D01*
X144690476Y-75748819D02*
X144928571Y-75748819D01*
X144928571Y-75748819D02*
X145023809Y-75701200D01*
X145023809Y-75701200D02*
X145071428Y-75605961D01*
X145071428Y-75605961D02*
X145071428Y-75510723D01*
X145071428Y-75510723D02*
X145023809Y-75415485D01*
X145023809Y-75415485D02*
X144928571Y-75367866D01*
X144928571Y-75367866D02*
X144690476Y-75367866D01*
X144690476Y-75367866D02*
X144595238Y-75320247D01*
X144119047Y-75082152D02*
X144119047Y-75748819D01*
X144119047Y-75177390D02*
X144071428Y-75129771D01*
X144071428Y-75129771D02*
X143976190Y-75082152D01*
X143976190Y-75082152D02*
X143833333Y-75082152D01*
X143833333Y-75082152D02*
X143738095Y-75129771D01*
X143738095Y-75129771D02*
X143690476Y-75225009D01*
X143690476Y-75225009D02*
X143690476Y-75748819D01*
X143261904Y-75701200D02*
X143166666Y-75748819D01*
X143166666Y-75748819D02*
X142976190Y-75748819D01*
X142976190Y-75748819D02*
X142880952Y-75701200D01*
X142880952Y-75701200D02*
X142833333Y-75605961D01*
X142833333Y-75605961D02*
X142833333Y-75558342D01*
X142833333Y-75558342D02*
X142880952Y-75463104D01*
X142880952Y-75463104D02*
X142976190Y-75415485D01*
X142976190Y-75415485D02*
X143119047Y-75415485D01*
X143119047Y-75415485D02*
X143214285Y-75367866D01*
X143214285Y-75367866D02*
X143261904Y-75272628D01*
X143261904Y-75272628D02*
X143261904Y-75225009D01*
X143261904Y-75225009D02*
X143214285Y-75129771D01*
X143214285Y-75129771D02*
X143119047Y-75082152D01*
X143119047Y-75082152D02*
X142976190Y-75082152D01*
X142976190Y-75082152D02*
X142880952Y-75129771D01*
X142547618Y-75082152D02*
X142166666Y-75082152D01*
X142404761Y-75748819D02*
X142404761Y-74891676D01*
X142404761Y-74891676D02*
X142357142Y-74796438D01*
X142357142Y-74796438D02*
X142261904Y-74748819D01*
X142261904Y-74748819D02*
X142166666Y-74748819D01*
X141690475Y-75748819D02*
X141785713Y-75701200D01*
X141785713Y-75701200D02*
X141833332Y-75653580D01*
X141833332Y-75653580D02*
X141880951Y-75558342D01*
X141880951Y-75558342D02*
X141880951Y-75272628D01*
X141880951Y-75272628D02*
X141833332Y-75177390D01*
X141833332Y-75177390D02*
X141785713Y-75129771D01*
X141785713Y-75129771D02*
X141690475Y-75082152D01*
X141690475Y-75082152D02*
X141547618Y-75082152D01*
X141547618Y-75082152D02*
X141452380Y-75129771D01*
X141452380Y-75129771D02*
X141404761Y-75177390D01*
X141404761Y-75177390D02*
X141357142Y-75272628D01*
X141357142Y-75272628D02*
X141357142Y-75558342D01*
X141357142Y-75558342D02*
X141404761Y-75653580D01*
X141404761Y-75653580D02*
X141452380Y-75701200D01*
X141452380Y-75701200D02*
X141547618Y-75748819D01*
X141547618Y-75748819D02*
X141690475Y-75748819D01*
X140928570Y-75748819D02*
X140928570Y-75082152D01*
X140928570Y-75272628D02*
X140880951Y-75177390D01*
X140880951Y-75177390D02*
X140833332Y-75129771D01*
X140833332Y-75129771D02*
X140738094Y-75082152D01*
X140738094Y-75082152D02*
X140642856Y-75082152D01*
X140309522Y-75748819D02*
X140309522Y-75082152D01*
X140309522Y-75177390D02*
X140261903Y-75129771D01*
X140261903Y-75129771D02*
X140166665Y-75082152D01*
X140166665Y-75082152D02*
X140023808Y-75082152D01*
X140023808Y-75082152D02*
X139928570Y-75129771D01*
X139928570Y-75129771D02*
X139880951Y-75225009D01*
X139880951Y-75225009D02*
X139880951Y-75748819D01*
X139880951Y-75225009D02*
X139833332Y-75129771D01*
X139833332Y-75129771D02*
X139738094Y-75082152D01*
X139738094Y-75082152D02*
X139595237Y-75082152D01*
X139595237Y-75082152D02*
X139499998Y-75129771D01*
X139499998Y-75129771D02*
X139452379Y-75225009D01*
X139452379Y-75225009D02*
X139452379Y-75748819D01*
X138595237Y-75701200D02*
X138690475Y-75748819D01*
X138690475Y-75748819D02*
X138880951Y-75748819D01*
X138880951Y-75748819D02*
X138976189Y-75701200D01*
X138976189Y-75701200D02*
X139023808Y-75605961D01*
X139023808Y-75605961D02*
X139023808Y-75225009D01*
X139023808Y-75225009D02*
X138976189Y-75129771D01*
X138976189Y-75129771D02*
X138880951Y-75082152D01*
X138880951Y-75082152D02*
X138690475Y-75082152D01*
X138690475Y-75082152D02*
X138595237Y-75129771D01*
X138595237Y-75129771D02*
X138547618Y-75225009D01*
X138547618Y-75225009D02*
X138547618Y-75320247D01*
X138547618Y-75320247D02*
X139023808Y-75415485D01*
X138119046Y-75748819D02*
X138119046Y-75082152D01*
X138119046Y-75272628D02*
X138071427Y-75177390D01*
X138071427Y-75177390D02*
X138023808Y-75129771D01*
X138023808Y-75129771D02*
X137928570Y-75082152D01*
X137928570Y-75082152D02*
X137833332Y-75082152D01*
X137738094Y-75844057D02*
X136976189Y-75844057D01*
X136214284Y-75748819D02*
X136785712Y-75748819D01*
X136499998Y-75748819D02*
X136499998Y-74748819D01*
X136499998Y-74748819D02*
X136595236Y-74891676D01*
X136595236Y-74891676D02*
X136690474Y-74986914D01*
X136690474Y-74986914D02*
X136785712Y-75034533D01*
X135785712Y-75748819D02*
X135785712Y-74748819D01*
X135785712Y-74748819D02*
X135404760Y-74748819D01*
X135404760Y-74748819D02*
X135309522Y-74796438D01*
X135309522Y-74796438D02*
X135261903Y-74844057D01*
X135261903Y-74844057D02*
X135214284Y-74939295D01*
X135214284Y-74939295D02*
X135214284Y-75082152D01*
X135214284Y-75082152D02*
X135261903Y-75177390D01*
X135261903Y-75177390D02*
X135309522Y-75225009D01*
X135309522Y-75225009D02*
X135404760Y-75272628D01*
X135404760Y-75272628D02*
X135785712Y-75272628D01*
X135023808Y-75844057D02*
X134261903Y-75844057D01*
X134071426Y-75701200D02*
X133928569Y-75748819D01*
X133928569Y-75748819D02*
X133690474Y-75748819D01*
X133690474Y-75748819D02*
X133595236Y-75701200D01*
X133595236Y-75701200D02*
X133547617Y-75653580D01*
X133547617Y-75653580D02*
X133499998Y-75558342D01*
X133499998Y-75558342D02*
X133499998Y-75463104D01*
X133499998Y-75463104D02*
X133547617Y-75367866D01*
X133547617Y-75367866D02*
X133595236Y-75320247D01*
X133595236Y-75320247D02*
X133690474Y-75272628D01*
X133690474Y-75272628D02*
X133880950Y-75225009D01*
X133880950Y-75225009D02*
X133976188Y-75177390D01*
X133976188Y-75177390D02*
X134023807Y-75129771D01*
X134023807Y-75129771D02*
X134071426Y-75034533D01*
X134071426Y-75034533D02*
X134071426Y-74939295D01*
X134071426Y-74939295D02*
X134023807Y-74844057D01*
X134023807Y-74844057D02*
X133976188Y-74796438D01*
X133976188Y-74796438D02*
X133880950Y-74748819D01*
X133880950Y-74748819D02*
X133642855Y-74748819D01*
X133642855Y-74748819D02*
X133499998Y-74796438D01*
X133119045Y-75701200D02*
X132976188Y-75748819D01*
X132976188Y-75748819D02*
X132738093Y-75748819D01*
X132738093Y-75748819D02*
X132642855Y-75701200D01*
X132642855Y-75701200D02*
X132595236Y-75653580D01*
X132595236Y-75653580D02*
X132547617Y-75558342D01*
X132547617Y-75558342D02*
X132547617Y-75463104D01*
X132547617Y-75463104D02*
X132595236Y-75367866D01*
X132595236Y-75367866D02*
X132642855Y-75320247D01*
X132642855Y-75320247D02*
X132738093Y-75272628D01*
X132738093Y-75272628D02*
X132928569Y-75225009D01*
X132928569Y-75225009D02*
X133023807Y-75177390D01*
X133023807Y-75177390D02*
X133071426Y-75129771D01*
X133071426Y-75129771D02*
X133119045Y-75034533D01*
X133119045Y-75034533D02*
X133119045Y-74939295D01*
X133119045Y-74939295D02*
X133071426Y-74844057D01*
X133071426Y-74844057D02*
X133023807Y-74796438D01*
X133023807Y-74796438D02*
X132928569Y-74748819D01*
X132928569Y-74748819D02*
X132690474Y-74748819D01*
X132690474Y-74748819D02*
X132547617Y-74796438D01*
D11*
X139957143Y-72172891D02*
X139614286Y-72172891D01*
X139785714Y-72772891D02*
X139785714Y-72172891D01*
X139100000Y-72772891D02*
X139442857Y-72772891D01*
X139271428Y-72772891D02*
X139271428Y-72172891D01*
X139271428Y-72172891D02*
X139328571Y-72258605D01*
X139328571Y-72258605D02*
X139385714Y-72315748D01*
X139385714Y-72315748D02*
X139442857Y-72344320D01*
D12*
X146695440Y-71845239D02*
X146719250Y-71821430D01*
X146719250Y-71821430D02*
X146743059Y-71750001D01*
X146743059Y-71750001D02*
X146743059Y-71702382D01*
X146743059Y-71702382D02*
X146719250Y-71630954D01*
X146719250Y-71630954D02*
X146671630Y-71583335D01*
X146671630Y-71583335D02*
X146624011Y-71559525D01*
X146624011Y-71559525D02*
X146528773Y-71535716D01*
X146528773Y-71535716D02*
X146457345Y-71535716D01*
X146457345Y-71535716D02*
X146362107Y-71559525D01*
X146362107Y-71559525D02*
X146314488Y-71583335D01*
X146314488Y-71583335D02*
X146266869Y-71630954D01*
X146266869Y-71630954D02*
X146243059Y-71702382D01*
X146243059Y-71702382D02*
X146243059Y-71750001D01*
X146243059Y-71750001D02*
X146266869Y-71821430D01*
X146266869Y-71821430D02*
X146290678Y-71845239D01*
X146743059Y-72130954D02*
X146719250Y-72083335D01*
X146719250Y-72083335D02*
X146695440Y-72059525D01*
X146695440Y-72059525D02*
X146647821Y-72035716D01*
X146647821Y-72035716D02*
X146504964Y-72035716D01*
X146504964Y-72035716D02*
X146457345Y-72059525D01*
X146457345Y-72059525D02*
X146433535Y-72083335D01*
X146433535Y-72083335D02*
X146409726Y-72130954D01*
X146409726Y-72130954D02*
X146409726Y-72202382D01*
X146409726Y-72202382D02*
X146433535Y-72250001D01*
X146433535Y-72250001D02*
X146457345Y-72273811D01*
X146457345Y-72273811D02*
X146504964Y-72297620D01*
X146504964Y-72297620D02*
X146647821Y-72297620D01*
X146647821Y-72297620D02*
X146695440Y-72273811D01*
X146695440Y-72273811D02*
X146719250Y-72250001D01*
X146719250Y-72250001D02*
X146743059Y-72202382D01*
X146743059Y-72202382D02*
X146743059Y-72130954D01*
X146409726Y-72511906D02*
X146743059Y-72511906D01*
X146457345Y-72511906D02*
X146433535Y-72535716D01*
X146433535Y-72535716D02*
X146409726Y-72583335D01*
X146409726Y-72583335D02*
X146409726Y-72654763D01*
X146409726Y-72654763D02*
X146433535Y-72702382D01*
X146433535Y-72702382D02*
X146481154Y-72726192D01*
X146481154Y-72726192D02*
X146743059Y-72726192D01*
X146409726Y-72964287D02*
X146743059Y-72964287D01*
X146457345Y-72964287D02*
X146433535Y-72988097D01*
X146433535Y-72988097D02*
X146409726Y-73035716D01*
X146409726Y-73035716D02*
X146409726Y-73107144D01*
X146409726Y-73107144D02*
X146433535Y-73154763D01*
X146433535Y-73154763D02*
X146481154Y-73178573D01*
X146481154Y-73178573D02*
X146743059Y-73178573D01*
X146790678Y-73297621D02*
X146790678Y-73678573D01*
X146243059Y-73892858D02*
X146243059Y-73940477D01*
X146243059Y-73940477D02*
X146266869Y-73988096D01*
X146266869Y-73988096D02*
X146290678Y-74011906D01*
X146290678Y-74011906D02*
X146338297Y-74035715D01*
X146338297Y-74035715D02*
X146433535Y-74059525D01*
X146433535Y-74059525D02*
X146552583Y-74059525D01*
X146552583Y-74059525D02*
X146647821Y-74035715D01*
X146647821Y-74035715D02*
X146695440Y-74011906D01*
X146695440Y-74011906D02*
X146719250Y-73988096D01*
X146719250Y-73988096D02*
X146743059Y-73940477D01*
X146743059Y-73940477D02*
X146743059Y-73892858D01*
X146743059Y-73892858D02*
X146719250Y-73845239D01*
X146719250Y-73845239D02*
X146695440Y-73821430D01*
X146695440Y-73821430D02*
X146647821Y-73797620D01*
X146647821Y-73797620D02*
X146552583Y-73773811D01*
X146552583Y-73773811D02*
X146433535Y-73773811D01*
X146433535Y-73773811D02*
X146338297Y-73797620D01*
X146338297Y-73797620D02*
X146290678Y-73821430D01*
X146290678Y-73821430D02*
X146266869Y-73845239D01*
X146266869Y-73845239D02*
X146243059Y-73892858D01*
X146743059Y-74535715D02*
X146743059Y-74250001D01*
X146743059Y-74392858D02*
X146243059Y-74392858D01*
X146243059Y-74392858D02*
X146314488Y-74345239D01*
X146314488Y-74345239D02*
X146362107Y-74297620D01*
X146362107Y-74297620D02*
X146385916Y-74250001D01*
X146743059Y-74702381D02*
X146409726Y-74964286D01*
X146409726Y-74702381D02*
X146743059Y-74964286D01*
X146243059Y-75250000D02*
X146243059Y-75297619D01*
X146243059Y-75297619D02*
X146266869Y-75345238D01*
X146266869Y-75345238D02*
X146290678Y-75369048D01*
X146290678Y-75369048D02*
X146338297Y-75392857D01*
X146338297Y-75392857D02*
X146433535Y-75416667D01*
X146433535Y-75416667D02*
X146552583Y-75416667D01*
X146552583Y-75416667D02*
X146647821Y-75392857D01*
X146647821Y-75392857D02*
X146695440Y-75369048D01*
X146695440Y-75369048D02*
X146719250Y-75345238D01*
X146719250Y-75345238D02*
X146743059Y-75297619D01*
X146743059Y-75297619D02*
X146743059Y-75250000D01*
X146743059Y-75250000D02*
X146719250Y-75202381D01*
X146719250Y-75202381D02*
X146695440Y-75178572D01*
X146695440Y-75178572D02*
X146647821Y-75154762D01*
X146647821Y-75154762D02*
X146552583Y-75130953D01*
X146552583Y-75130953D02*
X146433535Y-75130953D01*
X146433535Y-75130953D02*
X146338297Y-75154762D01*
X146338297Y-75154762D02*
X146290678Y-75178572D01*
X146290678Y-75178572D02*
X146266869Y-75202381D01*
X146266869Y-75202381D02*
X146243059Y-75250000D01*
X146290678Y-75607143D02*
X146266869Y-75630952D01*
X146266869Y-75630952D02*
X146243059Y-75678571D01*
X146243059Y-75678571D02*
X146243059Y-75797619D01*
X146243059Y-75797619D02*
X146266869Y-75845238D01*
X146266869Y-75845238D02*
X146290678Y-75869047D01*
X146290678Y-75869047D02*
X146338297Y-75892857D01*
X146338297Y-75892857D02*
X146385916Y-75892857D01*
X146385916Y-75892857D02*
X146457345Y-75869047D01*
X146457345Y-75869047D02*
X146743059Y-75583333D01*
X146743059Y-75583333D02*
X146743059Y-75892857D01*
X146790678Y-75988095D02*
X146790678Y-76369047D01*
X146743059Y-76488094D02*
X146243059Y-76488094D01*
X146243059Y-76488094D02*
X146243059Y-76678570D01*
X146243059Y-76678570D02*
X146266869Y-76726189D01*
X146266869Y-76726189D02*
X146290678Y-76749999D01*
X146290678Y-76749999D02*
X146338297Y-76773808D01*
X146338297Y-76773808D02*
X146409726Y-76773808D01*
X146409726Y-76773808D02*
X146457345Y-76749999D01*
X146457345Y-76749999D02*
X146481154Y-76726189D01*
X146481154Y-76726189D02*
X146504964Y-76678570D01*
X146504964Y-76678570D02*
X146504964Y-76488094D01*
X146743059Y-76988094D02*
X146409726Y-76988094D01*
X146243059Y-76988094D02*
X146266869Y-76964285D01*
X146266869Y-76964285D02*
X146290678Y-76988094D01*
X146290678Y-76988094D02*
X146266869Y-77011904D01*
X146266869Y-77011904D02*
X146243059Y-76988094D01*
X146243059Y-76988094D02*
X146290678Y-76988094D01*
X146409726Y-77226189D02*
X146743059Y-77226189D01*
X146457345Y-77226189D02*
X146433535Y-77249999D01*
X146433535Y-77249999D02*
X146409726Y-77297618D01*
X146409726Y-77297618D02*
X146409726Y-77369046D01*
X146409726Y-77369046D02*
X146433535Y-77416665D01*
X146433535Y-77416665D02*
X146481154Y-77440475D01*
X146481154Y-77440475D02*
X146743059Y-77440475D01*
D10*
X144468333Y-73954819D02*
X144468333Y-74669104D01*
X144468333Y-74669104D02*
X144515952Y-74811961D01*
X144515952Y-74811961D02*
X144611190Y-74907200D01*
X144611190Y-74907200D02*
X144754047Y-74954819D01*
X144754047Y-74954819D02*
X144849285Y-74954819D01*
X144039761Y-74050057D02*
X143992142Y-74002438D01*
X143992142Y-74002438D02*
X143896904Y-73954819D01*
X143896904Y-73954819D02*
X143658809Y-73954819D01*
X143658809Y-73954819D02*
X143563571Y-74002438D01*
X143563571Y-74002438D02*
X143515952Y-74050057D01*
X143515952Y-74050057D02*
X143468333Y-74145295D01*
X143468333Y-74145295D02*
X143468333Y-74240533D01*
X143468333Y-74240533D02*
X143515952Y-74383390D01*
X143515952Y-74383390D02*
X144087380Y-74954819D01*
X144087380Y-74954819D02*
X143468333Y-74954819D01*
%TO.C,T1*%
D13*
X138105000Y-70585000D02*
X138105000Y-74415000D01*
X138105000Y-74415000D02*
X140895000Y-74415000D01*
X140197500Y-70585000D02*
X138105000Y-70585000D01*
X140895000Y-71282500D02*
X140197500Y-70585000D01*
X140895000Y-74415000D02*
X140895000Y-71282500D01*
%TO.C,R1*%
X140587500Y-76525000D02*
X141412500Y-76525000D01*
X141412500Y-78125000D01*
X140587500Y-78125000D01*
X140587500Y-76525000D01*
%TO.C,J2*%
X142865000Y-73450000D02*
X142865000Y-75115000D01*
X142865000Y-73450000D02*
X145405000Y-73450000D01*
X143300000Y-75550000D02*
X142865000Y-75115000D01*
X143300000Y-75550000D02*
X143300000Y-77000000D01*
X143300000Y-77000000D02*
X143700000Y-77000000D01*
X143700000Y-77000000D02*
X143700000Y-75550000D01*
X144570000Y-72000000D02*
X144970000Y-72000000D01*
X144570000Y-73450000D02*
X144570000Y-72000000D01*
X144970000Y-72000000D02*
X144970000Y-73450000D01*
X145405000Y-75550000D02*
X143300000Y-75550000D01*
X145405000Y-75550000D02*
X145405000Y-73450000D01*
%TO.C,D2*%
X137000000Y-77900000D02*
X138700000Y-77900000D01*
X137000000Y-79100000D02*
X137000000Y-77900000D01*
X138700000Y-77900000D02*
X139000000Y-78200000D01*
X139000000Y-78200000D02*
X139000000Y-79100000D01*
X139000000Y-79100000D02*
X137000000Y-79100000D01*
%TO.C,D1*%
X137000000Y-75400000D02*
X138700000Y-75400000D01*
X137000000Y-76600000D02*
X137000000Y-75400000D01*
X138700000Y-75400000D02*
X139000000Y-75700000D01*
X139000000Y-75700000D02*
X139000000Y-76600000D01*
X139000000Y-76600000D02*
X137000000Y-76600000D01*
%TD*%
M02*
