%TF.GenerationSoftware,KiCad,Pcbnew,10.0.5*%
%TF.CreationDate,2026-08-20T02:59:18+05:30*%
%TF.ProjectId,SMT,534d542e-6b69-4636-9164-5f7063625858,rev?*%
%TF.SameCoordinates,Original*%
%TF.FileFunction,Legend,Top*%
%TF.FilePolarity,Positive*%
%FSLAX46Y46*%
G04 Gerber Fmt 4.6, Leading zero omitted, Abs format (unit mm)*
G04 Created by KiCad (PCBNEW 10.0.5) date 2026-08-20 02:59:18*
%MOMM*%
%LPD*%
G01*
G04 APERTURE LIST*
%ADD10C,0.100000*%
%ADD11C,0.120000*%
G04 APERTURE END LIST*
D10*
X143338972Y-64127580D02*
X142767544Y-64127580D01*
X143053258Y-63127580D02*
X143053258Y-64127580D01*
X142434210Y-63127580D02*
X142434210Y-63794247D01*
X142434210Y-63603771D02*
X142386591Y-63699009D01*
X142386591Y-63699009D02*
X142338972Y-63746628D01*
X142338972Y-63746628D02*
X142243734Y-63794247D01*
X142243734Y-63794247D02*
X142148496Y-63794247D01*
X141386591Y-63127580D02*
X141386591Y-63651390D01*
X141386591Y-63651390D02*
X141434210Y-63746628D01*
X141434210Y-63746628D02*
X141529448Y-63794247D01*
X141529448Y-63794247D02*
X141719924Y-63794247D01*
X141719924Y-63794247D02*
X141815162Y-63746628D01*
X141386591Y-63175200D02*
X141481829Y-63127580D01*
X141481829Y-63127580D02*
X141719924Y-63127580D01*
X141719924Y-63127580D02*
X141815162Y-63175200D01*
X141815162Y-63175200D02*
X141862781Y-63270438D01*
X141862781Y-63270438D02*
X141862781Y-63365676D01*
X141862781Y-63365676D02*
X141815162Y-63460914D01*
X141815162Y-63460914D02*
X141719924Y-63508533D01*
X141719924Y-63508533D02*
X141481829Y-63508533D01*
X141481829Y-63508533D02*
X141386591Y-63556152D01*
X141053257Y-63794247D02*
X140672305Y-63794247D01*
X140910400Y-63127580D02*
X140910400Y-63984723D01*
X140910400Y-63984723D02*
X140862781Y-64079961D01*
X140862781Y-64079961D02*
X140767543Y-64127580D01*
X140767543Y-64127580D02*
X140672305Y-64127580D01*
X140481828Y-63794247D02*
X140100876Y-63794247D01*
X140338971Y-63127580D02*
X140338971Y-63984723D01*
X140338971Y-63984723D02*
X140291352Y-64079961D01*
X140291352Y-64079961D02*
X140196114Y-64127580D01*
X140196114Y-64127580D02*
X140100876Y-64127580D01*
X139767542Y-63127580D02*
X139767542Y-63794247D01*
X139767542Y-64127580D02*
X139815161Y-64079961D01*
X139815161Y-64079961D02*
X139767542Y-64032342D01*
X139767542Y-64032342D02*
X139719923Y-64079961D01*
X139719923Y-64079961D02*
X139767542Y-64127580D01*
X139767542Y-64127580D02*
X139767542Y-64032342D01*
X138862781Y-63175200D02*
X138958019Y-63127580D01*
X138958019Y-63127580D02*
X139148495Y-63127580D01*
X139148495Y-63127580D02*
X139243733Y-63175200D01*
X139243733Y-63175200D02*
X139291352Y-63222819D01*
X139291352Y-63222819D02*
X139338971Y-63318057D01*
X139338971Y-63318057D02*
X139338971Y-63603771D01*
X139338971Y-63603771D02*
X139291352Y-63699009D01*
X139291352Y-63699009D02*
X139243733Y-63746628D01*
X139243733Y-63746628D02*
X139148495Y-63794247D01*
X139148495Y-63794247D02*
X138958019Y-63794247D01*
X138958019Y-63794247D02*
X138862781Y-63746628D01*
X137196114Y-63127580D02*
X137672304Y-63127580D01*
X137672304Y-63127580D02*
X137672304Y-64127580D01*
X136862780Y-63127580D02*
X136862780Y-63794247D01*
X136862780Y-64127580D02*
X136910399Y-64079961D01*
X136910399Y-64079961D02*
X136862780Y-64032342D01*
X136862780Y-64032342D02*
X136815161Y-64079961D01*
X136815161Y-64079961D02*
X136862780Y-64127580D01*
X136862780Y-64127580D02*
X136862780Y-64032342D01*
X135958019Y-63794247D02*
X135958019Y-62984723D01*
X135958019Y-62984723D02*
X136005638Y-62889485D01*
X136005638Y-62889485D02*
X136053257Y-62841866D01*
X136053257Y-62841866D02*
X136148495Y-62794247D01*
X136148495Y-62794247D02*
X136291352Y-62794247D01*
X136291352Y-62794247D02*
X136386590Y-62841866D01*
X135958019Y-63175200D02*
X136053257Y-63127580D01*
X136053257Y-63127580D02*
X136243733Y-63127580D01*
X136243733Y-63127580D02*
X136338971Y-63175200D01*
X136338971Y-63175200D02*
X136386590Y-63222819D01*
X136386590Y-63222819D02*
X136434209Y-63318057D01*
X136434209Y-63318057D02*
X136434209Y-63603771D01*
X136434209Y-63603771D02*
X136386590Y-63699009D01*
X136386590Y-63699009D02*
X136338971Y-63746628D01*
X136338971Y-63746628D02*
X136243733Y-63794247D01*
X136243733Y-63794247D02*
X136053257Y-63794247D01*
X136053257Y-63794247D02*
X135958019Y-63746628D01*
X135481828Y-63127580D02*
X135481828Y-64127580D01*
X135053257Y-63127580D02*
X135053257Y-63651390D01*
X135053257Y-63651390D02*
X135100876Y-63746628D01*
X135100876Y-63746628D02*
X135196114Y-63794247D01*
X135196114Y-63794247D02*
X135338971Y-63794247D01*
X135338971Y-63794247D02*
X135434209Y-63746628D01*
X135434209Y-63746628D02*
X135481828Y-63699009D01*
X134719923Y-63794247D02*
X134338971Y-63794247D01*
X134577066Y-64127580D02*
X134577066Y-63270438D01*
X134577066Y-63270438D02*
X134529447Y-63175200D01*
X134529447Y-63175200D02*
X134434209Y-63127580D01*
X134434209Y-63127580D02*
X134338971Y-63127580D01*
X132767542Y-63127580D02*
X133243732Y-63127580D01*
X133243732Y-63127580D02*
X133243732Y-64127580D01*
X132434208Y-63651390D02*
X132100875Y-63651390D01*
X131958018Y-63127580D02*
X132434208Y-63127580D01*
X132434208Y-63127580D02*
X132434208Y-64127580D01*
X132434208Y-64127580D02*
X131958018Y-64127580D01*
X131529446Y-63127580D02*
X131529446Y-64127580D01*
X131529446Y-64127580D02*
X131291351Y-64127580D01*
X131291351Y-64127580D02*
X131148494Y-64079961D01*
X131148494Y-64079961D02*
X131053256Y-63984723D01*
X131053256Y-63984723D02*
X131005637Y-63889485D01*
X131005637Y-63889485D02*
X130958018Y-63699009D01*
X130958018Y-63699009D02*
X130958018Y-63556152D01*
X130958018Y-63556152D02*
X131005637Y-63365676D01*
X131005637Y-63365676D02*
X131053256Y-63270438D01*
X131053256Y-63270438D02*
X131148494Y-63175200D01*
X131148494Y-63175200D02*
X131291351Y-63127580D01*
X131291351Y-63127580D02*
X131529446Y-63127580D01*
%TO.C,D2*%
D11*
X134782361Y-70468000D02*
X134782361Y-71230000D01*
X134782361Y-71230000D02*
X135163361Y-71484000D01*
X134782361Y-77072000D02*
X134782361Y-76310000D01*
X135163361Y-71484000D02*
X135163361Y-71865000D01*
X135163361Y-76056000D02*
X134782361Y-76310000D01*
X135163361Y-76056000D02*
X135163361Y-75675000D01*
X141386361Y-70468000D02*
X134782361Y-70468000D01*
X141386361Y-77072000D02*
X134782361Y-77072000D01*
X141386361Y-77072000D02*
X141386361Y-70468000D01*
X135162608Y-75673843D02*
G75*
G02*
X135163362Y-71865001I2921753J1903843D01*
G01*
%TO.C,R2*%
X138346359Y-69120000D02*
X138653641Y-69120000D01*
X138346359Y-69880000D02*
X138653641Y-69880000D01*
%TO.C,R1*%
X143346359Y-68620000D02*
X143653641Y-68620000D01*
X143346359Y-69380000D02*
X143653641Y-69380000D01*
%TO.C,R3*%
X132143641Y-69120000D02*
X131836359Y-69120000D01*
X132143641Y-69880000D02*
X131836359Y-69880000D01*
%TO.C,D1*%
X142282361Y-70193000D02*
X142282361Y-70955000D01*
X142282361Y-70955000D02*
X142663361Y-71209000D01*
X142282361Y-76797000D02*
X142282361Y-76035000D01*
X142663361Y-71209000D02*
X142663361Y-71590000D01*
X142663361Y-75781000D02*
X142282361Y-76035000D01*
X142663361Y-75781000D02*
X142663361Y-75400000D01*
X148886361Y-70193000D02*
X142282361Y-70193000D01*
X148886361Y-76797000D02*
X142282361Y-76797000D01*
X148886361Y-76797000D02*
X148886361Y-70193000D01*
X142662608Y-75398843D02*
G75*
G02*
X142663362Y-71590001I2921753J1903843D01*
G01*
%TO.C,D3*%
X127282361Y-70468000D02*
X127282361Y-71230000D01*
X127282361Y-71230000D02*
X127663361Y-71484000D01*
X127282361Y-77072000D02*
X127282361Y-76310000D01*
X127663361Y-71484000D02*
X127663361Y-71865000D01*
X127663361Y-76056000D02*
X127282361Y-76310000D01*
X127663361Y-76056000D02*
X127663361Y-75675000D01*
X133886361Y-70468000D02*
X127282361Y-70468000D01*
X133886361Y-77072000D02*
X127282361Y-77072000D01*
X133886361Y-77072000D02*
X133886361Y-70468000D01*
X127662608Y-75673843D02*
G75*
G02*
X127663362Y-71865001I2921753J1903843D01*
G01*
%TD*%
M02*
