%TF.GenerationSoftware,KiCad,Pcbnew,10.0.5*%
%TF.CreationDate,2026-09-11T15:27:19+05:30*%
%TF.ProjectId,lab_exam2,6c61625f-6578-4616-9d32-2e6b69636164,rev?*%
%TF.SameCoordinates,Original*%
%TF.FileFunction,Legend,Top*%
%TF.FilePolarity,Positive*%
%FSLAX46Y46*%
G04 Gerber Fmt 4.6, Leading zero omitted, Abs format (unit mm)*
G04 Created by KiCad (PCBNEW 10.0.5) date 2026-09-11 15:27:19*
%MOMM*%
%LPD*%
G01*
G04 APERTURE LIST*
%ADD10C,0.100000*%
%ADD11C,0.150000*%
%ADD12C,0.120000*%
G04 APERTURE END LIST*
D10*
X129256265Y-82824800D02*
X129351503Y-82872419D01*
X129351503Y-82872419D02*
X129541979Y-82872419D01*
X129541979Y-82872419D02*
X129637217Y-82824800D01*
X129637217Y-82824800D02*
X129684836Y-82729561D01*
X129684836Y-82729561D02*
X129684836Y-82681942D01*
X129684836Y-82681942D02*
X129637217Y-82586704D01*
X129637217Y-82586704D02*
X129541979Y-82539085D01*
X129541979Y-82539085D02*
X129399122Y-82539085D01*
X129399122Y-82539085D02*
X129303884Y-82491466D01*
X129303884Y-82491466D02*
X129256265Y-82396228D01*
X129256265Y-82396228D02*
X129256265Y-82348609D01*
X129256265Y-82348609D02*
X129303884Y-82253371D01*
X129303884Y-82253371D02*
X129399122Y-82205752D01*
X129399122Y-82205752D02*
X129541979Y-82205752D01*
X129541979Y-82205752D02*
X129637217Y-82253371D01*
X130494360Y-82824800D02*
X130399122Y-82872419D01*
X130399122Y-82872419D02*
X130208646Y-82872419D01*
X130208646Y-82872419D02*
X130113408Y-82824800D01*
X130113408Y-82824800D02*
X130065789Y-82729561D01*
X130065789Y-82729561D02*
X130065789Y-82348609D01*
X130065789Y-82348609D02*
X130113408Y-82253371D01*
X130113408Y-82253371D02*
X130208646Y-82205752D01*
X130208646Y-82205752D02*
X130399122Y-82205752D01*
X130399122Y-82205752D02*
X130494360Y-82253371D01*
X130494360Y-82253371D02*
X130541979Y-82348609D01*
X130541979Y-82348609D02*
X130541979Y-82443847D01*
X130541979Y-82443847D02*
X130065789Y-82539085D01*
X130827694Y-82205752D02*
X131208646Y-82205752D01*
X130970551Y-81872419D02*
X130970551Y-82729561D01*
X130970551Y-82729561D02*
X131018170Y-82824800D01*
X131018170Y-82824800D02*
X131113408Y-82872419D01*
X131113408Y-82872419D02*
X131208646Y-82872419D01*
X131494361Y-81967657D02*
X131541980Y-81920038D01*
X131541980Y-81920038D02*
X131637218Y-81872419D01*
X131637218Y-81872419D02*
X131875313Y-81872419D01*
X131875313Y-81872419D02*
X131970551Y-81920038D01*
X131970551Y-81920038D02*
X132018170Y-81967657D01*
X132018170Y-81967657D02*
X132065789Y-82062895D01*
X132065789Y-82062895D02*
X132065789Y-82158133D01*
X132065789Y-82158133D02*
X132018170Y-82300990D01*
X132018170Y-82300990D02*
X131446742Y-82872419D01*
X131446742Y-82872419D02*
X132065789Y-82872419D01*
X133684837Y-82205752D02*
X133684837Y-83205752D01*
X133684837Y-82824800D02*
X133589599Y-82872419D01*
X133589599Y-82872419D02*
X133399123Y-82872419D01*
X133399123Y-82872419D02*
X133303885Y-82824800D01*
X133303885Y-82824800D02*
X133256266Y-82777180D01*
X133256266Y-82777180D02*
X133208647Y-82681942D01*
X133208647Y-82681942D02*
X133208647Y-82396228D01*
X133208647Y-82396228D02*
X133256266Y-82300990D01*
X133256266Y-82300990D02*
X133303885Y-82253371D01*
X133303885Y-82253371D02*
X133399123Y-82205752D01*
X133399123Y-82205752D02*
X133589599Y-82205752D01*
X133589599Y-82205752D02*
X133684837Y-82253371D01*
X134589599Y-82205752D02*
X134589599Y-82872419D01*
X134161028Y-82205752D02*
X134161028Y-82729561D01*
X134161028Y-82729561D02*
X134208647Y-82824800D01*
X134208647Y-82824800D02*
X134303885Y-82872419D01*
X134303885Y-82872419D02*
X134446742Y-82872419D01*
X134446742Y-82872419D02*
X134541980Y-82824800D01*
X134541980Y-82824800D02*
X134589599Y-82777180D01*
X135446742Y-82824800D02*
X135351504Y-82872419D01*
X135351504Y-82872419D02*
X135161028Y-82872419D01*
X135161028Y-82872419D02*
X135065790Y-82824800D01*
X135065790Y-82824800D02*
X135018171Y-82729561D01*
X135018171Y-82729561D02*
X135018171Y-82348609D01*
X135018171Y-82348609D02*
X135065790Y-82253371D01*
X135065790Y-82253371D02*
X135161028Y-82205752D01*
X135161028Y-82205752D02*
X135351504Y-82205752D01*
X135351504Y-82205752D02*
X135446742Y-82253371D01*
X135446742Y-82253371D02*
X135494361Y-82348609D01*
X135494361Y-82348609D02*
X135494361Y-82443847D01*
X135494361Y-82443847D02*
X135018171Y-82539085D01*
X135875314Y-82824800D02*
X135970552Y-82872419D01*
X135970552Y-82872419D02*
X136161028Y-82872419D01*
X136161028Y-82872419D02*
X136256266Y-82824800D01*
X136256266Y-82824800D02*
X136303885Y-82729561D01*
X136303885Y-82729561D02*
X136303885Y-82681942D01*
X136303885Y-82681942D02*
X136256266Y-82586704D01*
X136256266Y-82586704D02*
X136161028Y-82539085D01*
X136161028Y-82539085D02*
X136018171Y-82539085D01*
X136018171Y-82539085D02*
X135922933Y-82491466D01*
X135922933Y-82491466D02*
X135875314Y-82396228D01*
X135875314Y-82396228D02*
X135875314Y-82348609D01*
X135875314Y-82348609D02*
X135922933Y-82253371D01*
X135922933Y-82253371D02*
X136018171Y-82205752D01*
X136018171Y-82205752D02*
X136161028Y-82205752D01*
X136161028Y-82205752D02*
X136256266Y-82253371D01*
X136589600Y-82205752D02*
X136970552Y-82205752D01*
X136732457Y-81872419D02*
X136732457Y-82729561D01*
X136732457Y-82729561D02*
X136780076Y-82824800D01*
X136780076Y-82824800D02*
X136875314Y-82872419D01*
X136875314Y-82872419D02*
X136970552Y-82872419D01*
X137303886Y-82872419D02*
X137303886Y-82205752D01*
X137303886Y-81872419D02*
X137256267Y-81920038D01*
X137256267Y-81920038D02*
X137303886Y-81967657D01*
X137303886Y-81967657D02*
X137351505Y-81920038D01*
X137351505Y-81920038D02*
X137303886Y-81872419D01*
X137303886Y-81872419D02*
X137303886Y-81967657D01*
X137922933Y-82872419D02*
X137827695Y-82824800D01*
X137827695Y-82824800D02*
X137780076Y-82777180D01*
X137780076Y-82777180D02*
X137732457Y-82681942D01*
X137732457Y-82681942D02*
X137732457Y-82396228D01*
X137732457Y-82396228D02*
X137780076Y-82300990D01*
X137780076Y-82300990D02*
X137827695Y-82253371D01*
X137827695Y-82253371D02*
X137922933Y-82205752D01*
X137922933Y-82205752D02*
X138065790Y-82205752D01*
X138065790Y-82205752D02*
X138161028Y-82253371D01*
X138161028Y-82253371D02*
X138208647Y-82300990D01*
X138208647Y-82300990D02*
X138256266Y-82396228D01*
X138256266Y-82396228D02*
X138256266Y-82681942D01*
X138256266Y-82681942D02*
X138208647Y-82777180D01*
X138208647Y-82777180D02*
X138161028Y-82824800D01*
X138161028Y-82824800D02*
X138065790Y-82872419D01*
X138065790Y-82872419D02*
X137922933Y-82872419D01*
X138684838Y-82205752D02*
X138684838Y-82872419D01*
X138684838Y-82300990D02*
X138732457Y-82253371D01*
X138732457Y-82253371D02*
X138827695Y-82205752D01*
X138827695Y-82205752D02*
X138970552Y-82205752D01*
X138970552Y-82205752D02*
X139065790Y-82253371D01*
X139065790Y-82253371D02*
X139113409Y-82348609D01*
X139113409Y-82348609D02*
X139113409Y-82872419D01*
X139541981Y-81967657D02*
X139589600Y-81920038D01*
X139589600Y-81920038D02*
X139684838Y-81872419D01*
X139684838Y-81872419D02*
X139922933Y-81872419D01*
X139922933Y-81872419D02*
X140018171Y-81920038D01*
X140018171Y-81920038D02*
X140065790Y-81967657D01*
X140065790Y-81967657D02*
X140113409Y-82062895D01*
X140113409Y-82062895D02*
X140113409Y-82158133D01*
X140113409Y-82158133D02*
X140065790Y-82300990D01*
X140065790Y-82300990D02*
X139494362Y-82872419D01*
X139494362Y-82872419D02*
X140113409Y-82872419D01*
D11*
X134903333Y-92614819D02*
X134570000Y-92138628D01*
X134331905Y-92614819D02*
X134331905Y-91614819D01*
X134331905Y-91614819D02*
X134712857Y-91614819D01*
X134712857Y-91614819D02*
X134808095Y-91662438D01*
X134808095Y-91662438D02*
X134855714Y-91710057D01*
X134855714Y-91710057D02*
X134903333Y-91805295D01*
X134903333Y-91805295D02*
X134903333Y-91948152D01*
X134903333Y-91948152D02*
X134855714Y-92043390D01*
X134855714Y-92043390D02*
X134808095Y-92091009D01*
X134808095Y-92091009D02*
X134712857Y-92138628D01*
X134712857Y-92138628D02*
X134331905Y-92138628D01*
X135855714Y-92614819D02*
X135284286Y-92614819D01*
X135570000Y-92614819D02*
X135570000Y-91614819D01*
X135570000Y-91614819D02*
X135474762Y-91757676D01*
X135474762Y-91757676D02*
X135379524Y-91852914D01*
X135379524Y-91852914D02*
X135284286Y-91900533D01*
X132323333Y-92784819D02*
X131990000Y-92308628D01*
X131751905Y-92784819D02*
X131751905Y-91784819D01*
X131751905Y-91784819D02*
X132132857Y-91784819D01*
X132132857Y-91784819D02*
X132228095Y-91832438D01*
X132228095Y-91832438D02*
X132275714Y-91880057D01*
X132275714Y-91880057D02*
X132323333Y-91975295D01*
X132323333Y-91975295D02*
X132323333Y-92118152D01*
X132323333Y-92118152D02*
X132275714Y-92213390D01*
X132275714Y-92213390D02*
X132228095Y-92261009D01*
X132228095Y-92261009D02*
X132132857Y-92308628D01*
X132132857Y-92308628D02*
X131751905Y-92308628D01*
X132704286Y-91880057D02*
X132751905Y-91832438D01*
X132751905Y-91832438D02*
X132847143Y-91784819D01*
X132847143Y-91784819D02*
X133085238Y-91784819D01*
X133085238Y-91784819D02*
X133180476Y-91832438D01*
X133180476Y-91832438D02*
X133228095Y-91880057D01*
X133228095Y-91880057D02*
X133275714Y-91975295D01*
X133275714Y-91975295D02*
X133275714Y-92070533D01*
X133275714Y-92070533D02*
X133228095Y-92213390D01*
X133228095Y-92213390D02*
X132656667Y-92784819D01*
X132656667Y-92784819D02*
X133275714Y-92784819D01*
X135666666Y-85344819D02*
X135666666Y-86059104D01*
X135666666Y-86059104D02*
X135619047Y-86201961D01*
X135619047Y-86201961D02*
X135523809Y-86297200D01*
X135523809Y-86297200D02*
X135380952Y-86344819D01*
X135380952Y-86344819D02*
X135285714Y-86344819D01*
X136095238Y-85440057D02*
X136142857Y-85392438D01*
X136142857Y-85392438D02*
X136238095Y-85344819D01*
X136238095Y-85344819D02*
X136476190Y-85344819D01*
X136476190Y-85344819D02*
X136571428Y-85392438D01*
X136571428Y-85392438D02*
X136619047Y-85440057D01*
X136619047Y-85440057D02*
X136666666Y-85535295D01*
X136666666Y-85535295D02*
X136666666Y-85630533D01*
X136666666Y-85630533D02*
X136619047Y-85773390D01*
X136619047Y-85773390D02*
X136047619Y-86344819D01*
X136047619Y-86344819D02*
X136666666Y-86344819D01*
%TO.C,R1*%
D12*
X134916359Y-92950000D02*
X135223641Y-92950000D01*
X134916359Y-93710000D02*
X135223641Y-93710000D01*
%TO.C,R2*%
X132336359Y-93120000D02*
X132643641Y-93120000D01*
X132336359Y-93880000D02*
X132643641Y-93880000D01*
%TO.C,J2*%
X135255000Y-86890000D02*
X134310000Y-86890000D01*
X135255000Y-86890000D02*
X135255000Y-86890000D01*
X135255000Y-86890000D02*
X136745000Y-86890000D01*
X135255000Y-88110000D02*
X135255000Y-89110000D01*
X135255000Y-89110000D02*
X136745000Y-89110000D01*
X136745000Y-86890000D02*
X136745000Y-87890000D01*
X136745000Y-89110000D02*
X136745000Y-89110000D01*
%TO.C,J1*%
X130390000Y-90120000D02*
X130390000Y-91065000D01*
X130390000Y-90120000D02*
X130390000Y-90120000D01*
X130390000Y-90120000D02*
X130390000Y-88630000D01*
X131610000Y-90120000D02*
X132610000Y-90120000D01*
X132610000Y-90120000D02*
X132610000Y-88630000D01*
X130390000Y-88630000D02*
X131390000Y-88630000D01*
X132610000Y-88630000D02*
X132610000Y-88630000D01*
%TD*%
M02*
