%TF.GenerationSoftware,KiCad,Pcbnew,10.0.5*%
%TF.CreationDate,2026-09-11T15:27:19+05:30*%
%TF.ProjectId,lab_exam2,6c61625f-6578-4616-9d32-2e6b69636164,rev?*%
%TF.SameCoordinates,Original*%
%TF.FileFunction,Copper,L1,Top*%
%TF.FilePolarity,Positive*%
%FSLAX46Y46*%
G04 Gerber Fmt 4.6, Leading zero omitted, Abs format (unit mm)*
G04 Created by KiCad (PCBNEW 10.0.5) date 2026-09-11 15:27:19*
%MOMM*%
%LPD*%
G01*
G04 APERTURE LIST*
G04 Aperture macros list*
%AMRoundRect*
0 Rectangle with rounded corners*
0 $1 Rounding radius*
0 $2 $3 $4 $5 $6 $7 $8 $9 X,Y pos of 4 corners*
0 Add a 4 corners polygon primitive as box body*
4,1,4,$2,$3,$4,$5,$6,$7,$8,$9,$2,$3,0*
0 Add four circle primitives for the rounded corners*
1,1,$1+$1,$2,$3*
1,1,$1+$1,$4,$5*
1,1,$1+$1,$6,$7*
1,1,$1+$1,$8,$9*
0 Add four rect primitives between the rounded corners*
20,1,$1+$1,$2,$3,$4,$5,0*
20,1,$1+$1,$4,$5,$6,$7,0*
20,1,$1+$1,$6,$7,$8,$9,0*
20,1,$1+$1,$8,$9,$2,$3,0*%
G04 Aperture macros list end*
%TA.AperFunction,SMDPad,CuDef*%
%ADD10RoundRect,0.135000X-0.135000X-0.185000X0.135000X-0.185000X0.135000X0.185000X-0.135000X0.185000X0*%
%TD*%
%TA.AperFunction,SMDPad,CuDef*%
%ADD11R,1.750000X0.600000*%
%TD*%
%TA.AperFunction,SMDPad,CuDef*%
%ADD12R,0.600000X1.750000*%
%TD*%
%TA.AperFunction,ViaPad*%
%ADD13C,0.600000*%
%TD*%
%TA.AperFunction,Conductor*%
%ADD14C,0.200000*%
%TD*%
G04 APERTURE END LIST*
D10*
%TO.P,R1,1*%
%TO.N,Net-(J1-Pin_1)*%
X134560000Y-93330000D03*
%TO.P,R1,2*%
%TO.N,Net-(D1-A)*%
X135580000Y-93330000D03*
%TD*%
%TO.P,R2,1*%
%TO.N,Net-(D1-A)*%
X131980000Y-93500000D03*
%TO.P,R2,2*%
%TO.N,Net-(D1-K)*%
X133000000Y-93500000D03*
%TD*%
D11*
%TO.P,J2,1,Pin_1_1*%
%TO.N,Net-(D1-K)*%
X135125000Y-87500000D03*
%TO.P,J2,2,Pin_2_2*%
%TO.N,Net-(D1-A)*%
X136875000Y-88500000D03*
%TD*%
D12*
%TO.P,J1,1,Pin_1_1*%
%TO.N,Net-(J1-Pin_1)*%
X131000000Y-90250000D03*
%TO.P,J1,2,Pin_2_2*%
%TO.N,Net-(D1-K)*%
X132000000Y-88500000D03*
%TD*%
D13*
%TO.N,Net-(D1-A)*%
X132400000Y-91500000D03*
%TO.N,Net-(D1-K)*%
X133676903Y-93364567D03*
X134500000Y-86000000D03*
%TO.N,Net-(D1-A)*%
X135500000Y-94000000D03*
X131600000Y-91566178D03*
%TD*%
%TO.N,Net-(D1-A)*%
D14*
X131980000Y-92500000D02*
X131980000Y-93500000D01*
X132400000Y-91500000D02*
X132400000Y-92080000D01*
X132400000Y-92080000D02*
X131980000Y-92500000D01*
%TO.N,Net-(D1-K)*%
X133541470Y-93500000D02*
X133676903Y-93364567D01*
X133000000Y-93500000D02*
X133541470Y-93500000D01*
X135125000Y-86625000D02*
X134500000Y-86000000D01*
X135125000Y-87500000D02*
X135125000Y-86625000D01*
%TO.N,Net-(D1-A)*%
X135580000Y-93330000D02*
X135580000Y-93920000D01*
X135580000Y-93920000D02*
X135500000Y-94000000D01*
X131533822Y-91500000D02*
X131600000Y-91566178D01*
X131500000Y-91500000D02*
X131533822Y-91500000D01*
X131980000Y-91980000D02*
X131500000Y-91500000D01*
X131980000Y-93500000D02*
X131980000Y-91980000D01*
%TO.N,Net-(J1-Pin_1)*%
X133770000Y-94120000D02*
X134560000Y-93330000D01*
X131661076Y-94120000D02*
X133770000Y-94120000D01*
X131000000Y-93458924D02*
X131661076Y-94120000D01*
X131000000Y-90250000D02*
X131000000Y-93458924D01*
%TO.N,Net-(D1-K)*%
X133000000Y-90500000D02*
X133000000Y-93500000D01*
X132000000Y-89500000D02*
X133000000Y-90500000D01*
X132000000Y-88500000D02*
X132000000Y-89500000D01*
X135125000Y-87500000D02*
X133000000Y-87500000D01*
X133000000Y-87500000D02*
X132000000Y-88500000D01*
%TO.N,Net-(D1-A)*%
X136875000Y-92035000D02*
X135580000Y-93330000D01*
X136875000Y-88500000D02*
X136875000Y-92035000D01*
%TD*%
M02*
