%TF.GenerationSoftware,KiCad,Pcbnew,10.0.5*%
%TF.CreationDate,2026-09-11T15:27:19+05:30*%
%TF.ProjectId,lab_exam2,6c61625f-6578-4616-9d32-2e6b69636164,rev?*%
%TF.SameCoordinates,Original*%
%TF.FileFunction,Legend,Bot*%
%TF.FilePolarity,Positive*%
%FSLAX46Y46*%
G04 Gerber Fmt 4.6, Leading zero omitted, Abs format (unit mm)*
G04 Created by KiCad (PCBNEW 10.0.5) date 2026-09-11 15:27:19*
%MOMM*%
%LPD*%
G01*
G04 APERTURE LIST*
%ADD10C,0.150000*%
%ADD11C,0.120000*%
G04 APERTURE END LIST*
D10*
X134658094Y-91609819D02*
X134658094Y-90609819D01*
X134658094Y-90609819D02*
X134419999Y-90609819D01*
X134419999Y-90609819D02*
X134277142Y-90657438D01*
X134277142Y-90657438D02*
X134181904Y-90752676D01*
X134181904Y-90752676D02*
X134134285Y-90847914D01*
X134134285Y-90847914D02*
X134086666Y-91038390D01*
X134086666Y-91038390D02*
X134086666Y-91181247D01*
X134086666Y-91181247D02*
X134134285Y-91371723D01*
X134134285Y-91371723D02*
X134181904Y-91466961D01*
X134181904Y-91466961D02*
X134277142Y-91562200D01*
X134277142Y-91562200D02*
X134419999Y-91609819D01*
X134419999Y-91609819D02*
X134658094Y-91609819D01*
X133705713Y-90705057D02*
X133658094Y-90657438D01*
X133658094Y-90657438D02*
X133562856Y-90609819D01*
X133562856Y-90609819D02*
X133324761Y-90609819D01*
X133324761Y-90609819D02*
X133229523Y-90657438D01*
X133229523Y-90657438D02*
X133181904Y-90705057D01*
X133181904Y-90705057D02*
X133134285Y-90800295D01*
X133134285Y-90800295D02*
X133134285Y-90895533D01*
X133134285Y-90895533D02*
X133181904Y-91038390D01*
X133181904Y-91038390D02*
X133753332Y-91609819D01*
X133753332Y-91609819D02*
X133134285Y-91609819D01*
%TO.C,D2*%
D11*
X138780000Y-91850000D02*
X138780000Y-97520000D01*
X138780000Y-97520000D02*
X129920000Y-97520000D01*
X129920000Y-91850000D02*
X138780000Y-91850000D01*
%TO.C,D1*%
X138780000Y-85060000D02*
X138780000Y-90730000D01*
X138780000Y-90730000D02*
X129920000Y-90730000D01*
X129920000Y-85060000D02*
X138780000Y-85060000D01*
%TD*%
M02*
