%TF.GenerationSoftware,KiCad,Pcbnew,10.0.5*%
%TF.CreationDate,2026-09-11T15:27:20+05:30*%
%TF.ProjectId,lab_exam2,6c61625f-6578-4616-9d32-2e6b69636164,rev?*%
%TF.SameCoordinates,Original*%
%TF.FileFunction,AssemblyDrawing,Top*%
%FSLAX46Y46*%
G04 Gerber Fmt 4.6, Leading zero omitted, Abs format (unit mm)*
G04 Created by KiCad (PCBNEW 10.0.5) date 2026-09-11 15:27:20*
%MOMM*%
%LPD*%
G01*
G04 APERTURE LIST*
%ADD10C,0.150000*%
%ADD11C,0.040000*%
%ADD12C,0.100000*%
G04 APERTURE END LIST*
D10*
X135379523Y-94954819D02*
X135046190Y-94478628D01*
X134808095Y-94954819D02*
X134808095Y-93954819D01*
X134808095Y-93954819D02*
X135189047Y-93954819D01*
X135189047Y-93954819D02*
X135284285Y-94002438D01*
X135284285Y-94002438D02*
X135331904Y-94050057D01*
X135331904Y-94050057D02*
X135379523Y-94145295D01*
X135379523Y-94145295D02*
X135379523Y-94288152D01*
X135379523Y-94288152D02*
X135331904Y-94383390D01*
X135331904Y-94383390D02*
X135284285Y-94431009D01*
X135284285Y-94431009D02*
X135189047Y-94478628D01*
X135189047Y-94478628D02*
X134808095Y-94478628D01*
D11*
X135026667Y-93448200D02*
X134940000Y-93324391D01*
X134878095Y-93448200D02*
X134878095Y-93188200D01*
X134878095Y-93188200D02*
X134977143Y-93188200D01*
X134977143Y-93188200D02*
X135001905Y-93200581D01*
X135001905Y-93200581D02*
X135014286Y-93212962D01*
X135014286Y-93212962D02*
X135026667Y-93237724D01*
X135026667Y-93237724D02*
X135026667Y-93274867D01*
X135026667Y-93274867D02*
X135014286Y-93299629D01*
X135014286Y-93299629D02*
X135001905Y-93312010D01*
X135001905Y-93312010D02*
X134977143Y-93324391D01*
X134977143Y-93324391D02*
X134878095Y-93324391D01*
X135274286Y-93448200D02*
X135125714Y-93448200D01*
X135200000Y-93448200D02*
X135200000Y-93188200D01*
X135200000Y-93188200D02*
X135175238Y-93225343D01*
X135175238Y-93225343D02*
X135150476Y-93250105D01*
X135150476Y-93250105D02*
X135125714Y-93262486D01*
D10*
X132799523Y-95124819D02*
X132466190Y-94648628D01*
X132228095Y-95124819D02*
X132228095Y-94124819D01*
X132228095Y-94124819D02*
X132609047Y-94124819D01*
X132609047Y-94124819D02*
X132704285Y-94172438D01*
X132704285Y-94172438D02*
X132751904Y-94220057D01*
X132751904Y-94220057D02*
X132799523Y-94315295D01*
X132799523Y-94315295D02*
X132799523Y-94458152D01*
X132799523Y-94458152D02*
X132751904Y-94553390D01*
X132751904Y-94553390D02*
X132704285Y-94601009D01*
X132704285Y-94601009D02*
X132609047Y-94648628D01*
X132609047Y-94648628D02*
X132228095Y-94648628D01*
D11*
X132446667Y-93618200D02*
X132360000Y-93494391D01*
X132298095Y-93618200D02*
X132298095Y-93358200D01*
X132298095Y-93358200D02*
X132397143Y-93358200D01*
X132397143Y-93358200D02*
X132421905Y-93370581D01*
X132421905Y-93370581D02*
X132434286Y-93382962D01*
X132434286Y-93382962D02*
X132446667Y-93407724D01*
X132446667Y-93407724D02*
X132446667Y-93444867D01*
X132446667Y-93444867D02*
X132434286Y-93469629D01*
X132434286Y-93469629D02*
X132421905Y-93482010D01*
X132421905Y-93482010D02*
X132397143Y-93494391D01*
X132397143Y-93494391D02*
X132298095Y-93494391D01*
X132545714Y-93382962D02*
X132558095Y-93370581D01*
X132558095Y-93370581D02*
X132582857Y-93358200D01*
X132582857Y-93358200D02*
X132644762Y-93358200D01*
X132644762Y-93358200D02*
X132669524Y-93370581D01*
X132669524Y-93370581D02*
X132681905Y-93382962D01*
X132681905Y-93382962D02*
X132694286Y-93407724D01*
X132694286Y-93407724D02*
X132694286Y-93432486D01*
X132694286Y-93432486D02*
X132681905Y-93469629D01*
X132681905Y-93469629D02*
X132533333Y-93618200D01*
X132533333Y-93618200D02*
X132694286Y-93618200D01*
D10*
X130690475Y-90469580D02*
X130642856Y-90517200D01*
X130642856Y-90517200D02*
X130499999Y-90564819D01*
X130499999Y-90564819D02*
X130404761Y-90564819D01*
X130404761Y-90564819D02*
X130261904Y-90517200D01*
X130261904Y-90517200D02*
X130166666Y-90421961D01*
X130166666Y-90421961D02*
X130119047Y-90326723D01*
X130119047Y-90326723D02*
X130071428Y-90136247D01*
X130071428Y-90136247D02*
X130071428Y-89993390D01*
X130071428Y-89993390D02*
X130119047Y-89802914D01*
X130119047Y-89802914D02*
X130166666Y-89707676D01*
X130166666Y-89707676D02*
X130261904Y-89612438D01*
X130261904Y-89612438D02*
X130404761Y-89564819D01*
X130404761Y-89564819D02*
X130499999Y-89564819D01*
X130499999Y-89564819D02*
X130642856Y-89612438D01*
X130642856Y-89612438D02*
X130690475Y-89660057D01*
X131261904Y-90564819D02*
X131166666Y-90517200D01*
X131166666Y-90517200D02*
X131119047Y-90469580D01*
X131119047Y-90469580D02*
X131071428Y-90374342D01*
X131071428Y-90374342D02*
X131071428Y-90088628D01*
X131071428Y-90088628D02*
X131119047Y-89993390D01*
X131119047Y-89993390D02*
X131166666Y-89945771D01*
X131166666Y-89945771D02*
X131261904Y-89898152D01*
X131261904Y-89898152D02*
X131404761Y-89898152D01*
X131404761Y-89898152D02*
X131499999Y-89945771D01*
X131499999Y-89945771D02*
X131547618Y-89993390D01*
X131547618Y-89993390D02*
X131595237Y-90088628D01*
X131595237Y-90088628D02*
X131595237Y-90374342D01*
X131595237Y-90374342D02*
X131547618Y-90469580D01*
X131547618Y-90469580D02*
X131499999Y-90517200D01*
X131499999Y-90517200D02*
X131404761Y-90564819D01*
X131404761Y-90564819D02*
X131261904Y-90564819D01*
X132023809Y-89898152D02*
X132023809Y-90564819D01*
X132023809Y-89993390D02*
X132071428Y-89945771D01*
X132071428Y-89945771D02*
X132166666Y-89898152D01*
X132166666Y-89898152D02*
X132309523Y-89898152D01*
X132309523Y-89898152D02*
X132404761Y-89945771D01*
X132404761Y-89945771D02*
X132452380Y-90041009D01*
X132452380Y-90041009D02*
X132452380Y-90564819D01*
X132928571Y-89898152D02*
X132928571Y-90564819D01*
X132928571Y-89993390D02*
X132976190Y-89945771D01*
X132976190Y-89945771D02*
X133071428Y-89898152D01*
X133071428Y-89898152D02*
X133214285Y-89898152D01*
X133214285Y-89898152D02*
X133309523Y-89945771D01*
X133309523Y-89945771D02*
X133357142Y-90041009D01*
X133357142Y-90041009D02*
X133357142Y-90564819D01*
X133595238Y-90660057D02*
X134357142Y-90660057D01*
X134785714Y-89564819D02*
X134880952Y-89564819D01*
X134880952Y-89564819D02*
X134976190Y-89612438D01*
X134976190Y-89612438D02*
X135023809Y-89660057D01*
X135023809Y-89660057D02*
X135071428Y-89755295D01*
X135071428Y-89755295D02*
X135119047Y-89945771D01*
X135119047Y-89945771D02*
X135119047Y-90183866D01*
X135119047Y-90183866D02*
X135071428Y-90374342D01*
X135071428Y-90374342D02*
X135023809Y-90469580D01*
X135023809Y-90469580D02*
X134976190Y-90517200D01*
X134976190Y-90517200D02*
X134880952Y-90564819D01*
X134880952Y-90564819D02*
X134785714Y-90564819D01*
X134785714Y-90564819D02*
X134690476Y-90517200D01*
X134690476Y-90517200D02*
X134642857Y-90469580D01*
X134642857Y-90469580D02*
X134595238Y-90374342D01*
X134595238Y-90374342D02*
X134547619Y-90183866D01*
X134547619Y-90183866D02*
X134547619Y-89945771D01*
X134547619Y-89945771D02*
X134595238Y-89755295D01*
X134595238Y-89755295D02*
X134642857Y-89660057D01*
X134642857Y-89660057D02*
X134690476Y-89612438D01*
X134690476Y-89612438D02*
X134785714Y-89564819D01*
X136071428Y-90564819D02*
X135500000Y-90564819D01*
X135785714Y-90564819D02*
X135785714Y-89564819D01*
X135785714Y-89564819D02*
X135690476Y-89707676D01*
X135690476Y-89707676D02*
X135595238Y-89802914D01*
X135595238Y-89802914D02*
X135500000Y-89850533D01*
X136404762Y-90564819D02*
X136928571Y-89898152D01*
X136404762Y-89898152D02*
X136928571Y-90564819D01*
X137500000Y-89564819D02*
X137595238Y-89564819D01*
X137595238Y-89564819D02*
X137690476Y-89612438D01*
X137690476Y-89612438D02*
X137738095Y-89660057D01*
X137738095Y-89660057D02*
X137785714Y-89755295D01*
X137785714Y-89755295D02*
X137833333Y-89945771D01*
X137833333Y-89945771D02*
X137833333Y-90183866D01*
X137833333Y-90183866D02*
X137785714Y-90374342D01*
X137785714Y-90374342D02*
X137738095Y-90469580D01*
X137738095Y-90469580D02*
X137690476Y-90517200D01*
X137690476Y-90517200D02*
X137595238Y-90564819D01*
X137595238Y-90564819D02*
X137500000Y-90564819D01*
X137500000Y-90564819D02*
X137404762Y-90517200D01*
X137404762Y-90517200D02*
X137357143Y-90469580D01*
X137357143Y-90469580D02*
X137309524Y-90374342D01*
X137309524Y-90374342D02*
X137261905Y-90183866D01*
X137261905Y-90183866D02*
X137261905Y-89945771D01*
X137261905Y-89945771D02*
X137309524Y-89755295D01*
X137309524Y-89755295D02*
X137357143Y-89660057D01*
X137357143Y-89660057D02*
X137404762Y-89612438D01*
X137404762Y-89612438D02*
X137500000Y-89564819D01*
X138214286Y-89660057D02*
X138261905Y-89612438D01*
X138261905Y-89612438D02*
X138357143Y-89564819D01*
X138357143Y-89564819D02*
X138595238Y-89564819D01*
X138595238Y-89564819D02*
X138690476Y-89612438D01*
X138690476Y-89612438D02*
X138738095Y-89660057D01*
X138738095Y-89660057D02*
X138785714Y-89755295D01*
X138785714Y-89755295D02*
X138785714Y-89850533D01*
X138785714Y-89850533D02*
X138738095Y-89993390D01*
X138738095Y-89993390D02*
X138166667Y-90564819D01*
X138166667Y-90564819D02*
X138785714Y-90564819D01*
X138976191Y-90660057D02*
X139738095Y-90660057D01*
X139976191Y-90564819D02*
X139976191Y-89564819D01*
X139976191Y-89564819D02*
X140357143Y-89564819D01*
X140357143Y-89564819D02*
X140452381Y-89612438D01*
X140452381Y-89612438D02*
X140500000Y-89660057D01*
X140500000Y-89660057D02*
X140547619Y-89755295D01*
X140547619Y-89755295D02*
X140547619Y-89898152D01*
X140547619Y-89898152D02*
X140500000Y-89993390D01*
X140500000Y-89993390D02*
X140452381Y-90041009D01*
X140452381Y-90041009D02*
X140357143Y-90088628D01*
X140357143Y-90088628D02*
X139976191Y-90088628D01*
X140976191Y-90564819D02*
X140976191Y-89898152D01*
X140976191Y-89564819D02*
X140928572Y-89612438D01*
X140928572Y-89612438D02*
X140976191Y-89660057D01*
X140976191Y-89660057D02*
X141023810Y-89612438D01*
X141023810Y-89612438D02*
X140976191Y-89564819D01*
X140976191Y-89564819D02*
X140976191Y-89660057D01*
X141452381Y-89898152D02*
X141452381Y-90564819D01*
X141452381Y-89993390D02*
X141500000Y-89945771D01*
X141500000Y-89945771D02*
X141595238Y-89898152D01*
X141595238Y-89898152D02*
X141738095Y-89898152D01*
X141738095Y-89898152D02*
X141833333Y-89945771D01*
X141833333Y-89945771D02*
X141880952Y-90041009D01*
X141880952Y-90041009D02*
X141880952Y-90564819D01*
X135454819Y-88333333D02*
X136169104Y-88333333D01*
X136169104Y-88333333D02*
X136311961Y-88380952D01*
X136311961Y-88380952D02*
X136407200Y-88476190D01*
X136407200Y-88476190D02*
X136454819Y-88619047D01*
X136454819Y-88619047D02*
X136454819Y-88714285D01*
X135550057Y-87904761D02*
X135502438Y-87857142D01*
X135502438Y-87857142D02*
X135454819Y-87761904D01*
X135454819Y-87761904D02*
X135454819Y-87523809D01*
X135454819Y-87523809D02*
X135502438Y-87428571D01*
X135502438Y-87428571D02*
X135550057Y-87380952D01*
X135550057Y-87380952D02*
X135645295Y-87333333D01*
X135645295Y-87333333D02*
X135740533Y-87333333D01*
X135740533Y-87333333D02*
X135883390Y-87380952D01*
X135883390Y-87380952D02*
X136454819Y-87952380D01*
X136454819Y-87952380D02*
X136454819Y-87333333D01*
X131166666Y-88829819D02*
X131166666Y-89544104D01*
X131166666Y-89544104D02*
X131119047Y-89686961D01*
X131119047Y-89686961D02*
X131023809Y-89782200D01*
X131023809Y-89782200D02*
X130880952Y-89829819D01*
X130880952Y-89829819D02*
X130785714Y-89829819D01*
X132166666Y-89829819D02*
X131595238Y-89829819D01*
X131880952Y-89829819D02*
X131880952Y-88829819D01*
X131880952Y-88829819D02*
X131785714Y-88972676D01*
X131785714Y-88972676D02*
X131690476Y-89067914D01*
X131690476Y-89067914D02*
X131595238Y-89115533D01*
%TO.C,R1*%
D12*
X134545000Y-93060000D02*
X135595000Y-93060000D01*
X135595000Y-93600000D01*
X134545000Y-93600000D01*
X134545000Y-93060000D01*
%TO.C,R2*%
X131965000Y-93230000D02*
X133015000Y-93230000D01*
X133015000Y-93770000D01*
X131965000Y-93770000D01*
X131965000Y-93230000D01*
%TO.C,J2*%
X134750000Y-87350000D02*
X134750000Y-87650000D01*
X134750000Y-87650000D02*
X135365000Y-87650000D01*
X135365000Y-87350000D02*
X134750000Y-87350000D01*
X135365000Y-87350000D02*
X135715000Y-87000000D01*
X135365000Y-89000000D02*
X135365000Y-87350000D01*
X135715000Y-87000000D02*
X136635000Y-87000000D01*
X136635000Y-87000000D02*
X136635000Y-89000000D01*
X136635000Y-88350000D02*
X137250000Y-88350000D01*
X136635000Y-89000000D02*
X135365000Y-89000000D01*
X137250000Y-88350000D02*
X137250000Y-88650000D01*
X137250000Y-88650000D02*
X136635000Y-88650000D01*
%TO.C,J1*%
X130850000Y-90625000D02*
X131150000Y-90625000D01*
X131150000Y-90625000D02*
X131150000Y-90010000D01*
X130850000Y-90010000D02*
X130850000Y-90625000D01*
X130850000Y-90010000D02*
X130500000Y-89660000D01*
X132500000Y-90010000D02*
X130850000Y-90010000D01*
X130500000Y-89660000D02*
X130500000Y-88740000D01*
X130500000Y-88740000D02*
X132500000Y-88740000D01*
X131850000Y-88740000D02*
X131850000Y-88125000D01*
X132500000Y-88740000D02*
X132500000Y-90010000D01*
X131850000Y-88125000D02*
X132150000Y-88125000D01*
X132150000Y-88125000D02*
X132150000Y-88740000D01*
%TD*%
M02*
