%TF.GenerationSoftware,KiCad,Pcbnew,10.0.5*%
%TF.CreationDate,2026-09-11T15:07:44+05:30*%
%TF.ProjectId,lab_exam,6c61625f-6578-4616-9d2e-6b696361645f,rev?*%
%TF.SameCoordinates,Original*%
%TF.FileFunction,AssemblyDrawing,Top*%
%FSLAX46Y46*%
G04 Gerber Fmt 4.6, Leading zero omitted, Abs format (unit mm)*
G04 Created by KiCad (PCBNEW 10.0.5) date 2026-09-11 15:07:44*
%MOMM*%
%LPD*%
G01*
G04 APERTURE LIST*
%ADD10C,0.150000*%
%ADD11C,0.040000*%
%ADD12C,0.100000*%
G04 APERTURE END LIST*
D10*
X156559523Y-96624819D02*
X156226190Y-96148628D01*
X155988095Y-96624819D02*
X155988095Y-95624819D01*
X155988095Y-95624819D02*
X156369047Y-95624819D01*
X156369047Y-95624819D02*
X156464285Y-95672438D01*
X156464285Y-95672438D02*
X156511904Y-95720057D01*
X156511904Y-95720057D02*
X156559523Y-95815295D01*
X156559523Y-95815295D02*
X156559523Y-95958152D01*
X156559523Y-95958152D02*
X156511904Y-96053390D01*
X156511904Y-96053390D02*
X156464285Y-96101009D01*
X156464285Y-96101009D02*
X156369047Y-96148628D01*
X156369047Y-96148628D02*
X155988095Y-96148628D01*
D11*
X156206667Y-95118200D02*
X156120000Y-94994391D01*
X156058095Y-95118200D02*
X156058095Y-94858200D01*
X156058095Y-94858200D02*
X156157143Y-94858200D01*
X156157143Y-94858200D02*
X156181905Y-94870581D01*
X156181905Y-94870581D02*
X156194286Y-94882962D01*
X156194286Y-94882962D02*
X156206667Y-94907724D01*
X156206667Y-94907724D02*
X156206667Y-94944867D01*
X156206667Y-94944867D02*
X156194286Y-94969629D01*
X156194286Y-94969629D02*
X156181905Y-94982010D01*
X156181905Y-94982010D02*
X156157143Y-94994391D01*
X156157143Y-94994391D02*
X156058095Y-94994391D01*
X156305714Y-94882962D02*
X156318095Y-94870581D01*
X156318095Y-94870581D02*
X156342857Y-94858200D01*
X156342857Y-94858200D02*
X156404762Y-94858200D01*
X156404762Y-94858200D02*
X156429524Y-94870581D01*
X156429524Y-94870581D02*
X156441905Y-94882962D01*
X156441905Y-94882962D02*
X156454286Y-94907724D01*
X156454286Y-94907724D02*
X156454286Y-94932486D01*
X156454286Y-94932486D02*
X156441905Y-94969629D01*
X156441905Y-94969629D02*
X156293333Y-95118200D01*
X156293333Y-95118200D02*
X156454286Y-95118200D01*
D10*
X157059523Y-88124819D02*
X156726190Y-87648628D01*
X156488095Y-88124819D02*
X156488095Y-87124819D01*
X156488095Y-87124819D02*
X156869047Y-87124819D01*
X156869047Y-87124819D02*
X156964285Y-87172438D01*
X156964285Y-87172438D02*
X157011904Y-87220057D01*
X157011904Y-87220057D02*
X157059523Y-87315295D01*
X157059523Y-87315295D02*
X157059523Y-87458152D01*
X157059523Y-87458152D02*
X157011904Y-87553390D01*
X157011904Y-87553390D02*
X156964285Y-87601009D01*
X156964285Y-87601009D02*
X156869047Y-87648628D01*
X156869047Y-87648628D02*
X156488095Y-87648628D01*
D11*
X156706667Y-86618200D02*
X156620000Y-86494391D01*
X156558095Y-86618200D02*
X156558095Y-86358200D01*
X156558095Y-86358200D02*
X156657143Y-86358200D01*
X156657143Y-86358200D02*
X156681905Y-86370581D01*
X156681905Y-86370581D02*
X156694286Y-86382962D01*
X156694286Y-86382962D02*
X156706667Y-86407724D01*
X156706667Y-86407724D02*
X156706667Y-86444867D01*
X156706667Y-86444867D02*
X156694286Y-86469629D01*
X156694286Y-86469629D02*
X156681905Y-86482010D01*
X156681905Y-86482010D02*
X156657143Y-86494391D01*
X156657143Y-86494391D02*
X156558095Y-86494391D01*
X156954286Y-86618200D02*
X156805714Y-86618200D01*
X156880000Y-86618200D02*
X156880000Y-86358200D01*
X156880000Y-86358200D02*
X156855238Y-86395343D01*
X156855238Y-86395343D02*
X156830476Y-86420105D01*
X156830476Y-86420105D02*
X156805714Y-86432486D01*
D10*
X137954819Y-90333333D02*
X138669104Y-90333333D01*
X138669104Y-90333333D02*
X138811961Y-90380952D01*
X138811961Y-90380952D02*
X138907200Y-90476190D01*
X138907200Y-90476190D02*
X138954819Y-90619047D01*
X138954819Y-90619047D02*
X138954819Y-90714285D01*
X138050057Y-89904761D02*
X138002438Y-89857142D01*
X138002438Y-89857142D02*
X137954819Y-89761904D01*
X137954819Y-89761904D02*
X137954819Y-89523809D01*
X137954819Y-89523809D02*
X138002438Y-89428571D01*
X138002438Y-89428571D02*
X138050057Y-89380952D01*
X138050057Y-89380952D02*
X138145295Y-89333333D01*
X138145295Y-89333333D02*
X138240533Y-89333333D01*
X138240533Y-89333333D02*
X138383390Y-89380952D01*
X138383390Y-89380952D02*
X138954819Y-89952380D01*
X138954819Y-89952380D02*
X138954819Y-89333333D01*
X156579819Y-90833333D02*
X157294104Y-90833333D01*
X157294104Y-90833333D02*
X157436961Y-90880952D01*
X157436961Y-90880952D02*
X157532200Y-90976190D01*
X157532200Y-90976190D02*
X157579819Y-91119047D01*
X157579819Y-91119047D02*
X157579819Y-91214285D01*
X157579819Y-89833333D02*
X157579819Y-90404761D01*
X157579819Y-90119047D02*
X156579819Y-90119047D01*
X156579819Y-90119047D02*
X156722676Y-90214285D01*
X156722676Y-90214285D02*
X156817914Y-90309523D01*
X156817914Y-90309523D02*
X156865533Y-90404761D01*
X146571428Y-97484819D02*
X146571428Y-96484819D01*
X146571428Y-96484819D02*
X146809523Y-96484819D01*
X146809523Y-96484819D02*
X146952380Y-96532438D01*
X146952380Y-96532438D02*
X147047618Y-96627676D01*
X147047618Y-96627676D02*
X147095237Y-96722914D01*
X147095237Y-96722914D02*
X147142856Y-96913390D01*
X147142856Y-96913390D02*
X147142856Y-97056247D01*
X147142856Y-97056247D02*
X147095237Y-97246723D01*
X147095237Y-97246723D02*
X147047618Y-97341961D01*
X147047618Y-97341961D02*
X146952380Y-97437200D01*
X146952380Y-97437200D02*
X146809523Y-97484819D01*
X146809523Y-97484819D02*
X146571428Y-97484819D01*
X147333333Y-97580057D02*
X148095237Y-97580057D01*
X148761904Y-96818152D02*
X148761904Y-97484819D01*
X148523809Y-96437200D02*
X148285714Y-97151485D01*
X148285714Y-97151485D02*
X148904761Y-97151485D01*
X149761904Y-96484819D02*
X149285714Y-96484819D01*
X149285714Y-96484819D02*
X149238095Y-96961009D01*
X149238095Y-96961009D02*
X149285714Y-96913390D01*
X149285714Y-96913390D02*
X149380952Y-96865771D01*
X149380952Y-96865771D02*
X149619047Y-96865771D01*
X149619047Y-96865771D02*
X149714285Y-96913390D01*
X149714285Y-96913390D02*
X149761904Y-96961009D01*
X149761904Y-96961009D02*
X149809523Y-97056247D01*
X149809523Y-97056247D02*
X149809523Y-97294342D01*
X149809523Y-97294342D02*
X149761904Y-97389580D01*
X149761904Y-97389580D02*
X149714285Y-97437200D01*
X149714285Y-97437200D02*
X149619047Y-97484819D01*
X149619047Y-97484819D02*
X149380952Y-97484819D01*
X149380952Y-97484819D02*
X149285714Y-97437200D01*
X149285714Y-97437200D02*
X149238095Y-97389580D01*
X150666666Y-97484819D02*
X150666666Y-96484819D01*
X150666666Y-97437200D02*
X150571428Y-97484819D01*
X150571428Y-97484819D02*
X150380952Y-97484819D01*
X150380952Y-97484819D02*
X150285714Y-97437200D01*
X150285714Y-97437200D02*
X150238095Y-97389580D01*
X150238095Y-97389580D02*
X150190476Y-97294342D01*
X150190476Y-97294342D02*
X150190476Y-97008628D01*
X150190476Y-97008628D02*
X150238095Y-96913390D01*
X150238095Y-96913390D02*
X150285714Y-96865771D01*
X150285714Y-96865771D02*
X150380952Y-96818152D01*
X150380952Y-96818152D02*
X150571428Y-96818152D01*
X150571428Y-96818152D02*
X150666666Y-96865771D01*
X151523809Y-97437200D02*
X151428571Y-97484819D01*
X151428571Y-97484819D02*
X151238095Y-97484819D01*
X151238095Y-97484819D02*
X151142857Y-97437200D01*
X151142857Y-97437200D02*
X151095238Y-97341961D01*
X151095238Y-97341961D02*
X151095238Y-96961009D01*
X151095238Y-96961009D02*
X151142857Y-96865771D01*
X151142857Y-96865771D02*
X151238095Y-96818152D01*
X151238095Y-96818152D02*
X151428571Y-96818152D01*
X151428571Y-96818152D02*
X151523809Y-96865771D01*
X151523809Y-96865771D02*
X151571428Y-96961009D01*
X151571428Y-96961009D02*
X151571428Y-97056247D01*
X151571428Y-97056247D02*
X151095238Y-97151485D01*
X152428571Y-96818152D02*
X152428571Y-97627676D01*
X152428571Y-97627676D02*
X152380952Y-97722914D01*
X152380952Y-97722914D02*
X152333333Y-97770533D01*
X152333333Y-97770533D02*
X152238095Y-97818152D01*
X152238095Y-97818152D02*
X152095238Y-97818152D01*
X152095238Y-97818152D02*
X152000000Y-97770533D01*
X152428571Y-97437200D02*
X152333333Y-97484819D01*
X152333333Y-97484819D02*
X152142857Y-97484819D01*
X152142857Y-97484819D02*
X152047619Y-97437200D01*
X152047619Y-97437200D02*
X152000000Y-97389580D01*
X152000000Y-97389580D02*
X151952381Y-97294342D01*
X151952381Y-97294342D02*
X151952381Y-97008628D01*
X151952381Y-97008628D02*
X152000000Y-96913390D01*
X152000000Y-96913390D02*
X152047619Y-96865771D01*
X152047619Y-96865771D02*
X152142857Y-96818152D01*
X152142857Y-96818152D02*
X152333333Y-96818152D01*
X152333333Y-96818152D02*
X152428571Y-96865771D01*
X148761905Y-93954819D02*
X148761905Y-92954819D01*
X148761905Y-92954819D02*
X149000000Y-92954819D01*
X149000000Y-92954819D02*
X149142857Y-93002438D01*
X149142857Y-93002438D02*
X149238095Y-93097676D01*
X149238095Y-93097676D02*
X149285714Y-93192914D01*
X149285714Y-93192914D02*
X149333333Y-93383390D01*
X149333333Y-93383390D02*
X149333333Y-93526247D01*
X149333333Y-93526247D02*
X149285714Y-93716723D01*
X149285714Y-93716723D02*
X149238095Y-93811961D01*
X149238095Y-93811961D02*
X149142857Y-93907200D01*
X149142857Y-93907200D02*
X149000000Y-93954819D01*
X149000000Y-93954819D02*
X148761905Y-93954819D01*
X149714286Y-93050057D02*
X149761905Y-93002438D01*
X149761905Y-93002438D02*
X149857143Y-92954819D01*
X149857143Y-92954819D02*
X150095238Y-92954819D01*
X150095238Y-92954819D02*
X150190476Y-93002438D01*
X150190476Y-93002438D02*
X150238095Y-93050057D01*
X150238095Y-93050057D02*
X150285714Y-93145295D01*
X150285714Y-93145295D02*
X150285714Y-93240533D01*
X150285714Y-93240533D02*
X150238095Y-93383390D01*
X150238095Y-93383390D02*
X149666667Y-93954819D01*
X149666667Y-93954819D02*
X150285714Y-93954819D01*
X149036905Y-86954819D02*
X149036905Y-85954819D01*
X149036905Y-85954819D02*
X149275000Y-85954819D01*
X149275000Y-85954819D02*
X149417857Y-86002438D01*
X149417857Y-86002438D02*
X149513095Y-86097676D01*
X149513095Y-86097676D02*
X149560714Y-86192914D01*
X149560714Y-86192914D02*
X149608333Y-86383390D01*
X149608333Y-86383390D02*
X149608333Y-86526247D01*
X149608333Y-86526247D02*
X149560714Y-86716723D01*
X149560714Y-86716723D02*
X149513095Y-86811961D01*
X149513095Y-86811961D02*
X149417857Y-86907200D01*
X149417857Y-86907200D02*
X149275000Y-86954819D01*
X149275000Y-86954819D02*
X149036905Y-86954819D01*
X150560714Y-86954819D02*
X149989286Y-86954819D01*
X150275000Y-86954819D02*
X150275000Y-85954819D01*
X150275000Y-85954819D02*
X150179762Y-86097676D01*
X150179762Y-86097676D02*
X150084524Y-86192914D01*
X150084524Y-86192914D02*
X149989286Y-86240533D01*
%TO.C,R2*%
D12*
X155725000Y-94730000D02*
X156775000Y-94730000D01*
X156775000Y-95270000D01*
X155725000Y-95270000D01*
X155725000Y-94730000D01*
%TO.C,R1*%
X156225000Y-86230000D02*
X157275000Y-86230000D01*
X157275000Y-86770000D01*
X156225000Y-86770000D01*
X156225000Y-86230000D01*
%TO.C,J2*%
X137250000Y-89350000D02*
X137250000Y-89650000D01*
X137250000Y-89650000D02*
X137865000Y-89650000D01*
X137865000Y-89350000D02*
X137250000Y-89350000D01*
X137865000Y-89350000D02*
X138215000Y-89000000D01*
X137865000Y-91000000D02*
X137865000Y-89350000D01*
X138215000Y-89000000D02*
X139135000Y-89000000D01*
X139135000Y-89000000D02*
X139135000Y-91000000D01*
X139135000Y-90350000D02*
X139750000Y-90350000D01*
X139135000Y-91000000D02*
X137865000Y-91000000D01*
X139750000Y-90350000D02*
X139750000Y-90650000D01*
X139750000Y-90650000D02*
X139135000Y-90650000D01*
%TO.C,J1*%
X155875000Y-89850000D02*
X155875000Y-90150000D01*
X155875000Y-90150000D02*
X156490000Y-90150000D01*
X156490000Y-89850000D02*
X155875000Y-89850000D01*
X156490000Y-89850000D02*
X156840000Y-89500000D01*
X156490000Y-91500000D02*
X156490000Y-89850000D01*
X156840000Y-89500000D02*
X157760000Y-89500000D01*
X157760000Y-89500000D02*
X157760000Y-91500000D01*
X157760000Y-90850000D02*
X158375000Y-90850000D01*
X157760000Y-91500000D02*
X156490000Y-91500000D01*
X158375000Y-90850000D02*
X158375000Y-91150000D01*
X158375000Y-91150000D02*
X157760000Y-91150000D01*
%TO.C,D2*%
X145500000Y-92000000D02*
X145500000Y-96000000D01*
X145500000Y-96000000D02*
X153500000Y-96000000D01*
X146500000Y-91000000D02*
X145500000Y-92000000D01*
X153500000Y-91000000D02*
X146500000Y-91000000D01*
X153500000Y-96000000D02*
X153500000Y-91000000D01*
%TO.C,D1*%
X145775000Y-85000000D02*
X145775000Y-89000000D01*
X145775000Y-89000000D02*
X153775000Y-89000000D01*
X146775000Y-84000000D02*
X145775000Y-85000000D01*
X153775000Y-84000000D02*
X146775000Y-84000000D01*
X153775000Y-89000000D02*
X153775000Y-84000000D01*
%TD*%
M02*
