%TF.GenerationSoftware,KiCad,Pcbnew,10.0.5*%
%TF.CreationDate,2026-09-11T15:07:43+05:30*%
%TF.ProjectId,lab_exam,6c61625f-6578-4616-9d2e-6b696361645f,rev?*%
%TF.SameCoordinates,Original*%
%TF.FileFunction,Copper,L1,Top*%
%TF.FilePolarity,Positive*%
%FSLAX46Y46*%
G04 Gerber Fmt 4.6, Leading zero omitted, Abs format (unit mm)*
G04 Created by KiCad (PCBNEW 10.0.5) date 2026-09-11 15:07:43*
%MOMM*%
%LPD*%
G01*
G04 APERTURE LIST*
G04 Aperture macros list*
%AMRoundRect*
0 Rectangle with rounded corners*
0 $1 Rounding radius*
0 $2 $3 $4 $5 $6 $7 $8 $9 X,Y pos of 4 corners*
0 Add a 4 corners polygon primitive as box body*
4,1,4,$2,$3,$4,$5,$6,$7,$8,$9,$2,$3,0*
0 Add four circle primitives for the rounded corners*
1,1,$1+$1,$2,$3*
1,1,$1+$1,$4,$5*
1,1,$1+$1,$6,$7*
1,1,$1+$1,$8,$9*
0 Add four rect primitives between the rounded corners*
20,1,$1+$1,$2,$3,$4,$5,0*
20,1,$1+$1,$4,$5,$6,$7,0*
20,1,$1+$1,$6,$7,$8,$9,0*
20,1,$1+$1,$8,$9,$2,$3,0*%
G04 Aperture macros list end*
%TA.AperFunction,SMDPad,CuDef*%
%ADD10RoundRect,0.135000X-0.135000X-0.185000X0.135000X-0.185000X0.135000X0.185000X-0.135000X0.185000X0*%
%TD*%
%TA.AperFunction,SMDPad,CuDef*%
%ADD11R,1.750000X0.600000*%
%TD*%
%TA.AperFunction,SMDPad,CuDef*%
%ADD12RoundRect,0.250001X-1.074999X-2.324999X1.074999X-2.324999X1.074999X2.324999X-1.074999X2.324999X0*%
%TD*%
%TA.AperFunction,ViaPad*%
%ADD13C,0.600000*%
%TD*%
%TA.AperFunction,Conductor*%
%ADD14C,0.200000*%
%TD*%
G04 APERTURE END LIST*
D10*
%TO.P,R2,1*%
%TO.N,Net-(D1-A)*%
X155740000Y-95000000D03*
%TO.P,R2,2*%
%TO.N,Net-(J1-Pin_2)*%
X156760000Y-95000000D03*
%TD*%
%TO.P,R1,1*%
%TO.N,Net-(J1-Pin_2)*%
X156240000Y-86500000D03*
%TO.P,R1,2*%
%TO.N,Net-(D3-A)*%
X157260000Y-86500000D03*
%TD*%
D11*
%TO.P,J2,1,Pin_1_1*%
%TO.N,Net-(J2-Pin_1)*%
X137625000Y-89500000D03*
%TO.P,J2,2,Pin_2_2*%
%TO.N,Net-(J2-Pin_2)*%
X139375000Y-90500000D03*
%TD*%
%TO.P,J1,1,Pin_1_1*%
%TO.N,Net-(D3-A)*%
X156250000Y-90000000D03*
%TO.P,J1,2,Pin_2_2*%
%TO.N,Net-(J1-Pin_2)*%
X158000000Y-91000000D03*
%TD*%
D12*
%TO.P,D2,1,K_1*%
%TO.N,Net-(D1-A)*%
X146225000Y-93500000D03*
%TO.P,D2,2,A_2*%
%TO.N,Net-(D2-A)*%
X152775000Y-93500000D03*
%TD*%
%TO.P,D1,1,K_1*%
%TO.N,Net-(D1-K)*%
X146500000Y-86500000D03*
%TO.P,D1,2,A_2*%
%TO.N,Net-(D1-A)*%
X153050000Y-86500000D03*
%TD*%
D13*
%TO.N,Net-(D3-A)*%
X156250000Y-92250000D03*
%TO.N,Net-(D1-K)*%
X144500000Y-88000000D03*
%TO.N,Net-(D1-A)*%
X154762053Y-96546220D03*
X144400000Y-93500000D03*
%TO.N,Net-(D2-A)*%
X150500000Y-94000000D03*
%TO.N,Net-(J1-Pin_2)*%
X159500000Y-88500000D03*
%TO.N,Net-(D3-A)*%
X158500000Y-88000000D03*
%TO.N,Net-(J1-Pin_2)*%
X157000000Y-94500000D03*
%TO.N,Net-(D3-A)*%
X150500000Y-95000000D03*
X155000000Y-94500000D03*
X155000000Y-93500000D03*
%TO.N,Net-(D1-A)*%
X153000000Y-89575000D03*
%TO.N,Net-(J2-Pin_1)*%
X137741050Y-88447017D03*
%TO.N,Net-(J2-Pin_2)*%
X138000000Y-86000000D03*
%TD*%
%TO.N,Net-(D3-A)*%
D14*
X156250000Y-90000000D02*
X156500000Y-90000000D01*
X157070000Y-86930000D02*
X157000000Y-87000000D01*
X157070000Y-86500000D02*
X157070000Y-86930000D01*
%TO.N,Net-(J1-Pin_2)*%
X156430000Y-86930000D02*
X156500000Y-87000000D01*
X156430000Y-86500000D02*
X156430000Y-86930000D01*
%TO.N,Net-(D1-K)*%
X145000000Y-88000000D02*
X144500000Y-88000000D01*
X146500000Y-86500000D02*
X145000000Y-88000000D01*
%TO.N,Net-(D3-A)*%
X150500000Y-95409744D02*
X150500000Y-95000000D01*
X151465256Y-96375000D02*
X150500000Y-95409744D01*
X154400000Y-94000000D02*
X154400000Y-96059744D01*
X154500000Y-94000000D02*
X154400000Y-94000000D01*
X154084744Y-96375000D02*
X151465256Y-96375000D01*
X155000000Y-94500000D02*
X154500000Y-94000000D01*
X154400000Y-96059744D02*
X154084744Y-96375000D01*
%TO.N,Net-(D1-A)*%
X156000000Y-95308273D02*
X154762053Y-96546220D01*
X156000000Y-95000000D02*
X156000000Y-95308273D01*
%TO.N,Net-(D3-A)*%
X157500000Y-87000000D02*
X158500000Y-88000000D01*
X157000000Y-87000000D02*
X157500000Y-87000000D01*
%TO.N,Net-(D1-A)*%
X146225000Y-93500000D02*
X144400000Y-93500000D01*
%TO.N,Net-(D2-A)*%
X151000000Y-93500000D02*
X152775000Y-93500000D01*
X150500000Y-94000000D02*
X151000000Y-93500000D01*
%TO.N,Net-(J1-Pin_2)*%
X158000000Y-90000000D02*
X159500000Y-88500000D01*
X158000000Y-91000000D02*
X158000000Y-90000000D01*
X158000000Y-89975000D02*
X158000000Y-91000000D01*
X156500000Y-88475000D02*
X158000000Y-89975000D01*
X156500000Y-87000000D02*
X156500000Y-88475000D01*
X157000000Y-94500000D02*
X156500000Y-95000000D01*
%TO.N,Net-(D3-A)*%
X156250000Y-92250000D02*
X155000000Y-93500000D01*
%TO.N,Net-(D1-A)*%
X153050000Y-89525000D02*
X153000000Y-89575000D01*
X153050000Y-86500000D02*
X153050000Y-89525000D01*
%TO.N,Net-(J2-Pin_2)*%
X139375000Y-89574998D02*
X139375000Y-90500000D01*
X138800000Y-88999998D02*
X139375000Y-89574998D01*
X138000000Y-87857438D02*
X138341050Y-88198488D01*
X138000000Y-86000000D02*
X138000000Y-87857438D01*
X138341050Y-88198488D02*
X138341050Y-88541048D01*
X138341050Y-88541048D02*
X138700002Y-88900000D01*
%TO.N,Net-(J2-Pin_1)*%
X137794033Y-88500000D02*
X137741050Y-88447017D01*
X137900000Y-88500000D02*
X137794033Y-88500000D01*
X137625000Y-88775000D02*
X137900000Y-88500000D01*
X137625000Y-89500000D02*
X137625000Y-88775000D01*
X137625000Y-89500000D02*
X137500000Y-89500000D01*
%TD*%
M02*
