%TF.GenerationSoftware,KiCad,Pcbnew,10.0.5*%
%TF.CreationDate,2026-09-11T15:07:43+05:30*%
%TF.ProjectId,lab_exam,6c61625f-6578-4616-9d2e-6b696361645f,rev?*%
%TF.SameCoordinates,Original*%
%TF.FileFunction,Copper,L4,Bot*%
%TF.FilePolarity,Positive*%
%FSLAX46Y46*%
G04 Gerber Fmt 4.6, Leading zero omitted, Abs format (unit mm)*
G04 Created by KiCad (PCBNEW 10.0.5) date 2026-09-11 15:07:43*
%MOMM*%
%LPD*%
G01*
G04 APERTURE LIST*
G04 Aperture macros list*
%AMRoundRect*
0 Rectangle with rounded corners*
0 $1 Rounding radius*
0 $2 $3 $4 $5 $6 $7 $8 $9 X,Y pos of 4 corners*
0 Add a 4 corners polygon primitive as box body*
4,1,4,$2,$3,$4,$5,$6,$7,$8,$9,$2,$3,0*
0 Add four circle primitives for the rounded corners*
1,1,$1+$1,$2,$3*
1,1,$1+$1,$4,$5*
1,1,$1+$1,$6,$7*
1,1,$1+$1,$8,$9*
0 Add four rect primitives between the rounded corners*
20,1,$1+$1,$2,$3,$4,$5,0*
20,1,$1+$1,$4,$5,$6,$7,0*
20,1,$1+$1,$6,$7,$8,$9,0*
20,1,$1+$1,$8,$9,$2,$3,0*%
G04 Aperture macros list end*
%TA.AperFunction,SMDPad,CuDef*%
%ADD10RoundRect,0.312500X-0.312500X-0.962500X0.312500X-0.962500X0.312500X0.962500X-0.312500X0.962500X0*%
%TD*%
%TA.AperFunction,SMDPad,CuDef*%
%ADD11RoundRect,0.250001X1.074999X2.324999X-1.074999X2.324999X-1.074999X-2.324999X1.074999X-2.324999X0*%
%TD*%
%TA.AperFunction,SMDPad,CuDef*%
%ADD12R,2.200000X1.600000*%
%TD*%
%TA.AperFunction,ViaPad*%
%ADD13C,0.600000*%
%TD*%
%TA.AperFunction,Conductor*%
%ADD14C,0.200000*%
%TD*%
G04 APERTURE END LIST*
D10*
%TO.P,T1,1,AA_1*%
%TO.N,Net-(J2-Pin_1)*%
X142500000Y-84000000D03*
%TO.P,T1,2,AB_2*%
%TO.N,Net-(J2-Pin_2)*%
X137500000Y-84000000D03*
%TO.P,T1,3,SA_3*%
%TO.N,Net-(D3-A)*%
X137500000Y-96650000D03*
%TO.P,T1,4,SB_4*%
%TO.N,Net-(D1-A)*%
X142500000Y-96650000D03*
%TD*%
D11*
%TO.P,D4,1,K_1*%
%TO.N,Net-(D3-A)*%
X152775000Y-93500000D03*
%TO.P,D4,2,A_2*%
%TO.N,Net-(D2-A)*%
X146225000Y-93500000D03*
%TD*%
%TO.P,D3,1,K_1*%
%TO.N,Net-(D1-K)*%
X153050000Y-86500000D03*
%TO.P,D3,2,A_2*%
%TO.N,Net-(D3-A)*%
X146500000Y-86500000D03*
%TD*%
D12*
%TO.P,C1,1*%
%TO.N,Net-(J1-Pin_2)*%
X159000000Y-90500000D03*
%TO.P,C1,2*%
%TO.N,Net-(D3-A)*%
X156000000Y-90500000D03*
%TD*%
D13*
%TO.N,Net-(D3-A)*%
X156250000Y-92250000D03*
%TO.N,Net-(D1-K)*%
X144500000Y-88000000D03*
%TO.N,Net-(D1-A)*%
X154762053Y-96546220D03*
X144400000Y-93500000D03*
%TO.N,Net-(D2-A)*%
X150500000Y-94000000D03*
%TO.N,Net-(J1-Pin_2)*%
X159500000Y-88500000D03*
%TO.N,Net-(D3-A)*%
X158500000Y-88000000D03*
%TO.N,Net-(J1-Pin_2)*%
X157000000Y-94500000D03*
%TO.N,Net-(D3-A)*%
X150500000Y-95000000D03*
X155000000Y-94500000D03*
X155000000Y-93500000D03*
%TO.N,Net-(D1-A)*%
X153000000Y-89575000D03*
%TO.N,Net-(D1-K)*%
X142000000Y-94500000D03*
%TO.N,Net-(D3-A)*%
X143500000Y-87000000D03*
X137500000Y-93000000D03*
%TO.N,Net-(D1-K)*%
X143500000Y-88000000D03*
%TO.N,Net-(J2-Pin_1)*%
X137741050Y-88447017D03*
%TO.N,Net-(J2-Pin_2)*%
X138000000Y-86000000D03*
%TD*%
%TO.N,Net-(D3-A)*%
D14*
X156375735Y-89199265D02*
X156375735Y-90124265D01*
X156000000Y-92000000D02*
X156250000Y-92250000D01*
X156000000Y-90500000D02*
X156000000Y-92000000D01*
X156375735Y-89199265D02*
X157575000Y-88000000D01*
X157575000Y-88000000D02*
X158500000Y-88000000D01*
%TO.N,Net-(D1-K)*%
X144500000Y-89000000D02*
X144875000Y-89375000D01*
X144500000Y-88000000D02*
X144500000Y-89000000D01*
%TO.N,Net-(D3-A)*%
X155000000Y-93500000D02*
X155000000Y-94500000D01*
%TO.N,Net-(D1-A)*%
X154762053Y-96362053D02*
X154400000Y-96000000D01*
X154762053Y-96546220D02*
X154762053Y-96362053D01*
X154400000Y-96000000D02*
X154400000Y-89900000D01*
X144400000Y-94750000D02*
X144400000Y-93500000D01*
X142500000Y-96650000D02*
X144400000Y-94750000D01*
%TO.N,Net-(D2-A)*%
X146225000Y-93500000D02*
X145000000Y-93500000D01*
X150000000Y-93500000D02*
X150500000Y-94000000D01*
X146225000Y-93500000D02*
X150000000Y-93500000D01*
%TO.N,Net-(J1-Pin_2)*%
X159000000Y-89000000D02*
X159000000Y-90500000D01*
X159500000Y-88500000D02*
X159000000Y-89000000D01*
%TO.N,Net-(D3-A)*%
X156000000Y-90500000D02*
X156000000Y-90000000D01*
%TO.N,Net-(J1-Pin_2)*%
X159000000Y-92500000D02*
X157000000Y-94500000D01*
X159000000Y-90500000D02*
X159000000Y-92500000D01*
%TO.N,Net-(D3-A)*%
X151275000Y-95000000D02*
X150500000Y-95000000D01*
X152775000Y-93500000D02*
X151275000Y-95000000D01*
%TO.N,Net-(D1-A)*%
X153875000Y-89375000D02*
X153000000Y-89375000D01*
X154400000Y-89900000D02*
X153875000Y-89375000D01*
X153809744Y-96650000D02*
X154400000Y-96059744D01*
X154400000Y-96059744D02*
X154400000Y-96000000D01*
X142500000Y-96650000D02*
X153809744Y-96650000D01*
%TO.N,Net-(D3-A)*%
X142900000Y-88248529D02*
X145276471Y-90625000D01*
X149900000Y-90625000D02*
X152775000Y-93500000D01*
X142900000Y-87751471D02*
X142900000Y-88248529D01*
X144151471Y-86500000D02*
X142900000Y-87751471D01*
X145276471Y-90625000D02*
X149900000Y-90625000D01*
X146500000Y-86500000D02*
X144151471Y-86500000D01*
X144000000Y-86500000D02*
X146500000Y-86500000D01*
X143500000Y-87000000D02*
X144000000Y-86500000D01*
%TO.N,Net-(D1-K)*%
X150175000Y-89375000D02*
X153050000Y-86500000D01*
X143500000Y-88000000D02*
X144875000Y-89375000D01*
X144875000Y-89375000D02*
X150175000Y-89375000D01*
%TO.N,Net-(J2-Pin_2)*%
X137500000Y-85500000D02*
X138000000Y-86000000D01*
X137500000Y-84000000D02*
X137500000Y-85500000D01*
%TO.N,Net-(J2-Pin_1)*%
X142188067Y-84000000D02*
X137741050Y-88447017D01*
X142500000Y-84000000D02*
X142188067Y-84000000D01*
%TO.N,Net-(D1-A)*%
X142500000Y-96650000D02*
X142500000Y-96500000D01*
%TO.N,Net-(D3-A)*%
X137500000Y-96650000D02*
X137500000Y-93000000D01*
%TD*%
M02*
