%TF.GenerationSoftware,KiCad,Pcbnew,10.0.5*%
%TF.CreationDate,2026-09-11T15:07:44+05:30*%
%TF.ProjectId,lab_exam,6c61625f-6578-4616-9d2e-6b696361645f,rev?*%
%TF.SameCoordinates,Original*%
%TF.FileFunction,AssemblyDrawing,Bot*%
%FSLAX46Y46*%
G04 Gerber Fmt 4.6, Leading zero omitted, Abs format (unit mm)*
G04 Created by KiCad (PCBNEW 10.0.5) date 2026-09-11 15:07:44*
%MOMM*%
%LPD*%
G01*
G04 APERTURE LIST*
%ADD10C,0.150000*%
%ADD11C,0.090000*%
%ADD12C,0.100000*%
G04 APERTURE END LIST*
D10*
X140545180Y-91086904D02*
X140545180Y-90515476D01*
X139545180Y-90801190D02*
X140545180Y-90801190D01*
X139545180Y-89658333D02*
X139545180Y-90229761D01*
X139545180Y-89944047D02*
X140545180Y-89944047D01*
X140545180Y-89944047D02*
X140402323Y-90039285D01*
X140402323Y-90039285D02*
X140307085Y-90134523D01*
X140307085Y-90134523D02*
X140259466Y-90229761D01*
X152428571Y-97484819D02*
X152428571Y-96484819D01*
X152428571Y-96484819D02*
X152190476Y-96484819D01*
X152190476Y-96484819D02*
X152047619Y-96532438D01*
X152047619Y-96532438D02*
X151952381Y-96627676D01*
X151952381Y-96627676D02*
X151904762Y-96722914D01*
X151904762Y-96722914D02*
X151857143Y-96913390D01*
X151857143Y-96913390D02*
X151857143Y-97056247D01*
X151857143Y-97056247D02*
X151904762Y-97246723D01*
X151904762Y-97246723D02*
X151952381Y-97341961D01*
X151952381Y-97341961D02*
X152047619Y-97437200D01*
X152047619Y-97437200D02*
X152190476Y-97484819D01*
X152190476Y-97484819D02*
X152428571Y-97484819D01*
X151666667Y-97580057D02*
X150904762Y-97580057D01*
X150238095Y-96818152D02*
X150238095Y-97484819D01*
X150476190Y-96437200D02*
X150714285Y-97151485D01*
X150714285Y-97151485D02*
X150095238Y-97151485D01*
X149238095Y-96484819D02*
X149714285Y-96484819D01*
X149714285Y-96484819D02*
X149761904Y-96961009D01*
X149761904Y-96961009D02*
X149714285Y-96913390D01*
X149714285Y-96913390D02*
X149619047Y-96865771D01*
X149619047Y-96865771D02*
X149380952Y-96865771D01*
X149380952Y-96865771D02*
X149285714Y-96913390D01*
X149285714Y-96913390D02*
X149238095Y-96961009D01*
X149238095Y-96961009D02*
X149190476Y-97056247D01*
X149190476Y-97056247D02*
X149190476Y-97294342D01*
X149190476Y-97294342D02*
X149238095Y-97389580D01*
X149238095Y-97389580D02*
X149285714Y-97437200D01*
X149285714Y-97437200D02*
X149380952Y-97484819D01*
X149380952Y-97484819D02*
X149619047Y-97484819D01*
X149619047Y-97484819D02*
X149714285Y-97437200D01*
X149714285Y-97437200D02*
X149761904Y-97389580D01*
X148333333Y-97484819D02*
X148333333Y-96484819D01*
X148333333Y-97437200D02*
X148428571Y-97484819D01*
X148428571Y-97484819D02*
X148619047Y-97484819D01*
X148619047Y-97484819D02*
X148714285Y-97437200D01*
X148714285Y-97437200D02*
X148761904Y-97389580D01*
X148761904Y-97389580D02*
X148809523Y-97294342D01*
X148809523Y-97294342D02*
X148809523Y-97008628D01*
X148809523Y-97008628D02*
X148761904Y-96913390D01*
X148761904Y-96913390D02*
X148714285Y-96865771D01*
X148714285Y-96865771D02*
X148619047Y-96818152D01*
X148619047Y-96818152D02*
X148428571Y-96818152D01*
X148428571Y-96818152D02*
X148333333Y-96865771D01*
X147476190Y-97437200D02*
X147571428Y-97484819D01*
X147571428Y-97484819D02*
X147761904Y-97484819D01*
X147761904Y-97484819D02*
X147857142Y-97437200D01*
X147857142Y-97437200D02*
X147904761Y-97341961D01*
X147904761Y-97341961D02*
X147904761Y-96961009D01*
X147904761Y-96961009D02*
X147857142Y-96865771D01*
X147857142Y-96865771D02*
X147761904Y-96818152D01*
X147761904Y-96818152D02*
X147571428Y-96818152D01*
X147571428Y-96818152D02*
X147476190Y-96865771D01*
X147476190Y-96865771D02*
X147428571Y-96961009D01*
X147428571Y-96961009D02*
X147428571Y-97056247D01*
X147428571Y-97056247D02*
X147904761Y-97151485D01*
X146571428Y-96818152D02*
X146571428Y-97627676D01*
X146571428Y-97627676D02*
X146619047Y-97722914D01*
X146619047Y-97722914D02*
X146666666Y-97770533D01*
X146666666Y-97770533D02*
X146761904Y-97818152D01*
X146761904Y-97818152D02*
X146904761Y-97818152D01*
X146904761Y-97818152D02*
X146999999Y-97770533D01*
X146571428Y-97437200D02*
X146666666Y-97484819D01*
X146666666Y-97484819D02*
X146857142Y-97484819D01*
X146857142Y-97484819D02*
X146952380Y-97437200D01*
X146952380Y-97437200D02*
X146999999Y-97389580D01*
X146999999Y-97389580D02*
X147047618Y-97294342D01*
X147047618Y-97294342D02*
X147047618Y-97008628D01*
X147047618Y-97008628D02*
X146999999Y-96913390D01*
X146999999Y-96913390D02*
X146952380Y-96865771D01*
X146952380Y-96865771D02*
X146857142Y-96818152D01*
X146857142Y-96818152D02*
X146666666Y-96818152D01*
X146666666Y-96818152D02*
X146571428Y-96865771D01*
X150238094Y-93954819D02*
X150238094Y-92954819D01*
X150238094Y-92954819D02*
X149999999Y-92954819D01*
X149999999Y-92954819D02*
X149857142Y-93002438D01*
X149857142Y-93002438D02*
X149761904Y-93097676D01*
X149761904Y-93097676D02*
X149714285Y-93192914D01*
X149714285Y-93192914D02*
X149666666Y-93383390D01*
X149666666Y-93383390D02*
X149666666Y-93526247D01*
X149666666Y-93526247D02*
X149714285Y-93716723D01*
X149714285Y-93716723D02*
X149761904Y-93811961D01*
X149761904Y-93811961D02*
X149857142Y-93907200D01*
X149857142Y-93907200D02*
X149999999Y-93954819D01*
X149999999Y-93954819D02*
X150238094Y-93954819D01*
X148809523Y-93288152D02*
X148809523Y-93954819D01*
X149047618Y-92907200D02*
X149285713Y-93621485D01*
X149285713Y-93621485D02*
X148666666Y-93621485D01*
X150513094Y-86954819D02*
X150513094Y-85954819D01*
X150513094Y-85954819D02*
X150274999Y-85954819D01*
X150274999Y-85954819D02*
X150132142Y-86002438D01*
X150132142Y-86002438D02*
X150036904Y-86097676D01*
X150036904Y-86097676D02*
X149989285Y-86192914D01*
X149989285Y-86192914D02*
X149941666Y-86383390D01*
X149941666Y-86383390D02*
X149941666Y-86526247D01*
X149941666Y-86526247D02*
X149989285Y-86716723D01*
X149989285Y-86716723D02*
X150036904Y-86811961D01*
X150036904Y-86811961D02*
X150132142Y-86907200D01*
X150132142Y-86907200D02*
X150274999Y-86954819D01*
X150274999Y-86954819D02*
X150513094Y-86954819D01*
X149608332Y-85954819D02*
X148989285Y-85954819D01*
X148989285Y-85954819D02*
X149322618Y-86335771D01*
X149322618Y-86335771D02*
X149179761Y-86335771D01*
X149179761Y-86335771D02*
X149084523Y-86383390D01*
X149084523Y-86383390D02*
X149036904Y-86431009D01*
X149036904Y-86431009D02*
X148989285Y-86526247D01*
X148989285Y-86526247D02*
X148989285Y-86764342D01*
X148989285Y-86764342D02*
X149036904Y-86859580D01*
X149036904Y-86859580D02*
X149084523Y-86907200D01*
X149084523Y-86907200D02*
X149179761Y-86954819D01*
X149179761Y-86954819D02*
X149465475Y-86954819D01*
X149465475Y-86954819D02*
X149560713Y-86907200D01*
X149560713Y-86907200D02*
X149608332Y-86859580D01*
X157190476Y-93559580D02*
X157238095Y-93607200D01*
X157238095Y-93607200D02*
X157380952Y-93654819D01*
X157380952Y-93654819D02*
X157476190Y-93654819D01*
X157476190Y-93654819D02*
X157619047Y-93607200D01*
X157619047Y-93607200D02*
X157714285Y-93511961D01*
X157714285Y-93511961D02*
X157761904Y-93416723D01*
X157761904Y-93416723D02*
X157809523Y-93226247D01*
X157809523Y-93226247D02*
X157809523Y-93083390D01*
X157809523Y-93083390D02*
X157761904Y-92892914D01*
X157761904Y-92892914D02*
X157714285Y-92797676D01*
X157714285Y-92797676D02*
X157619047Y-92702438D01*
X157619047Y-92702438D02*
X157476190Y-92654819D01*
X157476190Y-92654819D02*
X157380952Y-92654819D01*
X157380952Y-92654819D02*
X157238095Y-92702438D01*
X157238095Y-92702438D02*
X157190476Y-92750057D01*
D11*
X158099999Y-90715748D02*
X158128571Y-90744320D01*
X158128571Y-90744320D02*
X158214285Y-90772891D01*
X158214285Y-90772891D02*
X158271428Y-90772891D01*
X158271428Y-90772891D02*
X158357142Y-90744320D01*
X158357142Y-90744320D02*
X158414285Y-90687177D01*
X158414285Y-90687177D02*
X158442856Y-90630034D01*
X158442856Y-90630034D02*
X158471428Y-90515748D01*
X158471428Y-90515748D02*
X158471428Y-90430034D01*
X158471428Y-90430034D02*
X158442856Y-90315748D01*
X158442856Y-90315748D02*
X158414285Y-90258605D01*
X158414285Y-90258605D02*
X158357142Y-90201462D01*
X158357142Y-90201462D02*
X158271428Y-90172891D01*
X158271428Y-90172891D02*
X158214285Y-90172891D01*
X158214285Y-90172891D02*
X158128571Y-90201462D01*
X158128571Y-90201462D02*
X158099999Y-90230034D01*
X157528571Y-90772891D02*
X157871428Y-90772891D01*
X157699999Y-90772891D02*
X157699999Y-90172891D01*
X157699999Y-90172891D02*
X157757142Y-90258605D01*
X157757142Y-90258605D02*
X157814285Y-90315748D01*
X157814285Y-90315748D02*
X157871428Y-90344320D01*
%TO.C,T1*%
D12*
X144000000Y-86075000D02*
X143000000Y-85075000D01*
X144000000Y-95575000D02*
X144000000Y-86075000D01*
X142286000Y-86775000D02*
X142286000Y-95575000D01*
X142286000Y-94125000D02*
X137716000Y-94125000D01*
X137714000Y-86775000D02*
X142286000Y-86775000D01*
X137714000Y-86775000D02*
X137714000Y-95575000D01*
X136750000Y-85075000D02*
X143000000Y-85075000D01*
X136000000Y-85075000D02*
X136750000Y-85075000D01*
X136000000Y-95575000D02*
X144000000Y-95575000D01*
X136000000Y-95575000D02*
X136000000Y-85075000D01*
X139109000Y-94125000D02*
X140891000Y-94125000D01*
X140891000Y-95575000D01*
X139109000Y-95575000D01*
X139109000Y-94125000D01*
G36*
X139109000Y-94125000D02*
G01*
X140891000Y-94125000D01*
X140891000Y-95575000D01*
X139109000Y-95575000D01*
X139109000Y-94125000D01*
G37*
X139750000Y-86275000D02*
X140250000Y-86275000D01*
X140250000Y-86775000D01*
X139750000Y-86775000D01*
X139750000Y-86275000D01*
G36*
X139750000Y-86275000D02*
G01*
X140250000Y-86275000D01*
X140250000Y-86775000D01*
X139750000Y-86775000D01*
X139750000Y-86275000D01*
G37*
%TO.C,D4*%
X153500000Y-92000000D02*
X153500000Y-96000000D01*
X153500000Y-96000000D02*
X145500000Y-96000000D01*
X152500000Y-91000000D02*
X153500000Y-92000000D01*
X145500000Y-91000000D02*
X152500000Y-91000000D01*
X145500000Y-96000000D02*
X145500000Y-91000000D01*
%TO.C,D3*%
X153775000Y-85000000D02*
X153775000Y-89000000D01*
X153775000Y-89000000D02*
X145775000Y-89000000D01*
X152775000Y-84000000D02*
X153775000Y-85000000D01*
X145775000Y-84000000D02*
X152775000Y-84000000D01*
X145775000Y-89000000D02*
X145775000Y-84000000D01*
%TO.C,C1*%
X159150000Y-89675000D02*
X159150000Y-91325000D01*
X159150000Y-89675000D02*
X158325000Y-88850000D01*
X159150000Y-91325000D02*
X158325000Y-92150000D01*
X158610469Y-89700000D02*
X158310469Y-89700000D01*
X158460469Y-89550000D02*
X158460469Y-89850000D01*
X158325000Y-88850000D02*
X155850000Y-88850000D01*
X158325000Y-92150000D02*
X155850000Y-92150000D01*
X155850000Y-88850000D02*
X155850000Y-92150000D01*
X159000000Y-90500000D02*
G75*
G02*
X156000000Y-90500000I-1500000J0D01*
G01*
X156000000Y-90500000D02*
G75*
G02*
X159000000Y-90500000I1500000J0D01*
G01*
%TD*%
M02*
