%TF.GenerationSoftware,KiCad,Pcbnew,10.0.5*%
%TF.CreationDate,2026-09-11T15:07:43+05:30*%
%TF.ProjectId,lab_exam,6c61625f-6578-4616-9d2e-6b696361645f,rev?*%
%TF.SameCoordinates,Original*%
%TF.FileFunction,Legend,Top*%
%TF.FilePolarity,Positive*%
%FSLAX46Y46*%
G04 Gerber Fmt 4.6, Leading zero omitted, Abs format (unit mm)*
G04 Created by KiCad (PCBNEW 10.0.5) date 2026-09-11 15:07:43*
%MOMM*%
%LPD*%
G01*
G04 APERTURE LIST*
%ADD10C,0.150000*%
%ADD11C,0.120000*%
G04 APERTURE END LIST*
D10*
X156083333Y-94284819D02*
X155750000Y-93808628D01*
X155511905Y-94284819D02*
X155511905Y-93284819D01*
X155511905Y-93284819D02*
X155892857Y-93284819D01*
X155892857Y-93284819D02*
X155988095Y-93332438D01*
X155988095Y-93332438D02*
X156035714Y-93380057D01*
X156035714Y-93380057D02*
X156083333Y-93475295D01*
X156083333Y-93475295D02*
X156083333Y-93618152D01*
X156083333Y-93618152D02*
X156035714Y-93713390D01*
X156035714Y-93713390D02*
X155988095Y-93761009D01*
X155988095Y-93761009D02*
X155892857Y-93808628D01*
X155892857Y-93808628D02*
X155511905Y-93808628D01*
X156464286Y-93380057D02*
X156511905Y-93332438D01*
X156511905Y-93332438D02*
X156607143Y-93284819D01*
X156607143Y-93284819D02*
X156845238Y-93284819D01*
X156845238Y-93284819D02*
X156940476Y-93332438D01*
X156940476Y-93332438D02*
X156988095Y-93380057D01*
X156988095Y-93380057D02*
X157035714Y-93475295D01*
X157035714Y-93475295D02*
X157035714Y-93570533D01*
X157035714Y-93570533D02*
X156988095Y-93713390D01*
X156988095Y-93713390D02*
X156416667Y-94284819D01*
X156416667Y-94284819D02*
X157035714Y-94284819D01*
X156583333Y-85784819D02*
X156250000Y-85308628D01*
X156011905Y-85784819D02*
X156011905Y-84784819D01*
X156011905Y-84784819D02*
X156392857Y-84784819D01*
X156392857Y-84784819D02*
X156488095Y-84832438D01*
X156488095Y-84832438D02*
X156535714Y-84880057D01*
X156535714Y-84880057D02*
X156583333Y-84975295D01*
X156583333Y-84975295D02*
X156583333Y-85118152D01*
X156583333Y-85118152D02*
X156535714Y-85213390D01*
X156535714Y-85213390D02*
X156488095Y-85261009D01*
X156488095Y-85261009D02*
X156392857Y-85308628D01*
X156392857Y-85308628D02*
X156011905Y-85308628D01*
X157535714Y-85784819D02*
X156964286Y-85784819D01*
X157250000Y-85784819D02*
X157250000Y-84784819D01*
X157250000Y-84784819D02*
X157154762Y-84927676D01*
X157154762Y-84927676D02*
X157059524Y-85022914D01*
X157059524Y-85022914D02*
X156964286Y-85070533D01*
X138166666Y-87344819D02*
X138166666Y-88059104D01*
X138166666Y-88059104D02*
X138119047Y-88201961D01*
X138119047Y-88201961D02*
X138023809Y-88297200D01*
X138023809Y-88297200D02*
X137880952Y-88344819D01*
X137880952Y-88344819D02*
X137785714Y-88344819D01*
X138595238Y-87440057D02*
X138642857Y-87392438D01*
X138642857Y-87392438D02*
X138738095Y-87344819D01*
X138738095Y-87344819D02*
X138976190Y-87344819D01*
X138976190Y-87344819D02*
X139071428Y-87392438D01*
X139071428Y-87392438D02*
X139119047Y-87440057D01*
X139119047Y-87440057D02*
X139166666Y-87535295D01*
X139166666Y-87535295D02*
X139166666Y-87630533D01*
X139166666Y-87630533D02*
X139119047Y-87773390D01*
X139119047Y-87773390D02*
X138547619Y-88344819D01*
X138547619Y-88344819D02*
X139166666Y-88344819D01*
%TO.C,R2*%
D11*
X156096359Y-94620000D02*
X156403641Y-94620000D01*
X156096359Y-95380000D02*
X156403641Y-95380000D01*
%TO.C,R1*%
X156596359Y-86120000D02*
X156903641Y-86120000D01*
X156596359Y-86880000D02*
X156903641Y-86880000D01*
%TO.C,J2*%
X137755000Y-88890000D02*
X136810000Y-88890000D01*
X137755000Y-88890000D02*
X137755000Y-88890000D01*
X137755000Y-88890000D02*
X139245000Y-88890000D01*
X137755000Y-90110000D02*
X137755000Y-91110000D01*
X137755000Y-91110000D02*
X139245000Y-91110000D01*
X139245000Y-88890000D02*
X139245000Y-89890000D01*
X139245000Y-91110000D02*
X139245000Y-91110000D01*
%TO.C,J1*%
X156380000Y-89390000D02*
X155435000Y-89390000D01*
X156380000Y-89390000D02*
X156380000Y-89390000D01*
X156380000Y-89390000D02*
X157870000Y-89390000D01*
X156380000Y-90610000D02*
X156380000Y-91610000D01*
X156380000Y-91610000D02*
X157870000Y-91610000D01*
X157870000Y-89390000D02*
X157870000Y-90390000D01*
X157870000Y-91610000D02*
X157870000Y-91610000D01*
%TO.C,D2*%
X144640000Y-90665000D02*
X144640000Y-96335000D01*
X144640000Y-96335000D02*
X153500000Y-96335000D01*
X153500000Y-90665000D02*
X144640000Y-90665000D01*
%TO.C,D1*%
X144915000Y-83665000D02*
X144915000Y-89335000D01*
X144915000Y-89335000D02*
X153775000Y-89335000D01*
X153775000Y-83665000D02*
X144915000Y-83665000D01*
%TD*%
M02*
