%TF.GenerationSoftware,KiCad,Pcbnew,10.0.5*%
%TF.CreationDate,2026-09-09T21:50:50+05:30*%
%TF.ProjectId,positive_clamper,706f7369-7469-4766-955f-636c616d7065,rev?*%
%TF.SameCoordinates,Original*%
%TF.FileFunction,AssemblyDrawing,Top*%
%FSLAX46Y46*%
G04 Gerber Fmt 4.6, Leading zero omitted, Abs format (unit mm)*
G04 Created by KiCad (PCBNEW 10.0.5) date 2026-09-09 21:50:50*
%MOMM*%
%LPD*%
G01*
G04 APERTURE LIST*
%ADD10C,0.060000*%
%ADD11C,0.150000*%
%ADD12C,0.100000*%
G04 APERTURE END LIST*
D10*
X159020833Y-96181927D02*
X158887500Y-95991451D01*
X158792262Y-96181927D02*
X158792262Y-95781927D01*
X158792262Y-95781927D02*
X158944643Y-95781927D01*
X158944643Y-95781927D02*
X158982738Y-95800975D01*
X158982738Y-95800975D02*
X159001785Y-95820022D01*
X159001785Y-95820022D02*
X159020833Y-95858118D01*
X159020833Y-95858118D02*
X159020833Y-95915260D01*
X159020833Y-95915260D02*
X159001785Y-95953356D01*
X159001785Y-95953356D02*
X158982738Y-95972403D01*
X158982738Y-95972403D02*
X158944643Y-95991451D01*
X158944643Y-95991451D02*
X158792262Y-95991451D01*
X159401785Y-96181927D02*
X159173214Y-96181927D01*
X159287500Y-96181927D02*
X159287500Y-95781927D01*
X159287500Y-95781927D02*
X159249404Y-95839070D01*
X159249404Y-95839070D02*
X159211309Y-95877165D01*
X159211309Y-95877165D02*
X159173214Y-95896213D01*
D11*
X170904819Y-93238333D02*
X171619104Y-93238333D01*
X171619104Y-93238333D02*
X171761961Y-93285952D01*
X171761961Y-93285952D02*
X171857200Y-93381190D01*
X171857200Y-93381190D02*
X171904819Y-93524047D01*
X171904819Y-93524047D02*
X171904819Y-93619285D01*
X171000057Y-92809761D02*
X170952438Y-92762142D01*
X170952438Y-92762142D02*
X170904819Y-92666904D01*
X170904819Y-92666904D02*
X170904819Y-92428809D01*
X170904819Y-92428809D02*
X170952438Y-92333571D01*
X170952438Y-92333571D02*
X171000057Y-92285952D01*
X171000057Y-92285952D02*
X171095295Y-92238333D01*
X171095295Y-92238333D02*
X171190533Y-92238333D01*
X171190533Y-92238333D02*
X171333390Y-92285952D01*
X171333390Y-92285952D02*
X171904819Y-92857380D01*
X171904819Y-92857380D02*
X171904819Y-92238333D01*
X148929819Y-92963333D02*
X149644104Y-92963333D01*
X149644104Y-92963333D02*
X149786961Y-93010952D01*
X149786961Y-93010952D02*
X149882200Y-93106190D01*
X149882200Y-93106190D02*
X149929819Y-93249047D01*
X149929819Y-93249047D02*
X149929819Y-93344285D01*
X149929819Y-91963333D02*
X149929819Y-92534761D01*
X149929819Y-92249047D02*
X148929819Y-92249047D01*
X148929819Y-92249047D02*
X149072676Y-92344285D01*
X149072676Y-92344285D02*
X149167914Y-92439523D01*
X149167914Y-92439523D02*
X149215533Y-92534761D01*
%TO.C,V1*%
D12*
X157960000Y-90410000D02*
X157960000Y-91050000D01*
X157960000Y-91050000D02*
X159230000Y-91050000D01*
X159230000Y-90410000D02*
X157960000Y-90410000D01*
X159230000Y-90410000D02*
X160180000Y-89460000D01*
X159230000Y-94540000D02*
X159230000Y-90410000D01*
X160180000Y-89460000D02*
X161770000Y-89460000D01*
X161770000Y-89460000D02*
X161770000Y-94540000D01*
X161770000Y-92950000D02*
X163040000Y-92950000D01*
X161770000Y-94540000D02*
X159230000Y-94540000D01*
X163040000Y-92950000D02*
X163040000Y-93590000D01*
X163040000Y-93590000D02*
X161770000Y-93590000D01*
%TO.C,R1*%
X158287500Y-95587500D02*
X159887500Y-95587500D01*
X159887500Y-96412500D01*
X158287500Y-96412500D01*
X158287500Y-95587500D01*
%TO.C,J2*%
X164800000Y-96710000D02*
X164800000Y-89100000D01*
X170275000Y-96710000D02*
X164800000Y-96710000D01*
X172100000Y-94885000D02*
X170275000Y-96710000D01*
X167362000Y-93855000D02*
X169455000Y-95948000D01*
X167545000Y-93672000D02*
X169638000Y-95765000D01*
X167362000Y-90045000D02*
X169455000Y-92138000D01*
X167545000Y-89862000D02*
X169638000Y-91955000D01*
X164800000Y-89100000D02*
X172100000Y-89100000D01*
X172100000Y-89100000D02*
X172100000Y-94885000D01*
X170000000Y-94810000D02*
G75*
G02*
X167000000Y-94810000I-1500000J0D01*
G01*
X167000000Y-94810000D02*
G75*
G02*
X170000000Y-94810000I1500000J0D01*
G01*
X170000000Y-91000000D02*
G75*
G02*
X167000000Y-91000000I-1500000J0D01*
G01*
X167000000Y-91000000D02*
G75*
G02*
X170000000Y-91000000I1500000J0D01*
G01*
%TO.C,J1*%
X156125000Y-88825000D02*
X156125000Y-96435000D01*
X150650000Y-88825000D02*
X156125000Y-88825000D01*
X148825000Y-90650000D02*
X150650000Y-88825000D01*
X153563000Y-91680000D02*
X151470000Y-89587000D01*
X153380000Y-91863000D02*
X151287000Y-89770000D01*
X153563000Y-95490000D02*
X151470000Y-93397000D01*
X153380000Y-95673000D02*
X151287000Y-93580000D01*
X156125000Y-96435000D02*
X148825000Y-96435000D01*
X148825000Y-96435000D02*
X148825000Y-90650000D01*
X153925000Y-90725000D02*
G75*
G02*
X150925000Y-90725000I-1500000J0D01*
G01*
X150925000Y-90725000D02*
G75*
G02*
X153925000Y-90725000I1500000J0D01*
G01*
X153925000Y-94535000D02*
G75*
G02*
X150925000Y-94535000I-1500000J0D01*
G01*
X150925000Y-94535000D02*
G75*
G02*
X153925000Y-94535000I1500000J0D01*
G01*
%TD*%
M02*
