%TF.GenerationSoftware,KiCad,Pcbnew,10.0.5*%
%TF.CreationDate,2026-09-09T21:50:50+05:30*%
%TF.ProjectId,positive_clamper,706f7369-7469-4766-955f-636c616d7065,rev?*%
%TF.SameCoordinates,Original*%
%TF.FileFunction,Legend,Top*%
%TF.FilePolarity,Positive*%
%FSLAX46Y46*%
G04 Gerber Fmt 4.6, Leading zero omitted, Abs format (unit mm)*
G04 Created by KiCad (PCBNEW 10.0.5) date 2026-09-09 21:50:50*
%MOMM*%
%LPD*%
G01*
G04 APERTURE LIST*
%ADD10C,0.100000*%
%ADD11C,0.120000*%
G04 APERTURE END LIST*
D10*
X157827693Y-88372419D02*
X157256265Y-88372419D01*
X157541979Y-88372419D02*
X157541979Y-87372419D01*
X157541979Y-87372419D02*
X157446741Y-87515276D01*
X157446741Y-87515276D02*
X157351503Y-87610514D01*
X157351503Y-87610514D02*
X157256265Y-87658133D01*
X158256265Y-88277180D02*
X158303884Y-88324800D01*
X158303884Y-88324800D02*
X158256265Y-88372419D01*
X158256265Y-88372419D02*
X158208646Y-88324800D01*
X158208646Y-88324800D02*
X158256265Y-88277180D01*
X158256265Y-88277180D02*
X158256265Y-88372419D01*
X158875312Y-87800990D02*
X158780074Y-87753371D01*
X158780074Y-87753371D02*
X158732455Y-87705752D01*
X158732455Y-87705752D02*
X158684836Y-87610514D01*
X158684836Y-87610514D02*
X158684836Y-87562895D01*
X158684836Y-87562895D02*
X158732455Y-87467657D01*
X158732455Y-87467657D02*
X158780074Y-87420038D01*
X158780074Y-87420038D02*
X158875312Y-87372419D01*
X158875312Y-87372419D02*
X159065788Y-87372419D01*
X159065788Y-87372419D02*
X159161026Y-87420038D01*
X159161026Y-87420038D02*
X159208645Y-87467657D01*
X159208645Y-87467657D02*
X159256264Y-87562895D01*
X159256264Y-87562895D02*
X159256264Y-87610514D01*
X159256264Y-87610514D02*
X159208645Y-87705752D01*
X159208645Y-87705752D02*
X159161026Y-87753371D01*
X159161026Y-87753371D02*
X159065788Y-87800990D01*
X159065788Y-87800990D02*
X158875312Y-87800990D01*
X158875312Y-87800990D02*
X158780074Y-87848609D01*
X158780074Y-87848609D02*
X158732455Y-87896228D01*
X158732455Y-87896228D02*
X158684836Y-87991466D01*
X158684836Y-87991466D02*
X158684836Y-88181942D01*
X158684836Y-88181942D02*
X158732455Y-88277180D01*
X158732455Y-88277180D02*
X158780074Y-88324800D01*
X158780074Y-88324800D02*
X158875312Y-88372419D01*
X158875312Y-88372419D02*
X159065788Y-88372419D01*
X159065788Y-88372419D02*
X159161026Y-88324800D01*
X159161026Y-88324800D02*
X159208645Y-88277180D01*
X159208645Y-88277180D02*
X159256264Y-88181942D01*
X159256264Y-88181942D02*
X159256264Y-87991466D01*
X159256264Y-87991466D02*
X159208645Y-87896228D01*
X159208645Y-87896228D02*
X159161026Y-87848609D01*
X159161026Y-87848609D02*
X159065788Y-87800990D01*
X159684836Y-88372419D02*
X159684836Y-87372419D01*
X159684836Y-87372419D02*
X159922931Y-87372419D01*
X159922931Y-87372419D02*
X160065788Y-87420038D01*
X160065788Y-87420038D02*
X160161026Y-87515276D01*
X160161026Y-87515276D02*
X160208645Y-87610514D01*
X160208645Y-87610514D02*
X160256264Y-87800990D01*
X160256264Y-87800990D02*
X160256264Y-87943847D01*
X160256264Y-87943847D02*
X160208645Y-88134323D01*
X160208645Y-88134323D02*
X160161026Y-88229561D01*
X160161026Y-88229561D02*
X160065788Y-88324800D01*
X160065788Y-88324800D02*
X159922931Y-88372419D01*
X159922931Y-88372419D02*
X159684836Y-88372419D01*
X161256264Y-88277180D02*
X161208645Y-88324800D01*
X161208645Y-88324800D02*
X161065788Y-88372419D01*
X161065788Y-88372419D02*
X160970550Y-88372419D01*
X160970550Y-88372419D02*
X160827693Y-88324800D01*
X160827693Y-88324800D02*
X160732455Y-88229561D01*
X160732455Y-88229561D02*
X160684836Y-88134323D01*
X160684836Y-88134323D02*
X160637217Y-87943847D01*
X160637217Y-87943847D02*
X160637217Y-87800990D01*
X160637217Y-87800990D02*
X160684836Y-87610514D01*
X160684836Y-87610514D02*
X160732455Y-87515276D01*
X160732455Y-87515276D02*
X160827693Y-87420038D01*
X160827693Y-87420038D02*
X160970550Y-87372419D01*
X160970550Y-87372419D02*
X161065788Y-87372419D01*
X161065788Y-87372419D02*
X161208645Y-87420038D01*
X161208645Y-87420038D02*
X161256264Y-87467657D01*
X147099122Y-94363561D02*
X147099122Y-95011180D01*
X147099122Y-95011180D02*
X147061027Y-95087371D01*
X147061027Y-95087371D02*
X147022931Y-95125466D01*
X147022931Y-95125466D02*
X146946741Y-95163561D01*
X146946741Y-95163561D02*
X146832455Y-95163561D01*
X146832455Y-95163561D02*
X146756265Y-95125466D01*
X147099122Y-94858800D02*
X147022931Y-94896895D01*
X147022931Y-94896895D02*
X146870550Y-94896895D01*
X146870550Y-94896895D02*
X146794360Y-94858800D01*
X146794360Y-94858800D02*
X146756265Y-94820704D01*
X146756265Y-94820704D02*
X146718169Y-94744514D01*
X146718169Y-94744514D02*
X146718169Y-94515942D01*
X146718169Y-94515942D02*
X146756265Y-94439752D01*
X146756265Y-94439752D02*
X146794360Y-94401657D01*
X146794360Y-94401657D02*
X146870550Y-94363561D01*
X146870550Y-94363561D02*
X147022931Y-94363561D01*
X147022931Y-94363561D02*
X147099122Y-94401657D01*
X147480075Y-94363561D02*
X147480075Y-94896895D01*
X147480075Y-94439752D02*
X147518170Y-94401657D01*
X147518170Y-94401657D02*
X147594360Y-94363561D01*
X147594360Y-94363561D02*
X147708646Y-94363561D01*
X147708646Y-94363561D02*
X147784837Y-94401657D01*
X147784837Y-94401657D02*
X147822932Y-94477847D01*
X147822932Y-94477847D02*
X147822932Y-94896895D01*
X148546742Y-94896895D02*
X148546742Y-94096895D01*
X148546742Y-94858800D02*
X148470551Y-94896895D01*
X148470551Y-94896895D02*
X148318170Y-94896895D01*
X148318170Y-94896895D02*
X148241980Y-94858800D01*
X148241980Y-94858800D02*
X148203885Y-94820704D01*
X148203885Y-94820704D02*
X148165789Y-94744514D01*
X148165789Y-94744514D02*
X148165789Y-94515942D01*
X148165789Y-94515942D02*
X148203885Y-94439752D01*
X148203885Y-94439752D02*
X148241980Y-94401657D01*
X148241980Y-94401657D02*
X148318170Y-94363561D01*
X148318170Y-94363561D02*
X148470551Y-94363561D01*
X148470551Y-94363561D02*
X148546742Y-94401657D01*
X146180074Y-90363561D02*
X146370550Y-90896895D01*
X146370550Y-90896895D02*
X146561027Y-90363561D01*
X146865789Y-90896895D02*
X146865789Y-90363561D01*
X146865789Y-90096895D02*
X146827693Y-90134990D01*
X146827693Y-90134990D02*
X146865789Y-90173085D01*
X146865789Y-90173085D02*
X146903884Y-90134990D01*
X146903884Y-90134990D02*
X146865789Y-90096895D01*
X146865789Y-90096895D02*
X146865789Y-90173085D01*
X147246741Y-90363561D02*
X147246741Y-90896895D01*
X147246741Y-90439752D02*
X147284836Y-90401657D01*
X147284836Y-90401657D02*
X147361026Y-90363561D01*
X147361026Y-90363561D02*
X147475312Y-90363561D01*
X147475312Y-90363561D02*
X147551503Y-90401657D01*
X147551503Y-90401657D02*
X147589598Y-90477847D01*
X147589598Y-90477847D02*
X147589598Y-90896895D01*
%TO.C,V1*%
D11*
X159120000Y-89350000D02*
X159120000Y-89920000D01*
X159120000Y-89350000D02*
X161880000Y-89350000D01*
X159120000Y-89920000D02*
X157650000Y-89920000D01*
X159120000Y-91540000D02*
X159120000Y-94650000D01*
X159120000Y-94650000D02*
X161880000Y-94650000D01*
X161880000Y-89920000D02*
X161880000Y-92460000D01*
X161880000Y-94080000D02*
X161880000Y-94650000D01*
%TO.C,R1*%
X158832776Y-95477500D02*
X159342224Y-95477500D01*
X158832776Y-96522500D02*
X159342224Y-96522500D01*
%TO.C,J2*%
X164680000Y-96830000D02*
X164680000Y-88980000D01*
X172220000Y-96830000D02*
X164680000Y-96830000D01*
X172220000Y-95110000D02*
X172220000Y-96830000D01*
X164680000Y-88980000D02*
X172220000Y-88980000D01*
X172220000Y-88980000D02*
X172220000Y-94510000D01*
X172220000Y-94810000D02*
X172830000Y-94370000D01*
X172830000Y-95250000D01*
X172220000Y-94810000D01*
G36*
X172830000Y-95250000D02*
G01*
X172220000Y-94810000D01*
X172830000Y-94370000D01*
X172830000Y-95250000D01*
G37*
%TO.C,J1*%
X156245000Y-88705000D02*
X156245000Y-96555000D01*
X148705000Y-88705000D02*
X156245000Y-88705000D01*
X148705000Y-90425000D02*
X148705000Y-88705000D01*
X156245000Y-96555000D02*
X148705000Y-96555000D01*
X148705000Y-96555000D02*
X148705000Y-91025000D01*
X148705000Y-90725000D02*
X148095000Y-91165000D01*
X148095000Y-90285000D01*
X148705000Y-90725000D01*
G36*
X148705000Y-90725000D02*
G01*
X148095000Y-91165000D01*
X148095000Y-90285000D01*
X148705000Y-90725000D01*
G37*
%TD*%
M02*
