%TF.GenerationSoftware,KiCad,Pcbnew,10.0.5*%
%TF.CreationDate,2026-09-09T21:50:50+05:30*%
%TF.ProjectId,positive_clamper,706f7369-7469-4766-955f-636c616d7065,rev?*%
%TF.SameCoordinates,Original*%
%TF.FileFunction,Copper,L1,Top*%
%TF.FilePolarity,Positive*%
%FSLAX46Y46*%
G04 Gerber Fmt 4.6, Leading zero omitted, Abs format (unit mm)*
G04 Created by KiCad (PCBNEW 10.0.5) date 2026-09-09 21:50:50*
%MOMM*%
%LPD*%
G01*
G04 APERTURE LIST*
G04 Aperture macros list*
%AMRoundRect*
0 Rectangle with rounded corners*
0 $1 Rounding radius*
0 $2 $3 $4 $5 $6 $7 $8 $9 X,Y pos of 4 corners*
0 Add a 4 corners polygon primitive as box body*
4,1,4,$2,$3,$4,$5,$6,$7,$8,$9,$2,$3,0*
0 Add four circle primitives for the rounded corners*
1,1,$1+$1,$2,$3*
1,1,$1+$1,$4,$5*
1,1,$1+$1,$6,$7*
1,1,$1+$1,$8,$9*
0 Add four rect primitives between the rounded corners*
20,1,$1+$1,$2,$3,$4,$5,0*
20,1,$1+$1,$4,$5,$6,$7,0*
20,1,$1+$1,$6,$7,$8,$9,0*
20,1,$1+$1,$8,$9,$2,$3,0*%
G04 Aperture macros list end*
%TA.AperFunction,SMDPad,CuDef*%
%ADD10R,2.510000X1.000000*%
%TD*%
%TA.AperFunction,SMDPad,CuDef*%
%ADD11RoundRect,0.237500X-0.250000X-0.237500X0.250000X-0.237500X0.250000X0.237500X-0.250000X0.237500X0*%
%TD*%
%TA.AperFunction,ComponentPad*%
%ADD12RoundRect,0.250000X0.750000X-0.750000X0.750000X0.750000X-0.750000X0.750000X-0.750000X-0.750000X0*%
%TD*%
%TA.AperFunction,ComponentPad*%
%ADD13C,2.000000*%
%TD*%
%TA.AperFunction,ComponentPad*%
%ADD14RoundRect,0.250000X-0.750000X0.750000X-0.750000X-0.750000X0.750000X-0.750000X0.750000X0.750000X0*%
%TD*%
%TA.AperFunction,ViaPad*%
%ADD15C,0.600000*%
%TD*%
%TA.AperFunction,Conductor*%
%ADD16C,0.200000*%
%TD*%
G04 APERTURE END LIST*
D10*
%TO.P,V1,1*%
%TO.N,Net-(J1-Pin_2)*%
X158845000Y-90730000D03*
%TO.P,V1,2*%
%TO.N,Net-(D1-A)*%
X162155000Y-93270000D03*
%TD*%
D11*
%TO.P,R1,1*%
%TO.N,Net-(D1-K)*%
X158175000Y-96000000D03*
%TO.P,R1,2*%
%TO.N,Net-(J1-Pin_2)*%
X160000000Y-96000000D03*
%TD*%
D12*
%TO.P,J2,1,Pin_1_1*%
%TO.N,Net-(D1-K)*%
X168500000Y-94810000D03*
D13*
%TO.P,J2,2,Pin_2_2*%
%TO.N,Net-(J1-Pin_2)*%
X168500000Y-91000000D03*
%TD*%
D14*
%TO.P,J1,1,Pin_1_1*%
%TO.N,Net-(J1-Pin_1)*%
X152425000Y-90725000D03*
D13*
%TO.P,J1,2,Pin_2_2*%
%TO.N,Net-(J1-Pin_2)*%
X152425000Y-94535000D03*
%TD*%
D15*
%TO.N,Net-(J1-Pin_2)*%
X167000000Y-91000000D03*
%TO.N,Net-(D1-K)*%
X157000000Y-96200000D03*
%TO.N,Net-(D1-A)*%
X160500000Y-93500000D03*
%TO.N,Net-(J1-Pin_2)*%
X157500000Y-91650000D03*
X154000000Y-93500000D03*
%TO.N,Net-(J1-Pin_1)*%
X162000000Y-94500000D03*
%TD*%
%TO.N,Net-(J1-Pin_2)*%
D16*
X165530000Y-92470000D02*
X167000000Y-91000000D01*
X163710000Y-92470000D02*
X165530000Y-92470000D01*
X162890000Y-91650000D02*
X157500000Y-91650000D01*
X163710000Y-94070000D02*
X163710000Y-92470000D01*
X161780000Y-96000000D02*
X163710000Y-94070000D01*
X163710000Y-92470000D02*
X162890000Y-91650000D01*
X160000000Y-96000000D02*
X161780000Y-96000000D01*
%TO.N,Net-(D1-K)*%
X157000000Y-96200000D02*
X157975000Y-96200000D01*
X157975000Y-96200000D02*
X158175000Y-96000000D01*
%TO.N,Net-(D1-A)*%
X160730000Y-93270000D02*
X160500000Y-93500000D01*
X162155000Y-93270000D02*
X160730000Y-93270000D01*
%TO.N,Net-(J1-Pin_2)*%
X158420000Y-90730000D02*
X157500000Y-91650000D01*
X158845000Y-90730000D02*
X158420000Y-90730000D01*
X153460000Y-93500000D02*
X154000000Y-93500000D01*
X152425000Y-94535000D02*
X153460000Y-93500000D01*
X158845000Y-90730000D02*
X159000000Y-90885000D01*
%TO.N,Net-(J1-Pin_1)*%
X156200000Y-94500000D02*
X162000000Y-94500000D01*
X152425000Y-90725000D02*
X156200000Y-94500000D01*
%TD*%
M02*
