%TF.GenerationSoftware,KiCad,Pcbnew,10.0.5*%
%TF.CreationDate,2026-09-06T16:52:31+05:30*%
%TF.ProjectId,Halfwave_Rectifier_with_filter,48616c66-7761-4766-955f-526563746966,rev?*%
%TF.SameCoordinates,Original*%
%TF.FileFunction,AssemblyDrawing,Bot*%
%FSLAX46Y46*%
G04 Gerber Fmt 4.6, Leading zero omitted, Abs format (unit mm)*
G04 Created by KiCad (PCBNEW 10.0.5) date 2026-09-06 16:52:31*
%MOMM*%
%LPD*%
G01*
G04 APERTURE LIST*
%ADD10C,0.100000*%
G04 APERTURE END LIST*
%TO.C,T1*%
D10*
X135500000Y-67575000D02*
X136250000Y-67575000D01*
X135500000Y-78075000D02*
X135500000Y-67575000D01*
X135500000Y-78075000D02*
X143500000Y-78075000D01*
X136250000Y-67575000D02*
X142500000Y-67575000D01*
X137214000Y-69275000D02*
X137214000Y-78075000D01*
X137214000Y-69275000D02*
X141786000Y-69275000D01*
X141786000Y-69275000D02*
X141786000Y-78075000D01*
X141786000Y-76625000D02*
X137216000Y-76625000D01*
X143500000Y-68575000D02*
X142500000Y-67575000D01*
X143500000Y-78075000D02*
X143500000Y-68575000D01*
X139250000Y-68775000D02*
X139750000Y-68775000D01*
X139750000Y-69275000D01*
X139250000Y-69275000D01*
X139250000Y-68775000D01*
G36*
X139250000Y-68775000D02*
G01*
X139750000Y-68775000D01*
X139750000Y-69275000D01*
X139250000Y-69275000D01*
X139250000Y-68775000D01*
G37*
X138609000Y-76625000D02*
X140391000Y-76625000D01*
X140391000Y-78075000D01*
X138609000Y-78075000D01*
X138609000Y-76625000D01*
G36*
X138609000Y-76625000D02*
G01*
X140391000Y-76625000D01*
X140391000Y-78075000D01*
X138609000Y-78075000D01*
X138609000Y-76625000D01*
G37*
%TD*%
M02*
