%TF.GenerationSoftware,KiCad,Pcbnew,10.0.5*%
%TF.CreationDate,2026-09-04T15:50:41+05:30*%
%TF.ProjectId,Halfwave_Rectifier_with_filter,48616c66-7761-4766-955f-526563746966,rev?*%
%TF.SameCoordinates,Original*%
%TF.FileFunction,AssemblyDrawing,Bot*%
%FSLAX46Y46*%
G04 Gerber Fmt 4.6, Leading zero omitted, Abs format (unit mm)*
G04 Created by KiCad (PCBNEW 10.0.5) date 2026-09-04 15:50:41*
%MOMM*%
%LPD*%
G01*
G04 APERTURE LIST*
%ADD10C,0.150000*%
%ADD11C,0.100000*%
G04 APERTURE END LIST*
D10*
X146954819Y-73166666D02*
X147669104Y-73166666D01*
X147669104Y-73166666D02*
X147811961Y-73119047D01*
X147811961Y-73119047D02*
X147907200Y-73023809D01*
X147907200Y-73023809D02*
X147954819Y-72880952D01*
X147954819Y-72880952D02*
X147954819Y-72785714D01*
X147050057Y-73595238D02*
X147002438Y-73642857D01*
X147002438Y-73642857D02*
X146954819Y-73738095D01*
X146954819Y-73738095D02*
X146954819Y-73976190D01*
X146954819Y-73976190D02*
X147002438Y-74071428D01*
X147002438Y-74071428D02*
X147050057Y-74119047D01*
X147050057Y-74119047D02*
X147145295Y-74166666D01*
X147145295Y-74166666D02*
X147240533Y-74166666D01*
X147240533Y-74166666D02*
X147383390Y-74119047D01*
X147383390Y-74119047D02*
X147954819Y-73547619D01*
X147954819Y-73547619D02*
X147954819Y-74166666D01*
%TO.C,T1*%
D11*
X135500000Y-67575000D02*
X136250000Y-67575000D01*
X135500000Y-78075000D02*
X135500000Y-67575000D01*
X135500000Y-78075000D02*
X143500000Y-78075000D01*
X136250000Y-67575000D02*
X142500000Y-67575000D01*
X137214000Y-69275000D02*
X137214000Y-78075000D01*
X137214000Y-69275000D02*
X141786000Y-69275000D01*
X141786000Y-69275000D02*
X141786000Y-78075000D01*
X141786000Y-76625000D02*
X137216000Y-76625000D01*
X143500000Y-68575000D02*
X142500000Y-67575000D01*
X143500000Y-78075000D02*
X143500000Y-68575000D01*
X139250000Y-68775000D02*
X139750000Y-68775000D01*
X139750000Y-69275000D01*
X139250000Y-69275000D01*
X139250000Y-68775000D01*
G36*
X139250000Y-68775000D02*
G01*
X139750000Y-68775000D01*
X139750000Y-69275000D01*
X139250000Y-69275000D01*
X139250000Y-68775000D01*
G37*
X138609000Y-76625000D02*
X140391000Y-76625000D01*
X140391000Y-78075000D01*
X138609000Y-78075000D01*
X138609000Y-76625000D01*
G36*
X138609000Y-76625000D02*
G01*
X140391000Y-76625000D01*
X140391000Y-78075000D01*
X138609000Y-78075000D01*
X138609000Y-76625000D01*
G37*
%TO.C,J2*%
X144960000Y-71910000D02*
X144960000Y-72550000D01*
X144960000Y-72550000D02*
X146230000Y-72550000D01*
X146230000Y-71910000D02*
X144960000Y-71910000D01*
X146230000Y-71910000D02*
X147180000Y-70960000D01*
X146230000Y-76040000D02*
X146230000Y-71910000D01*
X146230000Y-76040000D02*
X148770000Y-76040000D01*
X148770000Y-70960000D02*
X147180000Y-70960000D01*
X148770000Y-70960000D02*
X148770000Y-76040000D01*
X148770000Y-74450000D02*
X150040000Y-74450000D01*
X150040000Y-74450000D02*
X150040000Y-75090000D01*
X150040000Y-75090000D02*
X148770000Y-75090000D01*
%TD*%
M02*
