%TF.GenerationSoftware,KiCad,Pcbnew,10.0.5*%
%TF.CreationDate,2026-09-04T15:50:41+05:30*%
%TF.ProjectId,Halfwave_Rectifier_with_filter,48616c66-7761-4766-955f-526563746966,rev?*%
%TF.SameCoordinates,Original*%
%TF.FileFunction,Legend,Top*%
%TF.FilePolarity,Positive*%
%FSLAX46Y46*%
G04 Gerber Fmt 4.6, Leading zero omitted, Abs format (unit mm)*
G04 Created by KiCad (PCBNEW 10.0.5) date 2026-09-04 15:50:41*
%MOMM*%
%LPD*%
G01*
G04 APERTURE LIST*
%ADD10C,0.100000*%
%ADD11C,0.120000*%
G04 APERTURE END LIST*
D10*
X132303884Y-64372419D02*
X132303884Y-63372419D01*
X132303884Y-63848609D02*
X132875312Y-63848609D01*
X132875312Y-64372419D02*
X132875312Y-63372419D01*
X133780074Y-64372419D02*
X133780074Y-63848609D01*
X133780074Y-63848609D02*
X133732455Y-63753371D01*
X133732455Y-63753371D02*
X133637217Y-63705752D01*
X133637217Y-63705752D02*
X133446741Y-63705752D01*
X133446741Y-63705752D02*
X133351503Y-63753371D01*
X133780074Y-64324800D02*
X133684836Y-64372419D01*
X133684836Y-64372419D02*
X133446741Y-64372419D01*
X133446741Y-64372419D02*
X133351503Y-64324800D01*
X133351503Y-64324800D02*
X133303884Y-64229561D01*
X133303884Y-64229561D02*
X133303884Y-64134323D01*
X133303884Y-64134323D02*
X133351503Y-64039085D01*
X133351503Y-64039085D02*
X133446741Y-63991466D01*
X133446741Y-63991466D02*
X133684836Y-63991466D01*
X133684836Y-63991466D02*
X133780074Y-63943847D01*
X134399122Y-64372419D02*
X134303884Y-64324800D01*
X134303884Y-64324800D02*
X134256265Y-64229561D01*
X134256265Y-64229561D02*
X134256265Y-63372419D01*
X134637218Y-63705752D02*
X135018170Y-63705752D01*
X134780075Y-64372419D02*
X134780075Y-63515276D01*
X134780075Y-63515276D02*
X134827694Y-63420038D01*
X134827694Y-63420038D02*
X134922932Y-63372419D01*
X134922932Y-63372419D02*
X135018170Y-63372419D01*
X136018171Y-63705752D02*
X136208647Y-64372419D01*
X136208647Y-64372419D02*
X136399123Y-63896228D01*
X136399123Y-63896228D02*
X136589599Y-64372419D01*
X136589599Y-64372419D02*
X136780075Y-63705752D01*
X137589599Y-64372419D02*
X137589599Y-63848609D01*
X137589599Y-63848609D02*
X137541980Y-63753371D01*
X137541980Y-63753371D02*
X137446742Y-63705752D01*
X137446742Y-63705752D02*
X137256266Y-63705752D01*
X137256266Y-63705752D02*
X137161028Y-63753371D01*
X137589599Y-64324800D02*
X137494361Y-64372419D01*
X137494361Y-64372419D02*
X137256266Y-64372419D01*
X137256266Y-64372419D02*
X137161028Y-64324800D01*
X137161028Y-64324800D02*
X137113409Y-64229561D01*
X137113409Y-64229561D02*
X137113409Y-64134323D01*
X137113409Y-64134323D02*
X137161028Y-64039085D01*
X137161028Y-64039085D02*
X137256266Y-63991466D01*
X137256266Y-63991466D02*
X137494361Y-63991466D01*
X137494361Y-63991466D02*
X137589599Y-63943847D01*
X137970552Y-63705752D02*
X138208647Y-64372419D01*
X138208647Y-64372419D02*
X138446742Y-63705752D01*
X139208647Y-64324800D02*
X139113409Y-64372419D01*
X139113409Y-64372419D02*
X138922933Y-64372419D01*
X138922933Y-64372419D02*
X138827695Y-64324800D01*
X138827695Y-64324800D02*
X138780076Y-64229561D01*
X138780076Y-64229561D02*
X138780076Y-63848609D01*
X138780076Y-63848609D02*
X138827695Y-63753371D01*
X138827695Y-63753371D02*
X138922933Y-63705752D01*
X138922933Y-63705752D02*
X139113409Y-63705752D01*
X139113409Y-63705752D02*
X139208647Y-63753371D01*
X139208647Y-63753371D02*
X139256266Y-63848609D01*
X139256266Y-63848609D02*
X139256266Y-63943847D01*
X139256266Y-63943847D02*
X138780076Y-64039085D01*
X140446743Y-64372419D02*
X140446743Y-63705752D01*
X140446743Y-63896228D02*
X140494362Y-63800990D01*
X140494362Y-63800990D02*
X140541981Y-63753371D01*
X140541981Y-63753371D02*
X140637219Y-63705752D01*
X140637219Y-63705752D02*
X140732457Y-63705752D01*
X141446743Y-64324800D02*
X141351505Y-64372419D01*
X141351505Y-64372419D02*
X141161029Y-64372419D01*
X141161029Y-64372419D02*
X141065791Y-64324800D01*
X141065791Y-64324800D02*
X141018172Y-64229561D01*
X141018172Y-64229561D02*
X141018172Y-63848609D01*
X141018172Y-63848609D02*
X141065791Y-63753371D01*
X141065791Y-63753371D02*
X141161029Y-63705752D01*
X141161029Y-63705752D02*
X141351505Y-63705752D01*
X141351505Y-63705752D02*
X141446743Y-63753371D01*
X141446743Y-63753371D02*
X141494362Y-63848609D01*
X141494362Y-63848609D02*
X141494362Y-63943847D01*
X141494362Y-63943847D02*
X141018172Y-64039085D01*
X142351505Y-64324800D02*
X142256267Y-64372419D01*
X142256267Y-64372419D02*
X142065791Y-64372419D01*
X142065791Y-64372419D02*
X141970553Y-64324800D01*
X141970553Y-64324800D02*
X141922934Y-64277180D01*
X141922934Y-64277180D02*
X141875315Y-64181942D01*
X141875315Y-64181942D02*
X141875315Y-63896228D01*
X141875315Y-63896228D02*
X141922934Y-63800990D01*
X141922934Y-63800990D02*
X141970553Y-63753371D01*
X141970553Y-63753371D02*
X142065791Y-63705752D01*
X142065791Y-63705752D02*
X142256267Y-63705752D01*
X142256267Y-63705752D02*
X142351505Y-63753371D01*
X142637220Y-63705752D02*
X143018172Y-63705752D01*
X142780077Y-63372419D02*
X142780077Y-64229561D01*
X142780077Y-64229561D02*
X142827696Y-64324800D01*
X142827696Y-64324800D02*
X142922934Y-64372419D01*
X142922934Y-64372419D02*
X143018172Y-64372419D01*
X143351506Y-64372419D02*
X143351506Y-63705752D01*
X143351506Y-63372419D02*
X143303887Y-63420038D01*
X143303887Y-63420038D02*
X143351506Y-63467657D01*
X143351506Y-63467657D02*
X143399125Y-63420038D01*
X143399125Y-63420038D02*
X143351506Y-63372419D01*
X143351506Y-63372419D02*
X143351506Y-63467657D01*
X143684839Y-63705752D02*
X144065791Y-63705752D01*
X143827696Y-64372419D02*
X143827696Y-63515276D01*
X143827696Y-63515276D02*
X143875315Y-63420038D01*
X143875315Y-63420038D02*
X143970553Y-63372419D01*
X143970553Y-63372419D02*
X144065791Y-63372419D01*
X144399125Y-64372419D02*
X144399125Y-63705752D01*
X144399125Y-63372419D02*
X144351506Y-63420038D01*
X144351506Y-63420038D02*
X144399125Y-63467657D01*
X144399125Y-63467657D02*
X144446744Y-63420038D01*
X144446744Y-63420038D02*
X144399125Y-63372419D01*
X144399125Y-63372419D02*
X144399125Y-63467657D01*
X145256267Y-64324800D02*
X145161029Y-64372419D01*
X145161029Y-64372419D02*
X144970553Y-64372419D01*
X144970553Y-64372419D02*
X144875315Y-64324800D01*
X144875315Y-64324800D02*
X144827696Y-64229561D01*
X144827696Y-64229561D02*
X144827696Y-63848609D01*
X144827696Y-63848609D02*
X144875315Y-63753371D01*
X144875315Y-63753371D02*
X144970553Y-63705752D01*
X144970553Y-63705752D02*
X145161029Y-63705752D01*
X145161029Y-63705752D02*
X145256267Y-63753371D01*
X145256267Y-63753371D02*
X145303886Y-63848609D01*
X145303886Y-63848609D02*
X145303886Y-63943847D01*
X145303886Y-63943847D02*
X144827696Y-64039085D01*
X145732458Y-64372419D02*
X145732458Y-63705752D01*
X145732458Y-63896228D02*
X145780077Y-63800990D01*
X145780077Y-63800990D02*
X145827696Y-63753371D01*
X145827696Y-63753371D02*
X145922934Y-63705752D01*
X145922934Y-63705752D02*
X146018172Y-63705752D01*
%TO.C,C1*%
D11*
X135562500Y-67652500D02*
X136350000Y-67652500D01*
X135956250Y-67258750D02*
X135956250Y-68046250D01*
X136590000Y-67154437D02*
X136590000Y-68440000D01*
X136590000Y-67154437D02*
X137654437Y-66090000D01*
X136590000Y-71845563D02*
X136590000Y-70560000D01*
X136590000Y-71845563D02*
X137654437Y-72910000D01*
X137654437Y-66090000D02*
X143410000Y-66090000D01*
X137654437Y-72910000D02*
X143410000Y-72910000D01*
X143410000Y-66090000D02*
X143410000Y-68440000D01*
X143410000Y-72910000D02*
X143410000Y-70560000D01*
%TO.C,J1*%
X126875000Y-68397500D02*
X134415000Y-68397500D01*
X126875000Y-70117500D02*
X126875000Y-68397500D01*
X126875000Y-76247500D02*
X126875000Y-70717500D01*
X134415000Y-68397500D02*
X134415000Y-76247500D01*
X134415000Y-76247500D02*
X126875000Y-76247500D01*
X126875000Y-70417500D02*
X126265000Y-70857500D01*
X126265000Y-69977500D01*
X126875000Y-70417500D01*
G36*
X126875000Y-70417500D02*
G01*
X126265000Y-70857500D01*
X126265000Y-69977500D01*
X126875000Y-70417500D01*
G37*
%TO.C,R1*%
X139245276Y-78977500D02*
X139754724Y-78977500D01*
X139245276Y-80022500D02*
X139754724Y-80022500D01*
%TO.C,D1*%
X136040000Y-73865000D02*
X136040000Y-78135000D01*
X136040000Y-78135000D02*
X142100000Y-78135000D01*
X142100000Y-73865000D02*
X136040000Y-73865000D01*
%TD*%
M02*
