%TF.GenerationSoftware,KiCad,Pcbnew,10.0.5*%
%TF.CreationDate,2026-09-06T16:52:30+05:30*%
%TF.ProjectId,Halfwave_Rectifier_with_filter,48616c66-7761-4766-955f-526563746966,rev?*%
%TF.SameCoordinates,Original*%
%TF.FileFunction,Copper,L1,Top*%
%TF.FilePolarity,Positive*%
%FSLAX46Y46*%
G04 Gerber Fmt 4.6, Leading zero omitted, Abs format (unit mm)*
G04 Created by KiCad (PCBNEW 10.0.5) date 2026-09-06 16:52:30*
%MOMM*%
%LPD*%
G01*
G04 APERTURE LIST*
G04 Aperture macros list*
%AMRoundRect*
0 Rectangle with rounded corners*
0 $1 Rounding radius*
0 $2 $3 $4 $5 $6 $7 $8 $9 X,Y pos of 4 corners*
0 Add a 4 corners polygon primitive as box body*
4,1,4,$2,$3,$4,$5,$6,$7,$8,$9,$2,$3,0*
0 Add four circle primitives for the rounded corners*
1,1,$1+$1,$2,$3*
1,1,$1+$1,$4,$5*
1,1,$1+$1,$6,$7*
1,1,$1+$1,$8,$9*
0 Add four rect primitives between the rounded corners*
20,1,$1+$1,$2,$3,$4,$5,0*
20,1,$1+$1,$4,$5,$6,$7,0*
20,1,$1+$1,$6,$7,$8,$9,0*
20,1,$1+$1,$8,$9,$2,$3,0*%
G04 Aperture macros list end*
%TA.AperFunction,SMDPad,CuDef*%
%ADD10RoundRect,0.250000X-1.500000X-0.550000X1.500000X-0.550000X1.500000X0.550000X-1.500000X0.550000X0*%
%TD*%
%TA.AperFunction,ComponentPad*%
%ADD11RoundRect,0.250000X-0.750000X0.750000X-0.750000X-0.750000X0.750000X-0.750000X0.750000X0.750000X0*%
%TD*%
%TA.AperFunction,ComponentPad*%
%ADD12C,2.000000*%
%TD*%
%TA.AperFunction,SMDPad,CuDef*%
%ADD13RoundRect,0.237500X-0.250000X-0.237500X0.250000X-0.237500X0.250000X0.237500X-0.250000X0.237500X0*%
%TD*%
%TA.AperFunction,SMDPad,CuDef*%
%ADD14RoundRect,0.250000X-0.675000X-1.625000X0.675000X-1.625000X0.675000X1.625000X-0.675000X1.625000X0*%
%TD*%
%TA.AperFunction,SMDPad,CuDef*%
%ADD15R,2.510000X1.000000*%
%TD*%
%TA.AperFunction,ViaPad*%
%ADD16C,0.600000*%
%TD*%
%TA.AperFunction,Conductor*%
%ADD17C,0.200000*%
%TD*%
G04 APERTURE END LIST*
D10*
%TO.P,C1,1*%
%TO.N,Net-(D1-K)*%
X137200000Y-69500000D03*
%TO.P,C1,2*%
%TO.N,GND*%
X142800000Y-69500000D03*
%TD*%
D11*
%TO.P,J1,1,Pin_1_1*%
%TO.N,Net-(J1-Pin_1)*%
X130595000Y-70417500D03*
D12*
%TO.P,J1,2,Pin_2_2*%
%TO.N,Net-(J1-Pin_2)*%
X130595000Y-74227500D03*
%TD*%
D13*
%TO.P,R1,1*%
%TO.N,Net-(D1-K)*%
X138587500Y-79500000D03*
%TO.P,R1,2*%
%TO.N,GND*%
X140412500Y-79500000D03*
%TD*%
D14*
%TO.P,D1,1,K_1*%
%TO.N,Net-(D1-K)*%
X137225000Y-76000000D03*
%TO.P,D1,2,A_2*%
%TO.N,Net-(D1-A)*%
X141775000Y-76000000D03*
%TD*%
D15*
%TO.P,J2,1,Pin_1_1*%
%TO.N,GND*%
X149655000Y-72730000D03*
%TO.P,J2,2,Pin_2_2*%
%TO.N,Net-(D1-K)*%
X146345000Y-75270000D03*
%TD*%
D16*
%TO.N,Net-(D1-K)*%
X135937500Y-79062500D03*
X144500000Y-74500000D03*
X139000000Y-75000000D03*
%TO.N,GND*%
X140000000Y-77575000D03*
X140500000Y-78775000D03*
%TO.N,Net-(D1-K)*%
X136000000Y-71000000D03*
%TO.N,GND*%
X139000000Y-80500000D03*
X142500000Y-71000000D03*
%TO.N,Net-(J1-Pin_1)*%
X133000000Y-69000000D03*
%TO.N,Net-(J1-Pin_2)*%
X135000000Y-68500000D03*
%TO.N,Net-(D1-A)*%
X143000000Y-77000000D03*
%TD*%
%TO.N,GND*%
D17*
X144230000Y-72730000D02*
X149655000Y-72730000D01*
X142500000Y-71000000D02*
X144230000Y-72730000D01*
%TO.N,Net-(D1-K)*%
X145270000Y-75270000D02*
X144500000Y-74500000D01*
X146345000Y-75270000D02*
X145270000Y-75270000D01*
X135937500Y-79062500D02*
X136375000Y-79500000D01*
X137200000Y-69800000D02*
X136000000Y-71000000D01*
X137200000Y-69500000D02*
X137200000Y-69800000D01*
X138587500Y-77362500D02*
X137225000Y-76000000D01*
X137225000Y-76000000D02*
X138225000Y-75000000D01*
X138225000Y-75000000D02*
X139000000Y-75000000D01*
X138587500Y-79500000D02*
X138587500Y-77362500D01*
X136375000Y-79500000D02*
X138587500Y-79500000D01*
X135875000Y-79000000D02*
X135937500Y-79062500D01*
%TO.N,GND*%
X139412500Y-80500000D02*
X140412500Y-79500000D01*
X140412500Y-78862500D02*
X140500000Y-78775000D01*
X142800000Y-69500000D02*
X140000000Y-72300000D01*
X139000000Y-80500000D02*
X139412500Y-80500000D01*
X142800000Y-70700000D02*
X142500000Y-71000000D01*
X140412500Y-79500000D02*
X140412500Y-78862500D01*
X140000000Y-72300000D02*
X140000000Y-77575000D01*
X142800000Y-69500000D02*
X142800000Y-70700000D01*
%TO.N,Net-(J1-Pin_1)*%
X131582500Y-70417500D02*
X133000000Y-69000000D01*
X130595000Y-70417500D02*
X131582500Y-70417500D01*
%TO.N,Net-(J1-Pin_2)*%
X130595000Y-74227500D02*
X135000000Y-69822500D01*
X135000000Y-69822500D02*
X135000000Y-68500000D01*
%TO.N,Net-(D1-A)*%
X142000000Y-76000000D02*
X143000000Y-77000000D01*
X141775000Y-76000000D02*
X142000000Y-76000000D01*
%TD*%
M02*
