%TF.GenerationSoftware,KiCad,Pcbnew,10.0.5*%
%TF.CreationDate,2026-09-06T16:52:31+05:30*%
%TF.ProjectId,Halfwave_Rectifier_with_filter,48616c66-7761-4766-955f-526563746966,rev?*%
%TF.SameCoordinates,Original*%
%TF.FileFunction,AssemblyDrawing,Top*%
%FSLAX46Y46*%
G04 Gerber Fmt 4.6, Leading zero omitted, Abs format (unit mm)*
G04 Created by KiCad (PCBNEW 10.0.5) date 2026-09-06 16:52:31*
%MOMM*%
%LPD*%
G01*
G04 APERTURE LIST*
%ADD10C,0.150000*%
%ADD11C,0.100000*%
G04 APERTURE END LIST*
D10*
X147738095Y-66454819D02*
X147738095Y-65454819D01*
X147738095Y-65931009D02*
X148309523Y-65931009D01*
X148309523Y-66454819D02*
X148309523Y-65454819D01*
X148690476Y-65454819D02*
X149309523Y-65454819D01*
X149309523Y-65454819D02*
X148976190Y-65835771D01*
X148976190Y-65835771D02*
X149119047Y-65835771D01*
X149119047Y-65835771D02*
X149214285Y-65883390D01*
X149214285Y-65883390D02*
X149261904Y-65931009D01*
X149261904Y-65931009D02*
X149309523Y-66026247D01*
X149309523Y-66026247D02*
X149309523Y-66264342D01*
X149309523Y-66264342D02*
X149261904Y-66359580D01*
X149261904Y-66359580D02*
X149214285Y-66407200D01*
X149214285Y-66407200D02*
X149119047Y-66454819D01*
X149119047Y-66454819D02*
X148833333Y-66454819D01*
X148833333Y-66454819D02*
X148738095Y-66407200D01*
X148738095Y-66407200D02*
X148690476Y-66359580D01*
X128738095Y-79954819D02*
X128738095Y-78954819D01*
X128738095Y-79431009D02*
X129309523Y-79431009D01*
X129309523Y-79954819D02*
X129309523Y-78954819D01*
X129738095Y-79050057D02*
X129785714Y-79002438D01*
X129785714Y-79002438D02*
X129880952Y-78954819D01*
X129880952Y-78954819D02*
X130119047Y-78954819D01*
X130119047Y-78954819D02*
X130214285Y-79002438D01*
X130214285Y-79002438D02*
X130261904Y-79050057D01*
X130261904Y-79050057D02*
X130309523Y-79145295D01*
X130309523Y-79145295D02*
X130309523Y-79240533D01*
X130309523Y-79240533D02*
X130261904Y-79383390D01*
X130261904Y-79383390D02*
X129690476Y-79954819D01*
X129690476Y-79954819D02*
X130309523Y-79954819D01*
X139833333Y-69859580D02*
X139785714Y-69907200D01*
X139785714Y-69907200D02*
X139642857Y-69954819D01*
X139642857Y-69954819D02*
X139547619Y-69954819D01*
X139547619Y-69954819D02*
X139404762Y-69907200D01*
X139404762Y-69907200D02*
X139309524Y-69811961D01*
X139309524Y-69811961D02*
X139261905Y-69716723D01*
X139261905Y-69716723D02*
X139214286Y-69526247D01*
X139214286Y-69526247D02*
X139214286Y-69383390D01*
X139214286Y-69383390D02*
X139261905Y-69192914D01*
X139261905Y-69192914D02*
X139309524Y-69097676D01*
X139309524Y-69097676D02*
X139404762Y-69002438D01*
X139404762Y-69002438D02*
X139547619Y-68954819D01*
X139547619Y-68954819D02*
X139642857Y-68954819D01*
X139642857Y-68954819D02*
X139785714Y-69002438D01*
X139785714Y-69002438D02*
X139833333Y-69050057D01*
X140785714Y-69954819D02*
X140214286Y-69954819D01*
X140500000Y-69954819D02*
X140500000Y-68954819D01*
X140500000Y-68954819D02*
X140404762Y-69097676D01*
X140404762Y-69097676D02*
X140309524Y-69192914D01*
X140309524Y-69192914D02*
X140214286Y-69240533D01*
X128238095Y-65954819D02*
X128238095Y-64954819D01*
X128238095Y-65431009D02*
X128809523Y-65431009D01*
X128809523Y-65954819D02*
X128809523Y-64954819D01*
X129809523Y-65954819D02*
X129238095Y-65954819D01*
X129523809Y-65954819D02*
X129523809Y-64954819D01*
X129523809Y-64954819D02*
X129428571Y-65097676D01*
X129428571Y-65097676D02*
X129333333Y-65192914D01*
X129333333Y-65192914D02*
X129238095Y-65240533D01*
X147738095Y-79954819D02*
X147738095Y-78954819D01*
X147738095Y-79431009D02*
X148309523Y-79431009D01*
X148309523Y-79954819D02*
X148309523Y-78954819D01*
X149214285Y-79288152D02*
X149214285Y-79954819D01*
X148976190Y-78907200D02*
X148738095Y-79621485D01*
X148738095Y-79621485D02*
X149357142Y-79621485D01*
X138761905Y-76454819D02*
X138761905Y-75454819D01*
X138761905Y-75454819D02*
X139000000Y-75454819D01*
X139000000Y-75454819D02*
X139142857Y-75502438D01*
X139142857Y-75502438D02*
X139238095Y-75597676D01*
X139238095Y-75597676D02*
X139285714Y-75692914D01*
X139285714Y-75692914D02*
X139333333Y-75883390D01*
X139333333Y-75883390D02*
X139333333Y-76026247D01*
X139333333Y-76026247D02*
X139285714Y-76216723D01*
X139285714Y-76216723D02*
X139238095Y-76311961D01*
X139238095Y-76311961D02*
X139142857Y-76407200D01*
X139142857Y-76407200D02*
X139000000Y-76454819D01*
X139000000Y-76454819D02*
X138761905Y-76454819D01*
X140285714Y-76454819D02*
X139714286Y-76454819D01*
X140000000Y-76454819D02*
X140000000Y-75454819D01*
X140000000Y-75454819D02*
X139904762Y-75597676D01*
X139904762Y-75597676D02*
X139809524Y-75692914D01*
X139809524Y-75692914D02*
X139714286Y-75740533D01*
X147454819Y-74333333D02*
X148169104Y-74333333D01*
X148169104Y-74333333D02*
X148311961Y-74380952D01*
X148311961Y-74380952D02*
X148407200Y-74476190D01*
X148407200Y-74476190D02*
X148454819Y-74619047D01*
X148454819Y-74619047D02*
X148454819Y-74714285D01*
X147550057Y-73904761D02*
X147502438Y-73857142D01*
X147502438Y-73857142D02*
X147454819Y-73761904D01*
X147454819Y-73761904D02*
X147454819Y-73523809D01*
X147454819Y-73523809D02*
X147502438Y-73428571D01*
X147502438Y-73428571D02*
X147550057Y-73380952D01*
X147550057Y-73380952D02*
X147645295Y-73333333D01*
X147645295Y-73333333D02*
X147740533Y-73333333D01*
X147740533Y-73333333D02*
X147883390Y-73380952D01*
X147883390Y-73380952D02*
X148454819Y-73952380D01*
X148454819Y-73952380D02*
X148454819Y-73333333D01*
%TO.C,C1*%
D11*
X136700000Y-67200000D02*
X136700000Y-71800000D01*
X136700000Y-67200000D02*
X137700000Y-66200000D01*
X136700000Y-71800000D02*
X137700000Y-72800000D01*
X137295162Y-68170000D02*
X137925162Y-68170000D01*
X137610162Y-67855000D02*
X137610162Y-68485000D01*
X137700000Y-66200000D02*
X143300000Y-66200000D01*
X137700000Y-72800000D02*
X143300000Y-72800000D01*
X143300000Y-66200000D02*
X143300000Y-72800000D01*
X143150000Y-69500000D02*
G75*
G02*
X136850000Y-69500000I-3150000J0D01*
G01*
X136850000Y-69500000D02*
G75*
G02*
X143150000Y-69500000I3150000J0D01*
G01*
%TO.C,J1*%
X126995000Y-70342500D02*
X128820000Y-68517500D01*
X126995000Y-76127500D02*
X126995000Y-70342500D01*
X128820000Y-68517500D02*
X134295000Y-68517500D01*
X131550000Y-71555500D02*
X129457000Y-69462500D01*
X131550000Y-75365500D02*
X129457000Y-73272500D01*
X131733000Y-71372500D02*
X129640000Y-69279500D01*
X131733000Y-75182500D02*
X129640000Y-73089500D01*
X134295000Y-68517500D02*
X134295000Y-76127500D01*
X134295000Y-76127500D02*
X126995000Y-76127500D01*
X132095000Y-70417500D02*
G75*
G02*
X129095000Y-70417500I-1500000J0D01*
G01*
X129095000Y-70417500D02*
G75*
G02*
X132095000Y-70417500I1500000J0D01*
G01*
X132095000Y-74227500D02*
G75*
G02*
X129095000Y-74227500I-1500000J0D01*
G01*
X129095000Y-74227500D02*
G75*
G02*
X132095000Y-74227500I1500000J0D01*
G01*
%TO.C,R1*%
X138700000Y-79087500D02*
X140300000Y-79087500D01*
X140300000Y-79912500D01*
X138700000Y-79912500D01*
X138700000Y-79087500D01*
%TO.C,D1*%
X136900000Y-75100000D02*
X136900000Y-77800000D01*
X136900000Y-77800000D02*
X142100000Y-77800000D01*
X137800000Y-74200000D02*
X136900000Y-75100000D01*
X142100000Y-74200000D02*
X137800000Y-74200000D01*
X142100000Y-77800000D02*
X142100000Y-74200000D01*
%TO.C,J2*%
X150540000Y-72410000D02*
X150540000Y-73050000D01*
X150540000Y-73050000D02*
X149270000Y-73050000D01*
X149270000Y-72410000D02*
X150540000Y-72410000D01*
X149270000Y-72410000D02*
X148320000Y-71460000D01*
X149270000Y-76540000D02*
X149270000Y-72410000D01*
X149270000Y-76540000D02*
X146730000Y-76540000D01*
X146730000Y-71460000D02*
X148320000Y-71460000D01*
X146730000Y-71460000D02*
X146730000Y-76540000D01*
X146730000Y-74950000D02*
X145460000Y-74950000D01*
X145460000Y-74950000D02*
X145460000Y-75590000D01*
X145460000Y-75590000D02*
X146730000Y-75590000D01*
%TD*%
M02*
