%TF.GenerationSoftware,KiCad,Pcbnew,10.0.5*%
%TF.CreationDate,2026-09-27T00:39:31+05:30*%
%TF.ProjectId,Project,50726f6a-6563-4742-9e6b-696361645f70,rev?*%
%TF.SameCoordinates,Original*%
%TF.FileFunction,Copper,L2,Inr*%
%TF.FilePolarity,Positive*%
%FSLAX46Y46*%
G04 Gerber Fmt 4.6, Leading zero omitted, Abs format (unit mm)*
G04 Created by KiCad (PCBNEW 10.0.5) date 2026-09-27 00:39:31*
%MOMM*%
%LPD*%
G01*
G04 APERTURE LIST*
G04 Aperture macros list*
%AMRoundRect*
0 Rectangle with rounded corners*
0 $1 Rounding radius*
0 $2 $3 $4 $5 $6 $7 $8 $9 X,Y pos of 4 corners*
0 Add a 4 corners polygon primitive as box body*
4,1,4,$2,$3,$4,$5,$6,$7,$8,$9,$2,$3,0*
0 Add four circle primitives for the rounded corners*
1,1,$1+$1,$2,$3*
1,1,$1+$1,$4,$5*
1,1,$1+$1,$6,$7*
1,1,$1+$1,$8,$9*
0 Add four rect primitives between the rounded corners*
20,1,$1+$1,$2,$3,$4,$5,0*
20,1,$1+$1,$4,$5,$6,$7,0*
20,1,$1+$1,$6,$7,$8,$9,0*
20,1,$1+$1,$8,$9,$2,$3,0*%
G04 Aperture macros list end*
%TA.AperFunction,ComponentPad*%
%ADD10RoundRect,0.249999X-0.850001X0.850001X-0.850001X-0.850001X0.850001X-0.850001X0.850001X0.850001X0*%
%TD*%
%TA.AperFunction,ComponentPad*%
%ADD11C,2.200000*%
%TD*%
%TA.AperFunction,ComponentPad*%
%ADD12RoundRect,0.250000X-0.550000X-0.550000X0.550000X-0.550000X0.550000X0.550000X-0.550000X0.550000X0*%
%TD*%
%TA.AperFunction,ComponentPad*%
%ADD13C,1.600000*%
%TD*%
%TA.AperFunction,ComponentPad*%
%ADD14RoundRect,0.249999X0.850001X-0.850001X0.850001X0.850001X-0.850001X0.850001X-0.850001X-0.850001X0*%
%TD*%
%TA.AperFunction,ComponentPad*%
%ADD15C,1.440000*%
%TD*%
%TA.AperFunction,ComponentPad*%
%ADD16C,3.000000*%
%TD*%
%TA.AperFunction,ComponentPad*%
%ADD17C,2.500000*%
%TD*%
%TA.AperFunction,ViaPad*%
%ADD18C,0.600000*%
%TD*%
%TA.AperFunction,Conductor*%
%ADD19C,0.200000*%
%TD*%
G04 APERTURE END LIST*
D10*
%TO.N,Net-(D3-A)*%
%TO.C,J4*%
X94000000Y-56500000D03*
D11*
%TO.N,GNDD*%
X94000000Y-59040000D03*
%TD*%
D12*
%TO.N,VCC*%
%TO.C,C3*%
X102000000Y-57000000D03*
D13*
%TO.N,Net-(U2-THRES)*%
X104000000Y-57000000D03*
%TD*%
D14*
%TO.N,Net-(J5-Pin_1)*%
%TO.C,J5*%
X140000000Y-61580000D03*
D11*
%TO.N,Net-(J5-Pin_2)*%
X140000000Y-59040000D03*
%TO.N,Net-(J5-Pin_3)*%
X140000000Y-56500000D03*
%TD*%
D15*
%TO.N,Net-(U2-THRES)*%
%TO.C,RV2*%
X107580000Y-62500000D03*
%TO.N,GNDD*%
X105040000Y-62500000D03*
X102500000Y-62500000D03*
%TD*%
D16*
%TO.N,Net-(J5-Pin_2)*%
%TO.C,K1*%
X117575000Y-58975000D03*
D17*
%TO.N,Net-(J5-Pin_3)*%
X119525000Y-65025000D03*
D16*
%TO.N,VCC*%
X131725000Y-65025000D03*
%TO.N,Net-(D7-A)*%
X131775000Y-52975000D03*
D17*
%TO.N,Net-(J5-Pin_1)*%
X119525000Y-53025000D03*
%TD*%
D18*
%TO.N,GNDD*%
X113500000Y-60500000D03*
X99000000Y-56000000D03*
X101875000Y-61875000D03*
X99000000Y-61875000D03*
X107000000Y-58150000D03*
X95500000Y-58000000D03*
%TO.N,Net-(D5-A)*%
X101000000Y-60500000D03*
X113994044Y-56116655D03*
%TO.N,Net-(U2-CONT)*%
X106934313Y-54934313D03*
X109500000Y-54500000D03*
%TO.N,Net-(U2-THRES)*%
X107500000Y-55500000D03*
X108500000Y-54500000D03*
%TO.N,Net-(D6-K)*%
X112500000Y-61000000D03*
X110500000Y-56500000D03*
%TO.N,Net-(J5-Pin_1)*%
X128500000Y-58500000D03*
X122000000Y-53500000D03*
%TO.N,Net-(J5-Pin_2)*%
X126450735Y-57450735D03*
X138000000Y-58000000D03*
%TO.N,Net-(U2-OUT)*%
X109540000Y-58150000D03*
X113000000Y-58000000D03*
%TD*%
%TO.N,Net-(D6-K)*%
D19*
X112500000Y-58500000D02*
X112500000Y-61000000D01*
X110500000Y-56500000D02*
X112500000Y-58500000D01*
%TO.N,Net-(J5-Pin_2)*%
X137450735Y-57450735D02*
X138000000Y-58000000D01*
X126450735Y-57450735D02*
X137450735Y-57450735D01*
%TD*%
M02*
