%TF.GenerationSoftware,KiCad,Pcbnew,10.0.5*%
%TF.CreationDate,2026-09-27T00:39:31+05:30*%
%TF.ProjectId,Project,50726f6a-6563-4742-9e6b-696361645f70,rev?*%
%TF.SameCoordinates,Original*%
%TF.FileFunction,Copper,L3,Inr*%
%TF.FilePolarity,Positive*%
%FSLAX46Y46*%
G04 Gerber Fmt 4.6, Leading zero omitted, Abs format (unit mm)*
G04 Created by KiCad (PCBNEW 10.0.5) date 2026-09-27 00:39:31*
%MOMM*%
%LPD*%
G01*
G04 APERTURE LIST*
G04 Aperture macros list*
%AMRoundRect*
0 Rectangle with rounded corners*
0 $1 Rounding radius*
0 $2 $3 $4 $5 $6 $7 $8 $9 X,Y pos of 4 corners*
0 Add a 4 corners polygon primitive as box body*
4,1,4,$2,$3,$4,$5,$6,$7,$8,$9,$2,$3,0*
0 Add four circle primitives for the rounded corners*
1,1,$1+$1,$2,$3*
1,1,$1+$1,$4,$5*
1,1,$1+$1,$6,$7*
1,1,$1+$1,$8,$9*
0 Add four rect primitives between the rounded corners*
20,1,$1+$1,$2,$3,$4,$5,0*
20,1,$1+$1,$4,$5,$6,$7,0*
20,1,$1+$1,$6,$7,$8,$9,0*
20,1,$1+$1,$8,$9,$2,$3,0*%
G04 Aperture macros list end*
%TA.AperFunction,ComponentPad*%
%ADD10RoundRect,0.249999X-0.850001X0.850001X-0.850001X-0.850001X0.850001X-0.850001X0.850001X0.850001X0*%
%TD*%
%TA.AperFunction,ComponentPad*%
%ADD11C,2.200000*%
%TD*%
%TA.AperFunction,ComponentPad*%
%ADD12RoundRect,0.250000X-0.550000X-0.550000X0.550000X-0.550000X0.550000X0.550000X-0.550000X0.550000X0*%
%TD*%
%TA.AperFunction,ComponentPad*%
%ADD13C,1.600000*%
%TD*%
%TA.AperFunction,ComponentPad*%
%ADD14RoundRect,0.249999X0.850001X-0.850001X0.850001X0.850001X-0.850001X0.850001X-0.850001X-0.850001X0*%
%TD*%
%TA.AperFunction,ComponentPad*%
%ADD15C,1.440000*%
%TD*%
%TA.AperFunction,ComponentPad*%
%ADD16C,3.000000*%
%TD*%
%TA.AperFunction,ComponentPad*%
%ADD17C,2.500000*%
%TD*%
%TA.AperFunction,ViaPad*%
%ADD18C,0.600000*%
%TD*%
%TA.AperFunction,Conductor*%
%ADD19C,0.200000*%
%TD*%
G04 APERTURE END LIST*
D10*
%TO.N,Net-(D3-A)*%
%TO.C,J4*%
X94000000Y-56500000D03*
D11*
%TO.N,GNDD*%
X94000000Y-59040000D03*
%TD*%
D12*
%TO.N,VCC*%
%TO.C,C3*%
X102000000Y-57000000D03*
D13*
%TO.N,Net-(U2-THRES)*%
X104000000Y-57000000D03*
%TD*%
D14*
%TO.N,Net-(J5-Pin_1)*%
%TO.C,J5*%
X140000000Y-61580000D03*
D11*
%TO.N,Net-(J5-Pin_2)*%
X140000000Y-59040000D03*
%TO.N,Net-(J5-Pin_3)*%
X140000000Y-56500000D03*
%TD*%
D15*
%TO.N,Net-(U2-THRES)*%
%TO.C,RV2*%
X107580000Y-62500000D03*
%TO.N,GNDD*%
X105040000Y-62500000D03*
X102500000Y-62500000D03*
%TD*%
D16*
%TO.N,Net-(J5-Pin_2)*%
%TO.C,K1*%
X117575000Y-58975000D03*
D17*
%TO.N,Net-(J5-Pin_3)*%
X119525000Y-65025000D03*
D16*
%TO.N,VCC*%
X131725000Y-65025000D03*
%TO.N,Net-(D7-A)*%
X131775000Y-52975000D03*
D17*
%TO.N,Net-(J5-Pin_1)*%
X119525000Y-53025000D03*
%TD*%
D18*
%TO.N,GNDD*%
X113500000Y-60500000D03*
X99000000Y-56000000D03*
X101875000Y-61875000D03*
X99000000Y-61875000D03*
X107000000Y-58150000D03*
X95500000Y-58000000D03*
%TO.N,Net-(D5-A)*%
X101000000Y-60500000D03*
X113994044Y-56116655D03*
%TO.N,Net-(U2-CONT)*%
X106934313Y-54934313D03*
X109500000Y-54500000D03*
%TO.N,Net-(U2-THRES)*%
X107500000Y-55500000D03*
X108500000Y-54500000D03*
%TO.N,Net-(J5-Pin_1)*%
X128500000Y-58500000D03*
X122000000Y-53500000D03*
%TO.N,Net-(J5-Pin_2)*%
X126450735Y-57450735D03*
%TO.N,Net-(U2-OUT)*%
X109540000Y-58150000D03*
X113000000Y-58000000D03*
%TD*%
%TO.N,GNDD*%
D19*
X99000000Y-61875000D02*
X99000000Y-62000000D01*
%TO.N,Net-(D5-A)*%
X109610699Y-60500000D02*
X113994044Y-56116655D01*
X101000000Y-60500000D02*
X109610699Y-60500000D01*
%TO.N,Net-(U2-CONT)*%
X107968626Y-53900000D02*
X106934313Y-54934313D01*
X109500000Y-54500000D02*
X108900000Y-53900000D01*
X108900000Y-53900000D02*
X107968626Y-53900000D01*
%TO.N,Net-(U2-THRES)*%
X108500000Y-54500000D02*
X107500000Y-55500000D01*
%TO.N,Net-(J5-Pin_1)*%
X123500000Y-53500000D02*
X122000000Y-53500000D01*
X128500000Y-58500000D02*
X123500000Y-53500000D01*
%TD*%
%TA.AperFunction,Conductor*%
%TO.N,GNDD*%
G36*
X104683350Y-61120185D02*
G01*
X104729105Y-61172989D01*
X104739049Y-61242147D01*
X104710024Y-61305703D01*
X104654630Y-61342431D01*
X104571678Y-61369383D01*
X104400578Y-61456564D01*
X104371352Y-61477798D01*
X104371351Y-61477798D01*
X104993554Y-62100000D01*
X104987339Y-62100000D01*
X104885606Y-62127259D01*
X104794394Y-62179920D01*
X104719920Y-62254394D01*
X104667259Y-62345606D01*
X104640000Y-62447339D01*
X104640000Y-62453553D01*
X104017798Y-61831351D01*
X104017798Y-61831352D01*
X103996564Y-61860578D01*
X103909383Y-62031678D01*
X103887931Y-62097703D01*
X103848493Y-62155378D01*
X103784134Y-62182576D01*
X103715288Y-62170661D01*
X103663812Y-62123417D01*
X103652069Y-62097703D01*
X103630616Y-62031678D01*
X103543434Y-61860577D01*
X103522201Y-61831352D01*
X103522200Y-61831351D01*
X102900000Y-62453552D01*
X102900000Y-62447339D01*
X102872741Y-62345606D01*
X102820080Y-62254394D01*
X102745606Y-62179920D01*
X102654394Y-62127259D01*
X102552661Y-62100000D01*
X102546447Y-62100000D01*
X103168646Y-61477798D01*
X103139415Y-61456561D01*
X102968321Y-61369383D01*
X102885370Y-61342431D01*
X102827695Y-61302993D01*
X102800497Y-61238634D01*
X102812412Y-61169788D01*
X102859656Y-61118312D01*
X102923689Y-61100500D01*
X104616311Y-61100500D01*
X104683350Y-61120185D01*
G37*
%TD.AperFunction*%
%TA.AperFunction,Conductor*%
G36*
X107221730Y-61120185D02*
G01*
X107267485Y-61172989D01*
X107277429Y-61242147D01*
X107248404Y-61305703D01*
X107193009Y-61342431D01*
X107111493Y-61368916D01*
X106940318Y-61456135D01*
X106910502Y-61477798D01*
X106784898Y-61569055D01*
X106784896Y-61569057D01*
X106784895Y-61569057D01*
X106649057Y-61704895D01*
X106649057Y-61704896D01*
X106649055Y-61704898D01*
X106600560Y-61771645D01*
X106536135Y-61860318D01*
X106448917Y-62031492D01*
X106427667Y-62096892D01*
X106388229Y-62154567D01*
X106323870Y-62181765D01*
X106255024Y-62169850D01*
X106203548Y-62122605D01*
X106191805Y-62096891D01*
X106170616Y-62031680D01*
X106083434Y-61860577D01*
X106062201Y-61831352D01*
X106062200Y-61831351D01*
X105440000Y-62453552D01*
X105440000Y-62447339D01*
X105412741Y-62345606D01*
X105360080Y-62254394D01*
X105285606Y-62179920D01*
X105194394Y-62127259D01*
X105092661Y-62100000D01*
X105086447Y-62100000D01*
X105708646Y-61477798D01*
X105679415Y-61456561D01*
X105508321Y-61369383D01*
X105425370Y-61342431D01*
X105367695Y-61302993D01*
X105340497Y-61238634D01*
X105352412Y-61169788D01*
X105399656Y-61118312D01*
X105463689Y-61100500D01*
X107154691Y-61100500D01*
X107221730Y-61120185D01*
G37*
%TD.AperFunction*%
%TA.AperFunction,Conductor*%
G36*
X130798200Y-51020185D02*
G01*
X130843955Y-51072989D01*
X130853899Y-51142147D01*
X130824874Y-51205703D01*
X130793161Y-51231887D01*
X130661196Y-51308075D01*
X130453148Y-51467718D01*
X130267718Y-51653148D01*
X130108075Y-51861196D01*
X129976958Y-52088299D01*
X129976953Y-52088309D01*
X129876605Y-52330571D01*
X129876602Y-52330581D01*
X129841627Y-52461112D01*
X129808730Y-52583885D01*
X129774500Y-52843872D01*
X129774500Y-53106127D01*
X129798239Y-53286433D01*
X129808730Y-53366116D01*
X129868421Y-53588887D01*
X129876602Y-53619418D01*
X129876605Y-53619428D01*
X129976953Y-53861690D01*
X129976958Y-53861700D01*
X130108075Y-54088803D01*
X130267718Y-54296851D01*
X130267726Y-54296860D01*
X130453140Y-54482274D01*
X130453148Y-54482281D01*
X130661196Y-54641924D01*
X130888299Y-54773041D01*
X130888309Y-54773046D01*
X131087289Y-54855466D01*
X131130581Y-54873398D01*
X131383884Y-54941270D01*
X131643880Y-54975500D01*
X131643887Y-54975500D01*
X131906113Y-54975500D01*
X131906120Y-54975500D01*
X132166116Y-54941270D01*
X132419419Y-54873398D01*
X132596340Y-54800114D01*
X132661690Y-54773046D01*
X132661691Y-54773045D01*
X132661697Y-54773043D01*
X132888803Y-54641924D01*
X133096851Y-54482282D01*
X133096855Y-54482277D01*
X133096860Y-54482274D01*
X133282274Y-54296860D01*
X133282277Y-54296855D01*
X133282282Y-54296851D01*
X133441924Y-54088803D01*
X133573043Y-53861697D01*
X133673398Y-53619419D01*
X133741270Y-53366116D01*
X133775500Y-53106120D01*
X133775500Y-52843880D01*
X133741270Y-52583884D01*
X133673398Y-52330581D01*
X133639657Y-52249123D01*
X133573046Y-52088309D01*
X133573041Y-52088299D01*
X133441924Y-51861196D01*
X133282281Y-51653148D01*
X133282274Y-51653140D01*
X133096860Y-51467726D01*
X133096851Y-51467718D01*
X132888803Y-51308075D01*
X132756839Y-51231887D01*
X132708624Y-51181321D01*
X132695400Y-51112714D01*
X132721368Y-51047849D01*
X132778282Y-51007320D01*
X132818839Y-51000500D01*
X144629449Y-51000500D01*
X144696488Y-51020185D01*
X144742243Y-51072989D01*
X144752187Y-51142147D01*
X144723162Y-51205703D01*
X144702337Y-51224815D01*
X144522490Y-51355483D01*
X144522488Y-51355485D01*
X144522487Y-51355485D01*
X144355485Y-51522487D01*
X144355485Y-51522488D01*
X144355483Y-51522490D01*
X144323586Y-51566392D01*
X144216657Y-51713566D01*
X144109433Y-51924003D01*
X144036446Y-52148631D01*
X143999500Y-52381902D01*
X143999500Y-52618097D01*
X144036446Y-52851368D01*
X144109433Y-53075996D01*
X144155023Y-53165470D01*
X144216657Y-53286433D01*
X144355483Y-53477510D01*
X144522490Y-53644517D01*
X144713567Y-53783343D01*
X144812991Y-53834002D01*
X144924003Y-53890566D01*
X144924005Y-53890566D01*
X144924008Y-53890568D01*
X145044412Y-53929689D01*
X145148631Y-53963553D01*
X145381903Y-54000500D01*
X145381908Y-54000500D01*
X145618097Y-54000500D01*
X145851368Y-53963553D01*
X146075992Y-53890568D01*
X146286433Y-53783343D01*
X146302612Y-53771587D01*
X146368418Y-53748106D01*
X146436472Y-53763930D01*
X146485168Y-53814034D01*
X146499500Y-53871904D01*
X146499500Y-64628095D01*
X146479815Y-64695134D01*
X146427011Y-64740889D01*
X146357853Y-64750833D01*
X146302615Y-64728414D01*
X146286432Y-64716656D01*
X146075996Y-64609433D01*
X145851368Y-64536446D01*
X145618097Y-64499500D01*
X145618092Y-64499500D01*
X145381908Y-64499500D01*
X145381903Y-64499500D01*
X145148631Y-64536446D01*
X144924003Y-64609433D01*
X144713566Y-64716657D01*
X144604550Y-64795862D01*
X144522490Y-64855483D01*
X144522488Y-64855485D01*
X144522487Y-64855485D01*
X144355485Y-65022487D01*
X144355485Y-65022488D01*
X144355483Y-65022490D01*
X144295862Y-65104550D01*
X144216657Y-65213566D01*
X144109433Y-65424003D01*
X144036446Y-65648631D01*
X143999500Y-65881902D01*
X143999500Y-66118097D01*
X144036446Y-66351368D01*
X144109433Y-66575996D01*
X144216656Y-66786432D01*
X144228414Y-66802615D01*
X144251893Y-66868422D01*
X144236067Y-66936476D01*
X144185961Y-66985170D01*
X144128095Y-66999500D01*
X132768839Y-66999500D01*
X132701800Y-66979815D01*
X132656045Y-66927011D01*
X132646101Y-66857853D01*
X132675126Y-66794297D01*
X132706839Y-66768113D01*
X132838803Y-66691924D01*
X132960751Y-66598349D01*
X133046851Y-66532282D01*
X133046855Y-66532277D01*
X133046860Y-66532274D01*
X133232274Y-66346860D01*
X133232277Y-66346855D01*
X133232282Y-66346851D01*
X133391924Y-66138803D01*
X133523043Y-65911697D01*
X133623398Y-65669419D01*
X133691270Y-65416116D01*
X133725500Y-65156120D01*
X133725500Y-64893880D01*
X133691270Y-64633884D01*
X133623398Y-64380581D01*
X133623394Y-64380571D01*
X133523046Y-64138309D01*
X133523041Y-64138299D01*
X133391924Y-63911196D01*
X133232281Y-63703148D01*
X133232274Y-63703140D01*
X133046860Y-63517726D01*
X133046851Y-63517718D01*
X132838803Y-63358075D01*
X132611700Y-63226958D01*
X132611690Y-63226953D01*
X132369428Y-63126605D01*
X132369421Y-63126603D01*
X132369419Y-63126602D01*
X132116116Y-63058730D01*
X132058339Y-63051123D01*
X131856127Y-63024500D01*
X131856120Y-63024500D01*
X131593880Y-63024500D01*
X131593872Y-63024500D01*
X131362772Y-63054926D01*
X131333884Y-63058730D01*
X131124582Y-63114812D01*
X131080581Y-63126602D01*
X131080571Y-63126605D01*
X130838309Y-63226953D01*
X130838299Y-63226958D01*
X130611196Y-63358075D01*
X130403148Y-63517718D01*
X130217718Y-63703148D01*
X130058075Y-63911196D01*
X129926958Y-64138299D01*
X129926953Y-64138309D01*
X129826605Y-64380571D01*
X129826602Y-64380581D01*
X129758730Y-64633885D01*
X129724500Y-64893872D01*
X129724500Y-65156127D01*
X129732063Y-65213567D01*
X129758730Y-65416116D01*
X129805024Y-65588887D01*
X129826602Y-65669418D01*
X129826605Y-65669428D01*
X129926953Y-65911690D01*
X129926958Y-65911700D01*
X130058075Y-66138803D01*
X130217718Y-66346851D01*
X130217726Y-66346860D01*
X130403140Y-66532274D01*
X130403148Y-66532281D01*
X130611196Y-66691924D01*
X130743161Y-66768113D01*
X130791376Y-66818679D01*
X130804600Y-66887286D01*
X130778632Y-66952151D01*
X130721718Y-66992680D01*
X130681161Y-66999500D01*
X119830155Y-66999500D01*
X119763116Y-66979815D01*
X119717361Y-66927011D01*
X119707417Y-66857853D01*
X119736442Y-66794297D01*
X119795220Y-66756523D01*
X119813967Y-66752561D01*
X119867238Y-66745548D01*
X120088887Y-66686158D01*
X120300888Y-66598344D01*
X120499612Y-66483611D01*
X120681661Y-66343919D01*
X120681665Y-66343914D01*
X120681670Y-66343911D01*
X120843911Y-66181670D01*
X120843914Y-66181665D01*
X120843919Y-66181661D01*
X120983611Y-65999612D01*
X121098344Y-65800888D01*
X121186158Y-65588887D01*
X121245548Y-65367238D01*
X121275500Y-65139734D01*
X121275500Y-64910266D01*
X121245548Y-64682762D01*
X121186158Y-64461113D01*
X121098344Y-64249112D01*
X120983611Y-64050388D01*
X120983608Y-64050385D01*
X120983607Y-64050382D01*
X120843918Y-63868338D01*
X120843911Y-63868330D01*
X120681670Y-63706089D01*
X120681661Y-63706081D01*
X120499617Y-63566392D01*
X120300890Y-63451657D01*
X120300876Y-63451650D01*
X120088887Y-63363842D01*
X120067364Y-63358075D01*
X119867238Y-63304452D01*
X119829215Y-63299446D01*
X119639741Y-63274500D01*
X119639734Y-63274500D01*
X119410266Y-63274500D01*
X119410258Y-63274500D01*
X119193715Y-63303009D01*
X119182762Y-63304452D01*
X119089076Y-63329554D01*
X118961112Y-63363842D01*
X118749123Y-63451650D01*
X118749109Y-63451657D01*
X118550382Y-63566392D01*
X118368338Y-63706081D01*
X118206081Y-63868338D01*
X118066392Y-64050382D01*
X117951657Y-64249109D01*
X117951650Y-64249123D01*
X117863842Y-64461112D01*
X117829554Y-64589076D01*
X117824101Y-64609432D01*
X117804453Y-64682759D01*
X117804451Y-64682770D01*
X117774500Y-64910258D01*
X117774500Y-65139741D01*
X117784220Y-65213566D01*
X117804452Y-65367238D01*
X117841304Y-65504773D01*
X117863842Y-65588887D01*
X117951650Y-65800876D01*
X117951657Y-65800890D01*
X118066392Y-65999617D01*
X118206081Y-66181661D01*
X118206089Y-66181670D01*
X118368330Y-66343911D01*
X118368338Y-66343918D01*
X118550382Y-66483607D01*
X118550385Y-66483608D01*
X118550388Y-66483611D01*
X118749112Y-66598344D01*
X118749117Y-66598346D01*
X118749123Y-66598349D01*
X118840480Y-66636190D01*
X118961113Y-66686158D01*
X119182762Y-66745548D01*
X119236031Y-66752561D01*
X119299927Y-66780828D01*
X119338398Y-66839152D01*
X119339229Y-66909017D01*
X119302157Y-66968240D01*
X119238951Y-66998019D01*
X119219845Y-66999500D01*
X92371905Y-66999500D01*
X92304866Y-66979815D01*
X92259111Y-66927011D01*
X92249167Y-66857853D01*
X92271586Y-66802615D01*
X92277629Y-66794297D01*
X92283343Y-66786433D01*
X92390568Y-66575992D01*
X92463553Y-66351368D01*
X92488929Y-66191150D01*
X92500500Y-66118097D01*
X92500500Y-65881902D01*
X92463553Y-65648631D01*
X92390566Y-65424003D01*
X92283342Y-65213566D01*
X92241605Y-65156120D01*
X92144517Y-65022490D01*
X91977510Y-64855483D01*
X91786433Y-64716657D01*
X91726189Y-64685961D01*
X91575996Y-64609433D01*
X91351368Y-64536446D01*
X91118097Y-64499500D01*
X91118092Y-64499500D01*
X90881908Y-64499500D01*
X90881903Y-64499500D01*
X90648631Y-64536446D01*
X90424003Y-64609433D01*
X90213567Y-64716656D01*
X90197385Y-64728414D01*
X90131578Y-64751893D01*
X90063524Y-64736067D01*
X90014830Y-64685961D01*
X90000500Y-64628095D01*
X90000500Y-56421153D01*
X90659500Y-56421153D01*
X90659500Y-56578846D01*
X90690261Y-56733489D01*
X90690264Y-56733501D01*
X90750602Y-56879172D01*
X90750609Y-56879185D01*
X90838210Y-57010288D01*
X90838213Y-57010292D01*
X90949707Y-57121786D01*
X90949711Y-57121789D01*
X91080814Y-57209390D01*
X91080827Y-57209397D01*
X91226498Y-57269735D01*
X91226503Y-57269737D01*
X91381153Y-57300499D01*
X91381156Y-57300500D01*
X91381158Y-57300500D01*
X91538844Y-57300500D01*
X91538845Y-57300499D01*
X91693497Y-57269737D01*
X91839179Y-57209394D01*
X91970289Y-57121789D01*
X92081789Y-57010289D01*
X92148286Y-56910770D01*
X92172398Y-56874684D01*
X92226010Y-56829879D01*
X92295335Y-56821172D01*
X92358363Y-56851326D01*
X92395082Y-56910770D01*
X92399500Y-56943575D01*
X92399500Y-57400017D01*
X92410000Y-57502796D01*
X92465185Y-57669332D01*
X92465187Y-57669337D01*
X92485827Y-57702799D01*
X92554005Y-57813334D01*
X92557289Y-57818657D01*
X92686451Y-57947819D01*
X92684117Y-57950152D01*
X92716065Y-57995195D01*
X92719257Y-58064992D01*
X92699126Y-58108415D01*
X92631559Y-58201413D01*
X92517219Y-58425815D01*
X92439397Y-58665329D01*
X92434008Y-58699353D01*
X92404077Y-58762487D01*
X92344765Y-58799417D01*
X92274902Y-58798418D01*
X92216671Y-58759807D01*
X92196974Y-58727405D01*
X92169397Y-58660827D01*
X92169390Y-58660814D01*
X92081789Y-58529711D01*
X92081786Y-58529707D01*
X91970292Y-58418213D01*
X91970288Y-58418210D01*
X91839185Y-58330609D01*
X91839172Y-58330602D01*
X91693501Y-58270264D01*
X91693489Y-58270261D01*
X91538845Y-58239500D01*
X91538842Y-58239500D01*
X91381158Y-58239500D01*
X91381155Y-58239500D01*
X91226510Y-58270261D01*
X91226498Y-58270264D01*
X91080827Y-58330602D01*
X91080814Y-58330609D01*
X90949711Y-58418210D01*
X90949707Y-58418213D01*
X90838213Y-58529707D01*
X90838210Y-58529711D01*
X90750609Y-58660814D01*
X90750602Y-58660827D01*
X90690264Y-58806498D01*
X90690261Y-58806510D01*
X90659500Y-58961153D01*
X90659500Y-59118846D01*
X90690261Y-59273489D01*
X90690264Y-59273501D01*
X90750602Y-59419172D01*
X90750609Y-59419185D01*
X90838210Y-59550288D01*
X90838213Y-59550292D01*
X90949707Y-59661786D01*
X90949711Y-59661789D01*
X91080814Y-59749390D01*
X91080827Y-59749397D01*
X91226498Y-59809735D01*
X91226503Y-59809737D01*
X91381153Y-59840499D01*
X91381156Y-59840500D01*
X91381158Y-59840500D01*
X91538844Y-59840500D01*
X91538845Y-59840499D01*
X91693497Y-59809737D01*
X91839179Y-59749394D01*
X91970289Y-59661789D01*
X92081789Y-59550289D01*
X92169394Y-59419179D01*
X92196974Y-59352592D01*
X92240814Y-59298191D01*
X92307108Y-59276125D01*
X92374807Y-59293403D01*
X92422418Y-59344540D01*
X92434008Y-59380646D01*
X92439397Y-59414670D01*
X92517219Y-59654184D01*
X92631557Y-59878583D01*
X92705748Y-59980697D01*
X92705748Y-59980698D01*
X93476212Y-59210233D01*
X93487482Y-59252292D01*
X93559890Y-59377708D01*
X93662292Y-59480110D01*
X93787708Y-59552518D01*
X93829765Y-59563787D01*
X93059300Y-60334250D01*
X93161416Y-60408442D01*
X93385815Y-60522780D01*
X93625330Y-60600602D01*
X93874072Y-60640000D01*
X94125928Y-60640000D01*
X94374669Y-60600602D01*
X94614184Y-60522780D01*
X94813636Y-60421153D01*
X100199500Y-60421153D01*
X100199500Y-60578846D01*
X100230261Y-60733489D01*
X100230264Y-60733501D01*
X100290602Y-60879172D01*
X100290609Y-60879185D01*
X100378210Y-61010288D01*
X100378213Y-61010292D01*
X100489707Y-61121786D01*
X100489711Y-61121789D01*
X100620814Y-61209390D01*
X100620827Y-61209397D01*
X100766498Y-61269735D01*
X100766503Y-61269737D01*
X100921153Y-61300499D01*
X100921156Y-61300500D01*
X100921158Y-61300500D01*
X101078844Y-61300500D01*
X101078845Y-61300499D01*
X101233497Y-61269737D01*
X101379179Y-61209394D01*
X101439290Y-61169229D01*
X101510875Y-61121398D01*
X101577553Y-61100520D01*
X101579766Y-61100500D01*
X102076311Y-61100500D01*
X102143350Y-61120185D01*
X102189105Y-61172989D01*
X102199049Y-61242147D01*
X102170024Y-61305703D01*
X102114630Y-61342431D01*
X102031678Y-61369383D01*
X101860578Y-61456564D01*
X101831352Y-61477798D01*
X101831351Y-61477798D01*
X102453554Y-62100000D01*
X102447339Y-62100000D01*
X102345606Y-62127259D01*
X102254394Y-62179920D01*
X102179920Y-62254394D01*
X102127259Y-62345606D01*
X102100000Y-62447339D01*
X102100000Y-62453553D01*
X101477798Y-61831351D01*
X101477798Y-61831352D01*
X101456564Y-61860578D01*
X101369383Y-62031678D01*
X101310040Y-62214315D01*
X101280000Y-62403984D01*
X101280000Y-62596015D01*
X101310040Y-62785684D01*
X101369383Y-62968321D01*
X101456561Y-63139415D01*
X101477798Y-63168646D01*
X102100000Y-62546445D01*
X102100000Y-62552661D01*
X102127259Y-62654394D01*
X102179920Y-62745606D01*
X102254394Y-62820080D01*
X102345606Y-62872741D01*
X102447339Y-62900000D01*
X102453554Y-62900000D01*
X101831351Y-63522200D01*
X101831352Y-63522201D01*
X101860577Y-63543434D01*
X102031678Y-63630616D01*
X102214315Y-63689959D01*
X102403985Y-63720000D01*
X102596015Y-63720000D01*
X102785684Y-63689959D01*
X102968321Y-63630616D01*
X103139419Y-63543436D01*
X103168646Y-63522201D01*
X103168646Y-63522200D01*
X102546447Y-62900000D01*
X102552661Y-62900000D01*
X102654394Y-62872741D01*
X102745606Y-62820080D01*
X102820080Y-62745606D01*
X102872741Y-62654394D01*
X102900000Y-62552661D01*
X102900000Y-62546446D01*
X103522200Y-63168646D01*
X103522201Y-63168646D01*
X103543436Y-63139419D01*
X103630616Y-62968319D01*
X103652069Y-62902297D01*
X103691507Y-62844621D01*
X103755865Y-62817423D01*
X103824712Y-62829338D01*
X103876187Y-62876582D01*
X103887931Y-62902297D01*
X103909383Y-62968319D01*
X103996561Y-63139415D01*
X104017798Y-63168646D01*
X104640000Y-62546445D01*
X104640000Y-62552661D01*
X104667259Y-62654394D01*
X104719920Y-62745606D01*
X104794394Y-62820080D01*
X104885606Y-62872741D01*
X104987339Y-62900000D01*
X104993554Y-62900000D01*
X104371351Y-63522200D01*
X104371352Y-63522201D01*
X104400577Y-63543434D01*
X104571678Y-63630616D01*
X104754315Y-63689959D01*
X104943985Y-63720000D01*
X105136015Y-63720000D01*
X105325684Y-63689959D01*
X105508321Y-63630616D01*
X105679419Y-63543436D01*
X105708646Y-63522201D01*
X105708646Y-63522200D01*
X105086447Y-62900000D01*
X105092661Y-62900000D01*
X105194394Y-62872741D01*
X105285606Y-62820080D01*
X105360080Y-62745606D01*
X105412741Y-62654394D01*
X105440000Y-62552661D01*
X105440000Y-62546446D01*
X106062200Y-63168646D01*
X106062201Y-63168646D01*
X106083436Y-63139419D01*
X106170616Y-62968319D01*
X106191805Y-62903108D01*
X106231242Y-62845433D01*
X106295600Y-62818234D01*
X106364447Y-62830148D01*
X106415923Y-62877392D01*
X106427667Y-62903108D01*
X106448916Y-62968505D01*
X106448917Y-62968506D01*
X106448918Y-62968509D01*
X106536135Y-63139681D01*
X106649055Y-63295102D01*
X106784898Y-63430945D01*
X106940319Y-63543865D01*
X107110576Y-63630616D01*
X107111493Y-63631083D01*
X107202845Y-63660764D01*
X107294199Y-63690447D01*
X107483945Y-63720500D01*
X107483946Y-63720500D01*
X107676054Y-63720500D01*
X107676055Y-63720500D01*
X107865801Y-63690447D01*
X108048509Y-63631082D01*
X108219681Y-63543865D01*
X108375102Y-63430945D01*
X108510945Y-63295102D01*
X108623865Y-63139681D01*
X108711082Y-62968509D01*
X108770447Y-62785801D01*
X108800500Y-62596055D01*
X108800500Y-62403945D01*
X108770447Y-62214199D01*
X108733342Y-62100000D01*
X108711083Y-62031493D01*
X108672890Y-61956536D01*
X108623865Y-61860319D01*
X108510945Y-61704898D01*
X108375102Y-61569055D01*
X108219681Y-61456135D01*
X108048506Y-61368916D01*
X107966991Y-61342431D01*
X107909316Y-61302994D01*
X107882117Y-61238636D01*
X107894031Y-61169789D01*
X107941275Y-61118313D01*
X108005309Y-61100500D01*
X109524030Y-61100500D01*
X109524046Y-61100501D01*
X109531642Y-61100501D01*
X109689753Y-61100501D01*
X109689756Y-61100501D01*
X109842484Y-61059577D01*
X109892603Y-61030639D01*
X109979415Y-60980520D01*
X110091219Y-60868716D01*
X110091219Y-60868714D01*
X110101427Y-60858507D01*
X110101428Y-60858504D01*
X112116061Y-58843872D01*
X115574500Y-58843872D01*
X115574500Y-59106127D01*
X115588097Y-59209397D01*
X115608730Y-59366116D01*
X115676602Y-59619418D01*
X115676605Y-59619428D01*
X115776953Y-59861690D01*
X115776958Y-59861700D01*
X115908075Y-60088803D01*
X116067718Y-60296851D01*
X116067726Y-60296860D01*
X116253140Y-60482274D01*
X116253148Y-60482281D01*
X116461196Y-60641924D01*
X116688299Y-60773041D01*
X116688309Y-60773046D01*
X116930571Y-60873394D01*
X116930581Y-60873398D01*
X117183884Y-60941270D01*
X117443880Y-60975500D01*
X117443887Y-60975500D01*
X117706113Y-60975500D01*
X117706120Y-60975500D01*
X117966116Y-60941270D01*
X118219419Y-60873398D01*
X118396340Y-60800114D01*
X118461690Y-60773046D01*
X118461691Y-60773045D01*
X118461697Y-60773043D01*
X118688803Y-60641924D01*
X118896851Y-60482282D01*
X118896855Y-60482277D01*
X118896860Y-60482274D01*
X119082274Y-60296860D01*
X119082277Y-60296855D01*
X119082282Y-60296851D01*
X119241924Y-60088803D01*
X119373043Y-59861697D01*
X119473398Y-59619419D01*
X119541270Y-59366116D01*
X119575500Y-59106120D01*
X119575500Y-58843880D01*
X119541270Y-58583884D01*
X119473398Y-58330581D01*
X119460937Y-58300498D01*
X119373046Y-58088309D01*
X119373041Y-58088299D01*
X119241924Y-57861196D01*
X119104121Y-57681610D01*
X119082282Y-57653149D01*
X119082281Y-57653148D01*
X119082274Y-57653140D01*
X118896860Y-57467726D01*
X118896851Y-57467718D01*
X118688803Y-57308075D01*
X118461700Y-57176958D01*
X118461690Y-57176953D01*
X118219428Y-57076605D01*
X118219421Y-57076603D01*
X118219419Y-57076602D01*
X117966116Y-57008730D01*
X117908339Y-57001123D01*
X117706127Y-56974500D01*
X117706120Y-56974500D01*
X117443880Y-56974500D01*
X117443872Y-56974500D01*
X117212772Y-57004926D01*
X117183884Y-57008730D01*
X117178055Y-57010292D01*
X116930581Y-57076602D01*
X116930571Y-57076605D01*
X116688309Y-57176953D01*
X116688299Y-57176958D01*
X116461196Y-57308075D01*
X116253148Y-57467718D01*
X116067718Y-57653148D01*
X115908075Y-57861196D01*
X115776958Y-58088299D01*
X115776953Y-58088309D01*
X115676605Y-58330571D01*
X115676602Y-58330581D01*
X115610081Y-58578844D01*
X115608730Y-58583885D01*
X115574500Y-58843872D01*
X112116061Y-58843872D01*
X112326996Y-58632937D01*
X112388317Y-58599454D01*
X112458009Y-58604438D01*
X112483986Y-58619391D01*
X112484646Y-58618405D01*
X112620814Y-58709390D01*
X112620827Y-58709397D01*
X112749000Y-58762487D01*
X112766503Y-58769737D01*
X112921153Y-58800499D01*
X112921156Y-58800500D01*
X112921158Y-58800500D01*
X113078844Y-58800500D01*
X113078845Y-58800499D01*
X113233497Y-58769737D01*
X113277258Y-58751610D01*
X113340876Y-58725260D01*
X113379172Y-58709397D01*
X113379172Y-58709396D01*
X113379179Y-58709394D01*
X113510289Y-58621789D01*
X113621789Y-58510289D01*
X113709394Y-58379179D01*
X113769737Y-58233497D01*
X113800500Y-58078842D01*
X113800500Y-57921158D01*
X113800500Y-57921155D01*
X113800499Y-57921153D01*
X113788573Y-57861196D01*
X113769737Y-57766503D01*
X113760268Y-57743642D01*
X113709397Y-57620827D01*
X113709390Y-57620814D01*
X113618405Y-57484646D01*
X113620492Y-57483251D01*
X113597459Y-57429075D01*
X113609225Y-57360203D01*
X113632936Y-57326997D01*
X114008706Y-56951227D01*
X114070027Y-56917744D01*
X114072194Y-56917293D01*
X114130129Y-56905768D01*
X114227541Y-56886392D01*
X114340210Y-56839722D01*
X114373216Y-56826052D01*
X114373216Y-56826051D01*
X114373223Y-56826049D01*
X114504333Y-56738444D01*
X114615833Y-56626944D01*
X114703438Y-56495834D01*
X114763781Y-56350152D01*
X114794544Y-56195497D01*
X114794544Y-56037813D01*
X114794544Y-56037810D01*
X114794543Y-56037808D01*
X114789069Y-56010288D01*
X114763781Y-55883158D01*
X114761732Y-55878211D01*
X114703441Y-55737482D01*
X114703434Y-55737469D01*
X114615833Y-55606366D01*
X114615830Y-55606362D01*
X114504336Y-55494868D01*
X114504332Y-55494865D01*
X114373229Y-55407264D01*
X114373216Y-55407257D01*
X114227545Y-55346919D01*
X114227533Y-55346916D01*
X114072889Y-55316155D01*
X114072886Y-55316155D01*
X113915202Y-55316155D01*
X113915199Y-55316155D01*
X113760554Y-55346916D01*
X113760542Y-55346919D01*
X113614871Y-55407257D01*
X113614858Y-55407264D01*
X113483755Y-55494865D01*
X113483751Y-55494868D01*
X113372257Y-55606362D01*
X113372254Y-55606366D01*
X113284653Y-55737469D01*
X113284646Y-55737482D01*
X113224308Y-55883153D01*
X113224305Y-55883163D01*
X113193405Y-56038505D01*
X113161020Y-56100416D01*
X113159469Y-56101994D01*
X109398283Y-59863181D01*
X109336960Y-59896666D01*
X109310602Y-59899500D01*
X101579766Y-59899500D01*
X101512727Y-59879815D01*
X101510875Y-59878602D01*
X101379185Y-59790609D01*
X101379172Y-59790602D01*
X101233501Y-59730264D01*
X101233489Y-59730261D01*
X101078845Y-59699500D01*
X101078842Y-59699500D01*
X100921158Y-59699500D01*
X100921155Y-59699500D01*
X100766510Y-59730261D01*
X100766498Y-59730264D01*
X100620827Y-59790602D01*
X100620814Y-59790609D01*
X100489711Y-59878210D01*
X100489707Y-59878213D01*
X100378213Y-59989707D01*
X100378210Y-59989711D01*
X100290609Y-60120814D01*
X100290602Y-60120827D01*
X100230264Y-60266498D01*
X100230261Y-60266510D01*
X100199500Y-60421153D01*
X94813636Y-60421153D01*
X94838575Y-60408446D01*
X94838581Y-60408442D01*
X94940697Y-60334250D01*
X94940698Y-60334250D01*
X94170234Y-59563787D01*
X94212292Y-59552518D01*
X94337708Y-59480110D01*
X94440110Y-59377708D01*
X94512518Y-59252292D01*
X94523787Y-59210234D01*
X95294250Y-59980698D01*
X95294250Y-59980697D01*
X95368442Y-59878581D01*
X95368446Y-59878575D01*
X95482780Y-59654184D01*
X95560602Y-59414669D01*
X95600000Y-59165928D01*
X95600000Y-58914071D01*
X95560602Y-58665330D01*
X95482780Y-58425815D01*
X95368442Y-58201416D01*
X95300873Y-58108416D01*
X95277393Y-58042610D01*
X95293218Y-57974556D01*
X95315082Y-57949352D01*
X95313549Y-57947819D01*
X95344870Y-57916498D01*
X95442712Y-57818656D01*
X95534814Y-57669335D01*
X95589999Y-57502798D01*
X95600500Y-57400010D01*
X95600500Y-56399983D01*
X100699500Y-56399983D01*
X100699500Y-57600001D01*
X100699501Y-57600018D01*
X100710000Y-57702796D01*
X100710001Y-57702799D01*
X100765185Y-57869331D01*
X100765187Y-57869336D01*
X100794277Y-57916498D01*
X100857288Y-58018656D01*
X100981344Y-58142712D01*
X101130666Y-58234814D01*
X101297203Y-58289999D01*
X101399991Y-58300500D01*
X102600008Y-58300499D01*
X102702797Y-58289999D01*
X102869334Y-58234814D01*
X103018656Y-58142712D01*
X103087524Y-58073843D01*
X103148843Y-58040361D01*
X103218535Y-58045345D01*
X103248082Y-58061206D01*
X103318390Y-58112287D01*
X103404561Y-58156193D01*
X103500776Y-58205218D01*
X103500778Y-58205218D01*
X103500781Y-58205220D01*
X103587784Y-58233489D01*
X103695465Y-58268477D01*
X103706748Y-58270264D01*
X103897648Y-58300500D01*
X103897649Y-58300500D01*
X104102351Y-58300500D01*
X104102352Y-58300500D01*
X104304534Y-58268477D01*
X104499219Y-58205220D01*
X104681610Y-58112287D01*
X104738227Y-58071153D01*
X108739500Y-58071153D01*
X108739500Y-58228846D01*
X108770261Y-58383489D01*
X108770264Y-58383501D01*
X108830602Y-58529172D01*
X108830609Y-58529185D01*
X108918210Y-58660288D01*
X108918213Y-58660292D01*
X109029707Y-58771786D01*
X109029711Y-58771789D01*
X109160814Y-58859390D01*
X109160827Y-58859397D01*
X109292744Y-58914038D01*
X109306503Y-58919737D01*
X109461153Y-58950499D01*
X109461156Y-58950500D01*
X109461158Y-58950500D01*
X109618844Y-58950500D01*
X109618845Y-58950499D01*
X109773497Y-58919737D01*
X109919179Y-58859394D01*
X110050289Y-58771789D01*
X110161789Y-58660289D01*
X110249394Y-58529179D01*
X110309737Y-58383497D01*
X110340500Y-58228842D01*
X110340500Y-58071158D01*
X110340500Y-58071155D01*
X110340499Y-58071153D01*
X110332129Y-58029074D01*
X110309737Y-57916503D01*
X110286829Y-57861197D01*
X110249397Y-57770827D01*
X110249390Y-57770814D01*
X110161789Y-57639711D01*
X110161786Y-57639707D01*
X110050292Y-57528213D01*
X110050288Y-57528210D01*
X109919185Y-57440609D01*
X109919172Y-57440602D01*
X109773501Y-57380264D01*
X109773489Y-57380261D01*
X109618845Y-57349500D01*
X109618842Y-57349500D01*
X109461158Y-57349500D01*
X109461155Y-57349500D01*
X109306510Y-57380261D01*
X109306498Y-57380264D01*
X109160827Y-57440602D01*
X109160814Y-57440609D01*
X109029711Y-57528210D01*
X109029707Y-57528213D01*
X108918213Y-57639707D01*
X108918210Y-57639711D01*
X108830609Y-57770814D01*
X108830602Y-57770827D01*
X108770264Y-57916498D01*
X108770261Y-57916510D01*
X108739500Y-58071153D01*
X104738227Y-58071153D01*
X104777513Y-58042610D01*
X104847213Y-57991971D01*
X104847215Y-57991968D01*
X104847219Y-57991966D01*
X104991966Y-57847219D01*
X104991968Y-57847215D01*
X104991971Y-57847213D01*
X105076938Y-57730264D01*
X105112287Y-57681610D01*
X105205220Y-57499219D01*
X105268477Y-57304534D01*
X105300500Y-57102352D01*
X105300500Y-56897648D01*
X105289766Y-56829879D01*
X105268477Y-56695465D01*
X105230584Y-56578844D01*
X105205220Y-56500781D01*
X105205218Y-56500778D01*
X105205218Y-56500776D01*
X105153865Y-56399991D01*
X105112287Y-56318390D01*
X105076939Y-56269737D01*
X104991971Y-56152786D01*
X104847213Y-56008028D01*
X104681613Y-55887715D01*
X104681612Y-55887714D01*
X104681610Y-55887713D01*
X104621896Y-55857287D01*
X104499223Y-55794781D01*
X104304534Y-55731522D01*
X104129995Y-55703878D01*
X104102352Y-55699500D01*
X103897648Y-55699500D01*
X103873329Y-55703351D01*
X103695465Y-55731522D01*
X103500776Y-55794781D01*
X103318391Y-55887712D01*
X103318383Y-55887717D01*
X103248085Y-55938790D01*
X103182279Y-55962269D01*
X103114225Y-55946442D01*
X103087521Y-55926153D01*
X103018656Y-55857288D01*
X102943995Y-55811237D01*
X102869336Y-55765187D01*
X102869331Y-55765185D01*
X102854067Y-55760127D01*
X102702797Y-55710001D01*
X102702795Y-55710000D01*
X102600010Y-55699500D01*
X101399998Y-55699500D01*
X101399981Y-55699501D01*
X101297203Y-55710000D01*
X101297200Y-55710001D01*
X101130668Y-55765185D01*
X101130663Y-55765187D01*
X100981342Y-55857289D01*
X100857289Y-55981342D01*
X100765187Y-56130663D01*
X100765186Y-56130666D01*
X100710001Y-56297203D01*
X100710001Y-56297204D01*
X100710000Y-56297204D01*
X100699500Y-56399983D01*
X95600500Y-56399983D01*
X95600500Y-55599990D01*
X95589999Y-55497202D01*
X95534814Y-55330665D01*
X95442712Y-55181344D01*
X95318656Y-55057288D01*
X95169335Y-54965186D01*
X95169333Y-54965185D01*
X95090039Y-54938910D01*
X95002798Y-54910001D01*
X95002796Y-54910000D01*
X94900017Y-54899500D01*
X94900010Y-54899500D01*
X93099990Y-54899500D01*
X93099982Y-54899500D01*
X92997203Y-54910000D01*
X92997202Y-54910001D01*
X92914669Y-54937349D01*
X92830667Y-54965185D01*
X92830662Y-54965187D01*
X92681342Y-55057289D01*
X92557289Y-55181342D01*
X92465187Y-55330662D01*
X92465186Y-55330665D01*
X92410001Y-55497202D01*
X92410001Y-55497203D01*
X92410000Y-55497203D01*
X92399500Y-55599982D01*
X92399500Y-56056424D01*
X92379815Y-56123463D01*
X92327011Y-56169218D01*
X92257853Y-56179162D01*
X92194297Y-56150137D01*
X92172398Y-56125315D01*
X92081789Y-55989711D01*
X92081786Y-55989707D01*
X91970292Y-55878213D01*
X91970288Y-55878210D01*
X91839185Y-55790609D01*
X91839172Y-55790602D01*
X91693501Y-55730264D01*
X91693489Y-55730261D01*
X91538845Y-55699500D01*
X91538842Y-55699500D01*
X91381158Y-55699500D01*
X91381155Y-55699500D01*
X91226510Y-55730261D01*
X91226498Y-55730264D01*
X91080827Y-55790602D01*
X91080814Y-55790609D01*
X90949711Y-55878210D01*
X90949707Y-55878213D01*
X90838213Y-55989707D01*
X90838210Y-55989711D01*
X90750609Y-56120814D01*
X90750602Y-56120827D01*
X90690264Y-56266498D01*
X90690261Y-56266510D01*
X90659500Y-56421153D01*
X90000500Y-56421153D01*
X90000500Y-54855466D01*
X106133813Y-54855466D01*
X106133813Y-55013159D01*
X106164574Y-55167802D01*
X106164577Y-55167814D01*
X106224915Y-55313485D01*
X106224922Y-55313498D01*
X106312523Y-55444601D01*
X106312526Y-55444605D01*
X106424020Y-55556099D01*
X106424024Y-55556102D01*
X106555127Y-55643703D01*
X106555140Y-55643710D01*
X106674184Y-55693019D01*
X106728588Y-55736859D01*
X106741293Y-55760127D01*
X106790604Y-55879176D01*
X106790609Y-55879185D01*
X106878210Y-56010288D01*
X106878213Y-56010292D01*
X106989707Y-56121786D01*
X106989711Y-56121789D01*
X107120814Y-56209390D01*
X107120827Y-56209397D01*
X107208503Y-56245713D01*
X107266503Y-56269737D01*
X107404583Y-56297203D01*
X107421153Y-56300499D01*
X107421156Y-56300500D01*
X107421158Y-56300500D01*
X107578844Y-56300500D01*
X107578845Y-56300499D01*
X107733497Y-56269737D01*
X107879179Y-56209394D01*
X108010289Y-56121789D01*
X108121789Y-56010289D01*
X108209394Y-55879179D01*
X108218462Y-55857288D01*
X108223067Y-55846166D01*
X108269737Y-55733497D01*
X108287597Y-55643710D01*
X108300638Y-55578151D01*
X108333023Y-55516240D01*
X108334574Y-55514661D01*
X108404634Y-55444601D01*
X108514665Y-55334570D01*
X108575984Y-55301088D01*
X108578151Y-55300637D01*
X108578840Y-55300500D01*
X108578842Y-55300500D01*
X108733497Y-55269737D01*
X108879179Y-55209394D01*
X108931110Y-55174694D01*
X108997785Y-55153816D01*
X109065165Y-55172300D01*
X109068863Y-55174676D01*
X109120821Y-55209394D01*
X109120823Y-55209395D01*
X109120825Y-55209396D01*
X109266498Y-55269735D01*
X109266503Y-55269737D01*
X109421153Y-55300499D01*
X109421156Y-55300500D01*
X109421158Y-55300500D01*
X109578844Y-55300500D01*
X109578845Y-55300499D01*
X109733497Y-55269737D01*
X109879179Y-55209394D01*
X110010289Y-55121789D01*
X110121789Y-55010289D01*
X110209394Y-54879179D01*
X110269737Y-54733497D01*
X110300500Y-54578842D01*
X110300500Y-54421158D01*
X110300500Y-54421155D01*
X110300499Y-54421153D01*
X110285136Y-54343918D01*
X110269737Y-54266503D01*
X110252514Y-54224922D01*
X110209397Y-54120827D01*
X110209390Y-54120814D01*
X110121789Y-53989711D01*
X110121786Y-53989707D01*
X110010292Y-53878213D01*
X110010288Y-53878210D01*
X109879185Y-53790609D01*
X109879172Y-53790602D01*
X109733501Y-53730264D01*
X109733491Y-53730261D01*
X109578149Y-53699361D01*
X109516238Y-53666976D01*
X109514660Y-53665425D01*
X109387590Y-53538355D01*
X109387588Y-53538352D01*
X109268717Y-53419481D01*
X109268716Y-53419480D01*
X109176286Y-53366116D01*
X109131785Y-53340423D01*
X108979057Y-53299499D01*
X108820943Y-53299499D01*
X108813347Y-53299499D01*
X108813331Y-53299500D01*
X107889567Y-53299500D01*
X107849426Y-53310255D01*
X107849427Y-53310256D01*
X107736840Y-53340423D01*
X107736835Y-53340426D01*
X107599916Y-53419475D01*
X107599908Y-53419481D01*
X106919652Y-54099738D01*
X106858329Y-54133223D01*
X106856163Y-54133674D01*
X106700821Y-54164574D01*
X106700811Y-54164577D01*
X106555140Y-54224915D01*
X106555127Y-54224922D01*
X106424024Y-54312523D01*
X106424020Y-54312526D01*
X106312526Y-54424020D01*
X106312523Y-54424024D01*
X106224922Y-54555127D01*
X106224915Y-54555140D01*
X106164577Y-54700811D01*
X106164574Y-54700823D01*
X106133813Y-54855466D01*
X90000500Y-54855466D01*
X90000500Y-53871904D01*
X90020185Y-53804865D01*
X90072989Y-53759110D01*
X90142147Y-53749166D01*
X90197387Y-53771587D01*
X90213567Y-53783343D01*
X90310915Y-53832944D01*
X90424003Y-53890566D01*
X90424005Y-53890566D01*
X90424008Y-53890568D01*
X90544412Y-53929689D01*
X90648631Y-53963553D01*
X90881903Y-54000500D01*
X90881908Y-54000500D01*
X91118097Y-54000500D01*
X91351368Y-53963553D01*
X91575992Y-53890568D01*
X91786433Y-53783343D01*
X91977510Y-53644517D01*
X92144517Y-53477510D01*
X92283343Y-53286433D01*
X92390568Y-53075992D01*
X92444416Y-52910266D01*
X92444419Y-52910258D01*
X117774500Y-52910258D01*
X117774500Y-53139741D01*
X117795534Y-53299499D01*
X117804452Y-53367238D01*
X117863842Y-53588887D01*
X117951650Y-53800876D01*
X117951657Y-53800890D01*
X118066392Y-53999617D01*
X118206081Y-54181661D01*
X118206089Y-54181670D01*
X118368330Y-54343911D01*
X118368338Y-54343918D01*
X118550382Y-54483607D01*
X118550385Y-54483608D01*
X118550388Y-54483611D01*
X118749112Y-54598344D01*
X118749117Y-54598346D01*
X118749123Y-54598349D01*
X118840480Y-54636190D01*
X118961113Y-54686158D01*
X119182762Y-54745548D01*
X119410266Y-54775500D01*
X119410273Y-54775500D01*
X119639727Y-54775500D01*
X119639734Y-54775500D01*
X119867238Y-54745548D01*
X120088887Y-54686158D01*
X120300888Y-54598344D01*
X120499612Y-54483611D01*
X120681661Y-54343919D01*
X120681665Y-54343914D01*
X120681670Y-54343911D01*
X120843911Y-54181670D01*
X120843914Y-54181665D01*
X120843919Y-54181661D01*
X120983611Y-53999612D01*
X121065686Y-53857452D01*
X121116252Y-53809239D01*
X121184859Y-53796015D01*
X121249724Y-53821983D01*
X121287634Y-53872004D01*
X121290604Y-53879175D01*
X121290609Y-53879185D01*
X121378210Y-54010288D01*
X121378213Y-54010292D01*
X121489707Y-54121786D01*
X121489711Y-54121789D01*
X121620814Y-54209390D01*
X121620827Y-54209397D01*
X121758683Y-54266498D01*
X121766503Y-54269737D01*
X121902859Y-54296860D01*
X121921153Y-54300499D01*
X121921156Y-54300500D01*
X121921158Y-54300500D01*
X122078844Y-54300500D01*
X122078845Y-54300499D01*
X122233497Y-54269737D01*
X122379179Y-54209394D01*
X122420671Y-54181670D01*
X122510875Y-54121398D01*
X122577553Y-54100520D01*
X122579766Y-54100500D01*
X123199903Y-54100500D01*
X123266942Y-54120185D01*
X123287584Y-54136819D01*
X125872397Y-56721632D01*
X125905882Y-56782955D01*
X125900898Y-56852647D01*
X125872397Y-56896994D01*
X125828948Y-56940442D01*
X125828945Y-56940446D01*
X125741344Y-57071549D01*
X125741337Y-57071562D01*
X125680999Y-57217233D01*
X125680996Y-57217245D01*
X125650235Y-57371888D01*
X125650235Y-57529581D01*
X125680996Y-57684224D01*
X125680999Y-57684236D01*
X125741337Y-57829907D01*
X125741344Y-57829920D01*
X125828945Y-57961023D01*
X125828948Y-57961027D01*
X125940442Y-58072521D01*
X125940446Y-58072524D01*
X126071549Y-58160125D01*
X126071562Y-58160132D01*
X126170602Y-58201155D01*
X126217238Y-58220472D01*
X126312898Y-58239500D01*
X126371888Y-58251234D01*
X126371891Y-58251235D01*
X126371893Y-58251235D01*
X126529579Y-58251235D01*
X126529580Y-58251234D01*
X126684232Y-58220472D01*
X126829914Y-58160129D01*
X126961024Y-58072524D01*
X127004475Y-58029072D01*
X127065795Y-57995587D01*
X127135487Y-58000570D01*
X127179837Y-58029072D01*
X127665425Y-58514660D01*
X127698910Y-58575983D01*
X127699361Y-58578149D01*
X127730261Y-58733491D01*
X127730264Y-58733501D01*
X127790602Y-58879172D01*
X127790609Y-58879185D01*
X127878210Y-59010288D01*
X127878213Y-59010292D01*
X127989707Y-59121786D01*
X127989711Y-59121789D01*
X128120814Y-59209390D01*
X128120827Y-59209397D01*
X128266498Y-59269735D01*
X128266503Y-59269737D01*
X128409550Y-59298191D01*
X128421153Y-59300499D01*
X128421156Y-59300500D01*
X128421158Y-59300500D01*
X128578844Y-59300500D01*
X128578845Y-59300499D01*
X128733497Y-59269737D01*
X128879179Y-59209394D01*
X129010289Y-59121789D01*
X129121789Y-59010289D01*
X129209394Y-58879179D01*
X129269737Y-58733497D01*
X129300500Y-58578842D01*
X129300500Y-58421158D01*
X129300500Y-58421155D01*
X129300499Y-58421153D01*
X129299914Y-58418210D01*
X129269737Y-58266503D01*
X129263413Y-58251235D01*
X129209397Y-58120827D01*
X129209390Y-58120814D01*
X129121789Y-57989711D01*
X129121786Y-57989707D01*
X129010292Y-57878213D01*
X129010288Y-57878210D01*
X128879185Y-57790609D01*
X128879172Y-57790602D01*
X128733501Y-57730264D01*
X128733491Y-57730261D01*
X128578149Y-57699361D01*
X128516238Y-57666976D01*
X128514660Y-57665425D01*
X127223273Y-56374038D01*
X138399500Y-56374038D01*
X138399500Y-56625962D01*
X138431190Y-56826045D01*
X138438910Y-56874785D01*
X138516760Y-57114383D01*
X138595413Y-57268747D01*
X138615452Y-57308076D01*
X138631132Y-57338848D01*
X138779201Y-57542649D01*
X138779205Y-57542654D01*
X138918870Y-57682319D01*
X138952355Y-57743642D01*
X138947371Y-57813334D01*
X138918870Y-57857681D01*
X138779205Y-57997345D01*
X138779201Y-57997350D01*
X138631132Y-58201151D01*
X138516760Y-58425616D01*
X138438910Y-58665214D01*
X138417654Y-58799417D01*
X138399500Y-58914038D01*
X138399500Y-59165962D01*
X138415937Y-59269738D01*
X138438910Y-59414785D01*
X138516760Y-59654383D01*
X138595413Y-59808747D01*
X138631006Y-59878602D01*
X138631132Y-59878848D01*
X138698764Y-59971937D01*
X138722244Y-60037743D01*
X138706418Y-60105797D01*
X138686128Y-60132503D01*
X138557287Y-60261345D01*
X138465187Y-60410662D01*
X138465185Y-60410667D01*
X138461709Y-60421158D01*
X138410001Y-60577202D01*
X138410001Y-60577203D01*
X138410000Y-60577203D01*
X138399500Y-60679982D01*
X138399500Y-62480017D01*
X138410000Y-62582796D01*
X138463950Y-62745606D01*
X138465186Y-62749335D01*
X138557288Y-62898656D01*
X138681344Y-63022712D01*
X138830665Y-63114814D01*
X138997202Y-63169999D01*
X139099990Y-63180500D01*
X139099995Y-63180500D01*
X140900005Y-63180500D01*
X140900010Y-63180500D01*
X141002798Y-63169999D01*
X141169335Y-63114814D01*
X141318656Y-63022712D01*
X141442712Y-62898656D01*
X141534814Y-62749335D01*
X141589999Y-62582798D01*
X141600500Y-62480010D01*
X141600500Y-62023575D01*
X141620185Y-61956536D01*
X141672989Y-61910781D01*
X141742147Y-61900837D01*
X141805703Y-61929862D01*
X141827602Y-61954684D01*
X141918210Y-62090288D01*
X141918213Y-62090292D01*
X142029707Y-62201786D01*
X142029711Y-62201789D01*
X142160814Y-62289390D01*
X142160827Y-62289397D01*
X142296530Y-62345606D01*
X142306503Y-62349737D01*
X142461153Y-62380499D01*
X142461156Y-62380500D01*
X142461158Y-62380500D01*
X142618844Y-62380500D01*
X142618845Y-62380499D01*
X142773497Y-62349737D01*
X142919179Y-62289394D01*
X143050289Y-62201789D01*
X143161789Y-62090289D01*
X143249394Y-61959179D01*
X143309737Y-61813497D01*
X143340500Y-61658842D01*
X143340500Y-61501158D01*
X143340500Y-61501155D01*
X143340499Y-61501153D01*
X143314288Y-61369383D01*
X143309737Y-61346503D01*
X143273421Y-61258827D01*
X143249397Y-61200827D01*
X143249390Y-61200814D01*
X143161789Y-61069711D01*
X143161786Y-61069707D01*
X143050292Y-60958213D01*
X143050288Y-60958210D01*
X142919185Y-60870609D01*
X142919172Y-60870602D01*
X142773501Y-60810264D01*
X142773489Y-60810261D01*
X142618845Y-60779500D01*
X142618842Y-60779500D01*
X142461158Y-60779500D01*
X142461155Y-60779500D01*
X142306510Y-60810261D01*
X142306498Y-60810264D01*
X142160827Y-60870602D01*
X142160814Y-60870609D01*
X142029711Y-60958210D01*
X142029707Y-60958213D01*
X141918213Y-61069707D01*
X141918210Y-61069711D01*
X141827602Y-61205315D01*
X141773989Y-61250120D01*
X141704664Y-61258827D01*
X141641637Y-61228672D01*
X141604918Y-61169229D01*
X141600500Y-61136424D01*
X141600500Y-60679995D01*
X141600499Y-60679982D01*
X141596414Y-60640000D01*
X141589999Y-60577202D01*
X141534814Y-60410665D01*
X141442712Y-60261344D01*
X141318656Y-60137288D01*
X141313871Y-60132503D01*
X141280386Y-60071180D01*
X141285370Y-60001488D01*
X141301234Y-59971937D01*
X141368870Y-59878845D01*
X141483241Y-59654379D01*
X141561090Y-59414785D01*
X141566357Y-59381531D01*
X141596286Y-59318396D01*
X141655597Y-59281464D01*
X141725460Y-59282462D01*
X141783692Y-59321071D01*
X141803391Y-59353476D01*
X141830602Y-59419173D01*
X141830609Y-59419185D01*
X141918210Y-59550288D01*
X141918213Y-59550292D01*
X142029707Y-59661786D01*
X142029711Y-59661789D01*
X142160814Y-59749390D01*
X142160827Y-59749397D01*
X142306498Y-59809735D01*
X142306503Y-59809737D01*
X142461153Y-59840499D01*
X142461156Y-59840500D01*
X142461158Y-59840500D01*
X142618844Y-59840500D01*
X142618845Y-59840499D01*
X142773497Y-59809737D01*
X142919179Y-59749394D01*
X143050289Y-59661789D01*
X143161789Y-59550289D01*
X143249394Y-59419179D01*
X143309737Y-59273497D01*
X143340500Y-59118842D01*
X143340500Y-58961158D01*
X143340500Y-58961155D01*
X143340499Y-58961153D01*
X143320258Y-58859397D01*
X143309737Y-58806503D01*
X143308283Y-58802992D01*
X143249397Y-58660827D01*
X143249390Y-58660814D01*
X143161789Y-58529711D01*
X143161786Y-58529707D01*
X143050292Y-58418213D01*
X143050288Y-58418210D01*
X142919185Y-58330609D01*
X142919172Y-58330602D01*
X142773501Y-58270264D01*
X142773489Y-58270261D01*
X142618845Y-58239500D01*
X142618842Y-58239500D01*
X142461158Y-58239500D01*
X142461155Y-58239500D01*
X142306510Y-58270261D01*
X142306498Y-58270264D01*
X142160827Y-58330602D01*
X142160814Y-58330609D01*
X142029711Y-58418210D01*
X142029707Y-58418213D01*
X141918213Y-58529707D01*
X141918210Y-58529711D01*
X141830609Y-58660814D01*
X141830602Y-58660827D01*
X141803391Y-58726523D01*
X141759550Y-58780927D01*
X141693256Y-58802992D01*
X141625557Y-58785713D01*
X141577946Y-58734576D01*
X141566357Y-58698469D01*
X141566103Y-58696866D01*
X141561090Y-58665215D01*
X141483241Y-58425621D01*
X141483239Y-58425618D01*
X141483239Y-58425616D01*
X141434811Y-58330571D01*
X141368870Y-58201155D01*
X141326407Y-58142710D01*
X141220798Y-57997350D01*
X141220794Y-57997345D01*
X141081130Y-57857681D01*
X141047645Y-57796358D01*
X141052629Y-57726666D01*
X141081130Y-57682319D01*
X141142635Y-57620814D01*
X141220793Y-57542656D01*
X141368870Y-57338845D01*
X141483241Y-57114379D01*
X141561090Y-56874785D01*
X141566357Y-56841531D01*
X141596286Y-56778396D01*
X141655597Y-56741464D01*
X141725460Y-56742462D01*
X141783692Y-56781071D01*
X141803391Y-56813476D01*
X141830602Y-56879173D01*
X141830609Y-56879185D01*
X141918210Y-57010288D01*
X141918213Y-57010292D01*
X142029707Y-57121786D01*
X142029711Y-57121789D01*
X142160814Y-57209390D01*
X142160827Y-57209397D01*
X142306498Y-57269735D01*
X142306503Y-57269737D01*
X142461153Y-57300499D01*
X142461156Y-57300500D01*
X142461158Y-57300500D01*
X142618844Y-57300500D01*
X142618845Y-57300499D01*
X142773497Y-57269737D01*
X142919179Y-57209394D01*
X143050289Y-57121789D01*
X143161789Y-57010289D01*
X143249394Y-56879179D01*
X143309737Y-56733497D01*
X143340500Y-56578842D01*
X143340500Y-56421158D01*
X143340500Y-56421155D01*
X143340499Y-56421153D01*
X143315844Y-56297204D01*
X143309737Y-56266503D01*
X143286080Y-56209390D01*
X143249397Y-56120827D01*
X143249390Y-56120814D01*
X143161789Y-55989711D01*
X143161786Y-55989707D01*
X143050292Y-55878213D01*
X143050288Y-55878210D01*
X142919185Y-55790609D01*
X142919172Y-55790602D01*
X142773501Y-55730264D01*
X142773489Y-55730261D01*
X142618845Y-55699500D01*
X142618842Y-55699500D01*
X142461158Y-55699500D01*
X142461155Y-55699500D01*
X142306510Y-55730261D01*
X142306498Y-55730264D01*
X142160827Y-55790602D01*
X142160814Y-55790609D01*
X142029711Y-55878210D01*
X142029707Y-55878213D01*
X141918213Y-55989707D01*
X141918210Y-55989711D01*
X141830609Y-56120814D01*
X141830602Y-56120827D01*
X141803391Y-56186523D01*
X141759550Y-56240927D01*
X141693256Y-56262992D01*
X141625557Y-56245713D01*
X141577946Y-56194576D01*
X141566357Y-56158469D01*
X141565037Y-56150137D01*
X141561090Y-56125215D01*
X141483241Y-55885621D01*
X141483239Y-55885618D01*
X141483239Y-55885616D01*
X141421876Y-55765185D01*
X141368870Y-55661155D01*
X141292543Y-55556099D01*
X141220798Y-55457350D01*
X141220794Y-55457345D01*
X141042654Y-55279205D01*
X141042649Y-55279201D01*
X140838848Y-55131132D01*
X140838847Y-55131131D01*
X140838845Y-55131130D01*
X140768747Y-55095413D01*
X140614383Y-55016760D01*
X140374785Y-54938910D01*
X140125962Y-54899500D01*
X139874038Y-54899500D01*
X139807738Y-54910001D01*
X139625214Y-54938910D01*
X139385616Y-55016760D01*
X139161151Y-55131132D01*
X138957350Y-55279201D01*
X138957345Y-55279205D01*
X138779205Y-55457345D01*
X138779201Y-55457350D01*
X138631132Y-55661151D01*
X138516760Y-55885616D01*
X138438910Y-56125214D01*
X138411147Y-56300500D01*
X138399500Y-56374038D01*
X127223273Y-56374038D01*
X123987590Y-53138355D01*
X123987588Y-53138352D01*
X123868717Y-53019481D01*
X123868709Y-53019475D01*
X123768254Y-52961478D01*
X123768252Y-52961477D01*
X123731790Y-52940425D01*
X123731789Y-52940424D01*
X123719263Y-52937067D01*
X123579057Y-52899499D01*
X123420943Y-52899499D01*
X123413347Y-52899499D01*
X123413331Y-52899500D01*
X122579766Y-52899500D01*
X122512727Y-52879815D01*
X122510875Y-52878602D01*
X122379185Y-52790609D01*
X122379172Y-52790602D01*
X122233501Y-52730264D01*
X122233489Y-52730261D01*
X122078845Y-52699500D01*
X122078842Y-52699500D01*
X121921158Y-52699500D01*
X121921155Y-52699500D01*
X121766510Y-52730261D01*
X121766498Y-52730264D01*
X121620827Y-52790602D01*
X121620814Y-52790609D01*
X121489711Y-52878210D01*
X121489705Y-52878214D01*
X121474488Y-52893432D01*
X121413164Y-52926916D01*
X121343472Y-52921930D01*
X121287540Y-52880057D01*
X121263870Y-52821936D01*
X121245548Y-52682762D01*
X121186158Y-52461113D01*
X121132086Y-52330571D01*
X121098349Y-52249123D01*
X121098346Y-52249117D01*
X121098344Y-52249112D01*
X120983611Y-52050388D01*
X120983608Y-52050385D01*
X120983607Y-52050382D01*
X120843918Y-51868338D01*
X120843911Y-51868330D01*
X120681670Y-51706089D01*
X120681661Y-51706081D01*
X120499617Y-51566392D01*
X120300890Y-51451657D01*
X120300876Y-51451650D01*
X120088887Y-51363842D01*
X120057690Y-51355483D01*
X119867238Y-51304452D01*
X119829215Y-51299446D01*
X119639741Y-51274500D01*
X119639734Y-51274500D01*
X119410266Y-51274500D01*
X119410258Y-51274500D01*
X119193715Y-51303009D01*
X119182762Y-51304452D01*
X119089076Y-51329554D01*
X118961112Y-51363842D01*
X118749123Y-51451650D01*
X118749109Y-51451657D01*
X118550382Y-51566392D01*
X118368338Y-51706081D01*
X118206081Y-51868338D01*
X118066392Y-52050382D01*
X117951657Y-52249109D01*
X117951650Y-52249123D01*
X117863842Y-52461112D01*
X117804453Y-52682759D01*
X117804451Y-52682770D01*
X117774500Y-52910258D01*
X92444419Y-52910258D01*
X92458186Y-52867888D01*
X92460900Y-52859532D01*
X92463553Y-52851368D01*
X92482734Y-52730261D01*
X92500500Y-52618097D01*
X92500500Y-52381902D01*
X92463553Y-52148631D01*
X92390566Y-51924003D01*
X92283342Y-51713566D01*
X92277904Y-51706081D01*
X92144517Y-51522490D01*
X91977510Y-51355483D01*
X91797664Y-51224816D01*
X91755000Y-51169488D01*
X91749021Y-51099874D01*
X91781627Y-51038080D01*
X91842466Y-51003722D01*
X91870551Y-51000500D01*
X130731161Y-51000500D01*
X130798200Y-51020185D01*
G37*
%TD.AperFunction*%
%TD*%
M02*
