%TF.GenerationSoftware,KiCad,Pcbnew,10.0.5*%
%TF.CreationDate,2026-09-27T00:39:31+05:30*%
%TF.ProjectId,Project,50726f6a-6563-4742-9e6b-696361645f70,rev?*%
%TF.SameCoordinates,Original*%
%TF.FileFunction,Copper,L1,Top*%
%TF.FilePolarity,Positive*%
%FSLAX46Y46*%
G04 Gerber Fmt 4.6, Leading zero omitted, Abs format (unit mm)*
G04 Created by KiCad (PCBNEW 10.0.5) date 2026-09-27 00:39:31*
%MOMM*%
%LPD*%
G01*
G04 APERTURE LIST*
G04 Aperture macros list*
%AMRoundRect*
0 Rectangle with rounded corners*
0 $1 Rounding radius*
0 $2 $3 $4 $5 $6 $7 $8 $9 X,Y pos of 4 corners*
0 Add a 4 corners polygon primitive as box body*
4,1,4,$2,$3,$4,$5,$6,$7,$8,$9,$2,$3,0*
0 Add four circle primitives for the rounded corners*
1,1,$1+$1,$2,$3*
1,1,$1+$1,$4,$5*
1,1,$1+$1,$6,$7*
1,1,$1+$1,$8,$9*
0 Add four rect primitives between the rounded corners*
20,1,$1+$1,$2,$3,$4,$5,0*
20,1,$1+$1,$4,$5,$6,$7,0*
20,1,$1+$1,$6,$7,$8,$9,0*
20,1,$1+$1,$8,$9,$2,$3,0*%
G04 Aperture macros list end*
%TA.AperFunction,ComponentPad*%
%ADD10RoundRect,0.249999X-0.850001X0.850001X-0.850001X-0.850001X0.850001X-0.850001X0.850001X0.850001X0*%
%TD*%
%TA.AperFunction,ComponentPad*%
%ADD11C,2.200000*%
%TD*%
%TA.AperFunction,SMDPad,CuDef*%
%ADD12RoundRect,0.250000X0.475000X-0.250000X0.475000X0.250000X-0.475000X0.250000X-0.475000X-0.250000X0*%
%TD*%
%TA.AperFunction,SMDPad,CuDef*%
%ADD13RoundRect,0.250000X-0.262500X-0.450000X0.262500X-0.450000X0.262500X0.450000X-0.262500X0.450000X0*%
%TD*%
%TA.AperFunction,SMDPad,CuDef*%
%ADD14RoundRect,0.250000X-0.250000X-0.475000X0.250000X-0.475000X0.250000X0.475000X-0.250000X0.475000X0*%
%TD*%
%TA.AperFunction,ComponentPad*%
%ADD15RoundRect,0.250000X-0.550000X-0.550000X0.550000X-0.550000X0.550000X0.550000X-0.550000X0.550000X0*%
%TD*%
%TA.AperFunction,ComponentPad*%
%ADD16C,1.600000*%
%TD*%
%TA.AperFunction,SMDPad,CuDef*%
%ADD17RoundRect,0.200000X-0.250000X-0.200000X0.250000X-0.200000X0.250000X0.200000X-0.250000X0.200000X0*%
%TD*%
%TA.AperFunction,ComponentPad*%
%ADD18RoundRect,0.249999X0.850001X-0.850001X0.850001X0.850001X-0.850001X0.850001X-0.850001X-0.850001X0*%
%TD*%
%TA.AperFunction,SMDPad,CuDef*%
%ADD19RoundRect,0.243750X0.456250X-0.243750X0.456250X0.243750X-0.456250X0.243750X-0.456250X-0.243750X0*%
%TD*%
%TA.AperFunction,SMDPad,CuDef*%
%ADD20RoundRect,0.200000X-0.200000X-0.400000X0.200000X-0.400000X0.200000X0.400000X-0.200000X0.400000X0*%
%TD*%
%TA.AperFunction,SMDPad,CuDef*%
%ADD21RoundRect,0.150000X0.150000X-0.725000X0.150000X0.725000X-0.150000X0.725000X-0.150000X-0.725000X0*%
%TD*%
%TA.AperFunction,ComponentPad*%
%ADD22C,1.440000*%
%TD*%
%TA.AperFunction,ComponentPad*%
%ADD23C,3.000000*%
%TD*%
%TA.AperFunction,ComponentPad*%
%ADD24C,2.500000*%
%TD*%
%TA.AperFunction,SMDPad,CuDef*%
%ADD25RoundRect,0.200000X0.400000X-0.200000X0.400000X0.200000X-0.400000X0.200000X-0.400000X-0.200000X0*%
%TD*%
%TA.AperFunction,SMDPad,CuDef*%
%ADD26RoundRect,0.243750X-0.243750X-0.456250X0.243750X-0.456250X0.243750X0.456250X-0.243750X0.456250X0*%
%TD*%
%TA.AperFunction,ViaPad*%
%ADD27C,0.600000*%
%TD*%
%TA.AperFunction,Conductor*%
%ADD28C,0.200000*%
%TD*%
G04 APERTURE END LIST*
D10*
%TO.P,J4,1,Pin_1_1*%
%TO.N,Net-(D3-A)*%
X94000000Y-56500000D03*
D11*
%TO.P,J4,2,Pin_2_2*%
%TO.N,GNDD*%
X94000000Y-59040000D03*
%TD*%
D12*
%TO.P,C2,1*%
%TO.N,VCC*%
X99000000Y-57900000D03*
%TO.P,C2,2*%
%TO.N,GNDD*%
X99000000Y-56000000D03*
%TD*%
D13*
%TO.P,R4,1*%
%TO.N,VCC*%
X113000000Y-55500000D03*
%TO.P,R4,2*%
%TO.N,Net-(D5-A)*%
X114825000Y-55500000D03*
%TD*%
D14*
%TO.P,C4,1*%
%TO.N,VCC*%
X101550000Y-53000000D03*
%TO.P,C4,2*%
%TO.N,Net-(U2-CONT)*%
X103450000Y-53000000D03*
%TD*%
D15*
%TO.P,C3,1*%
%TO.N,VCC*%
X102000000Y-57000000D03*
D16*
%TO.P,C3,2*%
%TO.N,Net-(U2-THRES)*%
X104000000Y-57000000D03*
%TD*%
D17*
%TO.P,Q2,1,E_1*%
%TO.N,GNDD*%
X112600000Y-60050000D03*
%TO.P,Q2,2,B_2*%
%TO.N,Net-(D6-K)*%
X112600000Y-61950000D03*
%TO.P,Q2,3,C_3*%
%TO.N,Net-(D7-A)*%
X115000000Y-61000000D03*
%TD*%
D18*
%TO.P,J5,1,Pin_1_1*%
%TO.N,Net-(J5-Pin_1)*%
X140000000Y-61580000D03*
D11*
%TO.P,J5,2,Pin_2_2*%
%TO.N,Net-(J5-Pin_2)*%
X140000000Y-59040000D03*
%TO.P,J5,3,Pin_3_3*%
%TO.N,Net-(J5-Pin_3)*%
X140000000Y-56500000D03*
%TD*%
D19*
%TO.P,D5,1,K_1*%
%TO.N,GNDD*%
X99000000Y-61875000D03*
%TO.P,D5,2,A_2*%
%TO.N,Net-(D5-A)*%
X99000000Y-60000000D03*
%TD*%
D13*
%TO.P,R5,1*%
%TO.N,Net-(U2-OUT)*%
X113000000Y-58000000D03*
%TO.P,R5,2*%
%TO.N,Net-(D6-A)*%
X114825000Y-58000000D03*
%TD*%
D20*
%TO.P,D7,1,K_1*%
%TO.N,VCC*%
X111400000Y-64000000D03*
%TO.P,D7,2,A_2*%
%TO.N,Net-(D7-A)*%
X113000000Y-64000000D03*
%TD*%
D21*
%TO.P,U2,1,GND_1*%
%TO.N,GNDD*%
X107000000Y-58150000D03*
%TO.P,U2,2,TRIG_2*%
%TO.N,Net-(U2-THRES)*%
X108270000Y-58150000D03*
%TO.P,U2,3,OUT_3*%
%TO.N,Net-(U2-OUT)*%
X109540000Y-58150000D03*
%TO.P,U2,4,~{RST}_4*%
%TO.N,VCC*%
X110810000Y-58150000D03*
%TO.P,U2,5,CONT_5*%
%TO.N,Net-(U2-CONT)*%
X110810000Y-53000000D03*
%TO.P,U2,6,THRES_6*%
%TO.N,Net-(U2-THRES)*%
X109540000Y-53000000D03*
%TO.P,U2,7,DISCH_7*%
%TO.N,unconnected-(U2-DISCH-Pad7)*%
X108270000Y-53000000D03*
%TO.P,U2,8,VCC_8*%
%TO.N,VCC*%
X107000000Y-53000000D03*
%TD*%
D22*
%TO.P,RV2,1,1_1*%
%TO.N,Net-(U2-THRES)*%
X107580000Y-62500000D03*
%TO.P,RV2,2,2_2*%
%TO.N,GNDD*%
X105040000Y-62500000D03*
%TO.P,RV2,3,3_3*%
X102500000Y-62500000D03*
%TD*%
D23*
%TO.P,K1,1*%
%TO.N,Net-(J5-Pin_2)*%
X117575000Y-58975000D03*
D24*
%TO.P,K1,2*%
%TO.N,Net-(J5-Pin_3)*%
X119525000Y-65025000D03*
D23*
%TO.P,K1,3*%
%TO.N,VCC*%
X131725000Y-65025000D03*
%TO.P,K1,4*%
%TO.N,Net-(D7-A)*%
X131775000Y-52975000D03*
D24*
%TO.P,K1,5*%
%TO.N,Net-(J5-Pin_1)*%
X119525000Y-53025000D03*
%TD*%
D25*
%TO.P,D3,1,K_1*%
%TO.N,VCC*%
X99000000Y-54000000D03*
%TO.P,D3,2,A_2*%
%TO.N,Net-(D3-A)*%
X99000000Y-52400000D03*
%TD*%
D26*
%TO.P,D6,1,K_1*%
%TO.N,Net-(D6-K)*%
X113000000Y-53000000D03*
%TO.P,D6,2,A_2*%
%TO.N,Net-(D6-A)*%
X114875000Y-53000000D03*
%TD*%
D27*
%TO.N,GNDD*%
X113500000Y-60500000D03*
X99000000Y-56000000D03*
X101875000Y-61875000D03*
X99000000Y-61875000D03*
X107000000Y-58150000D03*
X95500000Y-58000000D03*
%TO.N,Net-(D5-A)*%
X101000000Y-60500000D03*
X113994044Y-56116655D03*
%TO.N,Net-(U2-CONT)*%
X106934313Y-54934313D03*
X109500000Y-54500000D03*
%TO.N,Net-(U2-THRES)*%
X107500000Y-55500000D03*
X108500000Y-54500000D03*
%TO.N,Net-(D6-K)*%
X112500000Y-61000000D03*
X110500000Y-56500000D03*
%TO.N,Net-(J5-Pin_1)*%
X128500000Y-58500000D03*
X122000000Y-53500000D03*
%TO.N,Net-(J5-Pin_2)*%
X126450735Y-57450735D03*
X138000000Y-58000000D03*
%TO.N,Net-(U2-OUT)*%
X109540000Y-58150000D03*
X113000000Y-58000000D03*
%TD*%
%TO.N,Net-(D3-A)*%
D28*
X98100000Y-52400000D02*
X99000000Y-52400000D01*
X94000000Y-56500000D02*
X98100000Y-52400000D01*
%TO.N,GNDD*%
X94460000Y-59040000D02*
X94000000Y-59040000D01*
X94460000Y-59040000D02*
X95500000Y-58000000D01*
X99000000Y-61875000D02*
X99000000Y-61500000D01*
X113050000Y-60500000D02*
X112600000Y-60050000D01*
X113500000Y-60500000D02*
X113050000Y-60500000D01*
%TO.N,VCC*%
X110810000Y-58150000D02*
X110810000Y-58810000D01*
X130175000Y-66575000D02*
X131725000Y-65025000D01*
X110810000Y-57904448D02*
X110810000Y-58150000D01*
X101100000Y-57900000D02*
X102000000Y-57000000D01*
X113000000Y-55960000D02*
X113000000Y-55500000D01*
X110810000Y-58150000D02*
X113000000Y-55960000D01*
X111400000Y-59400000D02*
X111400000Y-64000000D01*
X99000000Y-54000000D02*
X100550000Y-54000000D01*
X99000000Y-57900000D02*
X101100000Y-57900000D01*
X111400000Y-64000000D02*
X113975000Y-66575000D01*
X107000000Y-54094448D02*
X110810000Y-57904448D01*
X102575000Y-51975000D02*
X105975000Y-51975000D01*
X101550000Y-53000000D02*
X102575000Y-51975000D01*
X105975000Y-51975000D02*
X107000000Y-53000000D01*
X110810000Y-58810000D02*
X111400000Y-59400000D01*
X107000000Y-53000000D02*
X107000000Y-54094448D01*
X102000000Y-55450000D02*
X100550000Y-54000000D01*
X113975000Y-66575000D02*
X130175000Y-66575000D01*
X102000000Y-57000000D02*
X102000000Y-55450000D01*
X101550000Y-53000000D02*
X101525000Y-53025000D01*
X100550000Y-54000000D02*
X101550000Y-53000000D01*
%TO.N,Net-(D5-A)*%
X100500000Y-60000000D02*
X101000000Y-60500000D01*
X99000000Y-60000000D02*
X100500000Y-60000000D01*
X113994044Y-56116655D02*
X114208345Y-56116655D01*
X114208345Y-56116655D02*
X114825000Y-55500000D01*
%TO.N,Net-(U2-CONT)*%
X110810000Y-53000000D02*
X110810000Y-53874999D01*
X110810000Y-53874999D02*
X110184999Y-54500000D01*
X103450000Y-53000000D02*
X105384313Y-54934313D01*
X105384313Y-54934313D02*
X106934313Y-54934313D01*
X110184999Y-54500000D02*
X109500000Y-54500000D01*
%TO.N,Net-(U2-THRES)*%
X107580000Y-62500000D02*
X108270000Y-61810000D01*
X109540000Y-53000000D02*
X109540000Y-53460000D01*
X106565553Y-56200001D02*
X104799999Y-56200001D01*
X104799999Y-56200001D02*
X104000000Y-57000000D01*
X108270000Y-57904448D02*
X106565553Y-56200001D01*
X108270000Y-58150000D02*
X108270000Y-57904448D01*
X109540000Y-53460000D02*
X108500000Y-54500000D01*
X106799999Y-56200001D02*
X106565553Y-56200001D01*
X108270000Y-61810000D02*
X108270000Y-58150000D01*
X107500000Y-55500000D02*
X106799999Y-56200001D01*
%TO.N,Net-(D6-K)*%
X112500000Y-61000000D02*
X112500000Y-61850000D01*
X113000000Y-53000000D02*
X110500000Y-55500000D01*
X110500000Y-55500000D02*
X110500000Y-56500000D01*
X112500000Y-61850000D02*
X112600000Y-61950000D01*
%TO.N,Net-(D7-A)*%
X115000000Y-61000000D02*
X115000000Y-62000000D01*
X115000000Y-61000000D02*
X123750000Y-61000000D01*
X115000000Y-62000000D02*
X113000000Y-64000000D01*
X123750000Y-61000000D02*
X131775000Y-52975000D01*
%TO.N,Net-(J5-Pin_1)*%
X122000000Y-53500000D02*
X121525000Y-53025000D01*
X140000000Y-61580000D02*
X131580000Y-61580000D01*
X121525000Y-53025000D02*
X119525000Y-53025000D01*
X131580000Y-61580000D02*
X128500000Y-58500000D01*
%TO.N,Net-(J5-Pin_2)*%
X126450735Y-57733579D02*
X126450735Y-57450735D01*
X138000000Y-58000000D02*
X138960000Y-58000000D01*
X125209314Y-58975000D02*
X126450735Y-57733579D01*
X138960000Y-58000000D02*
X140000000Y-59040000D01*
X117575000Y-58975000D02*
X125209314Y-58975000D01*
%TO.N,Net-(J5-Pin_3)*%
X140000000Y-56500000D02*
X128815686Y-56500000D01*
X128815686Y-56500000D02*
X120290686Y-65025000D01*
X120290686Y-65025000D02*
X119525000Y-65025000D01*
%TO.N,Net-(D6-A)*%
X114875000Y-53000000D02*
X115637500Y-53762500D01*
X115637500Y-53762500D02*
X115637500Y-57187500D01*
X115637500Y-57187500D02*
X114825000Y-58000000D01*
%TD*%
M02*
