%TF.GenerationSoftware,KiCad,Pcbnew,10.0.5*%
%TF.CreationDate,2026-08-28T01:30:07+05:30*%
%TF.ProjectId,HalfWave_Rectifier,48616c66-5761-4766-955f-526563746966,rev?*%
%TF.SameCoordinates,Original*%
%TF.FileFunction,AssemblyDrawing,Bot*%
%FSLAX46Y46*%
G04 Gerber Fmt 4.6, Leading zero omitted, Abs format (unit mm)*
G04 Created by KiCad (PCBNEW 10.0.5) date 2026-08-28 01:30:07*
%MOMM*%
%LPD*%
G01*
G04 APERTURE LIST*
%ADD10C,0.150000*%
%ADD11C,0.100000*%
G04 APERTURE END LIST*
D10*
X108454819Y-81166666D02*
X109169104Y-81166666D01*
X109169104Y-81166666D02*
X109311961Y-81119047D01*
X109311961Y-81119047D02*
X109407200Y-81023809D01*
X109407200Y-81023809D02*
X109454819Y-80880952D01*
X109454819Y-80880952D02*
X109454819Y-80785714D01*
X108550057Y-81595238D02*
X108502438Y-81642857D01*
X108502438Y-81642857D02*
X108454819Y-81738095D01*
X108454819Y-81738095D02*
X108454819Y-81976190D01*
X108454819Y-81976190D02*
X108502438Y-82071428D01*
X108502438Y-82071428D02*
X108550057Y-82119047D01*
X108550057Y-82119047D02*
X108645295Y-82166666D01*
X108645295Y-82166666D02*
X108740533Y-82166666D01*
X108740533Y-82166666D02*
X108883390Y-82119047D01*
X108883390Y-82119047D02*
X109454819Y-81547619D01*
X109454819Y-81547619D02*
X109454819Y-82166666D01*
X108238094Y-87454819D02*
X108238094Y-86454819D01*
X108238094Y-86454819D02*
X107999999Y-86454819D01*
X107999999Y-86454819D02*
X107857142Y-86502438D01*
X107857142Y-86502438D02*
X107761904Y-86597676D01*
X107761904Y-86597676D02*
X107714285Y-86692914D01*
X107714285Y-86692914D02*
X107666666Y-86883390D01*
X107666666Y-86883390D02*
X107666666Y-87026247D01*
X107666666Y-87026247D02*
X107714285Y-87216723D01*
X107714285Y-87216723D02*
X107761904Y-87311961D01*
X107761904Y-87311961D02*
X107857142Y-87407200D01*
X107857142Y-87407200D02*
X107999999Y-87454819D01*
X107999999Y-87454819D02*
X108238094Y-87454819D01*
X106714285Y-87454819D02*
X107285713Y-87454819D01*
X106999999Y-87454819D02*
X106999999Y-86454819D01*
X106999999Y-86454819D02*
X107095237Y-86597676D01*
X107095237Y-86597676D02*
X107190475Y-86692914D01*
X107190475Y-86692914D02*
X107285713Y-86740533D01*
%TO.C,J2*%
D11*
X106460000Y-79910000D02*
X107730000Y-79910000D01*
X106460000Y-80550000D02*
X106460000Y-79910000D01*
X107730000Y-80550000D02*
X106460000Y-80550000D01*
X107730000Y-84040000D02*
X107730000Y-78960000D01*
X107730000Y-84040000D02*
X109320000Y-84040000D01*
X110270000Y-78960000D02*
X107730000Y-78960000D01*
X110270000Y-78960000D02*
X110270000Y-83090000D01*
X110270000Y-83090000D02*
X109320000Y-84040000D01*
X110270000Y-83090000D02*
X111540000Y-83090000D01*
X111540000Y-82450000D02*
X110270000Y-82450000D01*
X111540000Y-83090000D02*
X111540000Y-82450000D01*
%TO.C,D1*%
X105400000Y-85200000D02*
X109700000Y-85200000D01*
X105400000Y-88800000D02*
X105400000Y-85200000D01*
X109700000Y-85200000D02*
X110600000Y-86100000D01*
X110600000Y-86100000D02*
X110600000Y-88800000D01*
X110600000Y-88800000D02*
X105400000Y-88800000D01*
%TO.C,R1*%
X113787500Y-82087500D02*
X115387500Y-82087500D01*
X115387500Y-82912500D01*
X113787500Y-82912500D01*
X113787500Y-82087500D01*
%TD*%
M02*
