%TF.GenerationSoftware,KiCad,Pcbnew,10.0.5*%
%TF.CreationDate,2026-08-28T01:30:07+05:30*%
%TF.ProjectId,HalfWave_Rectifier,48616c66-5761-4766-955f-526563746966,rev?*%
%TF.SameCoordinates,Original*%
%TF.FileFunction,Copper,L2,Bot*%
%TF.FilePolarity,Positive*%
%FSLAX46Y46*%
G04 Gerber Fmt 4.6, Leading zero omitted, Abs format (unit mm)*
G04 Created by KiCad (PCBNEW 10.0.5) date 2026-08-28 01:30:07*
%MOMM*%
%LPD*%
G01*
G04 APERTURE LIST*
G04 Aperture macros list*
%AMRoundRect*
0 Rectangle with rounded corners*
0 $1 Rounding radius*
0 $2 $3 $4 $5 $6 $7 $8 $9 X,Y pos of 4 corners*
0 Add a 4 corners polygon primitive as box body*
4,1,4,$2,$3,$4,$5,$6,$7,$8,$9,$2,$3,0*
0 Add four circle primitives for the rounded corners*
1,1,$1+$1,$2,$3*
1,1,$1+$1,$4,$5*
1,1,$1+$1,$6,$7*
1,1,$1+$1,$8,$9*
0 Add four rect primitives between the rounded corners*
20,1,$1+$1,$2,$3,$4,$5,0*
20,1,$1+$1,$4,$5,$6,$7,0*
20,1,$1+$1,$6,$7,$8,$9,0*
20,1,$1+$1,$8,$9,$2,$3,0*%
G04 Aperture macros list end*
%TA.AperFunction,ComponentPad*%
%ADD10RoundRect,0.250000X-1.050000X1.050000X-1.050000X-1.050000X1.050000X-1.050000X1.050000X1.050000X0*%
%TD*%
%TA.AperFunction,ComponentPad*%
%ADD11C,2.600000*%
%TD*%
%TA.AperFunction,SMDPad,CuDef*%
%ADD12R,2.510000X1.000000*%
%TD*%
%TA.AperFunction,SMDPad,CuDef*%
%ADD13RoundRect,0.250000X0.675000X1.625000X-0.675000X1.625000X-0.675000X-1.625000X0.675000X-1.625000X0*%
%TD*%
%TA.AperFunction,SMDPad,CuDef*%
%ADD14RoundRect,0.237500X0.250000X0.237500X-0.250000X0.237500X-0.250000X-0.237500X0.250000X-0.237500X0*%
%TD*%
%TA.AperFunction,ViaPad*%
%ADD15C,0.600000*%
%TD*%
%TA.AperFunction,Conductor*%
%ADD16C,0.200000*%
%TD*%
G04 APERTURE END LIST*
D10*
%TO.P,J1,1,Pin_1_1*%
%TO.N,Net-(J1-Pin_1)*%
X98000000Y-80500000D03*
D11*
%TO.P,J1,2,Pin_2_2*%
%TO.N,Net-(J1-Pin_2)*%
X98000000Y-85500000D03*
%TD*%
D12*
%TO.P,J2,1,Pin_1_1*%
%TO.N,Net-(J2-Pin_1)*%
X110655000Y-82770000D03*
%TO.P,J2,2,Pin_2_2*%
%TO.N,Net-(D1-K)*%
X107345000Y-80230000D03*
%TD*%
D13*
%TO.P,D1,1,K_1*%
%TO.N,Net-(D1-K)*%
X110275000Y-87000000D03*
%TO.P,D1,2,A_2*%
%TO.N,Net-(D1-A)*%
X105725000Y-87000000D03*
%TD*%
D14*
%TO.P,R1,1*%
%TO.N,Net-(D1-K)*%
X115500000Y-82500000D03*
%TO.P,R1,2*%
%TO.N,Net-(J2-Pin_1)*%
X113675000Y-82500000D03*
%TD*%
D15*
%TO.N,Net-(J2-Pin_1)*%
X113000000Y-85500000D03*
%TO.N,Net-(D1-A)*%
X107500000Y-84500000D03*
%TD*%
%TO.N,Net-(J2-Pin_1)*%
D16*
X113675000Y-82500000D02*
X110925000Y-82500000D01*
X113675000Y-84825000D02*
X113000000Y-85500000D01*
X113675000Y-82500000D02*
X113675000Y-84825000D01*
X110925000Y-82500000D02*
X110655000Y-82770000D01*
%TO.N,Net-(D1-A)*%
X107500000Y-85225000D02*
X105725000Y-87000000D01*
X107500000Y-84500000D02*
X107500000Y-85225000D01*
%TO.N,Net-(D1-K)*%
X111630000Y-86100000D02*
X110275000Y-84745000D01*
X107345000Y-80230000D02*
X107345000Y-81815000D01*
X113248529Y-86100000D02*
X111630000Y-86100000D01*
X115500000Y-83848529D02*
X113248529Y-86100000D01*
X107345000Y-81815000D02*
X110275000Y-84745000D01*
X107345000Y-80230000D02*
X107460000Y-80230000D01*
X110275000Y-84745000D02*
X110275000Y-87000000D01*
X107460000Y-80230000D02*
X107500000Y-80190000D01*
X115500000Y-82500000D02*
X115500000Y-83848529D01*
X107500000Y-80000000D02*
X107500000Y-80190000D01*
%TD*%
M02*
