%TF.GenerationSoftware,KiCad,Pcbnew,10.0.5*%
%TF.CreationDate,2026-08-28T01:32:21+05:30*%
%TF.ProjectId,center_tapped_fullwave_rectifier,63656e74-6572-45f7-9461-707065645f66,rev?*%
%TF.SameCoordinates,Original*%
%TF.FileFunction,AssemblyDrawing,Bot*%
%FSLAX46Y46*%
G04 Gerber Fmt 4.6, Leading zero omitted, Abs format (unit mm)*
G04 Created by KiCad (PCBNEW 10.0.5) date 2026-08-28 01:32:21*
%MOMM*%
%LPD*%
G01*
G04 APERTURE LIST*
%ADD10C,0.150000*%
%ADD11C,0.060000*%
%ADD12C,0.080000*%
%ADD13C,0.100000*%
G04 APERTURE END LIST*
D10*
X116954819Y-85801666D02*
X117669104Y-85801666D01*
X117669104Y-85801666D02*
X117811961Y-85754047D01*
X117811961Y-85754047D02*
X117907200Y-85658809D01*
X117907200Y-85658809D02*
X117954819Y-85515952D01*
X117954819Y-85515952D02*
X117954819Y-85420714D01*
X117050057Y-86230238D02*
X117002438Y-86277857D01*
X117002438Y-86277857D02*
X116954819Y-86373095D01*
X116954819Y-86373095D02*
X116954819Y-86611190D01*
X116954819Y-86611190D02*
X117002438Y-86706428D01*
X117002438Y-86706428D02*
X117050057Y-86754047D01*
X117050057Y-86754047D02*
X117145295Y-86801666D01*
X117145295Y-86801666D02*
X117240533Y-86801666D01*
X117240533Y-86801666D02*
X117383390Y-86754047D01*
X117383390Y-86754047D02*
X117954819Y-86182619D01*
X117954819Y-86182619D02*
X117954819Y-86801666D01*
D11*
X122681927Y-90758333D02*
X122491451Y-90625000D01*
X122681927Y-90529762D02*
X122281927Y-90529762D01*
X122281927Y-90529762D02*
X122281927Y-90682143D01*
X122281927Y-90682143D02*
X122300975Y-90720238D01*
X122300975Y-90720238D02*
X122320022Y-90739285D01*
X122320022Y-90739285D02*
X122358118Y-90758333D01*
X122358118Y-90758333D02*
X122415260Y-90758333D01*
X122415260Y-90758333D02*
X122453356Y-90739285D01*
X122453356Y-90739285D02*
X122472403Y-90720238D01*
X122472403Y-90720238D02*
X122491451Y-90682143D01*
X122491451Y-90682143D02*
X122491451Y-90529762D01*
X122681927Y-91139285D02*
X122681927Y-90910714D01*
X122681927Y-91025000D02*
X122281927Y-91025000D01*
X122281927Y-91025000D02*
X122339070Y-90986904D01*
X122339070Y-90986904D02*
X122377165Y-90948809D01*
X122377165Y-90948809D02*
X122396213Y-90910714D01*
D12*
X119806547Y-92227149D02*
X119806547Y-91727149D01*
X119806547Y-91727149D02*
X119687499Y-91727149D01*
X119687499Y-91727149D02*
X119616071Y-91750959D01*
X119616071Y-91750959D02*
X119568452Y-91798578D01*
X119568452Y-91798578D02*
X119544642Y-91846197D01*
X119544642Y-91846197D02*
X119520833Y-91941435D01*
X119520833Y-91941435D02*
X119520833Y-92012863D01*
X119520833Y-92012863D02*
X119544642Y-92108101D01*
X119544642Y-92108101D02*
X119568452Y-92155720D01*
X119568452Y-92155720D02*
X119616071Y-92203340D01*
X119616071Y-92203340D02*
X119687499Y-92227149D01*
X119687499Y-92227149D02*
X119806547Y-92227149D01*
X119330356Y-91774768D02*
X119306547Y-91750959D01*
X119306547Y-91750959D02*
X119258928Y-91727149D01*
X119258928Y-91727149D02*
X119139880Y-91727149D01*
X119139880Y-91727149D02*
X119092261Y-91750959D01*
X119092261Y-91750959D02*
X119068452Y-91774768D01*
X119068452Y-91774768D02*
X119044642Y-91822387D01*
X119044642Y-91822387D02*
X119044642Y-91870006D01*
X119044642Y-91870006D02*
X119068452Y-91941435D01*
X119068452Y-91941435D02*
X119354166Y-92227149D01*
X119354166Y-92227149D02*
X119044642Y-92227149D01*
%TO.C,D1*%
D13*
X118437500Y-88900000D02*
X120137500Y-88900000D01*
X118437500Y-90100000D02*
X118437500Y-88900000D01*
X120137500Y-88900000D02*
X120437500Y-89200000D01*
X120437500Y-89200000D02*
X120437500Y-90100000D01*
X120437500Y-90100000D02*
X118437500Y-90100000D01*
%TO.C,J2*%
X115000000Y-85300000D02*
X115000000Y-85700000D01*
X115000000Y-85700000D02*
X116450000Y-85700000D01*
X116450000Y-85300000D02*
X115000000Y-85300000D01*
X116450000Y-85300000D02*
X116885000Y-84865000D01*
X116450000Y-87405000D02*
X116450000Y-85300000D01*
X116450000Y-87405000D02*
X118550000Y-87405000D01*
X118550000Y-84865000D02*
X116885000Y-84865000D01*
X118550000Y-84865000D02*
X118550000Y-87405000D01*
X118550000Y-86570000D02*
X120000000Y-86570000D01*
X120000000Y-86570000D02*
X120000000Y-86970000D01*
X120000000Y-86970000D02*
X118550000Y-86970000D01*
%TO.C,R1*%
X122087500Y-90025000D02*
X122912500Y-90025000D01*
X122912500Y-91625000D01*
X122087500Y-91625000D01*
X122087500Y-90025000D01*
%TO.C,D2*%
X118437500Y-91400000D02*
X120137500Y-91400000D01*
X118437500Y-92600000D02*
X118437500Y-91400000D01*
X120137500Y-91400000D02*
X120437500Y-91700000D01*
X120437500Y-91700000D02*
X120437500Y-92600000D01*
X120437500Y-92600000D02*
X118437500Y-92600000D01*
%TD*%
M02*
