%TF.GenerationSoftware,KiCad,Pcbnew,10.0.5*%
%TF.CreationDate,2026-08-28T01:32:20+05:30*%
%TF.ProjectId,center_tapped_fullwave_rectifier,63656e74-6572-45f7-9461-707065645f66,rev?*%
%TF.SameCoordinates,Original*%
%TF.FileFunction,Legend,Top*%
%TF.FilePolarity,Positive*%
%FSLAX46Y46*%
G04 Gerber Fmt 4.6, Leading zero omitted, Abs format (unit mm)*
G04 Created by KiCad (PCBNEW 10.0.5) date 2026-08-28 01:32:20*
%MOMM*%
%LPD*%
G01*
G04 APERTURE LIST*
%ADD10C,0.120000*%
G04 APERTURE END LIST*
%TO.C,J1*%
D10*
X106780000Y-83840000D02*
X116820000Y-83840000D01*
X106780000Y-86200000D02*
X106780000Y-83840000D01*
X106780000Y-94240000D02*
X106780000Y-86800000D01*
X107400000Y-83840000D02*
X107400000Y-94240000D01*
X108900000Y-83840000D02*
X108900000Y-94240000D01*
X113800000Y-83840000D02*
X113800000Y-94240000D01*
X116820000Y-83840000D02*
X116820000Y-94240000D01*
X116820000Y-94240000D02*
X106780000Y-94240000D01*
X106780000Y-86500000D02*
X106170000Y-86940000D01*
X106170000Y-86060000D01*
X106780000Y-86500000D01*
G36*
X106780000Y-86500000D02*
G01*
X106170000Y-86940000D01*
X106170000Y-86060000D01*
X106780000Y-86500000D01*
G37*
%TO.C,T1*%
X118615000Y-83670000D02*
X118615000Y-83870000D01*
X118615000Y-85170000D02*
X118615000Y-86370000D01*
X118615000Y-87670000D02*
X118615000Y-87870000D01*
X118615000Y-87870000D02*
X121815000Y-87870000D01*
X121815000Y-83670000D02*
X118615000Y-83670000D01*
X121815000Y-83870000D02*
X121815000Y-83670000D01*
X121815000Y-87870000D02*
X121815000Y-87670000D01*
X118215000Y-83870000D02*
X117975000Y-83540000D01*
X118455000Y-83540000D01*
X118215000Y-83870000D01*
G36*
X118215000Y-83870000D02*
G01*
X117975000Y-83540000D01*
X118455000Y-83540000D01*
X118215000Y-83870000D01*
G37*
%TD*%
M02*
