%TF.GenerationSoftware,KiCad,Pcbnew,10.0.5*%
%TF.CreationDate,2026-09-08T18:34:16+05:30*%
%TF.ProjectId,Bridge_Rectifier_with_filter,42726964-6765-45f5-9265-637469666965,rev?*%
%TF.SameCoordinates,Original*%
%TF.FileFunction,AssemblyDrawing,Top*%
%FSLAX46Y46*%
G04 Gerber Fmt 4.6, Leading zero omitted, Abs format (unit mm)*
G04 Created by KiCad (PCBNEW 10.0.5) date 2026-09-08 18:34:16*
%MOMM*%
%LPD*%
G01*
G04 APERTURE LIST*
%ADD10C,0.150000*%
%ADD11C,0.060000*%
%ADD12C,0.100000*%
G04 APERTURE END LIST*
D10*
X118031904Y-64329819D02*
X118031904Y-63329819D01*
X118031904Y-63329819D02*
X118269999Y-63329819D01*
X118269999Y-63329819D02*
X118412856Y-63377438D01*
X118412856Y-63377438D02*
X118508094Y-63472676D01*
X118508094Y-63472676D02*
X118555713Y-63567914D01*
X118555713Y-63567914D02*
X118603332Y-63758390D01*
X118603332Y-63758390D02*
X118603332Y-63901247D01*
X118603332Y-63901247D02*
X118555713Y-64091723D01*
X118555713Y-64091723D02*
X118508094Y-64186961D01*
X118508094Y-64186961D02*
X118412856Y-64282200D01*
X118412856Y-64282200D02*
X118269999Y-64329819D01*
X118269999Y-64329819D02*
X118031904Y-64329819D01*
X118793809Y-64425057D02*
X119555713Y-64425057D01*
X119698571Y-63329819D02*
X120365237Y-63329819D01*
X120365237Y-63329819D02*
X119698571Y-64329819D01*
X119698571Y-64329819D02*
X120365237Y-64329819D01*
X121127142Y-64282200D02*
X121031904Y-64329819D01*
X121031904Y-64329819D02*
X120841428Y-64329819D01*
X120841428Y-64329819D02*
X120746190Y-64282200D01*
X120746190Y-64282200D02*
X120698571Y-64186961D01*
X120698571Y-64186961D02*
X120698571Y-63806009D01*
X120698571Y-63806009D02*
X120746190Y-63710771D01*
X120746190Y-63710771D02*
X120841428Y-63663152D01*
X120841428Y-63663152D02*
X121031904Y-63663152D01*
X121031904Y-63663152D02*
X121127142Y-63710771D01*
X121127142Y-63710771D02*
X121174761Y-63806009D01*
X121174761Y-63806009D02*
X121174761Y-63901247D01*
X121174761Y-63901247D02*
X120698571Y-63996485D01*
X121603333Y-63663152D02*
X121603333Y-64329819D01*
X121603333Y-63758390D02*
X121650952Y-63710771D01*
X121650952Y-63710771D02*
X121746190Y-63663152D01*
X121746190Y-63663152D02*
X121889047Y-63663152D01*
X121889047Y-63663152D02*
X121984285Y-63710771D01*
X121984285Y-63710771D02*
X122031904Y-63806009D01*
X122031904Y-63806009D02*
X122031904Y-64329819D01*
X122889047Y-64282200D02*
X122793809Y-64329819D01*
X122793809Y-64329819D02*
X122603333Y-64329819D01*
X122603333Y-64329819D02*
X122508095Y-64282200D01*
X122508095Y-64282200D02*
X122460476Y-64186961D01*
X122460476Y-64186961D02*
X122460476Y-63806009D01*
X122460476Y-63806009D02*
X122508095Y-63710771D01*
X122508095Y-63710771D02*
X122603333Y-63663152D01*
X122603333Y-63663152D02*
X122793809Y-63663152D01*
X122793809Y-63663152D02*
X122889047Y-63710771D01*
X122889047Y-63710771D02*
X122936666Y-63806009D01*
X122936666Y-63806009D02*
X122936666Y-63901247D01*
X122936666Y-63901247D02*
X122460476Y-63996485D01*
X123365238Y-64329819D02*
X123365238Y-63663152D01*
X123365238Y-63853628D02*
X123412857Y-63758390D01*
X123412857Y-63758390D02*
X123460476Y-63710771D01*
X123460476Y-63710771D02*
X123555714Y-63663152D01*
X123555714Y-63663152D02*
X123650952Y-63663152D01*
X119931905Y-60579819D02*
X119931905Y-59579819D01*
X119931905Y-59579819D02*
X120170000Y-59579819D01*
X120170000Y-59579819D02*
X120312857Y-59627438D01*
X120312857Y-59627438D02*
X120408095Y-59722676D01*
X120408095Y-59722676D02*
X120455714Y-59817914D01*
X120455714Y-59817914D02*
X120503333Y-60008390D01*
X120503333Y-60008390D02*
X120503333Y-60151247D01*
X120503333Y-60151247D02*
X120455714Y-60341723D01*
X120455714Y-60341723D02*
X120408095Y-60436961D01*
X120408095Y-60436961D02*
X120312857Y-60532200D01*
X120312857Y-60532200D02*
X120170000Y-60579819D01*
X120170000Y-60579819D02*
X119931905Y-60579819D01*
X121408095Y-59579819D02*
X120931905Y-59579819D01*
X120931905Y-59579819D02*
X120884286Y-60056009D01*
X120884286Y-60056009D02*
X120931905Y-60008390D01*
X120931905Y-60008390D02*
X121027143Y-59960771D01*
X121027143Y-59960771D02*
X121265238Y-59960771D01*
X121265238Y-59960771D02*
X121360476Y-60008390D01*
X121360476Y-60008390D02*
X121408095Y-60056009D01*
X121408095Y-60056009D02*
X121455714Y-60151247D01*
X121455714Y-60151247D02*
X121455714Y-60389342D01*
X121455714Y-60389342D02*
X121408095Y-60484580D01*
X121408095Y-60484580D02*
X121360476Y-60532200D01*
X121360476Y-60532200D02*
X121265238Y-60579819D01*
X121265238Y-60579819D02*
X121027143Y-60579819D01*
X121027143Y-60579819D02*
X120931905Y-60532200D01*
X120931905Y-60532200D02*
X120884286Y-60484580D01*
X108738095Y-76564819D02*
X108738095Y-75564819D01*
X108738095Y-75564819D02*
X108976190Y-75564819D01*
X108976190Y-75564819D02*
X109119047Y-75612438D01*
X109119047Y-75612438D02*
X109214285Y-75707676D01*
X109214285Y-75707676D02*
X109261904Y-75802914D01*
X109261904Y-75802914D02*
X109309523Y-75993390D01*
X109309523Y-75993390D02*
X109309523Y-76136247D01*
X109309523Y-76136247D02*
X109261904Y-76326723D01*
X109261904Y-76326723D02*
X109214285Y-76421961D01*
X109214285Y-76421961D02*
X109119047Y-76517200D01*
X109119047Y-76517200D02*
X108976190Y-76564819D01*
X108976190Y-76564819D02*
X108738095Y-76564819D01*
X117309523Y-63884819D02*
X116976190Y-63408628D01*
X116738095Y-63884819D02*
X116738095Y-62884819D01*
X116738095Y-62884819D02*
X117119047Y-62884819D01*
X117119047Y-62884819D02*
X117214285Y-62932438D01*
X117214285Y-62932438D02*
X117261904Y-62980057D01*
X117261904Y-62980057D02*
X117309523Y-63075295D01*
X117309523Y-63075295D02*
X117309523Y-63218152D01*
X117309523Y-63218152D02*
X117261904Y-63313390D01*
X117261904Y-63313390D02*
X117214285Y-63361009D01*
X117214285Y-63361009D02*
X117119047Y-63408628D01*
X117119047Y-63408628D02*
X116738095Y-63408628D01*
D11*
X116933333Y-62181927D02*
X116800000Y-61991451D01*
X116704762Y-62181927D02*
X116704762Y-61781927D01*
X116704762Y-61781927D02*
X116857143Y-61781927D01*
X116857143Y-61781927D02*
X116895238Y-61800975D01*
X116895238Y-61800975D02*
X116914285Y-61820022D01*
X116914285Y-61820022D02*
X116933333Y-61858118D01*
X116933333Y-61858118D02*
X116933333Y-61915260D01*
X116933333Y-61915260D02*
X116914285Y-61953356D01*
X116914285Y-61953356D02*
X116895238Y-61972403D01*
X116895238Y-61972403D02*
X116857143Y-61991451D01*
X116857143Y-61991451D02*
X116704762Y-61991451D01*
X117314285Y-62181927D02*
X117085714Y-62181927D01*
X117200000Y-62181927D02*
X117200000Y-61781927D01*
X117200000Y-61781927D02*
X117161904Y-61839070D01*
X117161904Y-61839070D02*
X117123809Y-61877165D01*
X117123809Y-61877165D02*
X117085714Y-61896213D01*
D10*
X96504819Y-66238333D02*
X97219104Y-66238333D01*
X97219104Y-66238333D02*
X97361961Y-66285952D01*
X97361961Y-66285952D02*
X97457200Y-66381190D01*
X97457200Y-66381190D02*
X97504819Y-66524047D01*
X97504819Y-66524047D02*
X97504819Y-66619285D01*
X97504819Y-65238333D02*
X97504819Y-65809761D01*
X97504819Y-65524047D02*
X96504819Y-65524047D01*
X96504819Y-65524047D02*
X96647676Y-65619285D01*
X96647676Y-65619285D02*
X96742914Y-65714523D01*
X96742914Y-65714523D02*
X96790533Y-65809761D01*
X118309523Y-73209580D02*
X118261904Y-73257200D01*
X118261904Y-73257200D02*
X118119047Y-73304819D01*
X118119047Y-73304819D02*
X118023809Y-73304819D01*
X118023809Y-73304819D02*
X117880952Y-73257200D01*
X117880952Y-73257200D02*
X117785714Y-73161961D01*
X117785714Y-73161961D02*
X117738095Y-73066723D01*
X117738095Y-73066723D02*
X117690476Y-72876247D01*
X117690476Y-72876247D02*
X117690476Y-72733390D01*
X117690476Y-72733390D02*
X117738095Y-72542914D01*
X117738095Y-72542914D02*
X117785714Y-72447676D01*
X117785714Y-72447676D02*
X117880952Y-72352438D01*
X117880952Y-72352438D02*
X118023809Y-72304819D01*
X118023809Y-72304819D02*
X118119047Y-72304819D01*
X118119047Y-72304819D02*
X118261904Y-72352438D01*
X118261904Y-72352438D02*
X118309523Y-72400057D01*
X117833333Y-68859580D02*
X117785714Y-68907200D01*
X117785714Y-68907200D02*
X117642857Y-68954819D01*
X117642857Y-68954819D02*
X117547619Y-68954819D01*
X117547619Y-68954819D02*
X117404762Y-68907200D01*
X117404762Y-68907200D02*
X117309524Y-68811961D01*
X117309524Y-68811961D02*
X117261905Y-68716723D01*
X117261905Y-68716723D02*
X117214286Y-68526247D01*
X117214286Y-68526247D02*
X117214286Y-68383390D01*
X117214286Y-68383390D02*
X117261905Y-68192914D01*
X117261905Y-68192914D02*
X117309524Y-68097676D01*
X117309524Y-68097676D02*
X117404762Y-68002438D01*
X117404762Y-68002438D02*
X117547619Y-67954819D01*
X117547619Y-67954819D02*
X117642857Y-67954819D01*
X117642857Y-67954819D02*
X117785714Y-68002438D01*
X117785714Y-68002438D02*
X117833333Y-68050057D01*
X118785714Y-68954819D02*
X118214286Y-68954819D01*
X118500000Y-68954819D02*
X118500000Y-67954819D01*
X118500000Y-67954819D02*
X118404762Y-68097676D01*
X118404762Y-68097676D02*
X118309524Y-68192914D01*
X118309524Y-68192914D02*
X118214286Y-68240533D01*
%TO.C,D1*%
D12*
X106400000Y-56210000D02*
X106400000Y-58910000D01*
X106400000Y-58910000D02*
X111600000Y-58910000D01*
X107300000Y-55310000D02*
X106400000Y-56210000D01*
X111600000Y-55310000D02*
X107300000Y-55310000D01*
X111600000Y-58910000D02*
X111600000Y-55310000D01*
%TO.C,D5*%
X119770000Y-61275000D02*
X121570000Y-61275000D01*
X119770000Y-62675000D02*
X119770000Y-61275000D01*
X120370000Y-61625000D02*
X120370000Y-62325000D01*
X120370000Y-61975000D02*
X120170000Y-61975000D01*
X120370000Y-61975000D02*
X120870000Y-61625000D01*
X120870000Y-61625000D02*
X120870000Y-62325000D01*
X120870000Y-61975000D02*
X121120000Y-61975000D01*
X120870000Y-62325000D02*
X120370000Y-61975000D01*
X121570000Y-61275000D02*
X121570000Y-62675000D01*
X121570000Y-62675000D02*
X119770000Y-62675000D01*
%TO.C,D4*%
X106400000Y-72380000D02*
X106400000Y-75080000D01*
X106400000Y-75080000D02*
X111600000Y-75080000D01*
X107300000Y-71480000D02*
X106400000Y-72380000D01*
X111600000Y-71480000D02*
X107300000Y-71480000D01*
X111600000Y-75080000D02*
X111600000Y-71480000D01*
%TO.C,R1*%
X116200000Y-61587500D02*
X117800000Y-61587500D01*
X117800000Y-62412500D01*
X116200000Y-62412500D01*
X116200000Y-61587500D01*
%TO.C,J1*%
X96400000Y-63925000D02*
X98225000Y-62100000D01*
X96400000Y-69710000D02*
X96400000Y-63925000D01*
X98225000Y-62100000D02*
X103700000Y-62100000D01*
X100955000Y-65138000D02*
X98862000Y-63045000D01*
X100955000Y-68948000D02*
X98862000Y-66855000D01*
X101138000Y-64955000D02*
X99045000Y-62862000D01*
X101138000Y-68765000D02*
X99045000Y-66672000D01*
X103700000Y-62100000D02*
X103700000Y-69710000D01*
X103700000Y-69710000D02*
X96400000Y-69710000D01*
X101500000Y-64000000D02*
G75*
G02*
X98500000Y-64000000I-1500000J0D01*
G01*
X98500000Y-64000000D02*
G75*
G02*
X101500000Y-64000000I1500000J0D01*
G01*
X101500000Y-67810000D02*
G75*
G02*
X98500000Y-67810000I-1500000J0D01*
G01*
X98500000Y-67810000D02*
G75*
G02*
X101500000Y-67810000I1500000J0D01*
G01*
%TO.C,D2*%
X106400000Y-61600000D02*
X106400000Y-64300000D01*
X106400000Y-64300000D02*
X111600000Y-64300000D01*
X107300000Y-60700000D02*
X106400000Y-61600000D01*
X111600000Y-60700000D02*
X107300000Y-60700000D01*
X111600000Y-64300000D02*
X111600000Y-60700000D01*
%TO.C,D3*%
X106400000Y-66990000D02*
X106400000Y-69690000D01*
X106400000Y-69690000D02*
X111600000Y-69690000D01*
X107300000Y-66090000D02*
X106400000Y-66990000D01*
X111600000Y-66090000D02*
X107300000Y-66090000D01*
X111600000Y-69690000D02*
X111600000Y-66090000D01*
%TO.C,C1*%
X114700000Y-66200000D02*
X114700000Y-70800000D01*
X114700000Y-66200000D02*
X115700000Y-65200000D01*
X114700000Y-70800000D02*
X115700000Y-71800000D01*
X115295162Y-67170000D02*
X115925162Y-67170000D01*
X115610162Y-66855000D02*
X115610162Y-67485000D01*
X115700000Y-65200000D02*
X121300000Y-65200000D01*
X115700000Y-71800000D02*
X121300000Y-71800000D01*
X121300000Y-65200000D02*
X121300000Y-71800000D01*
X121150000Y-68500000D02*
G75*
G02*
X114850000Y-68500000I-3150000J0D01*
G01*
X114850000Y-68500000D02*
G75*
G02*
X121150000Y-68500000I3150000J0D01*
G01*
%TD*%
M02*
