%TF.GenerationSoftware,KiCad,Pcbnew,10.0.5*%
%TF.CreationDate,2026-09-09T16:38:13+05:30*%
%TF.ProjectId,clipper_series,636c6970-7065-4725-9f73-65726965732e,rev?*%
%TF.SameCoordinates,Original*%
%TF.FileFunction,AssemblyDrawing,Bot*%
%FSLAX46Y46*%
G04 Gerber Fmt 4.6, Leading zero omitted, Abs format (unit mm)*
G04 Created by KiCad (PCBNEW 10.0.5) date 2026-09-09 16:38:13*
%MOMM*%
%LPD*%
G01*
G04 APERTURE LIST*
%ADD10C,0.150000*%
%ADD11C,0.060000*%
%ADD12C,0.100000*%
G04 APERTURE END LIST*
D10*
X139190476Y-60884819D02*
X139523809Y-60408628D01*
X139761904Y-60884819D02*
X139761904Y-59884819D01*
X139761904Y-59884819D02*
X139380952Y-59884819D01*
X139380952Y-59884819D02*
X139285714Y-59932438D01*
X139285714Y-59932438D02*
X139238095Y-59980057D01*
X139238095Y-59980057D02*
X139190476Y-60075295D01*
X139190476Y-60075295D02*
X139190476Y-60218152D01*
X139190476Y-60218152D02*
X139238095Y-60313390D01*
X139238095Y-60313390D02*
X139285714Y-60361009D01*
X139285714Y-60361009D02*
X139380952Y-60408628D01*
X139380952Y-60408628D02*
X139761904Y-60408628D01*
D11*
X139566666Y-59181927D02*
X139699999Y-58991451D01*
X139795237Y-59181927D02*
X139795237Y-58781927D01*
X139795237Y-58781927D02*
X139642856Y-58781927D01*
X139642856Y-58781927D02*
X139604761Y-58800975D01*
X139604761Y-58800975D02*
X139585714Y-58820022D01*
X139585714Y-58820022D02*
X139566666Y-58858118D01*
X139566666Y-58858118D02*
X139566666Y-58915260D01*
X139566666Y-58915260D02*
X139585714Y-58953356D01*
X139585714Y-58953356D02*
X139604761Y-58972403D01*
X139604761Y-58972403D02*
X139642856Y-58991451D01*
X139642856Y-58991451D02*
X139795237Y-58991451D01*
X139185714Y-59181927D02*
X139414285Y-59181927D01*
X139299999Y-59181927D02*
X139299999Y-58781927D01*
X139299999Y-58781927D02*
X139338095Y-58839070D01*
X139338095Y-58839070D02*
X139376190Y-58877165D01*
X139376190Y-58877165D02*
X139414285Y-58896213D01*
D10*
X142784819Y-53963095D02*
X141784819Y-53963095D01*
X141784819Y-53963095D02*
X141784819Y-54201190D01*
X141784819Y-54201190D02*
X141832438Y-54344047D01*
X141832438Y-54344047D02*
X141927676Y-54439285D01*
X141927676Y-54439285D02*
X142022914Y-54486904D01*
X142022914Y-54486904D02*
X142213390Y-54534523D01*
X142213390Y-54534523D02*
X142356247Y-54534523D01*
X142356247Y-54534523D02*
X142546723Y-54486904D01*
X142546723Y-54486904D02*
X142641961Y-54439285D01*
X142641961Y-54439285D02*
X142737200Y-54344047D01*
X142737200Y-54344047D02*
X142784819Y-54201190D01*
X142784819Y-54201190D02*
X142784819Y-53963095D01*
%TO.C,R1*%
D12*
X138700000Y-58587500D02*
X140300000Y-58587500D01*
X140300000Y-59412500D01*
X138700000Y-59412500D01*
X138700000Y-58587500D01*
%TO.C,D1*%
X137700000Y-52525000D02*
X138600000Y-51625000D01*
X137700000Y-56825000D02*
X137700000Y-52525000D01*
X138600000Y-51625000D02*
X141300000Y-51625000D01*
X141300000Y-51625000D02*
X141300000Y-56825000D01*
X141300000Y-56825000D02*
X137700000Y-56825000D01*
%TD*%
M02*
