%TF.GenerationSoftware,KiCad,Pcbnew,10.0.5*%
%TF.CreationDate,2026-09-09T16:38:13+05:30*%
%TF.ProjectId,clipper_series,636c6970-7065-4725-9f73-65726965732e,rev?*%
%TF.SameCoordinates,Original*%
%TF.FileFunction,AssemblyDrawing,Top*%
%FSLAX46Y46*%
G04 Gerber Fmt 4.6, Leading zero omitted, Abs format (unit mm)*
G04 Created by KiCad (PCBNEW 10.0.5) date 2026-09-09 16:38:13*
%MOMM*%
%LPD*%
G01*
G04 APERTURE LIST*
%ADD10C,0.150000*%
%ADD11C,0.100000*%
G04 APERTURE END LIST*
D10*
X139086009Y-61555714D02*
X139133628Y-61412857D01*
X139133628Y-61412857D02*
X139181247Y-61365238D01*
X139181247Y-61365238D02*
X139276485Y-61317619D01*
X139276485Y-61317619D02*
X139419342Y-61317619D01*
X139419342Y-61317619D02*
X139514580Y-61365238D01*
X139514580Y-61365238D02*
X139562200Y-61412857D01*
X139562200Y-61412857D02*
X139609819Y-61508095D01*
X139609819Y-61508095D02*
X139609819Y-61889047D01*
X139609819Y-61889047D02*
X138609819Y-61889047D01*
X138609819Y-61889047D02*
X138609819Y-61555714D01*
X138609819Y-61555714D02*
X138657438Y-61460476D01*
X138657438Y-61460476D02*
X138705057Y-61412857D01*
X138705057Y-61412857D02*
X138800295Y-61365238D01*
X138800295Y-61365238D02*
X138895533Y-61365238D01*
X138895533Y-61365238D02*
X138990771Y-61412857D01*
X138990771Y-61412857D02*
X139038390Y-61460476D01*
X139038390Y-61460476D02*
X139086009Y-61555714D01*
X139086009Y-61555714D02*
X139086009Y-61889047D01*
X138609819Y-61031904D02*
X138609819Y-60460476D01*
X139609819Y-60746190D02*
X138609819Y-60746190D01*
X139609819Y-59603333D02*
X139609819Y-60174761D01*
X139609819Y-59889047D02*
X138609819Y-59889047D01*
X138609819Y-59889047D02*
X138752676Y-59984285D01*
X138752676Y-59984285D02*
X138847914Y-60079523D01*
X138847914Y-60079523D02*
X138895533Y-60174761D01*
X138299819Y-54103333D02*
X139014104Y-54103333D01*
X139014104Y-54103333D02*
X139156961Y-54150952D01*
X139156961Y-54150952D02*
X139252200Y-54246190D01*
X139252200Y-54246190D02*
X139299819Y-54389047D01*
X139299819Y-54389047D02*
X139299819Y-54484285D01*
X138395057Y-53674761D02*
X138347438Y-53627142D01*
X138347438Y-53627142D02*
X138299819Y-53531904D01*
X138299819Y-53531904D02*
X138299819Y-53293809D01*
X138299819Y-53293809D02*
X138347438Y-53198571D01*
X138347438Y-53198571D02*
X138395057Y-53150952D01*
X138395057Y-53150952D02*
X138490295Y-53103333D01*
X138490295Y-53103333D02*
X138585533Y-53103333D01*
X138585533Y-53103333D02*
X138728390Y-53150952D01*
X138728390Y-53150952D02*
X139299819Y-53722380D01*
X139299819Y-53722380D02*
X139299819Y-53103333D01*
X127504819Y-56738333D02*
X128219104Y-56738333D01*
X128219104Y-56738333D02*
X128361961Y-56785952D01*
X128361961Y-56785952D02*
X128457200Y-56881190D01*
X128457200Y-56881190D02*
X128504819Y-57024047D01*
X128504819Y-57024047D02*
X128504819Y-57119285D01*
X128504819Y-55738333D02*
X128504819Y-56309761D01*
X128504819Y-56024047D02*
X127504819Y-56024047D01*
X127504819Y-56024047D02*
X127647676Y-56119285D01*
X127647676Y-56119285D02*
X127742914Y-56214523D01*
X127742914Y-56214523D02*
X127790533Y-56309761D01*
X139954819Y-54963094D02*
X138954819Y-54963094D01*
X138954819Y-54963094D02*
X138954819Y-54724999D01*
X138954819Y-54724999D02*
X139002438Y-54582142D01*
X139002438Y-54582142D02*
X139097676Y-54486904D01*
X139097676Y-54486904D02*
X139192914Y-54439285D01*
X139192914Y-54439285D02*
X139383390Y-54391666D01*
X139383390Y-54391666D02*
X139526247Y-54391666D01*
X139526247Y-54391666D02*
X139716723Y-54439285D01*
X139716723Y-54439285D02*
X139811961Y-54486904D01*
X139811961Y-54486904D02*
X139907200Y-54582142D01*
X139907200Y-54582142D02*
X139954819Y-54724999D01*
X139954819Y-54724999D02*
X139954819Y-54963094D01*
X139954819Y-53439285D02*
X139954819Y-54010713D01*
X139954819Y-53724999D02*
X138954819Y-53724999D01*
X138954819Y-53724999D02*
X139097676Y-53820237D01*
X139097676Y-53820237D02*
X139192914Y-53915475D01*
X139192914Y-53915475D02*
X139240533Y-54010713D01*
%TO.C,BT1*%
D11*
X136615000Y-59180000D02*
X136615000Y-59820000D01*
X136615000Y-59820000D02*
X137885000Y-59820000D01*
X137885000Y-59180000D02*
X136615000Y-59180000D01*
X137885000Y-59180000D02*
X138835000Y-58230000D01*
X137885000Y-63310000D02*
X137885000Y-59180000D01*
X138835000Y-58230000D02*
X140425000Y-58230000D01*
X140425000Y-58230000D02*
X140425000Y-63310000D01*
X140425000Y-61720000D02*
X141695000Y-61720000D01*
X140425000Y-63310000D02*
X137885000Y-63310000D01*
X141695000Y-61720000D02*
X141695000Y-62360000D01*
X141695000Y-62360000D02*
X140425000Y-62360000D01*
%TO.C,J2*%
X136305000Y-54720000D02*
X137575000Y-54720000D01*
X136305000Y-55360000D02*
X136305000Y-54720000D01*
X137575000Y-51230000D02*
X137575000Y-55360000D01*
X137575000Y-51230000D02*
X140115000Y-51230000D01*
X137575000Y-55360000D02*
X136305000Y-55360000D01*
X137575000Y-55360000D02*
X138525000Y-56310000D01*
X140115000Y-52820000D02*
X141385000Y-52820000D01*
X140115000Y-56310000D02*
X138525000Y-56310000D01*
X140115000Y-56310000D02*
X140115000Y-51230000D01*
X141385000Y-52180000D02*
X140115000Y-52180000D01*
X141385000Y-52820000D02*
X141385000Y-52180000D01*
%TO.C,J1*%
X127400000Y-54425000D02*
X129225000Y-52600000D01*
X127400000Y-60210000D02*
X127400000Y-54425000D01*
X129225000Y-52600000D02*
X134700000Y-52600000D01*
X131955000Y-55638000D02*
X129862000Y-53545000D01*
X131955000Y-59448000D02*
X129862000Y-57355000D01*
X132138000Y-55455000D02*
X130045000Y-53362000D01*
X132138000Y-59265000D02*
X130045000Y-57172000D01*
X134700000Y-52600000D02*
X134700000Y-60210000D01*
X134700000Y-60210000D02*
X127400000Y-60210000D01*
X132500000Y-54500000D02*
G75*
G02*
X129500000Y-54500000I-1500000J0D01*
G01*
X129500000Y-54500000D02*
G75*
G02*
X132500000Y-54500000I1500000J0D01*
G01*
X132500000Y-58310000D02*
G75*
G02*
X129500000Y-58310000I-1500000J0D01*
G01*
X129500000Y-58310000D02*
G75*
G02*
X132500000Y-58310000I1500000J0D01*
G01*
%TD*%
M02*
