%TF.GenerationSoftware,KiCad,Pcbnew,10.0.5*%
%TF.CreationDate,2026-09-09T16:38:12+05:30*%
%TF.ProjectId,clipper_series,636c6970-7065-4725-9f73-65726965732e,rev?*%
%TF.SameCoordinates,Original*%
%TF.FileFunction,Legend,Top*%
%TF.FilePolarity,Positive*%
%FSLAX46Y46*%
G04 Gerber Fmt 4.6, Leading zero omitted, Abs format (unit mm)*
G04 Created by KiCad (PCBNEW 10.0.5) date 2026-09-09 16:38:12*
%MOMM*%
%LPD*%
G01*
G04 APERTURE LIST*
%ADD10C,0.100000*%
%ADD11C,0.120000*%
G04 APERTURE END LIST*
D10*
X127137217Y-61848609D02*
X127280074Y-61896228D01*
X127280074Y-61896228D02*
X127327693Y-61943847D01*
X127327693Y-61943847D02*
X127375312Y-62039085D01*
X127375312Y-62039085D02*
X127375312Y-62181942D01*
X127375312Y-62181942D02*
X127327693Y-62277180D01*
X127327693Y-62277180D02*
X127280074Y-62324800D01*
X127280074Y-62324800D02*
X127184836Y-62372419D01*
X127184836Y-62372419D02*
X126803884Y-62372419D01*
X126803884Y-62372419D02*
X126803884Y-61372419D01*
X126803884Y-61372419D02*
X127137217Y-61372419D01*
X127137217Y-61372419D02*
X127232455Y-61420038D01*
X127232455Y-61420038D02*
X127280074Y-61467657D01*
X127280074Y-61467657D02*
X127327693Y-61562895D01*
X127327693Y-61562895D02*
X127327693Y-61658133D01*
X127327693Y-61658133D02*
X127280074Y-61753371D01*
X127280074Y-61753371D02*
X127232455Y-61800990D01*
X127232455Y-61800990D02*
X127137217Y-61848609D01*
X127137217Y-61848609D02*
X126803884Y-61848609D01*
X128232455Y-62372419D02*
X128232455Y-61848609D01*
X128232455Y-61848609D02*
X128184836Y-61753371D01*
X128184836Y-61753371D02*
X128089598Y-61705752D01*
X128089598Y-61705752D02*
X127899122Y-61705752D01*
X127899122Y-61705752D02*
X127803884Y-61753371D01*
X128232455Y-62324800D02*
X128137217Y-62372419D01*
X128137217Y-62372419D02*
X127899122Y-62372419D01*
X127899122Y-62372419D02*
X127803884Y-62324800D01*
X127803884Y-62324800D02*
X127756265Y-62229561D01*
X127756265Y-62229561D02*
X127756265Y-62134323D01*
X127756265Y-62134323D02*
X127803884Y-62039085D01*
X127803884Y-62039085D02*
X127899122Y-61991466D01*
X127899122Y-61991466D02*
X128137217Y-61991466D01*
X128137217Y-61991466D02*
X128232455Y-61943847D01*
X128565789Y-61705752D02*
X128946741Y-61705752D01*
X128708646Y-61372419D02*
X128708646Y-62229561D01*
X128708646Y-62229561D02*
X128756265Y-62324800D01*
X128756265Y-62324800D02*
X128851503Y-62372419D01*
X128851503Y-62372419D02*
X128946741Y-62372419D01*
X129137218Y-61705752D02*
X129518170Y-61705752D01*
X129280075Y-61372419D02*
X129280075Y-62229561D01*
X129280075Y-62229561D02*
X129327694Y-62324800D01*
X129327694Y-62324800D02*
X129422932Y-62372419D01*
X129422932Y-62372419D02*
X129518170Y-62372419D01*
X130232456Y-62324800D02*
X130137218Y-62372419D01*
X130137218Y-62372419D02*
X129946742Y-62372419D01*
X129946742Y-62372419D02*
X129851504Y-62324800D01*
X129851504Y-62324800D02*
X129803885Y-62229561D01*
X129803885Y-62229561D02*
X129803885Y-61848609D01*
X129803885Y-61848609D02*
X129851504Y-61753371D01*
X129851504Y-61753371D02*
X129946742Y-61705752D01*
X129946742Y-61705752D02*
X130137218Y-61705752D01*
X130137218Y-61705752D02*
X130232456Y-61753371D01*
X130232456Y-61753371D02*
X130280075Y-61848609D01*
X130280075Y-61848609D02*
X130280075Y-61943847D01*
X130280075Y-61943847D02*
X129803885Y-62039085D01*
X130708647Y-62372419D02*
X130708647Y-61705752D01*
X130708647Y-61896228D02*
X130756266Y-61800990D01*
X130756266Y-61800990D02*
X130803885Y-61753371D01*
X130803885Y-61753371D02*
X130899123Y-61705752D01*
X130899123Y-61705752D02*
X130994361Y-61705752D01*
X131232457Y-61705752D02*
X131470552Y-62372419D01*
X131708647Y-61705752D02*
X131470552Y-62372419D01*
X131470552Y-62372419D02*
X131375314Y-62610514D01*
X131375314Y-62610514D02*
X131327695Y-62658133D01*
X131327695Y-62658133D02*
X131232457Y-62705752D01*
X131851505Y-62467657D02*
X132613409Y-62467657D01*
X133422933Y-62277180D02*
X133375314Y-62324800D01*
X133375314Y-62324800D02*
X133232457Y-62372419D01*
X133232457Y-62372419D02*
X133137219Y-62372419D01*
X133137219Y-62372419D02*
X132994362Y-62324800D01*
X132994362Y-62324800D02*
X132899124Y-62229561D01*
X132899124Y-62229561D02*
X132851505Y-62134323D01*
X132851505Y-62134323D02*
X132803886Y-61943847D01*
X132803886Y-61943847D02*
X132803886Y-61800990D01*
X132803886Y-61800990D02*
X132851505Y-61610514D01*
X132851505Y-61610514D02*
X132899124Y-61515276D01*
X132899124Y-61515276D02*
X132994362Y-61420038D01*
X132994362Y-61420038D02*
X133137219Y-61372419D01*
X133137219Y-61372419D02*
X133232457Y-61372419D01*
X133232457Y-61372419D02*
X133375314Y-61420038D01*
X133375314Y-61420038D02*
X133422933Y-61467657D01*
X134232457Y-62324800D02*
X134137219Y-62372419D01*
X134137219Y-62372419D02*
X133946743Y-62372419D01*
X133946743Y-62372419D02*
X133851505Y-62324800D01*
X133851505Y-62324800D02*
X133803886Y-62229561D01*
X133803886Y-62229561D02*
X133803886Y-61848609D01*
X133803886Y-61848609D02*
X133851505Y-61753371D01*
X133851505Y-61753371D02*
X133946743Y-61705752D01*
X133946743Y-61705752D02*
X134137219Y-61705752D01*
X134137219Y-61705752D02*
X134232457Y-61753371D01*
X134232457Y-61753371D02*
X134280076Y-61848609D01*
X134280076Y-61848609D02*
X134280076Y-61943847D01*
X134280076Y-61943847D02*
X133803886Y-62039085D01*
X134851505Y-62372419D02*
X134756267Y-62324800D01*
X134756267Y-62324800D02*
X134708648Y-62229561D01*
X134708648Y-62229561D02*
X134708648Y-61372419D01*
X135375315Y-62372419D02*
X135280077Y-62324800D01*
X135280077Y-62324800D02*
X135232458Y-62229561D01*
X135232458Y-62229561D02*
X135232458Y-61372419D01*
X130375312Y-50277180D02*
X130327693Y-50324800D01*
X130327693Y-50324800D02*
X130184836Y-50372419D01*
X130184836Y-50372419D02*
X130089598Y-50372419D01*
X130089598Y-50372419D02*
X129946741Y-50324800D01*
X129946741Y-50324800D02*
X129851503Y-50229561D01*
X129851503Y-50229561D02*
X129803884Y-50134323D01*
X129803884Y-50134323D02*
X129756265Y-49943847D01*
X129756265Y-49943847D02*
X129756265Y-49800990D01*
X129756265Y-49800990D02*
X129803884Y-49610514D01*
X129803884Y-49610514D02*
X129851503Y-49515276D01*
X129851503Y-49515276D02*
X129946741Y-49420038D01*
X129946741Y-49420038D02*
X130089598Y-49372419D01*
X130089598Y-49372419D02*
X130184836Y-49372419D01*
X130184836Y-49372419D02*
X130327693Y-49420038D01*
X130327693Y-49420038D02*
X130375312Y-49467657D01*
X130946741Y-50372419D02*
X130851503Y-50324800D01*
X130851503Y-50324800D02*
X130803884Y-50277180D01*
X130803884Y-50277180D02*
X130756265Y-50181942D01*
X130756265Y-50181942D02*
X130756265Y-49896228D01*
X130756265Y-49896228D02*
X130803884Y-49800990D01*
X130803884Y-49800990D02*
X130851503Y-49753371D01*
X130851503Y-49753371D02*
X130946741Y-49705752D01*
X130946741Y-49705752D02*
X131089598Y-49705752D01*
X131089598Y-49705752D02*
X131184836Y-49753371D01*
X131184836Y-49753371D02*
X131232455Y-49800990D01*
X131232455Y-49800990D02*
X131280074Y-49896228D01*
X131280074Y-49896228D02*
X131280074Y-50181942D01*
X131280074Y-50181942D02*
X131232455Y-50277180D01*
X131232455Y-50277180D02*
X131184836Y-50324800D01*
X131184836Y-50324800D02*
X131089598Y-50372419D01*
X131089598Y-50372419D02*
X130946741Y-50372419D01*
X131708646Y-49705752D02*
X131708646Y-50372419D01*
X131708646Y-49800990D02*
X131756265Y-49753371D01*
X131756265Y-49753371D02*
X131851503Y-49705752D01*
X131851503Y-49705752D02*
X131994360Y-49705752D01*
X131994360Y-49705752D02*
X132089598Y-49753371D01*
X132089598Y-49753371D02*
X132137217Y-49848609D01*
X132137217Y-49848609D02*
X132137217Y-50372419D01*
X132613408Y-49705752D02*
X132613408Y-50372419D01*
X132613408Y-49800990D02*
X132661027Y-49753371D01*
X132661027Y-49753371D02*
X132756265Y-49705752D01*
X132756265Y-49705752D02*
X132899122Y-49705752D01*
X132899122Y-49705752D02*
X132994360Y-49753371D01*
X132994360Y-49753371D02*
X133041979Y-49848609D01*
X133041979Y-49848609D02*
X133041979Y-50372419D01*
X133280075Y-50467657D02*
X134041979Y-50467657D01*
X134470551Y-49372419D02*
X134565789Y-49372419D01*
X134565789Y-49372419D02*
X134661027Y-49420038D01*
X134661027Y-49420038D02*
X134708646Y-49467657D01*
X134708646Y-49467657D02*
X134756265Y-49562895D01*
X134756265Y-49562895D02*
X134803884Y-49753371D01*
X134803884Y-49753371D02*
X134803884Y-49991466D01*
X134803884Y-49991466D02*
X134756265Y-50181942D01*
X134756265Y-50181942D02*
X134708646Y-50277180D01*
X134708646Y-50277180D02*
X134661027Y-50324800D01*
X134661027Y-50324800D02*
X134565789Y-50372419D01*
X134565789Y-50372419D02*
X134470551Y-50372419D01*
X134470551Y-50372419D02*
X134375313Y-50324800D01*
X134375313Y-50324800D02*
X134327694Y-50277180D01*
X134327694Y-50277180D02*
X134280075Y-50181942D01*
X134280075Y-50181942D02*
X134232456Y-49991466D01*
X134232456Y-49991466D02*
X134232456Y-49753371D01*
X134232456Y-49753371D02*
X134280075Y-49562895D01*
X134280075Y-49562895D02*
X134327694Y-49467657D01*
X134327694Y-49467657D02*
X134375313Y-49420038D01*
X134375313Y-49420038D02*
X134470551Y-49372419D01*
X135756265Y-50372419D02*
X135184837Y-50372419D01*
X135470551Y-50372419D02*
X135470551Y-49372419D01*
X135470551Y-49372419D02*
X135375313Y-49515276D01*
X135375313Y-49515276D02*
X135280075Y-49610514D01*
X135280075Y-49610514D02*
X135184837Y-49658133D01*
X136089599Y-50372419D02*
X136613408Y-49705752D01*
X136089599Y-49705752D02*
X136613408Y-50372419D01*
X137184837Y-49372419D02*
X137280075Y-49372419D01*
X137280075Y-49372419D02*
X137375313Y-49420038D01*
X137375313Y-49420038D02*
X137422932Y-49467657D01*
X137422932Y-49467657D02*
X137470551Y-49562895D01*
X137470551Y-49562895D02*
X137518170Y-49753371D01*
X137518170Y-49753371D02*
X137518170Y-49991466D01*
X137518170Y-49991466D02*
X137470551Y-50181942D01*
X137470551Y-50181942D02*
X137422932Y-50277180D01*
X137422932Y-50277180D02*
X137375313Y-50324800D01*
X137375313Y-50324800D02*
X137280075Y-50372419D01*
X137280075Y-50372419D02*
X137184837Y-50372419D01*
X137184837Y-50372419D02*
X137089599Y-50324800D01*
X137089599Y-50324800D02*
X137041980Y-50277180D01*
X137041980Y-50277180D02*
X136994361Y-50181942D01*
X136994361Y-50181942D02*
X136946742Y-49991466D01*
X136946742Y-49991466D02*
X136946742Y-49753371D01*
X136946742Y-49753371D02*
X136994361Y-49562895D01*
X136994361Y-49562895D02*
X137041980Y-49467657D01*
X137041980Y-49467657D02*
X137089599Y-49420038D01*
X137089599Y-49420038D02*
X137184837Y-49372419D01*
X137899123Y-49467657D02*
X137946742Y-49420038D01*
X137946742Y-49420038D02*
X138041980Y-49372419D01*
X138041980Y-49372419D02*
X138280075Y-49372419D01*
X138280075Y-49372419D02*
X138375313Y-49420038D01*
X138375313Y-49420038D02*
X138422932Y-49467657D01*
X138422932Y-49467657D02*
X138470551Y-49562895D01*
X138470551Y-49562895D02*
X138470551Y-49658133D01*
X138470551Y-49658133D02*
X138422932Y-49800990D01*
X138422932Y-49800990D02*
X137851504Y-50372419D01*
X137851504Y-50372419D02*
X138470551Y-50372419D01*
X138661028Y-50467657D02*
X139422932Y-50467657D01*
X139661028Y-50372419D02*
X139661028Y-49372419D01*
X139661028Y-49372419D02*
X140041980Y-49372419D01*
X140041980Y-49372419D02*
X140137218Y-49420038D01*
X140137218Y-49420038D02*
X140184837Y-49467657D01*
X140184837Y-49467657D02*
X140232456Y-49562895D01*
X140232456Y-49562895D02*
X140232456Y-49705752D01*
X140232456Y-49705752D02*
X140184837Y-49800990D01*
X140184837Y-49800990D02*
X140137218Y-49848609D01*
X140137218Y-49848609D02*
X140041980Y-49896228D01*
X140041980Y-49896228D02*
X139661028Y-49896228D01*
X140661028Y-50372419D02*
X140661028Y-49705752D01*
X140661028Y-49372419D02*
X140613409Y-49420038D01*
X140613409Y-49420038D02*
X140661028Y-49467657D01*
X140661028Y-49467657D02*
X140708647Y-49420038D01*
X140708647Y-49420038D02*
X140661028Y-49372419D01*
X140661028Y-49372419D02*
X140661028Y-49467657D01*
X141137218Y-49705752D02*
X141137218Y-50372419D01*
X141137218Y-49800990D02*
X141184837Y-49753371D01*
X141184837Y-49753371D02*
X141280075Y-49705752D01*
X141280075Y-49705752D02*
X141422932Y-49705752D01*
X141422932Y-49705752D02*
X141518170Y-49753371D01*
X141518170Y-49753371D02*
X141565789Y-49848609D01*
X141565789Y-49848609D02*
X141565789Y-50372419D01*
X126294247Y-52708646D02*
X125627580Y-52946741D01*
X125627580Y-52946741D02*
X126294247Y-53184836D01*
X125627580Y-53565789D02*
X126294247Y-53565789D01*
X126627580Y-53565789D02*
X126579961Y-53518170D01*
X126579961Y-53518170D02*
X126532342Y-53565789D01*
X126532342Y-53565789D02*
X126579961Y-53613408D01*
X126579961Y-53613408D02*
X126627580Y-53565789D01*
X126627580Y-53565789D02*
X126532342Y-53565789D01*
X126294247Y-54041979D02*
X125627580Y-54041979D01*
X126199009Y-54041979D02*
X126246628Y-54089598D01*
X126246628Y-54089598D02*
X126294247Y-54184836D01*
X126294247Y-54184836D02*
X126294247Y-54327693D01*
X126294247Y-54327693D02*
X126246628Y-54422931D01*
X126246628Y-54422931D02*
X126151390Y-54470550D01*
X126151390Y-54470550D02*
X125627580Y-54470550D01*
X126794247Y-57232455D02*
X125984723Y-57232455D01*
X125984723Y-57232455D02*
X125889485Y-57184836D01*
X125889485Y-57184836D02*
X125841866Y-57137217D01*
X125841866Y-57137217D02*
X125794247Y-57041979D01*
X125794247Y-57041979D02*
X125794247Y-56899122D01*
X125794247Y-56899122D02*
X125841866Y-56803884D01*
X126175200Y-57232455D02*
X126127580Y-57137217D01*
X126127580Y-57137217D02*
X126127580Y-56946741D01*
X126127580Y-56946741D02*
X126175200Y-56851503D01*
X126175200Y-56851503D02*
X126222819Y-56803884D01*
X126222819Y-56803884D02*
X126318057Y-56756265D01*
X126318057Y-56756265D02*
X126603771Y-56756265D01*
X126603771Y-56756265D02*
X126699009Y-56803884D01*
X126699009Y-56803884D02*
X126746628Y-56851503D01*
X126746628Y-56851503D02*
X126794247Y-56946741D01*
X126794247Y-56946741D02*
X126794247Y-57137217D01*
X126794247Y-57137217D02*
X126746628Y-57232455D01*
X126794247Y-57708646D02*
X126127580Y-57708646D01*
X126699009Y-57708646D02*
X126746628Y-57756265D01*
X126746628Y-57756265D02*
X126794247Y-57851503D01*
X126794247Y-57851503D02*
X126794247Y-57994360D01*
X126794247Y-57994360D02*
X126746628Y-58089598D01*
X126746628Y-58089598D02*
X126651390Y-58137217D01*
X126651390Y-58137217D02*
X126127580Y-58137217D01*
X126127580Y-59041979D02*
X127127580Y-59041979D01*
X126175200Y-59041979D02*
X126127580Y-58946741D01*
X126127580Y-58946741D02*
X126127580Y-58756265D01*
X126127580Y-58756265D02*
X126175200Y-58661027D01*
X126175200Y-58661027D02*
X126222819Y-58613408D01*
X126222819Y-58613408D02*
X126318057Y-58565789D01*
X126318057Y-58565789D02*
X126603771Y-58565789D01*
X126603771Y-58565789D02*
X126699009Y-58613408D01*
X126699009Y-58613408D02*
X126746628Y-58661027D01*
X126746628Y-58661027D02*
X126794247Y-58756265D01*
X126794247Y-58756265D02*
X126794247Y-58946741D01*
X126794247Y-58946741D02*
X126746628Y-59041979D01*
%TO.C,BT1*%
D11*
X137775000Y-58120000D02*
X137775000Y-58690000D01*
X137775000Y-58120000D02*
X140535000Y-58120000D01*
X137775000Y-58690000D02*
X136305000Y-58690000D01*
X137775000Y-60310000D02*
X137775000Y-63420000D01*
X137775000Y-63420000D02*
X140535000Y-63420000D01*
X140535000Y-58690000D02*
X140535000Y-61230000D01*
X140535000Y-62850000D02*
X140535000Y-63420000D01*
%TO.C,J2*%
X137465000Y-54230000D02*
X137465000Y-51120000D01*
X137465000Y-55850000D02*
X135995000Y-55850000D01*
X137465000Y-56420000D02*
X137465000Y-55850000D01*
X140225000Y-51120000D02*
X137465000Y-51120000D01*
X140225000Y-51690000D02*
X140225000Y-51120000D01*
X140225000Y-55850000D02*
X140225000Y-53310000D01*
X140225000Y-56420000D02*
X137465000Y-56420000D01*
X140225000Y-56420000D02*
X140225000Y-53310000D01*
%TO.C,J1*%
X127280000Y-52480000D02*
X134820000Y-52480000D01*
X127280000Y-54200000D02*
X127280000Y-52480000D01*
X127280000Y-60330000D02*
X127280000Y-54800000D01*
X134820000Y-52480000D02*
X134820000Y-60330000D01*
X134820000Y-60330000D02*
X127280000Y-60330000D01*
X127280000Y-54500000D02*
X126670000Y-54940000D01*
X126670000Y-54060000D01*
X127280000Y-54500000D01*
G36*
X127280000Y-54500000D02*
G01*
X126670000Y-54940000D01*
X126670000Y-54060000D01*
X127280000Y-54500000D01*
G37*
%TD*%
M02*
