%TF.GenerationSoftware,KiCad,Pcbnew,10.0.5*%
%TF.CreationDate,2026-09-09T22:35:22+05:30*%
%TF.ProjectId,negativ_clamper,6e656761-7469-4765-9f63-6c616d706572,rev?*%
%TF.SameCoordinates,Original*%
%TF.FileFunction,Legend,Bot*%
%TF.FilePolarity,Positive*%
%FSLAX46Y46*%
G04 Gerber Fmt 4.6, Leading zero omitted, Abs format (unit mm)*
G04 Created by KiCad (PCBNEW 10.0.5) date 2026-09-09 22:35:22*
%MOMM*%
%LPD*%
G01*
G04 APERTURE LIST*
%ADD10C,0.100000*%
%ADD11C,0.120000*%
G04 APERTURE END LIST*
D10*
X139454865Y-57447716D02*
X138692961Y-57447716D01*
X138312008Y-57162002D02*
X138073913Y-57828669D01*
X138073913Y-57828669D02*
X137835818Y-57162002D01*
X137073913Y-57781050D02*
X137169151Y-57828669D01*
X137169151Y-57828669D02*
X137359627Y-57828669D01*
X137359627Y-57828669D02*
X137454865Y-57781050D01*
X137454865Y-57781050D02*
X137502484Y-57685811D01*
X137502484Y-57685811D02*
X137502484Y-57304859D01*
X137502484Y-57304859D02*
X137454865Y-57209621D01*
X137454865Y-57209621D02*
X137359627Y-57162002D01*
X137359627Y-57162002D02*
X137169151Y-57162002D01*
X137169151Y-57162002D02*
X137073913Y-57209621D01*
X137073913Y-57209621D02*
X137026294Y-57304859D01*
X137026294Y-57304859D02*
X137026294Y-57400097D01*
X137026294Y-57400097D02*
X137502484Y-57495335D01*
X135407246Y-57781050D02*
X135502484Y-57828669D01*
X135502484Y-57828669D02*
X135692960Y-57828669D01*
X135692960Y-57828669D02*
X135788198Y-57781050D01*
X135788198Y-57781050D02*
X135835817Y-57733430D01*
X135835817Y-57733430D02*
X135883436Y-57638192D01*
X135883436Y-57638192D02*
X135883436Y-57352478D01*
X135883436Y-57352478D02*
X135835817Y-57257240D01*
X135835817Y-57257240D02*
X135788198Y-57209621D01*
X135788198Y-57209621D02*
X135692960Y-57162002D01*
X135692960Y-57162002D02*
X135502484Y-57162002D01*
X135502484Y-57162002D02*
X135407246Y-57209621D01*
X134835817Y-57828669D02*
X134931055Y-57781050D01*
X134931055Y-57781050D02*
X134978674Y-57685811D01*
X134978674Y-57685811D02*
X134978674Y-56828669D01*
X134026293Y-57828669D02*
X134026293Y-57304859D01*
X134026293Y-57304859D02*
X134073912Y-57209621D01*
X134073912Y-57209621D02*
X134169150Y-57162002D01*
X134169150Y-57162002D02*
X134359626Y-57162002D01*
X134359626Y-57162002D02*
X134454864Y-57209621D01*
X134026293Y-57781050D02*
X134121531Y-57828669D01*
X134121531Y-57828669D02*
X134359626Y-57828669D01*
X134359626Y-57828669D02*
X134454864Y-57781050D01*
X134454864Y-57781050D02*
X134502483Y-57685811D01*
X134502483Y-57685811D02*
X134502483Y-57590573D01*
X134502483Y-57590573D02*
X134454864Y-57495335D01*
X134454864Y-57495335D02*
X134359626Y-57447716D01*
X134359626Y-57447716D02*
X134121531Y-57447716D01*
X134121531Y-57447716D02*
X134026293Y-57400097D01*
X133550102Y-57828669D02*
X133550102Y-57162002D01*
X133550102Y-57257240D02*
X133502483Y-57209621D01*
X133502483Y-57209621D02*
X133407245Y-57162002D01*
X133407245Y-57162002D02*
X133264388Y-57162002D01*
X133264388Y-57162002D02*
X133169150Y-57209621D01*
X133169150Y-57209621D02*
X133121531Y-57304859D01*
X133121531Y-57304859D02*
X133121531Y-57828669D01*
X133121531Y-57304859D02*
X133073912Y-57209621D01*
X133073912Y-57209621D02*
X132978674Y-57162002D01*
X132978674Y-57162002D02*
X132835817Y-57162002D01*
X132835817Y-57162002D02*
X132740578Y-57209621D01*
X132740578Y-57209621D02*
X132692959Y-57304859D01*
X132692959Y-57304859D02*
X132692959Y-57828669D01*
X132216769Y-57162002D02*
X132216769Y-58162002D01*
X132216769Y-57209621D02*
X132121531Y-57162002D01*
X132121531Y-57162002D02*
X131931055Y-57162002D01*
X131931055Y-57162002D02*
X131835817Y-57209621D01*
X131835817Y-57209621D02*
X131788198Y-57257240D01*
X131788198Y-57257240D02*
X131740579Y-57352478D01*
X131740579Y-57352478D02*
X131740579Y-57638192D01*
X131740579Y-57638192D02*
X131788198Y-57733430D01*
X131788198Y-57733430D02*
X131835817Y-57781050D01*
X131835817Y-57781050D02*
X131931055Y-57828669D01*
X131931055Y-57828669D02*
X132121531Y-57828669D01*
X132121531Y-57828669D02*
X132216769Y-57781050D01*
X130931055Y-57781050D02*
X131026293Y-57828669D01*
X131026293Y-57828669D02*
X131216769Y-57828669D01*
X131216769Y-57828669D02*
X131312007Y-57781050D01*
X131312007Y-57781050D02*
X131359626Y-57685811D01*
X131359626Y-57685811D02*
X131359626Y-57304859D01*
X131359626Y-57304859D02*
X131312007Y-57209621D01*
X131312007Y-57209621D02*
X131216769Y-57162002D01*
X131216769Y-57162002D02*
X131026293Y-57162002D01*
X131026293Y-57162002D02*
X130931055Y-57209621D01*
X130931055Y-57209621D02*
X130883436Y-57304859D01*
X130883436Y-57304859D02*
X130883436Y-57400097D01*
X130883436Y-57400097D02*
X131359626Y-57495335D01*
X130454864Y-57828669D02*
X130454864Y-57162002D01*
X130454864Y-57352478D02*
X130407245Y-57257240D01*
X130407245Y-57257240D02*
X130359626Y-57209621D01*
X130359626Y-57209621D02*
X130264388Y-57162002D01*
X130264388Y-57162002D02*
X130169150Y-57162002D01*
%TO.C,D1*%
D11*
X133865000Y-64100000D02*
X133865000Y-58040000D01*
X138135000Y-58040000D02*
X138135000Y-64100000D01*
X133865000Y-58040000D02*
X138135000Y-58040000D01*
%TO.C,C1*%
X145410000Y-65410000D02*
X143060000Y-65410000D01*
X138590000Y-65410000D02*
X140940000Y-65410000D01*
X145410000Y-59654437D02*
X145410000Y-65410000D01*
X138590000Y-59654437D02*
X138590000Y-65410000D01*
X144345563Y-58590000D02*
X145410000Y-59654437D01*
X144345563Y-58590000D02*
X143060000Y-58590000D01*
X139654437Y-58590000D02*
X138590000Y-59654437D01*
X139654437Y-58590000D02*
X140940000Y-58590000D01*
X139758750Y-57956250D02*
X140546250Y-57956250D01*
X140152500Y-57562500D02*
X140152500Y-58350000D01*
%TO.C,R1*%
X137254724Y-65977500D02*
X136745276Y-65977500D01*
X137254724Y-67022500D02*
X136745276Y-67022500D01*
%TD*%
M02*
