%TF.GenerationSoftware,KiCad,Pcbnew,10.0.5*%
%TF.CreationDate,2026-09-09T22:35:23+05:30*%
%TF.ProjectId,negativ_clamper,6e656761-7469-4765-9f63-6c616d706572,rev?*%
%TF.SameCoordinates,Original*%
%TF.FileFunction,AssemblyDrawing,Top*%
%FSLAX46Y46*%
G04 Gerber Fmt 4.6, Leading zero omitted, Abs format (unit mm)*
G04 Created by KiCad (PCBNEW 10.0.5) date 2026-09-09 22:35:23*
%MOMM*%
%LPD*%
G01*
G04 APERTURE LIST*
%ADD10C,0.150000*%
%ADD11C,0.100000*%
G04 APERTURE END LIST*
D10*
X139785714Y-66604819D02*
X139214286Y-66604819D01*
X139500000Y-66604819D02*
X139500000Y-65604819D01*
X139500000Y-65604819D02*
X139404762Y-65747676D01*
X139404762Y-65747676D02*
X139309524Y-65842914D01*
X139309524Y-65842914D02*
X139214286Y-65890533D01*
X138954819Y-63309523D02*
X139954819Y-62976190D01*
X139954819Y-62976190D02*
X138954819Y-62642857D01*
X139954819Y-61785714D02*
X139954819Y-62357142D01*
X139954819Y-62071428D02*
X138954819Y-62071428D01*
X138954819Y-62071428D02*
X139097676Y-62166666D01*
X139097676Y-62166666D02*
X139192914Y-62261904D01*
X139192914Y-62261904D02*
X139240533Y-62357142D01*
X149904819Y-62738333D02*
X150619104Y-62738333D01*
X150619104Y-62738333D02*
X150761961Y-62785952D01*
X150761961Y-62785952D02*
X150857200Y-62881190D01*
X150857200Y-62881190D02*
X150904819Y-63024047D01*
X150904819Y-63024047D02*
X150904819Y-63119285D01*
X150000057Y-62309761D02*
X149952438Y-62262142D01*
X149952438Y-62262142D02*
X149904819Y-62166904D01*
X149904819Y-62166904D02*
X149904819Y-61928809D01*
X149904819Y-61928809D02*
X149952438Y-61833571D01*
X149952438Y-61833571D02*
X150000057Y-61785952D01*
X150000057Y-61785952D02*
X150095295Y-61738333D01*
X150095295Y-61738333D02*
X150190533Y-61738333D01*
X150190533Y-61738333D02*
X150333390Y-61785952D01*
X150333390Y-61785952D02*
X150904819Y-62357380D01*
X150904819Y-62357380D02*
X150904819Y-61738333D01*
X127504819Y-63238333D02*
X128219104Y-63238333D01*
X128219104Y-63238333D02*
X128361961Y-63285952D01*
X128361961Y-63285952D02*
X128457200Y-63381190D01*
X128457200Y-63381190D02*
X128504819Y-63524047D01*
X128504819Y-63524047D02*
X128504819Y-63619285D01*
X128504819Y-62238333D02*
X128504819Y-62809761D01*
X128504819Y-62524047D02*
X127504819Y-62524047D01*
X127504819Y-62524047D02*
X127647676Y-62619285D01*
X127647676Y-62619285D02*
X127742914Y-62714523D01*
X127742914Y-62714523D02*
X127790533Y-62809761D01*
%TO.C,V1*%
D11*
X142040000Y-64090000D02*
X140770000Y-64090000D01*
X142040000Y-63450000D02*
X142040000Y-64090000D01*
X140770000Y-65040000D02*
X138230000Y-65040000D01*
X140770000Y-63450000D02*
X142040000Y-63450000D01*
X140770000Y-59960000D02*
X140770000Y-65040000D01*
X139180000Y-59960000D02*
X140770000Y-59960000D01*
X138230000Y-65040000D02*
X138230000Y-60910000D01*
X138230000Y-60910000D02*
X139180000Y-59960000D01*
X138230000Y-60910000D02*
X136960000Y-60910000D01*
X136960000Y-61550000D02*
X138230000Y-61550000D01*
X136960000Y-60910000D02*
X136960000Y-61550000D01*
%TO.C,J2*%
X149000000Y-60500000D02*
G75*
G02*
X146000000Y-60500000I-1500000J0D01*
G01*
X146000000Y-60500000D02*
G75*
G02*
X149000000Y-60500000I1500000J0D01*
G01*
X149000000Y-64310000D02*
G75*
G02*
X146000000Y-64310000I-1500000J0D01*
G01*
X146000000Y-64310000D02*
G75*
G02*
X149000000Y-64310000I1500000J0D01*
G01*
X151100000Y-58600000D02*
X151100000Y-64385000D01*
X143800000Y-58600000D02*
X151100000Y-58600000D01*
X146545000Y-59362000D02*
X148638000Y-61455000D01*
X146362000Y-59545000D02*
X148455000Y-61638000D01*
X146545000Y-63172000D02*
X148638000Y-65265000D01*
X146362000Y-63355000D02*
X148455000Y-65448000D01*
X151100000Y-64385000D02*
X149275000Y-66210000D01*
X149275000Y-66210000D02*
X143800000Y-66210000D01*
X143800000Y-66210000D02*
X143800000Y-58600000D01*
%TO.C,J1*%
X134700000Y-59100000D02*
X134700000Y-66710000D01*
X129225000Y-59100000D02*
X134700000Y-59100000D01*
X127400000Y-60925000D02*
X129225000Y-59100000D01*
X132138000Y-61955000D02*
X130045000Y-59862000D01*
X131955000Y-62138000D02*
X129862000Y-60045000D01*
X132138000Y-65765000D02*
X130045000Y-63672000D01*
X131955000Y-65948000D02*
X129862000Y-63855000D01*
X134700000Y-66710000D02*
X127400000Y-66710000D01*
X127400000Y-66710000D02*
X127400000Y-60925000D01*
X132500000Y-61000000D02*
G75*
G02*
X129500000Y-61000000I-1500000J0D01*
G01*
X129500000Y-61000000D02*
G75*
G02*
X132500000Y-61000000I1500000J0D01*
G01*
X132500000Y-64810000D02*
G75*
G02*
X129500000Y-64810000I-1500000J0D01*
G01*
X129500000Y-64810000D02*
G75*
G02*
X132500000Y-64810000I1500000J0D01*
G01*
%TD*%
M02*
