%TF.GenerationSoftware,KiCad,Pcbnew,10.0.5*%
%TF.CreationDate,2026-09-09T22:35:22+05:30*%
%TF.ProjectId,negativ_clamper,6e656761-7469-4765-9f63-6c616d706572,rev?*%
%TF.SameCoordinates,Original*%
%TF.FileFunction,Legend,Top*%
%TF.FilePolarity,Positive*%
%FSLAX46Y46*%
G04 Gerber Fmt 4.6, Leading zero omitted, Abs format (unit mm)*
G04 Created by KiCad (PCBNEW 10.0.5) date 2026-09-09 22:35:22*
%MOMM*%
%LPD*%
G01*
G04 APERTURE LIST*
%ADD10C,0.100000*%
%ADD11C,0.120000*%
G04 APERTURE END LIST*
D10*
X125599122Y-64363561D02*
X125599122Y-65011180D01*
X125599122Y-65011180D02*
X125561027Y-65087371D01*
X125561027Y-65087371D02*
X125522931Y-65125466D01*
X125522931Y-65125466D02*
X125446741Y-65163561D01*
X125446741Y-65163561D02*
X125332455Y-65163561D01*
X125332455Y-65163561D02*
X125256265Y-65125466D01*
X125599122Y-64858800D02*
X125522931Y-64896895D01*
X125522931Y-64896895D02*
X125370550Y-64896895D01*
X125370550Y-64896895D02*
X125294360Y-64858800D01*
X125294360Y-64858800D02*
X125256265Y-64820704D01*
X125256265Y-64820704D02*
X125218169Y-64744514D01*
X125218169Y-64744514D02*
X125218169Y-64515942D01*
X125218169Y-64515942D02*
X125256265Y-64439752D01*
X125256265Y-64439752D02*
X125294360Y-64401657D01*
X125294360Y-64401657D02*
X125370550Y-64363561D01*
X125370550Y-64363561D02*
X125522931Y-64363561D01*
X125522931Y-64363561D02*
X125599122Y-64401657D01*
X125980075Y-64363561D02*
X125980075Y-64896895D01*
X125980075Y-64439752D02*
X126018170Y-64401657D01*
X126018170Y-64401657D02*
X126094360Y-64363561D01*
X126094360Y-64363561D02*
X126208646Y-64363561D01*
X126208646Y-64363561D02*
X126284837Y-64401657D01*
X126284837Y-64401657D02*
X126322932Y-64477847D01*
X126322932Y-64477847D02*
X126322932Y-64896895D01*
X127046742Y-64896895D02*
X127046742Y-64096895D01*
X127046742Y-64858800D02*
X126970551Y-64896895D01*
X126970551Y-64896895D02*
X126818170Y-64896895D01*
X126818170Y-64896895D02*
X126741980Y-64858800D01*
X126741980Y-64858800D02*
X126703885Y-64820704D01*
X126703885Y-64820704D02*
X126665789Y-64744514D01*
X126665789Y-64744514D02*
X126665789Y-64515942D01*
X126665789Y-64515942D02*
X126703885Y-64439752D01*
X126703885Y-64439752D02*
X126741980Y-64401657D01*
X126741980Y-64401657D02*
X126818170Y-64363561D01*
X126818170Y-64363561D02*
X126970551Y-64363561D01*
X126970551Y-64363561D02*
X127046742Y-64401657D01*
X125180074Y-60363561D02*
X125370550Y-60896895D01*
X125370550Y-60896895D02*
X125561027Y-60363561D01*
X125865789Y-60896895D02*
X125865789Y-60363561D01*
X125865789Y-60096895D02*
X125827693Y-60134990D01*
X125827693Y-60134990D02*
X125865789Y-60173085D01*
X125865789Y-60173085D02*
X125903884Y-60134990D01*
X125903884Y-60134990D02*
X125865789Y-60096895D01*
X125865789Y-60096895D02*
X125865789Y-60173085D01*
X126246741Y-60363561D02*
X126246741Y-60896895D01*
X126246741Y-60439752D02*
X126284836Y-60401657D01*
X126284836Y-60401657D02*
X126361026Y-60363561D01*
X126361026Y-60363561D02*
X126475312Y-60363561D01*
X126475312Y-60363561D02*
X126551503Y-60401657D01*
X126551503Y-60401657D02*
X126589598Y-60477847D01*
X126589598Y-60477847D02*
X126589598Y-60896895D01*
X136827693Y-57912419D02*
X136256265Y-57912419D01*
X136541979Y-57912419D02*
X136541979Y-56912419D01*
X136541979Y-56912419D02*
X136446741Y-57055276D01*
X136446741Y-57055276D02*
X136351503Y-57150514D01*
X136351503Y-57150514D02*
X136256265Y-57198133D01*
X137256265Y-57817180D02*
X137303884Y-57864800D01*
X137303884Y-57864800D02*
X137256265Y-57912419D01*
X137256265Y-57912419D02*
X137208646Y-57864800D01*
X137208646Y-57864800D02*
X137256265Y-57817180D01*
X137256265Y-57817180D02*
X137256265Y-57912419D01*
X137875312Y-57340990D02*
X137780074Y-57293371D01*
X137780074Y-57293371D02*
X137732455Y-57245752D01*
X137732455Y-57245752D02*
X137684836Y-57150514D01*
X137684836Y-57150514D02*
X137684836Y-57102895D01*
X137684836Y-57102895D02*
X137732455Y-57007657D01*
X137732455Y-57007657D02*
X137780074Y-56960038D01*
X137780074Y-56960038D02*
X137875312Y-56912419D01*
X137875312Y-56912419D02*
X138065788Y-56912419D01*
X138065788Y-56912419D02*
X138161026Y-56960038D01*
X138161026Y-56960038D02*
X138208645Y-57007657D01*
X138208645Y-57007657D02*
X138256264Y-57102895D01*
X138256264Y-57102895D02*
X138256264Y-57150514D01*
X138256264Y-57150514D02*
X138208645Y-57245752D01*
X138208645Y-57245752D02*
X138161026Y-57293371D01*
X138161026Y-57293371D02*
X138065788Y-57340990D01*
X138065788Y-57340990D02*
X137875312Y-57340990D01*
X137875312Y-57340990D02*
X137780074Y-57388609D01*
X137780074Y-57388609D02*
X137732455Y-57436228D01*
X137732455Y-57436228D02*
X137684836Y-57531466D01*
X137684836Y-57531466D02*
X137684836Y-57721942D01*
X137684836Y-57721942D02*
X137732455Y-57817180D01*
X137732455Y-57817180D02*
X137780074Y-57864800D01*
X137780074Y-57864800D02*
X137875312Y-57912419D01*
X137875312Y-57912419D02*
X138065788Y-57912419D01*
X138065788Y-57912419D02*
X138161026Y-57864800D01*
X138161026Y-57864800D02*
X138208645Y-57817180D01*
X138208645Y-57817180D02*
X138256264Y-57721942D01*
X138256264Y-57721942D02*
X138256264Y-57531466D01*
X138256264Y-57531466D02*
X138208645Y-57436228D01*
X138208645Y-57436228D02*
X138161026Y-57388609D01*
X138161026Y-57388609D02*
X138065788Y-57340990D01*
X138684836Y-57912419D02*
X138684836Y-56912419D01*
X138684836Y-56912419D02*
X138922931Y-56912419D01*
X138922931Y-56912419D02*
X139065788Y-56960038D01*
X139065788Y-56960038D02*
X139161026Y-57055276D01*
X139161026Y-57055276D02*
X139208645Y-57150514D01*
X139208645Y-57150514D02*
X139256264Y-57340990D01*
X139256264Y-57340990D02*
X139256264Y-57483847D01*
X139256264Y-57483847D02*
X139208645Y-57674323D01*
X139208645Y-57674323D02*
X139161026Y-57769561D01*
X139161026Y-57769561D02*
X139065788Y-57864800D01*
X139065788Y-57864800D02*
X138922931Y-57912419D01*
X138922931Y-57912419D02*
X138684836Y-57912419D01*
X140256264Y-57817180D02*
X140208645Y-57864800D01*
X140208645Y-57864800D02*
X140065788Y-57912419D01*
X140065788Y-57912419D02*
X139970550Y-57912419D01*
X139970550Y-57912419D02*
X139827693Y-57864800D01*
X139827693Y-57864800D02*
X139732455Y-57769561D01*
X139732455Y-57769561D02*
X139684836Y-57674323D01*
X139684836Y-57674323D02*
X139637217Y-57483847D01*
X139637217Y-57483847D02*
X139637217Y-57340990D01*
X139637217Y-57340990D02*
X139684836Y-57150514D01*
X139684836Y-57150514D02*
X139732455Y-57055276D01*
X139732455Y-57055276D02*
X139827693Y-56960038D01*
X139827693Y-56960038D02*
X139970550Y-56912419D01*
X139970550Y-56912419D02*
X140065788Y-56912419D01*
X140065788Y-56912419D02*
X140208645Y-56960038D01*
X140208645Y-56960038D02*
X140256264Y-57007657D01*
%TO.C,V1*%
D11*
X140880000Y-64580000D02*
X140880000Y-65150000D01*
X140880000Y-60420000D02*
X140880000Y-62960000D01*
X138120000Y-65150000D02*
X140880000Y-65150000D01*
X138120000Y-62040000D02*
X138120000Y-65150000D01*
X138120000Y-60420000D02*
X136650000Y-60420000D01*
X138120000Y-59850000D02*
X140880000Y-59850000D01*
X138120000Y-59850000D02*
X138120000Y-60420000D01*
%TO.C,J2*%
X151220000Y-64310000D02*
X151830000Y-63870000D01*
X151830000Y-64750000D01*
X151220000Y-64310000D01*
G36*
X151830000Y-64750000D02*
G01*
X151220000Y-64310000D01*
X151830000Y-63870000D01*
X151830000Y-64750000D01*
G37*
X151220000Y-58480000D02*
X151220000Y-64010000D01*
X143680000Y-58480000D02*
X151220000Y-58480000D01*
X151220000Y-64610000D02*
X151220000Y-66330000D01*
X151220000Y-66330000D02*
X143680000Y-66330000D01*
X143680000Y-66330000D02*
X143680000Y-58480000D01*
%TO.C,J1*%
X134820000Y-58980000D02*
X134820000Y-66830000D01*
X127280000Y-58980000D02*
X134820000Y-58980000D01*
X127280000Y-60700000D02*
X127280000Y-58980000D01*
X134820000Y-66830000D02*
X127280000Y-66830000D01*
X127280000Y-66830000D02*
X127280000Y-61300000D01*
X127280000Y-61000000D02*
X126670000Y-61440000D01*
X126670000Y-60560000D01*
X127280000Y-61000000D01*
G36*
X127280000Y-61000000D02*
G01*
X126670000Y-61440000D01*
X126670000Y-60560000D01*
X127280000Y-61000000D01*
G37*
%TD*%
M02*
