%TF.GenerationSoftware,KiCad,Pcbnew,10.0.5*%
%TF.CreationDate,2026-09-09T22:35:22+05:30*%
%TF.ProjectId,negativ_clamper,6e656761-7469-4765-9f63-6c616d706572,rev?*%
%TF.SameCoordinates,Original*%
%TF.FileFunction,Copper,L1,Top*%
%TF.FilePolarity,Positive*%
%FSLAX46Y46*%
G04 Gerber Fmt 4.6, Leading zero omitted, Abs format (unit mm)*
G04 Created by KiCad (PCBNEW 10.0.5) date 2026-09-09 22:35:22*
%MOMM*%
%LPD*%
G01*
G04 APERTURE LIST*
G04 Aperture macros list*
%AMRoundRect*
0 Rectangle with rounded corners*
0 $1 Rounding radius*
0 $2 $3 $4 $5 $6 $7 $8 $9 X,Y pos of 4 corners*
0 Add a 4 corners polygon primitive as box body*
4,1,4,$2,$3,$4,$5,$6,$7,$8,$9,$2,$3,0*
0 Add four circle primitives for the rounded corners*
1,1,$1+$1,$2,$3*
1,1,$1+$1,$4,$5*
1,1,$1+$1,$6,$7*
1,1,$1+$1,$8,$9*
0 Add four rect primitives between the rounded corners*
20,1,$1+$1,$2,$3,$4,$5,0*
20,1,$1+$1,$4,$5,$6,$7,0*
20,1,$1+$1,$6,$7,$8,$9,0*
20,1,$1+$1,$8,$9,$2,$3,0*%
G04 Aperture macros list end*
%TA.AperFunction,SMDPad,CuDef*%
%ADD10R,2.510000X1.000000*%
%TD*%
%TA.AperFunction,ComponentPad*%
%ADD11C,2.000000*%
%TD*%
%TA.AperFunction,ComponentPad*%
%ADD12RoundRect,0.250000X0.750000X-0.750000X0.750000X0.750000X-0.750000X0.750000X-0.750000X-0.750000X0*%
%TD*%
%TA.AperFunction,ComponentPad*%
%ADD13RoundRect,0.250000X-0.750000X0.750000X-0.750000X-0.750000X0.750000X-0.750000X0.750000X0.750000X0*%
%TD*%
%TA.AperFunction,ViaPad*%
%ADD14C,0.600000*%
%TD*%
%TA.AperFunction,Conductor*%
%ADD15C,0.200000*%
%TD*%
G04 APERTURE END LIST*
D10*
%TO.P,V1,2*%
%TO.N,Net-(D1-K)*%
X141155000Y-63770000D03*
%TO.P,V1,1*%
%TO.N,Net-(J1-Pin_2)*%
X137845000Y-61230000D03*
%TD*%
D11*
%TO.P,J2,2,Pin_2_2*%
%TO.N,Net-(J1-Pin_2)*%
X147500000Y-60500000D03*
D12*
%TO.P,J2,1,Pin_1_1*%
%TO.N,Net-(D1-A)*%
X147500000Y-64310000D03*
%TD*%
D13*
%TO.P,J1,1,Pin_1_1*%
%TO.N,Net-(J1-Pin_1)*%
X131000000Y-61000000D03*
D11*
%TO.P,J1,2,Pin_2_2*%
%TO.N,Net-(J1-Pin_2)*%
X131000000Y-64810000D03*
%TD*%
D14*
%TO.N,Net-(D1-A)*%
X144000000Y-62000000D03*
%TO.N,Net-(D1-K)*%
X140774265Y-62725735D03*
X138848236Y-60078234D03*
%TO.N,Net-(J1-Pin_1)*%
X136696471Y-62230000D03*
X138104399Y-62519129D03*
%TO.N,Net-(J1-Pin_2)*%
X133000000Y-64500000D03*
X136000000Y-61000000D03*
%TO.N,Net-(J1-Pin_1)*%
X141000000Y-64770002D03*
%TO.N,Net-(J1-Pin_2)*%
X133000000Y-63500000D03*
%TD*%
%TO.N,Net-(J1-Pin_2)*%
D15*
X147500000Y-60500000D02*
X146770000Y-61230000D01*
%TO.N,Net-(D1-A)*%
X145190000Y-62000000D02*
X144000000Y-62000000D01*
X147500000Y-64310000D02*
X145190000Y-62000000D01*
%TO.N,Net-(J1-Pin_2)*%
X137845000Y-61230000D02*
X146770000Y-61230000D01*
%TO.N,Net-(D1-K)*%
X141155000Y-63106470D02*
X140774265Y-62725735D01*
X141155000Y-63770000D02*
X141155000Y-63106470D01*
X138848236Y-60078234D02*
X139048234Y-60078234D01*
%TO.N,Net-(J1-Pin_1)*%
X138104399Y-62519129D02*
X136985600Y-62519129D01*
X136985600Y-62519129D02*
X136696471Y-62230000D01*
%TO.N,Net-(J1-Pin_2)*%
X133000000Y-64500000D02*
X131310000Y-64500000D01*
X131310000Y-64500000D02*
X131000000Y-64810000D01*
X137615000Y-61000000D02*
X137845000Y-61230000D01*
X136000000Y-61000000D02*
X137615000Y-61000000D01*
%TO.N,Net-(J1-Pin_1)*%
X135118531Y-64770002D02*
X141000000Y-64770002D01*
X131000000Y-61000000D02*
X131348529Y-61000000D01*
X131348529Y-61000000D02*
X135118531Y-64770002D01*
%TO.N,Net-(J1-Pin_2)*%
X132460000Y-63500000D02*
X133000000Y-63500000D01*
X131425000Y-64535000D02*
X132460000Y-63500000D01*
%TD*%
M02*
