%TF.GenerationSoftware,KiCad,Pcbnew,10.0.5*%
%TF.CreationDate,2026-09-09T22:35:22+05:30*%
%TF.ProjectId,negativ_clamper,6e656761-7469-4765-9f63-6c616d706572,rev?*%
%TF.SameCoordinates,Original*%
%TF.FileFunction,Copper,L4,Bot*%
%TF.FilePolarity,Positive*%
%FSLAX46Y46*%
G04 Gerber Fmt 4.6, Leading zero omitted, Abs format (unit mm)*
G04 Created by KiCad (PCBNEW 10.0.5) date 2026-09-09 22:35:22*
%MOMM*%
%LPD*%
G01*
G04 APERTURE LIST*
G04 Aperture macros list*
%AMRoundRect*
0 Rectangle with rounded corners*
0 $1 Rounding radius*
0 $2 $3 $4 $5 $6 $7 $8 $9 X,Y pos of 4 corners*
0 Add a 4 corners polygon primitive as box body*
4,1,4,$2,$3,$4,$5,$6,$7,$8,$9,$2,$3,0*
0 Add four circle primitives for the rounded corners*
1,1,$1+$1,$2,$3*
1,1,$1+$1,$4,$5*
1,1,$1+$1,$6,$7*
1,1,$1+$1,$8,$9*
0 Add four rect primitives between the rounded corners*
20,1,$1+$1,$2,$3,$4,$5,0*
20,1,$1+$1,$4,$5,$6,$7,0*
20,1,$1+$1,$6,$7,$8,$9,0*
20,1,$1+$1,$8,$9,$2,$3,0*%
G04 Aperture macros list end*
%TA.AperFunction,SMDPad,CuDef*%
%ADD10RoundRect,0.250000X-1.625000X0.675000X-1.625000X-0.675000X1.625000X-0.675000X1.625000X0.675000X0*%
%TD*%
%TA.AperFunction,SMDPad,CuDef*%
%ADD11RoundRect,0.250000X-0.550000X1.500000X-0.550000X-1.500000X0.550000X-1.500000X0.550000X1.500000X0*%
%TD*%
%TA.AperFunction,ComponentPad*%
%ADD12C,2.000000*%
%TD*%
%TA.AperFunction,ComponentPad*%
%ADD13RoundRect,0.250000X0.750000X-0.750000X0.750000X0.750000X-0.750000X0.750000X-0.750000X-0.750000X0*%
%TD*%
%TA.AperFunction,SMDPad,CuDef*%
%ADD14RoundRect,0.237500X0.250000X0.237500X-0.250000X0.237500X-0.250000X-0.237500X0.250000X-0.237500X0*%
%TD*%
%TA.AperFunction,ComponentPad*%
%ADD15RoundRect,0.250000X-0.750000X0.750000X-0.750000X-0.750000X0.750000X-0.750000X0.750000X0.750000X0*%
%TD*%
%TA.AperFunction,ViaPad*%
%ADD16C,0.600000*%
%TD*%
%TA.AperFunction,Conductor*%
%ADD17C,0.200000*%
%TD*%
G04 APERTURE END LIST*
D10*
%TO.P,D1,2,A_2*%
%TO.N,Net-(D1-A)*%
X136000000Y-63775000D03*
%TO.P,D1,1,K_1*%
%TO.N,Net-(D1-K)*%
X136000000Y-59225000D03*
%TD*%
D11*
%TO.P,C1,2*%
%TO.N,Net-(J1-Pin_1)*%
X142000000Y-64800000D03*
%TO.P,C1,1*%
%TO.N,Net-(D1-A)*%
X142000000Y-59200000D03*
%TD*%
D12*
%TO.P,J2,2,Pin_2_2*%
%TO.N,Net-(J1-Pin_2)*%
X147500000Y-60500000D03*
D13*
%TO.P,J2,1,Pin_1_1*%
%TO.N,Net-(D1-A)*%
X147500000Y-64310000D03*
%TD*%
D14*
%TO.P,R1,1*%
%TO.N,Net-(D1-A)*%
X137912500Y-66500000D03*
%TO.P,R1,2*%
%TO.N,Net-(J1-Pin_2)*%
X136087500Y-66500000D03*
%TD*%
D15*
%TO.P,J1,1,Pin_1_1*%
%TO.N,Net-(J1-Pin_1)*%
X131000000Y-61000000D03*
D12*
%TO.P,J1,2,Pin_2_2*%
%TO.N,Net-(J1-Pin_2)*%
X131000000Y-64810000D03*
%TD*%
D16*
%TO.N,Net-(D1-A)*%
X144000000Y-62000000D03*
%TO.N,Net-(D1-K)*%
X138848236Y-60078234D03*
%TO.N,Net-(J1-Pin_1)*%
X136696471Y-62230000D03*
X138104399Y-62519129D03*
%TO.N,Net-(J1-Pin_2)*%
X133000000Y-64500000D03*
X136000000Y-61000000D03*
%TO.N,Net-(J1-Pin_1)*%
X141000000Y-64770002D03*
%TD*%
%TO.N,Net-(D1-A)*%
D17*
X144000000Y-61200000D02*
X142000000Y-59200000D01*
X144000000Y-62000000D02*
X144000000Y-61200000D01*
%TO.N,Net-(D1-K)*%
X137995002Y-59225000D02*
X138848236Y-60078234D01*
X136000000Y-59225000D02*
X137995002Y-59225000D01*
%TO.N,Net-(J1-Pin_1)*%
X134690256Y-61000000D02*
X131000000Y-61000000D01*
X135920256Y-62230000D02*
X134690256Y-61000000D01*
X136696471Y-62230000D02*
X135920256Y-62230000D01*
X139719129Y-62519129D02*
X138104399Y-62519129D01*
X142000000Y-64800000D02*
X139719129Y-62519129D01*
%TO.N,Net-(D1-A)*%
X140575000Y-59200000D02*
X142000000Y-59200000D01*
X136000000Y-63775000D02*
X140575000Y-59200000D01*
X137912500Y-65687500D02*
X136000000Y-63775000D01*
X137912500Y-66500000D02*
X137912500Y-65687500D01*
%TO.N,Net-(J1-Pin_2)*%
X133000000Y-65000000D02*
X133000000Y-64500000D01*
X134500000Y-66500000D02*
X133000000Y-65000000D01*
X136087500Y-66500000D02*
X134500000Y-66500000D01*
%TO.N,Net-(J1-Pin_1)*%
X141000000Y-64500000D02*
X141000000Y-64770002D01*
X141000000Y-64500000D02*
X141900000Y-64500000D01*
X141900000Y-64500000D02*
X142500000Y-65100000D01*
%TO.N,Net-(D1-A)*%
X141775000Y-60225000D02*
X142500000Y-59500000D01*
X142500000Y-59500000D02*
X142500000Y-59810000D01*
%TD*%
M02*
