%TF.GenerationSoftware,KiCad,Pcbnew,10.0.5*%
%TF.CreationDate,2026-08-11T18:14:31+05:30*%
%TF.ProjectId,LED_Design,4c45445f-4465-4736-9967-6e2e6b696361,rev?*%
%TF.SameCoordinates,Original*%
%TF.FileFunction,AssemblyDrawing,Top*%
%FSLAX46Y46*%
G04 Gerber Fmt 4.6, Leading zero omitted, Abs format (unit mm)*
G04 Created by KiCad (PCBNEW 10.0.5) date 2026-08-11 18:14:31*
%MOMM*%
%LPD*%
G01*
G04 APERTURE LIST*
%ADD10C,0.150000*%
%ADD11C,0.120000*%
%ADD12C,0.108000*%
%ADD13C,0.100000*%
G04 APERTURE END LIST*
D10*
X104129580Y-29424524D02*
X104177200Y-29472143D01*
X104177200Y-29472143D02*
X104224819Y-29615000D01*
X104224819Y-29615000D02*
X104224819Y-29710238D01*
X104224819Y-29710238D02*
X104177200Y-29853095D01*
X104177200Y-29853095D02*
X104081961Y-29948333D01*
X104081961Y-29948333D02*
X103986723Y-29995952D01*
X103986723Y-29995952D02*
X103796247Y-30043571D01*
X103796247Y-30043571D02*
X103653390Y-30043571D01*
X103653390Y-30043571D02*
X103462914Y-29995952D01*
X103462914Y-29995952D02*
X103367676Y-29948333D01*
X103367676Y-29948333D02*
X103272438Y-29853095D01*
X103272438Y-29853095D02*
X103224819Y-29710238D01*
X103224819Y-29710238D02*
X103224819Y-29615000D01*
X103224819Y-29615000D02*
X103272438Y-29472143D01*
X103272438Y-29472143D02*
X103320057Y-29424524D01*
X104224819Y-28853095D02*
X104177200Y-28948333D01*
X104177200Y-28948333D02*
X104129580Y-28995952D01*
X104129580Y-28995952D02*
X104034342Y-29043571D01*
X104034342Y-29043571D02*
X103748628Y-29043571D01*
X103748628Y-29043571D02*
X103653390Y-28995952D01*
X103653390Y-28995952D02*
X103605771Y-28948333D01*
X103605771Y-28948333D02*
X103558152Y-28853095D01*
X103558152Y-28853095D02*
X103558152Y-28710238D01*
X103558152Y-28710238D02*
X103605771Y-28615000D01*
X103605771Y-28615000D02*
X103653390Y-28567381D01*
X103653390Y-28567381D02*
X103748628Y-28519762D01*
X103748628Y-28519762D02*
X104034342Y-28519762D01*
X104034342Y-28519762D02*
X104129580Y-28567381D01*
X104129580Y-28567381D02*
X104177200Y-28615000D01*
X104177200Y-28615000D02*
X104224819Y-28710238D01*
X104224819Y-28710238D02*
X104224819Y-28853095D01*
X103558152Y-28091190D02*
X104224819Y-28091190D01*
X103653390Y-28091190D02*
X103605771Y-28043571D01*
X103605771Y-28043571D02*
X103558152Y-27948333D01*
X103558152Y-27948333D02*
X103558152Y-27805476D01*
X103558152Y-27805476D02*
X103605771Y-27710238D01*
X103605771Y-27710238D02*
X103701009Y-27662619D01*
X103701009Y-27662619D02*
X104224819Y-27662619D01*
X103558152Y-27186428D02*
X104224819Y-27186428D01*
X103653390Y-27186428D02*
X103605771Y-27138809D01*
X103605771Y-27138809D02*
X103558152Y-27043571D01*
X103558152Y-27043571D02*
X103558152Y-26900714D01*
X103558152Y-26900714D02*
X103605771Y-26805476D01*
X103605771Y-26805476D02*
X103701009Y-26757857D01*
X103701009Y-26757857D02*
X104224819Y-26757857D01*
X104320057Y-26519762D02*
X104320057Y-25757857D01*
X103224819Y-25329285D02*
X103224819Y-25234047D01*
X103224819Y-25234047D02*
X103272438Y-25138809D01*
X103272438Y-25138809D02*
X103320057Y-25091190D01*
X103320057Y-25091190D02*
X103415295Y-25043571D01*
X103415295Y-25043571D02*
X103605771Y-24995952D01*
X103605771Y-24995952D02*
X103843866Y-24995952D01*
X103843866Y-24995952D02*
X104034342Y-25043571D01*
X104034342Y-25043571D02*
X104129580Y-25091190D01*
X104129580Y-25091190D02*
X104177200Y-25138809D01*
X104177200Y-25138809D02*
X104224819Y-25234047D01*
X104224819Y-25234047D02*
X104224819Y-25329285D01*
X104224819Y-25329285D02*
X104177200Y-25424523D01*
X104177200Y-25424523D02*
X104129580Y-25472142D01*
X104129580Y-25472142D02*
X104034342Y-25519761D01*
X104034342Y-25519761D02*
X103843866Y-25567380D01*
X103843866Y-25567380D02*
X103605771Y-25567380D01*
X103605771Y-25567380D02*
X103415295Y-25519761D01*
X103415295Y-25519761D02*
X103320057Y-25472142D01*
X103320057Y-25472142D02*
X103272438Y-25424523D01*
X103272438Y-25424523D02*
X103224819Y-25329285D01*
X104224819Y-24043571D02*
X104224819Y-24614999D01*
X104224819Y-24329285D02*
X103224819Y-24329285D01*
X103224819Y-24329285D02*
X103367676Y-24424523D01*
X103367676Y-24424523D02*
X103462914Y-24519761D01*
X103462914Y-24519761D02*
X103510533Y-24614999D01*
X104224819Y-23710237D02*
X103558152Y-23186428D01*
X103558152Y-23710237D02*
X104224819Y-23186428D01*
X103224819Y-22614999D02*
X103224819Y-22519761D01*
X103224819Y-22519761D02*
X103272438Y-22424523D01*
X103272438Y-22424523D02*
X103320057Y-22376904D01*
X103320057Y-22376904D02*
X103415295Y-22329285D01*
X103415295Y-22329285D02*
X103605771Y-22281666D01*
X103605771Y-22281666D02*
X103843866Y-22281666D01*
X103843866Y-22281666D02*
X104034342Y-22329285D01*
X104034342Y-22329285D02*
X104129580Y-22376904D01*
X104129580Y-22376904D02*
X104177200Y-22424523D01*
X104177200Y-22424523D02*
X104224819Y-22519761D01*
X104224819Y-22519761D02*
X104224819Y-22614999D01*
X104224819Y-22614999D02*
X104177200Y-22710237D01*
X104177200Y-22710237D02*
X104129580Y-22757856D01*
X104129580Y-22757856D02*
X104034342Y-22805475D01*
X104034342Y-22805475D02*
X103843866Y-22853094D01*
X103843866Y-22853094D02*
X103605771Y-22853094D01*
X103605771Y-22853094D02*
X103415295Y-22805475D01*
X103415295Y-22805475D02*
X103320057Y-22757856D01*
X103320057Y-22757856D02*
X103272438Y-22710237D01*
X103272438Y-22710237D02*
X103224819Y-22614999D01*
X103320057Y-21900713D02*
X103272438Y-21853094D01*
X103272438Y-21853094D02*
X103224819Y-21757856D01*
X103224819Y-21757856D02*
X103224819Y-21519761D01*
X103224819Y-21519761D02*
X103272438Y-21424523D01*
X103272438Y-21424523D02*
X103320057Y-21376904D01*
X103320057Y-21376904D02*
X103415295Y-21329285D01*
X103415295Y-21329285D02*
X103510533Y-21329285D01*
X103510533Y-21329285D02*
X103653390Y-21376904D01*
X103653390Y-21376904D02*
X104224819Y-21948332D01*
X104224819Y-21948332D02*
X104224819Y-21329285D01*
X104320057Y-21138809D02*
X104320057Y-20376904D01*
X104224819Y-20138808D02*
X103224819Y-20138808D01*
X103224819Y-20138808D02*
X103224819Y-19757856D01*
X103224819Y-19757856D02*
X103272438Y-19662618D01*
X103272438Y-19662618D02*
X103320057Y-19614999D01*
X103320057Y-19614999D02*
X103415295Y-19567380D01*
X103415295Y-19567380D02*
X103558152Y-19567380D01*
X103558152Y-19567380D02*
X103653390Y-19614999D01*
X103653390Y-19614999D02*
X103701009Y-19662618D01*
X103701009Y-19662618D02*
X103748628Y-19757856D01*
X103748628Y-19757856D02*
X103748628Y-20138808D01*
X104224819Y-19138808D02*
X103558152Y-19138808D01*
X103224819Y-19138808D02*
X103272438Y-19186427D01*
X103272438Y-19186427D02*
X103320057Y-19138808D01*
X103320057Y-19138808D02*
X103272438Y-19091189D01*
X103272438Y-19091189D02*
X103224819Y-19138808D01*
X103224819Y-19138808D02*
X103320057Y-19138808D01*
X103558152Y-18662618D02*
X104224819Y-18662618D01*
X103653390Y-18662618D02*
X103605771Y-18614999D01*
X103605771Y-18614999D02*
X103558152Y-18519761D01*
X103558152Y-18519761D02*
X103558152Y-18376904D01*
X103558152Y-18376904D02*
X103605771Y-18281666D01*
X103605771Y-18281666D02*
X103701009Y-18234047D01*
X103701009Y-18234047D02*
X104224819Y-18234047D01*
X99896666Y-25184819D02*
X99896666Y-25899104D01*
X99896666Y-25899104D02*
X99849047Y-26041961D01*
X99849047Y-26041961D02*
X99753809Y-26137200D01*
X99753809Y-26137200D02*
X99610952Y-26184819D01*
X99610952Y-26184819D02*
X99515714Y-26184819D01*
X100896666Y-26184819D02*
X100325238Y-26184819D01*
X100610952Y-26184819D02*
X100610952Y-25184819D01*
X100610952Y-25184819D02*
X100515714Y-25327676D01*
X100515714Y-25327676D02*
X100420476Y-25422914D01*
X100420476Y-25422914D02*
X100325238Y-25470533D01*
X107714285Y-34004819D02*
X107714285Y-33004819D01*
X107714285Y-33004819D02*
X108047618Y-33719104D01*
X108047618Y-33719104D02*
X108380951Y-33004819D01*
X108380951Y-33004819D02*
X108380951Y-34004819D01*
X108999999Y-34004819D02*
X108904761Y-33957200D01*
X108904761Y-33957200D02*
X108857142Y-33909580D01*
X108857142Y-33909580D02*
X108809523Y-33814342D01*
X108809523Y-33814342D02*
X108809523Y-33528628D01*
X108809523Y-33528628D02*
X108857142Y-33433390D01*
X108857142Y-33433390D02*
X108904761Y-33385771D01*
X108904761Y-33385771D02*
X108999999Y-33338152D01*
X108999999Y-33338152D02*
X109142856Y-33338152D01*
X109142856Y-33338152D02*
X109238094Y-33385771D01*
X109238094Y-33385771D02*
X109285713Y-33433390D01*
X109285713Y-33433390D02*
X109333332Y-33528628D01*
X109333332Y-33528628D02*
X109333332Y-33814342D01*
X109333332Y-33814342D02*
X109285713Y-33909580D01*
X109285713Y-33909580D02*
X109238094Y-33957200D01*
X109238094Y-33957200D02*
X109142856Y-34004819D01*
X109142856Y-34004819D02*
X108999999Y-34004819D01*
X110190475Y-33338152D02*
X110190475Y-34004819D01*
X109761904Y-33338152D02*
X109761904Y-33861961D01*
X109761904Y-33861961D02*
X109809523Y-33957200D01*
X109809523Y-33957200D02*
X109904761Y-34004819D01*
X109904761Y-34004819D02*
X110047618Y-34004819D01*
X110047618Y-34004819D02*
X110142856Y-33957200D01*
X110142856Y-33957200D02*
X110190475Y-33909580D01*
X110666666Y-33338152D02*
X110666666Y-34004819D01*
X110666666Y-33433390D02*
X110714285Y-33385771D01*
X110714285Y-33385771D02*
X110809523Y-33338152D01*
X110809523Y-33338152D02*
X110952380Y-33338152D01*
X110952380Y-33338152D02*
X111047618Y-33385771D01*
X111047618Y-33385771D02*
X111095237Y-33481009D01*
X111095237Y-33481009D02*
X111095237Y-34004819D01*
X111428571Y-33338152D02*
X111809523Y-33338152D01*
X111571428Y-33004819D02*
X111571428Y-33861961D01*
X111571428Y-33861961D02*
X111619047Y-33957200D01*
X111619047Y-33957200D02*
X111714285Y-34004819D01*
X111714285Y-34004819D02*
X111809523Y-34004819D01*
X112142857Y-34004819D02*
X112142857Y-33338152D01*
X112142857Y-33004819D02*
X112095238Y-33052438D01*
X112095238Y-33052438D02*
X112142857Y-33100057D01*
X112142857Y-33100057D02*
X112190476Y-33052438D01*
X112190476Y-33052438D02*
X112142857Y-33004819D01*
X112142857Y-33004819D02*
X112142857Y-33100057D01*
X112619047Y-33338152D02*
X112619047Y-34004819D01*
X112619047Y-33433390D02*
X112666666Y-33385771D01*
X112666666Y-33385771D02*
X112761904Y-33338152D01*
X112761904Y-33338152D02*
X112904761Y-33338152D01*
X112904761Y-33338152D02*
X112999999Y-33385771D01*
X112999999Y-33385771D02*
X113047618Y-33481009D01*
X113047618Y-33481009D02*
X113047618Y-34004819D01*
X113952380Y-33338152D02*
X113952380Y-34147676D01*
X113952380Y-34147676D02*
X113904761Y-34242914D01*
X113904761Y-34242914D02*
X113857142Y-34290533D01*
X113857142Y-34290533D02*
X113761904Y-34338152D01*
X113761904Y-34338152D02*
X113619047Y-34338152D01*
X113619047Y-34338152D02*
X113523809Y-34290533D01*
X113952380Y-33957200D02*
X113857142Y-34004819D01*
X113857142Y-34004819D02*
X113666666Y-34004819D01*
X113666666Y-34004819D02*
X113571428Y-33957200D01*
X113571428Y-33957200D02*
X113523809Y-33909580D01*
X113523809Y-33909580D02*
X113476190Y-33814342D01*
X113476190Y-33814342D02*
X113476190Y-33528628D01*
X113476190Y-33528628D02*
X113523809Y-33433390D01*
X113523809Y-33433390D02*
X113571428Y-33385771D01*
X113571428Y-33385771D02*
X113666666Y-33338152D01*
X113666666Y-33338152D02*
X113857142Y-33338152D01*
X113857142Y-33338152D02*
X113952380Y-33385771D01*
X114428571Y-34004819D02*
X114428571Y-33004819D01*
X114428571Y-33481009D02*
X114999999Y-33481009D01*
X114999999Y-34004819D02*
X114999999Y-33004819D01*
X115619047Y-34004819D02*
X115523809Y-33957200D01*
X115523809Y-33957200D02*
X115476190Y-33909580D01*
X115476190Y-33909580D02*
X115428571Y-33814342D01*
X115428571Y-33814342D02*
X115428571Y-33528628D01*
X115428571Y-33528628D02*
X115476190Y-33433390D01*
X115476190Y-33433390D02*
X115523809Y-33385771D01*
X115523809Y-33385771D02*
X115619047Y-33338152D01*
X115619047Y-33338152D02*
X115761904Y-33338152D01*
X115761904Y-33338152D02*
X115857142Y-33385771D01*
X115857142Y-33385771D02*
X115904761Y-33433390D01*
X115904761Y-33433390D02*
X115952380Y-33528628D01*
X115952380Y-33528628D02*
X115952380Y-33814342D01*
X115952380Y-33814342D02*
X115904761Y-33909580D01*
X115904761Y-33909580D02*
X115857142Y-33957200D01*
X115857142Y-33957200D02*
X115761904Y-34004819D01*
X115761904Y-34004819D02*
X115619047Y-34004819D01*
X116523809Y-34004819D02*
X116428571Y-33957200D01*
X116428571Y-33957200D02*
X116380952Y-33861961D01*
X116380952Y-33861961D02*
X116380952Y-33004819D01*
X117285714Y-33957200D02*
X117190476Y-34004819D01*
X117190476Y-34004819D02*
X117000000Y-34004819D01*
X117000000Y-34004819D02*
X116904762Y-33957200D01*
X116904762Y-33957200D02*
X116857143Y-33861961D01*
X116857143Y-33861961D02*
X116857143Y-33481009D01*
X116857143Y-33481009D02*
X116904762Y-33385771D01*
X116904762Y-33385771D02*
X117000000Y-33338152D01*
X117000000Y-33338152D02*
X117190476Y-33338152D01*
X117190476Y-33338152D02*
X117285714Y-33385771D01*
X117285714Y-33385771D02*
X117333333Y-33481009D01*
X117333333Y-33481009D02*
X117333333Y-33576247D01*
X117333333Y-33576247D02*
X116857143Y-33671485D01*
X111738095Y-30954819D02*
X111738095Y-29954819D01*
X111738095Y-30431009D02*
X112309523Y-30431009D01*
X112309523Y-30954819D02*
X112309523Y-29954819D01*
X112738095Y-30050057D02*
X112785714Y-30002438D01*
X112785714Y-30002438D02*
X112880952Y-29954819D01*
X112880952Y-29954819D02*
X113119047Y-29954819D01*
X113119047Y-29954819D02*
X113214285Y-30002438D01*
X113214285Y-30002438D02*
X113261904Y-30050057D01*
X113261904Y-30050057D02*
X113309523Y-30145295D01*
X113309523Y-30145295D02*
X113309523Y-30240533D01*
X113309523Y-30240533D02*
X113261904Y-30383390D01*
X113261904Y-30383390D02*
X112690476Y-30954819D01*
X112690476Y-30954819D02*
X113309523Y-30954819D01*
X107714285Y-61504819D02*
X107714285Y-60504819D01*
X107714285Y-60504819D02*
X108047618Y-61219104D01*
X108047618Y-61219104D02*
X108380951Y-60504819D01*
X108380951Y-60504819D02*
X108380951Y-61504819D01*
X108999999Y-61504819D02*
X108904761Y-61457200D01*
X108904761Y-61457200D02*
X108857142Y-61409580D01*
X108857142Y-61409580D02*
X108809523Y-61314342D01*
X108809523Y-61314342D02*
X108809523Y-61028628D01*
X108809523Y-61028628D02*
X108857142Y-60933390D01*
X108857142Y-60933390D02*
X108904761Y-60885771D01*
X108904761Y-60885771D02*
X108999999Y-60838152D01*
X108999999Y-60838152D02*
X109142856Y-60838152D01*
X109142856Y-60838152D02*
X109238094Y-60885771D01*
X109238094Y-60885771D02*
X109285713Y-60933390D01*
X109285713Y-60933390D02*
X109333332Y-61028628D01*
X109333332Y-61028628D02*
X109333332Y-61314342D01*
X109333332Y-61314342D02*
X109285713Y-61409580D01*
X109285713Y-61409580D02*
X109238094Y-61457200D01*
X109238094Y-61457200D02*
X109142856Y-61504819D01*
X109142856Y-61504819D02*
X108999999Y-61504819D01*
X110190475Y-60838152D02*
X110190475Y-61504819D01*
X109761904Y-60838152D02*
X109761904Y-61361961D01*
X109761904Y-61361961D02*
X109809523Y-61457200D01*
X109809523Y-61457200D02*
X109904761Y-61504819D01*
X109904761Y-61504819D02*
X110047618Y-61504819D01*
X110047618Y-61504819D02*
X110142856Y-61457200D01*
X110142856Y-61457200D02*
X110190475Y-61409580D01*
X110666666Y-60838152D02*
X110666666Y-61504819D01*
X110666666Y-60933390D02*
X110714285Y-60885771D01*
X110714285Y-60885771D02*
X110809523Y-60838152D01*
X110809523Y-60838152D02*
X110952380Y-60838152D01*
X110952380Y-60838152D02*
X111047618Y-60885771D01*
X111047618Y-60885771D02*
X111095237Y-60981009D01*
X111095237Y-60981009D02*
X111095237Y-61504819D01*
X111428571Y-60838152D02*
X111809523Y-60838152D01*
X111571428Y-60504819D02*
X111571428Y-61361961D01*
X111571428Y-61361961D02*
X111619047Y-61457200D01*
X111619047Y-61457200D02*
X111714285Y-61504819D01*
X111714285Y-61504819D02*
X111809523Y-61504819D01*
X112142857Y-61504819D02*
X112142857Y-60838152D01*
X112142857Y-60504819D02*
X112095238Y-60552438D01*
X112095238Y-60552438D02*
X112142857Y-60600057D01*
X112142857Y-60600057D02*
X112190476Y-60552438D01*
X112190476Y-60552438D02*
X112142857Y-60504819D01*
X112142857Y-60504819D02*
X112142857Y-60600057D01*
X112619047Y-60838152D02*
X112619047Y-61504819D01*
X112619047Y-60933390D02*
X112666666Y-60885771D01*
X112666666Y-60885771D02*
X112761904Y-60838152D01*
X112761904Y-60838152D02*
X112904761Y-60838152D01*
X112904761Y-60838152D02*
X112999999Y-60885771D01*
X112999999Y-60885771D02*
X113047618Y-60981009D01*
X113047618Y-60981009D02*
X113047618Y-61504819D01*
X113952380Y-60838152D02*
X113952380Y-61647676D01*
X113952380Y-61647676D02*
X113904761Y-61742914D01*
X113904761Y-61742914D02*
X113857142Y-61790533D01*
X113857142Y-61790533D02*
X113761904Y-61838152D01*
X113761904Y-61838152D02*
X113619047Y-61838152D01*
X113619047Y-61838152D02*
X113523809Y-61790533D01*
X113952380Y-61457200D02*
X113857142Y-61504819D01*
X113857142Y-61504819D02*
X113666666Y-61504819D01*
X113666666Y-61504819D02*
X113571428Y-61457200D01*
X113571428Y-61457200D02*
X113523809Y-61409580D01*
X113523809Y-61409580D02*
X113476190Y-61314342D01*
X113476190Y-61314342D02*
X113476190Y-61028628D01*
X113476190Y-61028628D02*
X113523809Y-60933390D01*
X113523809Y-60933390D02*
X113571428Y-60885771D01*
X113571428Y-60885771D02*
X113666666Y-60838152D01*
X113666666Y-60838152D02*
X113857142Y-60838152D01*
X113857142Y-60838152D02*
X113952380Y-60885771D01*
X114428571Y-61504819D02*
X114428571Y-60504819D01*
X114428571Y-60981009D02*
X114999999Y-60981009D01*
X114999999Y-61504819D02*
X114999999Y-60504819D01*
X115619047Y-61504819D02*
X115523809Y-61457200D01*
X115523809Y-61457200D02*
X115476190Y-61409580D01*
X115476190Y-61409580D02*
X115428571Y-61314342D01*
X115428571Y-61314342D02*
X115428571Y-61028628D01*
X115428571Y-61028628D02*
X115476190Y-60933390D01*
X115476190Y-60933390D02*
X115523809Y-60885771D01*
X115523809Y-60885771D02*
X115619047Y-60838152D01*
X115619047Y-60838152D02*
X115761904Y-60838152D01*
X115761904Y-60838152D02*
X115857142Y-60885771D01*
X115857142Y-60885771D02*
X115904761Y-60933390D01*
X115904761Y-60933390D02*
X115952380Y-61028628D01*
X115952380Y-61028628D02*
X115952380Y-61314342D01*
X115952380Y-61314342D02*
X115904761Y-61409580D01*
X115904761Y-61409580D02*
X115857142Y-61457200D01*
X115857142Y-61457200D02*
X115761904Y-61504819D01*
X115761904Y-61504819D02*
X115619047Y-61504819D01*
X116523809Y-61504819D02*
X116428571Y-61457200D01*
X116428571Y-61457200D02*
X116380952Y-61361961D01*
X116380952Y-61361961D02*
X116380952Y-60504819D01*
X117285714Y-61457200D02*
X117190476Y-61504819D01*
X117190476Y-61504819D02*
X117000000Y-61504819D01*
X117000000Y-61504819D02*
X116904762Y-61457200D01*
X116904762Y-61457200D02*
X116857143Y-61361961D01*
X116857143Y-61361961D02*
X116857143Y-60981009D01*
X116857143Y-60981009D02*
X116904762Y-60885771D01*
X116904762Y-60885771D02*
X117000000Y-60838152D01*
X117000000Y-60838152D02*
X117190476Y-60838152D01*
X117190476Y-60838152D02*
X117285714Y-60885771D01*
X117285714Y-60885771D02*
X117333333Y-60981009D01*
X117333333Y-60981009D02*
X117333333Y-61076247D01*
X117333333Y-61076247D02*
X116857143Y-61171485D01*
X111738095Y-58454819D02*
X111738095Y-57454819D01*
X111738095Y-57931009D02*
X112309523Y-57931009D01*
X112309523Y-58454819D02*
X112309523Y-57454819D01*
X113214285Y-57788152D02*
X113214285Y-58454819D01*
X112976190Y-57407200D02*
X112738095Y-58121485D01*
X112738095Y-58121485D02*
X113357142Y-58121485D01*
X99357142Y-54994819D02*
X98880952Y-54994819D01*
X98880952Y-54994819D02*
X98880952Y-53994819D01*
X99690476Y-54471009D02*
X100023809Y-54471009D01*
X100166666Y-54994819D02*
X99690476Y-54994819D01*
X99690476Y-54994819D02*
X99690476Y-53994819D01*
X99690476Y-53994819D02*
X100166666Y-53994819D01*
X100595238Y-54994819D02*
X100595238Y-53994819D01*
X100595238Y-53994819D02*
X100833333Y-53994819D01*
X100833333Y-53994819D02*
X100976190Y-54042438D01*
X100976190Y-54042438D02*
X101071428Y-54137676D01*
X101071428Y-54137676D02*
X101119047Y-54232914D01*
X101119047Y-54232914D02*
X101166666Y-54423390D01*
X101166666Y-54423390D02*
X101166666Y-54566247D01*
X101166666Y-54566247D02*
X101119047Y-54756723D01*
X101119047Y-54756723D02*
X101071428Y-54851961D01*
X101071428Y-54851961D02*
X100976190Y-54947200D01*
X100976190Y-54947200D02*
X100833333Y-54994819D01*
X100833333Y-54994819D02*
X100595238Y-54994819D01*
D11*
X99409524Y-57863855D02*
X99409524Y-57063855D01*
X99409524Y-57063855D02*
X99600000Y-57063855D01*
X99600000Y-57063855D02*
X99714286Y-57101950D01*
X99714286Y-57101950D02*
X99790476Y-57178140D01*
X99790476Y-57178140D02*
X99828571Y-57254331D01*
X99828571Y-57254331D02*
X99866667Y-57406712D01*
X99866667Y-57406712D02*
X99866667Y-57520998D01*
X99866667Y-57520998D02*
X99828571Y-57673379D01*
X99828571Y-57673379D02*
X99790476Y-57749569D01*
X99790476Y-57749569D02*
X99714286Y-57825760D01*
X99714286Y-57825760D02*
X99600000Y-57863855D01*
X99600000Y-57863855D02*
X99409524Y-57863855D01*
X100628571Y-57863855D02*
X100171428Y-57863855D01*
X100400000Y-57863855D02*
X100400000Y-57063855D01*
X100400000Y-57063855D02*
X100323809Y-57178140D01*
X100323809Y-57178140D02*
X100247619Y-57254331D01*
X100247619Y-57254331D02*
X100171428Y-57292426D01*
D10*
X81714285Y-61004819D02*
X81714285Y-60004819D01*
X81714285Y-60004819D02*
X82047618Y-60719104D01*
X82047618Y-60719104D02*
X82380951Y-60004819D01*
X82380951Y-60004819D02*
X82380951Y-61004819D01*
X82999999Y-61004819D02*
X82904761Y-60957200D01*
X82904761Y-60957200D02*
X82857142Y-60909580D01*
X82857142Y-60909580D02*
X82809523Y-60814342D01*
X82809523Y-60814342D02*
X82809523Y-60528628D01*
X82809523Y-60528628D02*
X82857142Y-60433390D01*
X82857142Y-60433390D02*
X82904761Y-60385771D01*
X82904761Y-60385771D02*
X82999999Y-60338152D01*
X82999999Y-60338152D02*
X83142856Y-60338152D01*
X83142856Y-60338152D02*
X83238094Y-60385771D01*
X83238094Y-60385771D02*
X83285713Y-60433390D01*
X83285713Y-60433390D02*
X83333332Y-60528628D01*
X83333332Y-60528628D02*
X83333332Y-60814342D01*
X83333332Y-60814342D02*
X83285713Y-60909580D01*
X83285713Y-60909580D02*
X83238094Y-60957200D01*
X83238094Y-60957200D02*
X83142856Y-61004819D01*
X83142856Y-61004819D02*
X82999999Y-61004819D01*
X84190475Y-60338152D02*
X84190475Y-61004819D01*
X83761904Y-60338152D02*
X83761904Y-60861961D01*
X83761904Y-60861961D02*
X83809523Y-60957200D01*
X83809523Y-60957200D02*
X83904761Y-61004819D01*
X83904761Y-61004819D02*
X84047618Y-61004819D01*
X84047618Y-61004819D02*
X84142856Y-60957200D01*
X84142856Y-60957200D02*
X84190475Y-60909580D01*
X84666666Y-60338152D02*
X84666666Y-61004819D01*
X84666666Y-60433390D02*
X84714285Y-60385771D01*
X84714285Y-60385771D02*
X84809523Y-60338152D01*
X84809523Y-60338152D02*
X84952380Y-60338152D01*
X84952380Y-60338152D02*
X85047618Y-60385771D01*
X85047618Y-60385771D02*
X85095237Y-60481009D01*
X85095237Y-60481009D02*
X85095237Y-61004819D01*
X85428571Y-60338152D02*
X85809523Y-60338152D01*
X85571428Y-60004819D02*
X85571428Y-60861961D01*
X85571428Y-60861961D02*
X85619047Y-60957200D01*
X85619047Y-60957200D02*
X85714285Y-61004819D01*
X85714285Y-61004819D02*
X85809523Y-61004819D01*
X86142857Y-61004819D02*
X86142857Y-60338152D01*
X86142857Y-60004819D02*
X86095238Y-60052438D01*
X86095238Y-60052438D02*
X86142857Y-60100057D01*
X86142857Y-60100057D02*
X86190476Y-60052438D01*
X86190476Y-60052438D02*
X86142857Y-60004819D01*
X86142857Y-60004819D02*
X86142857Y-60100057D01*
X86619047Y-60338152D02*
X86619047Y-61004819D01*
X86619047Y-60433390D02*
X86666666Y-60385771D01*
X86666666Y-60385771D02*
X86761904Y-60338152D01*
X86761904Y-60338152D02*
X86904761Y-60338152D01*
X86904761Y-60338152D02*
X86999999Y-60385771D01*
X86999999Y-60385771D02*
X87047618Y-60481009D01*
X87047618Y-60481009D02*
X87047618Y-61004819D01*
X87952380Y-60338152D02*
X87952380Y-61147676D01*
X87952380Y-61147676D02*
X87904761Y-61242914D01*
X87904761Y-61242914D02*
X87857142Y-61290533D01*
X87857142Y-61290533D02*
X87761904Y-61338152D01*
X87761904Y-61338152D02*
X87619047Y-61338152D01*
X87619047Y-61338152D02*
X87523809Y-61290533D01*
X87952380Y-60957200D02*
X87857142Y-61004819D01*
X87857142Y-61004819D02*
X87666666Y-61004819D01*
X87666666Y-61004819D02*
X87571428Y-60957200D01*
X87571428Y-60957200D02*
X87523809Y-60909580D01*
X87523809Y-60909580D02*
X87476190Y-60814342D01*
X87476190Y-60814342D02*
X87476190Y-60528628D01*
X87476190Y-60528628D02*
X87523809Y-60433390D01*
X87523809Y-60433390D02*
X87571428Y-60385771D01*
X87571428Y-60385771D02*
X87666666Y-60338152D01*
X87666666Y-60338152D02*
X87857142Y-60338152D01*
X87857142Y-60338152D02*
X87952380Y-60385771D01*
X88428571Y-61004819D02*
X88428571Y-60004819D01*
X88428571Y-60481009D02*
X88999999Y-60481009D01*
X88999999Y-61004819D02*
X88999999Y-60004819D01*
X89619047Y-61004819D02*
X89523809Y-60957200D01*
X89523809Y-60957200D02*
X89476190Y-60909580D01*
X89476190Y-60909580D02*
X89428571Y-60814342D01*
X89428571Y-60814342D02*
X89428571Y-60528628D01*
X89428571Y-60528628D02*
X89476190Y-60433390D01*
X89476190Y-60433390D02*
X89523809Y-60385771D01*
X89523809Y-60385771D02*
X89619047Y-60338152D01*
X89619047Y-60338152D02*
X89761904Y-60338152D01*
X89761904Y-60338152D02*
X89857142Y-60385771D01*
X89857142Y-60385771D02*
X89904761Y-60433390D01*
X89904761Y-60433390D02*
X89952380Y-60528628D01*
X89952380Y-60528628D02*
X89952380Y-60814342D01*
X89952380Y-60814342D02*
X89904761Y-60909580D01*
X89904761Y-60909580D02*
X89857142Y-60957200D01*
X89857142Y-60957200D02*
X89761904Y-61004819D01*
X89761904Y-61004819D02*
X89619047Y-61004819D01*
X90523809Y-61004819D02*
X90428571Y-60957200D01*
X90428571Y-60957200D02*
X90380952Y-60861961D01*
X90380952Y-60861961D02*
X90380952Y-60004819D01*
X91285714Y-60957200D02*
X91190476Y-61004819D01*
X91190476Y-61004819D02*
X91000000Y-61004819D01*
X91000000Y-61004819D02*
X90904762Y-60957200D01*
X90904762Y-60957200D02*
X90857143Y-60861961D01*
X90857143Y-60861961D02*
X90857143Y-60481009D01*
X90857143Y-60481009D02*
X90904762Y-60385771D01*
X90904762Y-60385771D02*
X91000000Y-60338152D01*
X91000000Y-60338152D02*
X91190476Y-60338152D01*
X91190476Y-60338152D02*
X91285714Y-60385771D01*
X91285714Y-60385771D02*
X91333333Y-60481009D01*
X91333333Y-60481009D02*
X91333333Y-60576247D01*
X91333333Y-60576247D02*
X90857143Y-60671485D01*
X85738095Y-57954819D02*
X85738095Y-56954819D01*
X85738095Y-57431009D02*
X86309523Y-57431009D01*
X86309523Y-57954819D02*
X86309523Y-56954819D01*
X86690476Y-56954819D02*
X87309523Y-56954819D01*
X87309523Y-56954819D02*
X86976190Y-57335771D01*
X86976190Y-57335771D02*
X87119047Y-57335771D01*
X87119047Y-57335771D02*
X87214285Y-57383390D01*
X87214285Y-57383390D02*
X87261904Y-57431009D01*
X87261904Y-57431009D02*
X87309523Y-57526247D01*
X87309523Y-57526247D02*
X87309523Y-57764342D01*
X87309523Y-57764342D02*
X87261904Y-57859580D01*
X87261904Y-57859580D02*
X87214285Y-57907200D01*
X87214285Y-57907200D02*
X87119047Y-57954819D01*
X87119047Y-57954819D02*
X86833333Y-57954819D01*
X86833333Y-57954819D02*
X86738095Y-57907200D01*
X86738095Y-57907200D02*
X86690476Y-57859580D01*
X98034819Y-43190476D02*
X97558628Y-43523809D01*
X98034819Y-43761904D02*
X97034819Y-43761904D01*
X97034819Y-43761904D02*
X97034819Y-43380952D01*
X97034819Y-43380952D02*
X97082438Y-43285714D01*
X97082438Y-43285714D02*
X97130057Y-43238095D01*
X97130057Y-43238095D02*
X97225295Y-43190476D01*
X97225295Y-43190476D02*
X97368152Y-43190476D01*
X97368152Y-43190476D02*
X97463390Y-43238095D01*
X97463390Y-43238095D02*
X97511009Y-43285714D01*
X97511009Y-43285714D02*
X97558628Y-43380952D01*
X97558628Y-43380952D02*
X97558628Y-43761904D01*
D12*
X99827469Y-39809999D02*
X99484612Y-40049999D01*
X99827469Y-40221428D02*
X99107469Y-40221428D01*
X99107469Y-40221428D02*
X99107469Y-39947142D01*
X99107469Y-39947142D02*
X99141755Y-39878571D01*
X99141755Y-39878571D02*
X99176041Y-39844285D01*
X99176041Y-39844285D02*
X99244612Y-39809999D01*
X99244612Y-39809999D02*
X99347469Y-39809999D01*
X99347469Y-39809999D02*
X99416041Y-39844285D01*
X99416041Y-39844285D02*
X99450326Y-39878571D01*
X99450326Y-39878571D02*
X99484612Y-39947142D01*
X99484612Y-39947142D02*
X99484612Y-40221428D01*
X99827469Y-39124285D02*
X99827469Y-39535714D01*
X99827469Y-39329999D02*
X99107469Y-39329999D01*
X99107469Y-39329999D02*
X99210326Y-39398571D01*
X99210326Y-39398571D02*
X99278898Y-39467142D01*
X99278898Y-39467142D02*
X99313184Y-39535714D01*
D10*
X81214285Y-33504819D02*
X81214285Y-32504819D01*
X81214285Y-32504819D02*
X81547618Y-33219104D01*
X81547618Y-33219104D02*
X81880951Y-32504819D01*
X81880951Y-32504819D02*
X81880951Y-33504819D01*
X82499999Y-33504819D02*
X82404761Y-33457200D01*
X82404761Y-33457200D02*
X82357142Y-33409580D01*
X82357142Y-33409580D02*
X82309523Y-33314342D01*
X82309523Y-33314342D02*
X82309523Y-33028628D01*
X82309523Y-33028628D02*
X82357142Y-32933390D01*
X82357142Y-32933390D02*
X82404761Y-32885771D01*
X82404761Y-32885771D02*
X82499999Y-32838152D01*
X82499999Y-32838152D02*
X82642856Y-32838152D01*
X82642856Y-32838152D02*
X82738094Y-32885771D01*
X82738094Y-32885771D02*
X82785713Y-32933390D01*
X82785713Y-32933390D02*
X82833332Y-33028628D01*
X82833332Y-33028628D02*
X82833332Y-33314342D01*
X82833332Y-33314342D02*
X82785713Y-33409580D01*
X82785713Y-33409580D02*
X82738094Y-33457200D01*
X82738094Y-33457200D02*
X82642856Y-33504819D01*
X82642856Y-33504819D02*
X82499999Y-33504819D01*
X83690475Y-32838152D02*
X83690475Y-33504819D01*
X83261904Y-32838152D02*
X83261904Y-33361961D01*
X83261904Y-33361961D02*
X83309523Y-33457200D01*
X83309523Y-33457200D02*
X83404761Y-33504819D01*
X83404761Y-33504819D02*
X83547618Y-33504819D01*
X83547618Y-33504819D02*
X83642856Y-33457200D01*
X83642856Y-33457200D02*
X83690475Y-33409580D01*
X84166666Y-32838152D02*
X84166666Y-33504819D01*
X84166666Y-32933390D02*
X84214285Y-32885771D01*
X84214285Y-32885771D02*
X84309523Y-32838152D01*
X84309523Y-32838152D02*
X84452380Y-32838152D01*
X84452380Y-32838152D02*
X84547618Y-32885771D01*
X84547618Y-32885771D02*
X84595237Y-32981009D01*
X84595237Y-32981009D02*
X84595237Y-33504819D01*
X84928571Y-32838152D02*
X85309523Y-32838152D01*
X85071428Y-32504819D02*
X85071428Y-33361961D01*
X85071428Y-33361961D02*
X85119047Y-33457200D01*
X85119047Y-33457200D02*
X85214285Y-33504819D01*
X85214285Y-33504819D02*
X85309523Y-33504819D01*
X85642857Y-33504819D02*
X85642857Y-32838152D01*
X85642857Y-32504819D02*
X85595238Y-32552438D01*
X85595238Y-32552438D02*
X85642857Y-32600057D01*
X85642857Y-32600057D02*
X85690476Y-32552438D01*
X85690476Y-32552438D02*
X85642857Y-32504819D01*
X85642857Y-32504819D02*
X85642857Y-32600057D01*
X86119047Y-32838152D02*
X86119047Y-33504819D01*
X86119047Y-32933390D02*
X86166666Y-32885771D01*
X86166666Y-32885771D02*
X86261904Y-32838152D01*
X86261904Y-32838152D02*
X86404761Y-32838152D01*
X86404761Y-32838152D02*
X86499999Y-32885771D01*
X86499999Y-32885771D02*
X86547618Y-32981009D01*
X86547618Y-32981009D02*
X86547618Y-33504819D01*
X87452380Y-32838152D02*
X87452380Y-33647676D01*
X87452380Y-33647676D02*
X87404761Y-33742914D01*
X87404761Y-33742914D02*
X87357142Y-33790533D01*
X87357142Y-33790533D02*
X87261904Y-33838152D01*
X87261904Y-33838152D02*
X87119047Y-33838152D01*
X87119047Y-33838152D02*
X87023809Y-33790533D01*
X87452380Y-33457200D02*
X87357142Y-33504819D01*
X87357142Y-33504819D02*
X87166666Y-33504819D01*
X87166666Y-33504819D02*
X87071428Y-33457200D01*
X87071428Y-33457200D02*
X87023809Y-33409580D01*
X87023809Y-33409580D02*
X86976190Y-33314342D01*
X86976190Y-33314342D02*
X86976190Y-33028628D01*
X86976190Y-33028628D02*
X87023809Y-32933390D01*
X87023809Y-32933390D02*
X87071428Y-32885771D01*
X87071428Y-32885771D02*
X87166666Y-32838152D01*
X87166666Y-32838152D02*
X87357142Y-32838152D01*
X87357142Y-32838152D02*
X87452380Y-32885771D01*
X87928571Y-33504819D02*
X87928571Y-32504819D01*
X87928571Y-32981009D02*
X88499999Y-32981009D01*
X88499999Y-33504819D02*
X88499999Y-32504819D01*
X89119047Y-33504819D02*
X89023809Y-33457200D01*
X89023809Y-33457200D02*
X88976190Y-33409580D01*
X88976190Y-33409580D02*
X88928571Y-33314342D01*
X88928571Y-33314342D02*
X88928571Y-33028628D01*
X88928571Y-33028628D02*
X88976190Y-32933390D01*
X88976190Y-32933390D02*
X89023809Y-32885771D01*
X89023809Y-32885771D02*
X89119047Y-32838152D01*
X89119047Y-32838152D02*
X89261904Y-32838152D01*
X89261904Y-32838152D02*
X89357142Y-32885771D01*
X89357142Y-32885771D02*
X89404761Y-32933390D01*
X89404761Y-32933390D02*
X89452380Y-33028628D01*
X89452380Y-33028628D02*
X89452380Y-33314342D01*
X89452380Y-33314342D02*
X89404761Y-33409580D01*
X89404761Y-33409580D02*
X89357142Y-33457200D01*
X89357142Y-33457200D02*
X89261904Y-33504819D01*
X89261904Y-33504819D02*
X89119047Y-33504819D01*
X90023809Y-33504819D02*
X89928571Y-33457200D01*
X89928571Y-33457200D02*
X89880952Y-33361961D01*
X89880952Y-33361961D02*
X89880952Y-32504819D01*
X90785714Y-33457200D02*
X90690476Y-33504819D01*
X90690476Y-33504819D02*
X90500000Y-33504819D01*
X90500000Y-33504819D02*
X90404762Y-33457200D01*
X90404762Y-33457200D02*
X90357143Y-33361961D01*
X90357143Y-33361961D02*
X90357143Y-32981009D01*
X90357143Y-32981009D02*
X90404762Y-32885771D01*
X90404762Y-32885771D02*
X90500000Y-32838152D01*
X90500000Y-32838152D02*
X90690476Y-32838152D01*
X90690476Y-32838152D02*
X90785714Y-32885771D01*
X90785714Y-32885771D02*
X90833333Y-32981009D01*
X90833333Y-32981009D02*
X90833333Y-33076247D01*
X90833333Y-33076247D02*
X90357143Y-33171485D01*
X85238095Y-30454819D02*
X85238095Y-29454819D01*
X85238095Y-29931009D02*
X85809523Y-29931009D01*
X85809523Y-30454819D02*
X85809523Y-29454819D01*
X86809523Y-30454819D02*
X86238095Y-30454819D01*
X86523809Y-30454819D02*
X86523809Y-29454819D01*
X86523809Y-29454819D02*
X86428571Y-29597676D01*
X86428571Y-29597676D02*
X86333333Y-29692914D01*
X86333333Y-29692914D02*
X86238095Y-29740533D01*
%TO.C,J1*%
D13*
X98640000Y-28820000D02*
X99280000Y-28820000D01*
X98640000Y-28820000D02*
X98640000Y-27000000D01*
X99280000Y-28820000D02*
X99280000Y-27000000D01*
X101180000Y-28820000D02*
X101820000Y-28820000D01*
X101180000Y-28820000D02*
X101180000Y-27000000D01*
X101820000Y-28820000D02*
X101820000Y-27000000D01*
X98325000Y-27000000D02*
X97690000Y-26365000D01*
X102770000Y-27000000D02*
X98325000Y-27000000D01*
X97690000Y-26365000D02*
X97690000Y-24460000D01*
X97690000Y-24460000D02*
X102770000Y-24460000D01*
X98640000Y-24460000D02*
X98640000Y-18460000D01*
X99280000Y-24460000D02*
X99280000Y-18460000D01*
X101180000Y-24460000D02*
X101180000Y-18460000D01*
X101820000Y-24460000D02*
X101820000Y-18460000D01*
X102770000Y-24460000D02*
X102770000Y-27000000D01*
X98640000Y-18460000D02*
X99280000Y-18460000D01*
X101180000Y-18460000D02*
X101820000Y-18460000D01*
%TO.C,D1*%
X101500000Y-58666190D02*
X101500000Y-56333810D01*
X101500000Y-58666190D02*
G75*
G02*
X101500000Y-56333810I-1500000J1166190D01*
G01*
X101500000Y-57500000D02*
G75*
G02*
X98500000Y-57500000I-1500000J0D01*
G01*
X98500000Y-57500000D02*
G75*
G02*
X101500000Y-57500000I1500000J0D01*
G01*
%TO.C,R1*%
X99500000Y-39690000D02*
X99500000Y-41700000D01*
X99500000Y-47310000D02*
X99500000Y-45300000D01*
X98700000Y-41700000D02*
X100300000Y-41700000D01*
X100300000Y-45300000D01*
X98700000Y-45300000D01*
X98700000Y-41700000D01*
%TD*%
M02*
