%TF.GenerationSoftware,KiCad,Pcbnew,10.0.5*%
%TF.CreationDate,2026-08-11T18:14:30+05:30*%
%TF.ProjectId,LED_Design,4c45445f-4465-4736-9967-6e2e6b696361,rev?*%
%TF.SameCoordinates,Original*%
%TF.FileFunction,Legend,Top*%
%TF.FilePolarity,Positive*%
%FSLAX46Y46*%
G04 Gerber Fmt 4.6, Leading zero omitted, Abs format (unit mm)*
G04 Created by KiCad (PCBNEW 10.0.5) date 2026-08-11 18:14:30*
%MOMM*%
%LPD*%
G01*
G04 APERTURE LIST*
%ADD10C,0.100000*%
%ADD11C,0.150000*%
%ADD12C,0.120000*%
%ADD13R,1.700000X1.700000*%
%ADD14C,1.700000*%
%ADD15C,2.100000*%
%ADD16R,1.800000X1.800000*%
%ADD17C,1.800000*%
%ADD18C,1.400000*%
G04 APERTURE END LIST*
D10*
X117280074Y-42872419D02*
X116803884Y-42872419D01*
X116803884Y-42872419D02*
X116803884Y-41872419D01*
X117613408Y-42348609D02*
X117946741Y-42348609D01*
X118089598Y-42872419D02*
X117613408Y-42872419D01*
X117613408Y-42872419D02*
X117613408Y-41872419D01*
X117613408Y-41872419D02*
X118089598Y-41872419D01*
X118518170Y-42872419D02*
X118518170Y-41872419D01*
X118518170Y-41872419D02*
X118756265Y-41872419D01*
X118756265Y-41872419D02*
X118899122Y-41920038D01*
X118899122Y-41920038D02*
X118994360Y-42015276D01*
X118994360Y-42015276D02*
X119041979Y-42110514D01*
X119041979Y-42110514D02*
X119089598Y-42300990D01*
X119089598Y-42300990D02*
X119089598Y-42443847D01*
X119089598Y-42443847D02*
X119041979Y-42634323D01*
X119041979Y-42634323D02*
X118994360Y-42729561D01*
X118994360Y-42729561D02*
X118899122Y-42824800D01*
X118899122Y-42824800D02*
X118756265Y-42872419D01*
X118756265Y-42872419D02*
X118518170Y-42872419D01*
D11*
X96144819Y-24448333D02*
X96859104Y-24448333D01*
X96859104Y-24448333D02*
X97001961Y-24495952D01*
X97001961Y-24495952D02*
X97097200Y-24591190D01*
X97097200Y-24591190D02*
X97144819Y-24734047D01*
X97144819Y-24734047D02*
X97144819Y-24829285D01*
X97144819Y-23448333D02*
X97144819Y-24019761D01*
X97144819Y-23734047D02*
X96144819Y-23734047D01*
X96144819Y-23734047D02*
X96287676Y-23829285D01*
X96287676Y-23829285D02*
X96382914Y-23924523D01*
X96382914Y-23924523D02*
X96430533Y-24019761D01*
X111738095Y-27904819D02*
X111738095Y-26904819D01*
X111738095Y-27381009D02*
X112309523Y-27381009D01*
X112309523Y-27904819D02*
X112309523Y-26904819D01*
X112738095Y-27000057D02*
X112785714Y-26952438D01*
X112785714Y-26952438D02*
X112880952Y-26904819D01*
X112880952Y-26904819D02*
X113119047Y-26904819D01*
X113119047Y-26904819D02*
X113214285Y-26952438D01*
X113214285Y-26952438D02*
X113261904Y-27000057D01*
X113261904Y-27000057D02*
X113309523Y-27095295D01*
X113309523Y-27095295D02*
X113309523Y-27190533D01*
X113309523Y-27190533D02*
X113261904Y-27333390D01*
X113261904Y-27333390D02*
X112690476Y-27904819D01*
X112690476Y-27904819D02*
X113309523Y-27904819D01*
X111738095Y-55404819D02*
X111738095Y-54404819D01*
X111738095Y-54881009D02*
X112309523Y-54881009D01*
X112309523Y-55404819D02*
X112309523Y-54404819D01*
X113214285Y-54738152D02*
X113214285Y-55404819D01*
X112976190Y-54357200D02*
X112738095Y-55071485D01*
X112738095Y-55071485D02*
X113357142Y-55071485D01*
X99261905Y-60914819D02*
X99261905Y-59914819D01*
X99261905Y-59914819D02*
X99500000Y-59914819D01*
X99500000Y-59914819D02*
X99642857Y-59962438D01*
X99642857Y-59962438D02*
X99738095Y-60057676D01*
X99738095Y-60057676D02*
X99785714Y-60152914D01*
X99785714Y-60152914D02*
X99833333Y-60343390D01*
X99833333Y-60343390D02*
X99833333Y-60486247D01*
X99833333Y-60486247D02*
X99785714Y-60676723D01*
X99785714Y-60676723D02*
X99738095Y-60771961D01*
X99738095Y-60771961D02*
X99642857Y-60867200D01*
X99642857Y-60867200D02*
X99500000Y-60914819D01*
X99500000Y-60914819D02*
X99261905Y-60914819D01*
X100785714Y-60914819D02*
X100214286Y-60914819D01*
X100500000Y-60914819D02*
X100500000Y-59914819D01*
X100500000Y-59914819D02*
X100404762Y-60057676D01*
X100404762Y-60057676D02*
X100309524Y-60152914D01*
X100309524Y-60152914D02*
X100214286Y-60200533D01*
X85738095Y-54904819D02*
X85738095Y-53904819D01*
X85738095Y-54381009D02*
X86309523Y-54381009D01*
X86309523Y-54904819D02*
X86309523Y-53904819D01*
X86690476Y-53904819D02*
X87309523Y-53904819D01*
X87309523Y-53904819D02*
X86976190Y-54285771D01*
X86976190Y-54285771D02*
X87119047Y-54285771D01*
X87119047Y-54285771D02*
X87214285Y-54333390D01*
X87214285Y-54333390D02*
X87261904Y-54381009D01*
X87261904Y-54381009D02*
X87309523Y-54476247D01*
X87309523Y-54476247D02*
X87309523Y-54714342D01*
X87309523Y-54714342D02*
X87261904Y-54809580D01*
X87261904Y-54809580D02*
X87214285Y-54857200D01*
X87214285Y-54857200D02*
X87119047Y-54904819D01*
X87119047Y-54904819D02*
X86833333Y-54904819D01*
X86833333Y-54904819D02*
X86738095Y-54857200D01*
X86738095Y-54857200D02*
X86690476Y-54809580D01*
X101874819Y-43666666D02*
X101398628Y-43999999D01*
X101874819Y-44238094D02*
X100874819Y-44238094D01*
X100874819Y-44238094D02*
X100874819Y-43857142D01*
X100874819Y-43857142D02*
X100922438Y-43761904D01*
X100922438Y-43761904D02*
X100970057Y-43714285D01*
X100970057Y-43714285D02*
X101065295Y-43666666D01*
X101065295Y-43666666D02*
X101208152Y-43666666D01*
X101208152Y-43666666D02*
X101303390Y-43714285D01*
X101303390Y-43714285D02*
X101351009Y-43761904D01*
X101351009Y-43761904D02*
X101398628Y-43857142D01*
X101398628Y-43857142D02*
X101398628Y-44238094D01*
X101874819Y-42714285D02*
X101874819Y-43285713D01*
X101874819Y-42999999D02*
X100874819Y-42999999D01*
X100874819Y-42999999D02*
X101017676Y-43095237D01*
X101017676Y-43095237D02*
X101112914Y-43190475D01*
X101112914Y-43190475D02*
X101160533Y-43285713D01*
X85238095Y-27404819D02*
X85238095Y-26404819D01*
X85238095Y-26881009D02*
X85809523Y-26881009D01*
X85809523Y-27404819D02*
X85809523Y-26404819D01*
X86809523Y-27404819D02*
X86238095Y-27404819D01*
X86523809Y-27404819D02*
X86523809Y-26404819D01*
X86523809Y-26404819D02*
X86428571Y-26547676D01*
X86428571Y-26547676D02*
X86333333Y-26642914D01*
X86333333Y-26642914D02*
X86238095Y-26690533D01*
%TO.C,J1*%
D12*
X97690000Y-29770000D02*
X97690000Y-28500000D01*
X98960000Y-29770000D02*
X97690000Y-29770000D01*
X101070000Y-27422642D02*
X101070000Y-27110000D01*
X101930000Y-27422642D02*
X101930000Y-27110000D01*
X98530000Y-27340000D02*
X98530000Y-27110000D01*
X99390000Y-27340000D02*
X99390000Y-27110000D01*
X100230000Y-27110000D02*
X100230000Y-24350000D01*
X101070000Y-24350000D02*
X101070000Y-18350000D01*
X101070000Y-18350000D02*
X101930000Y-18350000D01*
X101930000Y-18350000D02*
X101930000Y-24350000D01*
X97580000Y-24350000D02*
X102880000Y-24350000D01*
X102880000Y-27110000D01*
X97580000Y-27110000D01*
X97580000Y-24350000D01*
X98530000Y-18350000D02*
X99390000Y-18350000D01*
X99390000Y-24350000D01*
X98530000Y-24350000D01*
X98530000Y-18350000D01*
G36*
X98530000Y-18350000D02*
G01*
X99390000Y-18350000D01*
X99390000Y-24350000D01*
X98530000Y-24350000D01*
X98530000Y-18350000D01*
G37*
%TO.C,D1*%
X101560000Y-56420000D02*
X101560000Y-56264000D01*
X101560000Y-58736000D02*
X101560000Y-58580000D01*
X98328563Y-56420000D02*
G75*
G02*
X101560000Y-56264484I1671437J-1080000D01*
G01*
X98959039Y-56420000D02*
G75*
G02*
X101040961Y-56420000I1040961J-1080000D01*
G01*
X101040961Y-58580000D02*
G75*
G02*
X98959039Y-58580000I-1040961J1080000D01*
G01*
X101560000Y-58735516D02*
G75*
G02*
X98328563Y-58580000I-1560000J1235516D01*
G01*
%TO.C,R1*%
X99500000Y-40630000D02*
X99500000Y-41580000D01*
X99500000Y-46370000D02*
X99500000Y-45420000D01*
X98580000Y-41580000D02*
X100420000Y-41580000D01*
X100420000Y-45420000D01*
X98580000Y-45420000D01*
X98580000Y-41580000D01*
%TD*%
%LPC*%
D13*
%TO.C,J1*%
X98960000Y-28500000D03*
D14*
X101500000Y-28500000D03*
%TD*%
D15*
%TO.C,H2*%
X112500000Y-30500000D03*
%TD*%
%TO.C,H4*%
X112500000Y-58000000D03*
%TD*%
D16*
%TO.C,D1*%
X101270000Y-57500000D03*
D17*
X98730000Y-57500000D03*
%TD*%
D15*
%TO.C,H3*%
X86500000Y-57500000D03*
%TD*%
D18*
%TO.C,R1*%
X99500000Y-39690000D03*
X99500000Y-47310000D03*
%TD*%
D15*
%TO.C,H1*%
X86000000Y-30000000D03*
%TD*%
%LPD*%
M02*
