%TF.GenerationSoftware,KiCad,Pcbnew,10.0.5*%
%TF.CreationDate,2026-09-09T12:28:53+05:30*%
%TF.ProjectId,clipper_parallel,636c6970-7065-4725-9f70-6172616c6c65,rev?*%
%TF.SameCoordinates,Original*%
%TF.FileFunction,Legend,Top*%
%TF.FilePolarity,Positive*%
%FSLAX46Y46*%
G04 Gerber Fmt 4.6, Leading zero omitted, Abs format (unit mm)*
G04 Created by KiCad (PCBNEW 10.0.5) date 2026-09-09 12:28:53*
%MOMM*%
%LPD*%
G01*
G04 APERTURE LIST*
%ADD10C,0.100000*%
%ADD11C,0.120000*%
G04 APERTURE END LIST*
D10*
X147756265Y-75214856D02*
X147851503Y-75262475D01*
X147851503Y-75262475D02*
X148041979Y-75262475D01*
X148041979Y-75262475D02*
X148137217Y-75214856D01*
X148137217Y-75214856D02*
X148184836Y-75119617D01*
X148184836Y-75119617D02*
X148184836Y-75071998D01*
X148184836Y-75071998D02*
X148137217Y-74976760D01*
X148137217Y-74976760D02*
X148041979Y-74929141D01*
X148041979Y-74929141D02*
X147899122Y-74929141D01*
X147899122Y-74929141D02*
X147803884Y-74881522D01*
X147803884Y-74881522D02*
X147756265Y-74786284D01*
X147756265Y-74786284D02*
X147756265Y-74738665D01*
X147756265Y-74738665D02*
X147803884Y-74643427D01*
X147803884Y-74643427D02*
X147899122Y-74595808D01*
X147899122Y-74595808D02*
X148041979Y-74595808D01*
X148041979Y-74595808D02*
X148137217Y-74643427D01*
X148613408Y-75262475D02*
X148613408Y-74262475D01*
X149041979Y-75262475D02*
X149041979Y-74738665D01*
X149041979Y-74738665D02*
X148994360Y-74643427D01*
X148994360Y-74643427D02*
X148899122Y-74595808D01*
X148899122Y-74595808D02*
X148756265Y-74595808D01*
X148756265Y-74595808D02*
X148661027Y-74643427D01*
X148661027Y-74643427D02*
X148613408Y-74691046D01*
X149946741Y-74595808D02*
X149946741Y-75262475D01*
X149518170Y-74595808D02*
X149518170Y-75119617D01*
X149518170Y-75119617D02*
X149565789Y-75214856D01*
X149565789Y-75214856D02*
X149661027Y-75262475D01*
X149661027Y-75262475D02*
X149803884Y-75262475D01*
X149803884Y-75262475D02*
X149899122Y-75214856D01*
X149899122Y-75214856D02*
X149946741Y-75167236D01*
X150422932Y-74595808D02*
X150422932Y-75262475D01*
X150422932Y-74691046D02*
X150470551Y-74643427D01*
X150470551Y-74643427D02*
X150565789Y-74595808D01*
X150565789Y-74595808D02*
X150708646Y-74595808D01*
X150708646Y-74595808D02*
X150803884Y-74643427D01*
X150803884Y-74643427D02*
X150851503Y-74738665D01*
X150851503Y-74738665D02*
X150851503Y-75262475D01*
X151184837Y-74595808D02*
X151565789Y-74595808D01*
X151327694Y-74262475D02*
X151327694Y-75119617D01*
X151327694Y-75119617D02*
X151375313Y-75214856D01*
X151375313Y-75214856D02*
X151470551Y-75262475D01*
X151470551Y-75262475D02*
X151565789Y-75262475D01*
X148232455Y-76824800D02*
X148137217Y-76872419D01*
X148137217Y-76872419D02*
X147946741Y-76872419D01*
X147946741Y-76872419D02*
X147851503Y-76824800D01*
X147851503Y-76824800D02*
X147803884Y-76777180D01*
X147803884Y-76777180D02*
X147756265Y-76681942D01*
X147756265Y-76681942D02*
X147756265Y-76396228D01*
X147756265Y-76396228D02*
X147803884Y-76300990D01*
X147803884Y-76300990D02*
X147851503Y-76253371D01*
X147851503Y-76253371D02*
X147946741Y-76205752D01*
X147946741Y-76205752D02*
X148137217Y-76205752D01*
X148137217Y-76205752D02*
X148232455Y-76253371D01*
X148803884Y-76872419D02*
X148708646Y-76824800D01*
X148708646Y-76824800D02*
X148661027Y-76729561D01*
X148661027Y-76729561D02*
X148661027Y-75872419D01*
X149184837Y-76872419D02*
X149184837Y-76205752D01*
X149184837Y-75872419D02*
X149137218Y-75920038D01*
X149137218Y-75920038D02*
X149184837Y-75967657D01*
X149184837Y-75967657D02*
X149232456Y-75920038D01*
X149232456Y-75920038D02*
X149184837Y-75872419D01*
X149184837Y-75872419D02*
X149184837Y-75967657D01*
X149661027Y-76205752D02*
X149661027Y-77205752D01*
X149661027Y-76253371D02*
X149756265Y-76205752D01*
X149756265Y-76205752D02*
X149946741Y-76205752D01*
X149946741Y-76205752D02*
X150041979Y-76253371D01*
X150041979Y-76253371D02*
X150089598Y-76300990D01*
X150089598Y-76300990D02*
X150137217Y-76396228D01*
X150137217Y-76396228D02*
X150137217Y-76681942D01*
X150137217Y-76681942D02*
X150089598Y-76777180D01*
X150089598Y-76777180D02*
X150041979Y-76824800D01*
X150041979Y-76824800D02*
X149946741Y-76872419D01*
X149946741Y-76872419D02*
X149756265Y-76872419D01*
X149756265Y-76872419D02*
X149661027Y-76824800D01*
X150565789Y-76205752D02*
X150565789Y-77205752D01*
X150565789Y-76253371D02*
X150661027Y-76205752D01*
X150661027Y-76205752D02*
X150851503Y-76205752D01*
X150851503Y-76205752D02*
X150946741Y-76253371D01*
X150946741Y-76253371D02*
X150994360Y-76300990D01*
X150994360Y-76300990D02*
X151041979Y-76396228D01*
X151041979Y-76396228D02*
X151041979Y-76681942D01*
X151041979Y-76681942D02*
X150994360Y-76777180D01*
X150994360Y-76777180D02*
X150946741Y-76824800D01*
X150946741Y-76824800D02*
X150851503Y-76872419D01*
X150851503Y-76872419D02*
X150661027Y-76872419D01*
X150661027Y-76872419D02*
X150565789Y-76824800D01*
X151851503Y-76824800D02*
X151756265Y-76872419D01*
X151756265Y-76872419D02*
X151565789Y-76872419D01*
X151565789Y-76872419D02*
X151470551Y-76824800D01*
X151470551Y-76824800D02*
X151422932Y-76729561D01*
X151422932Y-76729561D02*
X151422932Y-76348609D01*
X151422932Y-76348609D02*
X151470551Y-76253371D01*
X151470551Y-76253371D02*
X151565789Y-76205752D01*
X151565789Y-76205752D02*
X151756265Y-76205752D01*
X151756265Y-76205752D02*
X151851503Y-76253371D01*
X151851503Y-76253371D02*
X151899122Y-76348609D01*
X151899122Y-76348609D02*
X151899122Y-76443847D01*
X151899122Y-76443847D02*
X151422932Y-76539085D01*
X152327694Y-76872419D02*
X152327694Y-76205752D01*
X152327694Y-76396228D02*
X152375313Y-76300990D01*
X152375313Y-76300990D02*
X152422932Y-76253371D01*
X152422932Y-76253371D02*
X152518170Y-76205752D01*
X152518170Y-76205752D02*
X152613408Y-76205752D01*
X134756265Y-75214856D02*
X134851503Y-75262475D01*
X134851503Y-75262475D02*
X135041979Y-75262475D01*
X135041979Y-75262475D02*
X135137217Y-75214856D01*
X135137217Y-75214856D02*
X135184836Y-75119617D01*
X135184836Y-75119617D02*
X135184836Y-75071998D01*
X135184836Y-75071998D02*
X135137217Y-74976760D01*
X135137217Y-74976760D02*
X135041979Y-74929141D01*
X135041979Y-74929141D02*
X134899122Y-74929141D01*
X134899122Y-74929141D02*
X134803884Y-74881522D01*
X134803884Y-74881522D02*
X134756265Y-74786284D01*
X134756265Y-74786284D02*
X134756265Y-74738665D01*
X134756265Y-74738665D02*
X134803884Y-74643427D01*
X134803884Y-74643427D02*
X134899122Y-74595808D01*
X134899122Y-74595808D02*
X135041979Y-74595808D01*
X135041979Y-74595808D02*
X135137217Y-74643427D01*
X135613408Y-75262475D02*
X135613408Y-74262475D01*
X136041979Y-75262475D02*
X136041979Y-74738665D01*
X136041979Y-74738665D02*
X135994360Y-74643427D01*
X135994360Y-74643427D02*
X135899122Y-74595808D01*
X135899122Y-74595808D02*
X135756265Y-74595808D01*
X135756265Y-74595808D02*
X135661027Y-74643427D01*
X135661027Y-74643427D02*
X135613408Y-74691046D01*
X136946741Y-74595808D02*
X136946741Y-75262475D01*
X136518170Y-74595808D02*
X136518170Y-75119617D01*
X136518170Y-75119617D02*
X136565789Y-75214856D01*
X136565789Y-75214856D02*
X136661027Y-75262475D01*
X136661027Y-75262475D02*
X136803884Y-75262475D01*
X136803884Y-75262475D02*
X136899122Y-75214856D01*
X136899122Y-75214856D02*
X136946741Y-75167236D01*
X137422932Y-74595808D02*
X137422932Y-75262475D01*
X137422932Y-74691046D02*
X137470551Y-74643427D01*
X137470551Y-74643427D02*
X137565789Y-74595808D01*
X137565789Y-74595808D02*
X137708646Y-74595808D01*
X137708646Y-74595808D02*
X137803884Y-74643427D01*
X137803884Y-74643427D02*
X137851503Y-74738665D01*
X137851503Y-74738665D02*
X137851503Y-75262475D01*
X138184837Y-74595808D02*
X138565789Y-74595808D01*
X138327694Y-74262475D02*
X138327694Y-75119617D01*
X138327694Y-75119617D02*
X138375313Y-75214856D01*
X138375313Y-75214856D02*
X138470551Y-75262475D01*
X138470551Y-75262475D02*
X138565789Y-75262475D01*
X135232455Y-76824800D02*
X135137217Y-76872419D01*
X135137217Y-76872419D02*
X134946741Y-76872419D01*
X134946741Y-76872419D02*
X134851503Y-76824800D01*
X134851503Y-76824800D02*
X134803884Y-76777180D01*
X134803884Y-76777180D02*
X134756265Y-76681942D01*
X134756265Y-76681942D02*
X134756265Y-76396228D01*
X134756265Y-76396228D02*
X134803884Y-76300990D01*
X134803884Y-76300990D02*
X134851503Y-76253371D01*
X134851503Y-76253371D02*
X134946741Y-76205752D01*
X134946741Y-76205752D02*
X135137217Y-76205752D01*
X135137217Y-76205752D02*
X135232455Y-76253371D01*
X135803884Y-76872419D02*
X135708646Y-76824800D01*
X135708646Y-76824800D02*
X135661027Y-76729561D01*
X135661027Y-76729561D02*
X135661027Y-75872419D01*
X136184837Y-76872419D02*
X136184837Y-76205752D01*
X136184837Y-75872419D02*
X136137218Y-75920038D01*
X136137218Y-75920038D02*
X136184837Y-75967657D01*
X136184837Y-75967657D02*
X136232456Y-75920038D01*
X136232456Y-75920038D02*
X136184837Y-75872419D01*
X136184837Y-75872419D02*
X136184837Y-75967657D01*
X136661027Y-76205752D02*
X136661027Y-77205752D01*
X136661027Y-76253371D02*
X136756265Y-76205752D01*
X136756265Y-76205752D02*
X136946741Y-76205752D01*
X136946741Y-76205752D02*
X137041979Y-76253371D01*
X137041979Y-76253371D02*
X137089598Y-76300990D01*
X137089598Y-76300990D02*
X137137217Y-76396228D01*
X137137217Y-76396228D02*
X137137217Y-76681942D01*
X137137217Y-76681942D02*
X137089598Y-76777180D01*
X137089598Y-76777180D02*
X137041979Y-76824800D01*
X137041979Y-76824800D02*
X136946741Y-76872419D01*
X136946741Y-76872419D02*
X136756265Y-76872419D01*
X136756265Y-76872419D02*
X136661027Y-76824800D01*
X137565789Y-76205752D02*
X137565789Y-77205752D01*
X137565789Y-76253371D02*
X137661027Y-76205752D01*
X137661027Y-76205752D02*
X137851503Y-76205752D01*
X137851503Y-76205752D02*
X137946741Y-76253371D01*
X137946741Y-76253371D02*
X137994360Y-76300990D01*
X137994360Y-76300990D02*
X138041979Y-76396228D01*
X138041979Y-76396228D02*
X138041979Y-76681942D01*
X138041979Y-76681942D02*
X137994360Y-76777180D01*
X137994360Y-76777180D02*
X137946741Y-76824800D01*
X137946741Y-76824800D02*
X137851503Y-76872419D01*
X137851503Y-76872419D02*
X137661027Y-76872419D01*
X137661027Y-76872419D02*
X137565789Y-76824800D01*
X138851503Y-76824800D02*
X138756265Y-76872419D01*
X138756265Y-76872419D02*
X138565789Y-76872419D01*
X138565789Y-76872419D02*
X138470551Y-76824800D01*
X138470551Y-76824800D02*
X138422932Y-76729561D01*
X138422932Y-76729561D02*
X138422932Y-76348609D01*
X138422932Y-76348609D02*
X138470551Y-76253371D01*
X138470551Y-76253371D02*
X138565789Y-76205752D01*
X138565789Y-76205752D02*
X138756265Y-76205752D01*
X138756265Y-76205752D02*
X138851503Y-76253371D01*
X138851503Y-76253371D02*
X138899122Y-76348609D01*
X138899122Y-76348609D02*
X138899122Y-76443847D01*
X138899122Y-76443847D02*
X138422932Y-76539085D01*
X139327694Y-76872419D02*
X139327694Y-76205752D01*
X139327694Y-76396228D02*
X139375313Y-76300990D01*
X139375313Y-76300990D02*
X139422932Y-76253371D01*
X139422932Y-76253371D02*
X139518170Y-76205752D01*
X139518170Y-76205752D02*
X139613408Y-76205752D01*
X134794247Y-71232455D02*
X133984723Y-71232455D01*
X133984723Y-71232455D02*
X133889485Y-71184836D01*
X133889485Y-71184836D02*
X133841866Y-71137217D01*
X133841866Y-71137217D02*
X133794247Y-71041979D01*
X133794247Y-71041979D02*
X133794247Y-70899122D01*
X133794247Y-70899122D02*
X133841866Y-70803884D01*
X134175200Y-71232455D02*
X134127580Y-71137217D01*
X134127580Y-71137217D02*
X134127580Y-70946741D01*
X134127580Y-70946741D02*
X134175200Y-70851503D01*
X134175200Y-70851503D02*
X134222819Y-70803884D01*
X134222819Y-70803884D02*
X134318057Y-70756265D01*
X134318057Y-70756265D02*
X134603771Y-70756265D01*
X134603771Y-70756265D02*
X134699009Y-70803884D01*
X134699009Y-70803884D02*
X134746628Y-70851503D01*
X134746628Y-70851503D02*
X134794247Y-70946741D01*
X134794247Y-70946741D02*
X134794247Y-71137217D01*
X134794247Y-71137217D02*
X134746628Y-71232455D01*
X134794247Y-71708646D02*
X134127580Y-71708646D01*
X134699009Y-71708646D02*
X134746628Y-71756265D01*
X134746628Y-71756265D02*
X134794247Y-71851503D01*
X134794247Y-71851503D02*
X134794247Y-71994360D01*
X134794247Y-71994360D02*
X134746628Y-72089598D01*
X134746628Y-72089598D02*
X134651390Y-72137217D01*
X134651390Y-72137217D02*
X134127580Y-72137217D01*
X134127580Y-73041979D02*
X135127580Y-73041979D01*
X134175200Y-73041979D02*
X134127580Y-72946741D01*
X134127580Y-72946741D02*
X134127580Y-72756265D01*
X134127580Y-72756265D02*
X134175200Y-72661027D01*
X134175200Y-72661027D02*
X134222819Y-72613408D01*
X134222819Y-72613408D02*
X134318057Y-72565789D01*
X134318057Y-72565789D02*
X134603771Y-72565789D01*
X134603771Y-72565789D02*
X134699009Y-72613408D01*
X134699009Y-72613408D02*
X134746628Y-72661027D01*
X134746628Y-72661027D02*
X134794247Y-72756265D01*
X134794247Y-72756265D02*
X134794247Y-72946741D01*
X134794247Y-72946741D02*
X134746628Y-73041979D01*
X134794247Y-67208646D02*
X134127580Y-67446741D01*
X134127580Y-67446741D02*
X134794247Y-67684836D01*
X134175200Y-68494360D02*
X134127580Y-68399122D01*
X134127580Y-68399122D02*
X134127580Y-68208646D01*
X134127580Y-68208646D02*
X134175200Y-68113408D01*
X134175200Y-68113408D02*
X134222819Y-68065789D01*
X134222819Y-68065789D02*
X134318057Y-68018170D01*
X134318057Y-68018170D02*
X134603771Y-68018170D01*
X134603771Y-68018170D02*
X134699009Y-68065789D01*
X134699009Y-68065789D02*
X134746628Y-68113408D01*
X134746628Y-68113408D02*
X134794247Y-68208646D01*
X134794247Y-68208646D02*
X134794247Y-68399122D01*
X134794247Y-68399122D02*
X134746628Y-68494360D01*
X134175200Y-69351503D02*
X134127580Y-69256265D01*
X134127580Y-69256265D02*
X134127580Y-69065789D01*
X134127580Y-69065789D02*
X134175200Y-68970551D01*
X134175200Y-68970551D02*
X134222819Y-68922932D01*
X134222819Y-68922932D02*
X134318057Y-68875313D01*
X134318057Y-68875313D02*
X134603771Y-68875313D01*
X134603771Y-68875313D02*
X134699009Y-68922932D01*
X134699009Y-68922932D02*
X134746628Y-68970551D01*
X134746628Y-68970551D02*
X134794247Y-69065789D01*
X134794247Y-69065789D02*
X134794247Y-69256265D01*
X134794247Y-69256265D02*
X134746628Y-69351503D01*
D11*
%TO.C,J1*%
X135780000Y-67500000D02*
X135170000Y-67940000D01*
X135170000Y-67060000D01*
X135780000Y-67500000D01*
G36*
X135780000Y-67500000D02*
G01*
X135170000Y-67940000D01*
X135170000Y-67060000D01*
X135780000Y-67500000D01*
G37*
X135780000Y-73330000D02*
X135780000Y-67800000D01*
X143320000Y-73330000D02*
X135780000Y-73330000D01*
X135780000Y-67200000D02*
X135780000Y-65480000D01*
X135780000Y-65480000D02*
X143320000Y-65480000D01*
X143320000Y-65480000D02*
X143320000Y-73330000D01*
%TO.C,V1*%
X142120000Y-74350000D02*
X142120000Y-74920000D01*
X142120000Y-74350000D02*
X144880000Y-74350000D01*
X142120000Y-74920000D02*
X140650000Y-74920000D01*
X142120000Y-76540000D02*
X142120000Y-79650000D01*
X142120000Y-79650000D02*
X144880000Y-79650000D01*
X144880000Y-74920000D02*
X144880000Y-77460000D01*
X144880000Y-79080000D02*
X144880000Y-79650000D01*
%TO.C,J5*%
X144097500Y-73425000D02*
X144097500Y-65575000D01*
X151637500Y-73425000D02*
X144097500Y-73425000D01*
X151637500Y-71705000D02*
X151637500Y-73425000D01*
X144097500Y-65575000D02*
X151637500Y-65575000D01*
X151637500Y-65575000D02*
X151637500Y-71105000D01*
X151637500Y-71405000D02*
X152247500Y-70965000D01*
X152247500Y-71845000D01*
X151637500Y-71405000D01*
G36*
X152247500Y-71845000D02*
G01*
X151637500Y-71405000D01*
X152247500Y-70965000D01*
X152247500Y-71845000D01*
G37*
%TD*%
M02*
