%TF.GenerationSoftware,KiCad,Pcbnew,10.0.5*%
%TF.CreationDate,2026-09-09T12:28:54+05:30*%
%TF.ProjectId,clipper_parallel,636c6970-7065-4725-9f70-6172616c6c65,rev?*%
%TF.SameCoordinates,Original*%
%TF.FileFunction,AssemblyDrawing,Bot*%
%FSLAX46Y46*%
G04 Gerber Fmt 4.6, Leading zero omitted, Abs format (unit mm)*
G04 Created by KiCad (PCBNEW 10.0.5) date 2026-09-09 12:28:54*
%MOMM*%
%LPD*%
G01*
G04 APERTURE LIST*
%ADD10C,0.150000*%
%ADD11C,0.060000*%
%ADD12C,0.100000*%
G04 APERTURE END LIST*
D10*
X149524819Y-69722023D02*
X149048628Y-69388690D01*
X149524819Y-69150595D02*
X148524819Y-69150595D01*
X148524819Y-69150595D02*
X148524819Y-69531547D01*
X148524819Y-69531547D02*
X148572438Y-69626785D01*
X148572438Y-69626785D02*
X148620057Y-69674404D01*
X148620057Y-69674404D02*
X148715295Y-69722023D01*
X148715295Y-69722023D02*
X148858152Y-69722023D01*
X148858152Y-69722023D02*
X148953390Y-69674404D01*
X148953390Y-69674404D02*
X149001009Y-69626785D01*
X149001009Y-69626785D02*
X149048628Y-69531547D01*
X149048628Y-69531547D02*
X149048628Y-69150595D01*
D11*
X150681927Y-69345833D02*
X150491451Y-69212500D01*
X150681927Y-69117262D02*
X150281927Y-69117262D01*
X150281927Y-69117262D02*
X150281927Y-69269643D01*
X150281927Y-69269643D02*
X150300975Y-69307738D01*
X150300975Y-69307738D02*
X150320022Y-69326785D01*
X150320022Y-69326785D02*
X150358118Y-69345833D01*
X150358118Y-69345833D02*
X150415260Y-69345833D01*
X150415260Y-69345833D02*
X150453356Y-69326785D01*
X150453356Y-69326785D02*
X150472403Y-69307738D01*
X150472403Y-69307738D02*
X150491451Y-69269643D01*
X150491451Y-69269643D02*
X150491451Y-69117262D01*
X150281927Y-69479166D02*
X150281927Y-69726785D01*
X150281927Y-69726785D02*
X150434308Y-69593452D01*
X150434308Y-69593452D02*
X150434308Y-69650595D01*
X150434308Y-69650595D02*
X150453356Y-69688690D01*
X150453356Y-69688690D02*
X150472403Y-69707738D01*
X150472403Y-69707738D02*
X150510499Y-69726785D01*
X150510499Y-69726785D02*
X150605737Y-69726785D01*
X150605737Y-69726785D02*
X150643832Y-69707738D01*
X150643832Y-69707738D02*
X150662880Y-69688690D01*
X150662880Y-69688690D02*
X150681927Y-69650595D01*
X150681927Y-69650595D02*
X150681927Y-69536309D01*
X150681927Y-69536309D02*
X150662880Y-69498214D01*
X150662880Y-69498214D02*
X150643832Y-69479166D01*
D10*
X146784819Y-69013095D02*
X145784819Y-69013095D01*
X145784819Y-69013095D02*
X145784819Y-69251190D01*
X145784819Y-69251190D02*
X145832438Y-69394047D01*
X145832438Y-69394047D02*
X145927676Y-69489285D01*
X145927676Y-69489285D02*
X146022914Y-69536904D01*
X146022914Y-69536904D02*
X146213390Y-69584523D01*
X146213390Y-69584523D02*
X146356247Y-69584523D01*
X146356247Y-69584523D02*
X146546723Y-69536904D01*
X146546723Y-69536904D02*
X146641961Y-69489285D01*
X146641961Y-69489285D02*
X146737200Y-69394047D01*
X146737200Y-69394047D02*
X146784819Y-69251190D01*
X146784819Y-69251190D02*
X146784819Y-69013095D01*
X143954819Y-68536905D02*
X142954819Y-68536905D01*
X142954819Y-68536905D02*
X142954819Y-68775000D01*
X142954819Y-68775000D02*
X143002438Y-68917857D01*
X143002438Y-68917857D02*
X143097676Y-69013095D01*
X143097676Y-69013095D02*
X143192914Y-69060714D01*
X143192914Y-69060714D02*
X143383390Y-69108333D01*
X143383390Y-69108333D02*
X143526247Y-69108333D01*
X143526247Y-69108333D02*
X143716723Y-69060714D01*
X143716723Y-69060714D02*
X143811961Y-69013095D01*
X143811961Y-69013095D02*
X143907200Y-68917857D01*
X143907200Y-68917857D02*
X143954819Y-68775000D01*
X143954819Y-68775000D02*
X143954819Y-68536905D01*
X142954819Y-69441667D02*
X142954819Y-70060714D01*
X142954819Y-70060714D02*
X143335771Y-69727381D01*
X143335771Y-69727381D02*
X143335771Y-69870238D01*
X143335771Y-69870238D02*
X143383390Y-69965476D01*
X143383390Y-69965476D02*
X143431009Y-70013095D01*
X143431009Y-70013095D02*
X143526247Y-70060714D01*
X143526247Y-70060714D02*
X143764342Y-70060714D01*
X143764342Y-70060714D02*
X143859580Y-70013095D01*
X143859580Y-70013095D02*
X143907200Y-69965476D01*
X143907200Y-69965476D02*
X143954819Y-69870238D01*
X143954819Y-69870238D02*
X143954819Y-69584524D01*
X143954819Y-69584524D02*
X143907200Y-69489286D01*
X143907200Y-69489286D02*
X143859580Y-69441667D01*
%TO.C,R3*%
D12*
X150087500Y-68612500D02*
X150912500Y-68612500D01*
X150912500Y-70212500D01*
X150087500Y-70212500D01*
X150087500Y-68612500D01*
%TO.C,D3*%
X142600000Y-66675000D02*
X145300000Y-66675000D01*
X145300000Y-66675000D02*
X145300000Y-71875000D01*
X141700000Y-67575000D02*
X142600000Y-66675000D01*
X141700000Y-71875000D02*
X141700000Y-67575000D01*
X145300000Y-71875000D02*
X141700000Y-71875000D01*
%TD*%
M02*
