%TF.GenerationSoftware,KiCad,Pcbnew,10.0.5*%
%TF.CreationDate,2026-09-09T12:28:53+05:30*%
%TF.ProjectId,clipper_parallel,636c6970-7065-4725-9f70-6172616c6c65,rev?*%
%TF.SameCoordinates,Original*%
%TF.FileFunction,Legend,Bot*%
%TF.FilePolarity,Positive*%
%FSLAX46Y46*%
G04 Gerber Fmt 4.6, Leading zero omitted, Abs format (unit mm)*
G04 Created by KiCad (PCBNEW 10.0.5) date 2026-09-09 12:28:53*
%MOMM*%
%LPD*%
G01*
G04 APERTURE LIST*
%ADD10C,0.150000*%
%ADD11C,0.120000*%
G04 APERTURE END LIST*
D10*
X152384819Y-69245833D02*
X151908628Y-68912500D01*
X152384819Y-68674405D02*
X151384819Y-68674405D01*
X151384819Y-68674405D02*
X151384819Y-69055357D01*
X151384819Y-69055357D02*
X151432438Y-69150595D01*
X151432438Y-69150595D02*
X151480057Y-69198214D01*
X151480057Y-69198214D02*
X151575295Y-69245833D01*
X151575295Y-69245833D02*
X151718152Y-69245833D01*
X151718152Y-69245833D02*
X151813390Y-69198214D01*
X151813390Y-69198214D02*
X151861009Y-69150595D01*
X151861009Y-69150595D02*
X151908628Y-69055357D01*
X151908628Y-69055357D02*
X151908628Y-68674405D01*
X151384819Y-69579167D02*
X151384819Y-70198214D01*
X151384819Y-70198214D02*
X151765771Y-69864881D01*
X151765771Y-69864881D02*
X151765771Y-70007738D01*
X151765771Y-70007738D02*
X151813390Y-70102976D01*
X151813390Y-70102976D02*
X151861009Y-70150595D01*
X151861009Y-70150595D02*
X151956247Y-70198214D01*
X151956247Y-70198214D02*
X152194342Y-70198214D01*
X152194342Y-70198214D02*
X152289580Y-70150595D01*
X152289580Y-70150595D02*
X152337200Y-70102976D01*
X152337200Y-70102976D02*
X152384819Y-70007738D01*
X152384819Y-70007738D02*
X152384819Y-69722024D01*
X152384819Y-69722024D02*
X152337200Y-69626786D01*
X152337200Y-69626786D02*
X152289580Y-69579167D01*
%TO.C,R3*%
D11*
X151022500Y-69667224D02*
X151022500Y-69157776D01*
X149977500Y-69667224D02*
X149977500Y-69157776D01*
%TO.C,D3*%
X141365000Y-65815000D02*
X145635000Y-65815000D01*
X145635000Y-65815000D02*
X145635000Y-71875000D01*
X141365000Y-71875000D02*
X141365000Y-65815000D01*
%TD*%
M02*
