%TF.GenerationSoftware,KiCad,Pcbnew,10.0.5*%
%TF.CreationDate,2026-09-09T12:28:54+05:30*%
%TF.ProjectId,clipper_parallel,636c6970-7065-4725-9f70-6172616c6c65,rev?*%
%TF.SameCoordinates,Original*%
%TF.FileFunction,AssemblyDrawing,Top*%
%FSLAX46Y46*%
G04 Gerber Fmt 4.6, Leading zero omitted, Abs format (unit mm)*
G04 Created by KiCad (PCBNEW 10.0.5) date 2026-09-09 12:28:54*
%MOMM*%
%LPD*%
G01*
G04 APERTURE LIST*
%ADD10C,0.150000*%
%ADD11C,0.100000*%
G04 APERTURE END LIST*
D10*
X136004819Y-69738333D02*
X136719104Y-69738333D01*
X136719104Y-69738333D02*
X136861961Y-69785952D01*
X136861961Y-69785952D02*
X136957200Y-69881190D01*
X136957200Y-69881190D02*
X137004819Y-70024047D01*
X137004819Y-70024047D02*
X137004819Y-70119285D01*
X137004819Y-68738333D02*
X137004819Y-69309761D01*
X137004819Y-69024047D02*
X136004819Y-69024047D01*
X136004819Y-69024047D02*
X136147676Y-69119285D01*
X136147676Y-69119285D02*
X136242914Y-69214523D01*
X136242914Y-69214523D02*
X136290533Y-69309761D01*
X142954819Y-77809523D02*
X143954819Y-77476190D01*
X143954819Y-77476190D02*
X142954819Y-77142857D01*
X143954819Y-76285714D02*
X143954819Y-76857142D01*
X143954819Y-76571428D02*
X142954819Y-76571428D01*
X142954819Y-76571428D02*
X143097676Y-76666666D01*
X143097676Y-76666666D02*
X143192914Y-76761904D01*
X143192914Y-76761904D02*
X143240533Y-76857142D01*
X150322319Y-69833333D02*
X151036604Y-69833333D01*
X151036604Y-69833333D02*
X151179461Y-69880952D01*
X151179461Y-69880952D02*
X151274700Y-69976190D01*
X151274700Y-69976190D02*
X151322319Y-70119047D01*
X151322319Y-70119047D02*
X151322319Y-70214285D01*
X150322319Y-68880952D02*
X150322319Y-69357142D01*
X150322319Y-69357142D02*
X150798509Y-69404761D01*
X150798509Y-69404761D02*
X150750890Y-69357142D01*
X150750890Y-69357142D02*
X150703271Y-69261904D01*
X150703271Y-69261904D02*
X150703271Y-69023809D01*
X150703271Y-69023809D02*
X150750890Y-68928571D01*
X150750890Y-68928571D02*
X150798509Y-68880952D01*
X150798509Y-68880952D02*
X150893747Y-68833333D01*
X150893747Y-68833333D02*
X151131842Y-68833333D01*
X151131842Y-68833333D02*
X151227080Y-68880952D01*
X151227080Y-68880952D02*
X151274700Y-68928571D01*
X151274700Y-68928571D02*
X151322319Y-69023809D01*
X151322319Y-69023809D02*
X151322319Y-69261904D01*
X151322319Y-69261904D02*
X151274700Y-69357142D01*
X151274700Y-69357142D02*
X151227080Y-69404761D01*
%TO.C,J1*%
D11*
X141000000Y-71310000D02*
G75*
G02*
X138000000Y-71310000I-1500000J0D01*
G01*
X138000000Y-71310000D02*
G75*
G02*
X141000000Y-71310000I1500000J0D01*
G01*
X141000000Y-67500000D02*
G75*
G02*
X138000000Y-67500000I-1500000J0D01*
G01*
X138000000Y-67500000D02*
G75*
G02*
X141000000Y-67500000I1500000J0D01*
G01*
X135900000Y-73210000D02*
X135900000Y-67425000D01*
X143200000Y-73210000D02*
X135900000Y-73210000D01*
X140455000Y-72448000D02*
X138362000Y-70355000D01*
X140638000Y-72265000D02*
X138545000Y-70172000D01*
X140455000Y-68638000D02*
X138362000Y-66545000D01*
X140638000Y-68455000D02*
X138545000Y-66362000D01*
X135900000Y-67425000D02*
X137725000Y-65600000D01*
X137725000Y-65600000D02*
X143200000Y-65600000D01*
X143200000Y-65600000D02*
X143200000Y-73210000D01*
%TO.C,V1*%
X140960000Y-75410000D02*
X140960000Y-76050000D01*
X140960000Y-76050000D02*
X142230000Y-76050000D01*
X142230000Y-75410000D02*
X140960000Y-75410000D01*
X142230000Y-75410000D02*
X143180000Y-74460000D01*
X142230000Y-79540000D02*
X142230000Y-75410000D01*
X143180000Y-74460000D02*
X144770000Y-74460000D01*
X144770000Y-74460000D02*
X144770000Y-79540000D01*
X144770000Y-77950000D02*
X146040000Y-77950000D01*
X144770000Y-79540000D02*
X142230000Y-79540000D01*
X146040000Y-77950000D02*
X146040000Y-78590000D01*
X146040000Y-78590000D02*
X144770000Y-78590000D01*
%TO.C,J5*%
X144217500Y-73305000D02*
X144217500Y-65695000D01*
X149692500Y-73305000D02*
X144217500Y-73305000D01*
X151517500Y-71480000D02*
X149692500Y-73305000D01*
X146779500Y-70450000D02*
X148872500Y-72543000D01*
X146962500Y-70267000D02*
X149055500Y-72360000D01*
X146779500Y-66640000D02*
X148872500Y-68733000D01*
X146962500Y-66457000D02*
X149055500Y-68550000D01*
X144217500Y-65695000D02*
X151517500Y-65695000D01*
X151517500Y-65695000D02*
X151517500Y-71480000D01*
X149417500Y-71405000D02*
G75*
G02*
X146417500Y-71405000I-1500000J0D01*
G01*
X146417500Y-71405000D02*
G75*
G02*
X149417500Y-71405000I1500000J0D01*
G01*
X149417500Y-67595000D02*
G75*
G02*
X146417500Y-67595000I-1500000J0D01*
G01*
X146417500Y-67595000D02*
G75*
G02*
X149417500Y-67595000I1500000J0D01*
G01*
%TD*%
M02*
