%TF.GenerationSoftware,KiCad,Pcbnew,10.0.5*%
%TF.CreationDate,2026-08-28T01:33:28+05:30*%
%TF.ProjectId,Bridge_Rectifier,42726964-6765-45f5-9265-637469666965,rev?*%
%TF.SameCoordinates,Original*%
%TF.FileFunction,Copper,L1,Top*%
%TF.FilePolarity,Positive*%
%FSLAX46Y46*%
G04 Gerber Fmt 4.6, Leading zero omitted, Abs format (unit mm)*
G04 Created by KiCad (PCBNEW 10.0.5) date 2026-08-28 01:33:28*
%MOMM*%
%LPD*%
G01*
G04 APERTURE LIST*
G04 Aperture macros list*
%AMRoundRect*
0 Rectangle with rounded corners*
0 $1 Rounding radius*
0 $2 $3 $4 $5 $6 $7 $8 $9 X,Y pos of 4 corners*
0 Add a 4 corners polygon primitive as box body*
4,1,4,$2,$3,$4,$5,$6,$7,$8,$9,$2,$3,0*
0 Add four circle primitives for the rounded corners*
1,1,$1+$1,$2,$3*
1,1,$1+$1,$4,$5*
1,1,$1+$1,$6,$7*
1,1,$1+$1,$8,$9*
0 Add four rect primitives between the rounded corners*
20,1,$1+$1,$2,$3,$4,$5,0*
20,1,$1+$1,$4,$5,$6,$7,0*
20,1,$1+$1,$6,$7,$8,$9,0*
20,1,$1+$1,$8,$9,$2,$3,0*%
G04 Aperture macros list end*
%TA.AperFunction,SMDPad,CuDef*%
%ADD10RoundRect,0.312500X0.312500X0.962500X-0.312500X0.962500X-0.312500X-0.962500X0.312500X-0.962500X0*%
%TD*%
%TA.AperFunction,ComponentPad*%
%ADD11RoundRect,0.250000X-1.050000X1.050000X-1.050000X-1.050000X1.050000X-1.050000X1.050000X1.050000X0*%
%TD*%
%TA.AperFunction,ComponentPad*%
%ADD12C,2.600000*%
%TD*%
%TA.AperFunction,ViaPad*%
%ADD13C,0.600000*%
%TD*%
%TA.AperFunction,Conductor*%
%ADD14C,0.200000*%
%TD*%
G04 APERTURE END LIST*
D10*
%TO.P,T1,1,AA_1*%
%TO.N,Net-(J1-Pin_1)*%
X83865000Y-76945000D03*
%TO.P,T1,2,AB_2*%
%TO.N,Net-(J1-Pin_2)*%
X88865000Y-76945000D03*
%TO.P,T1,3,SA_3*%
%TO.N,Net-(D2-A)*%
X88865000Y-89595000D03*
%TO.P,T1,4,SB_4*%
%TO.N,Net-(D1-A)*%
X83865000Y-89595000D03*
%TD*%
D11*
%TO.P,J1,1,Pin_1_1*%
%TO.N,Net-(J1-Pin_1)*%
X75500000Y-79500000D03*
D12*
%TO.P,J1,2,Pin_2_2*%
%TO.N,Net-(J1-Pin_2)*%
X75500000Y-84500000D03*
%TD*%
D13*
%TO.N,Net-(D2-A)*%
X80000000Y-90000000D03*
X91500000Y-86000000D03*
%TO.N,Net-(D1-A)*%
X80000000Y-72900000D03*
X80500000Y-75500000D03*
%TD*%
%TO.N,Net-(J1-Pin_1)*%
D14*
X75500000Y-79500000D02*
X81310000Y-79500000D01*
X81310000Y-79500000D02*
X83865000Y-76945000D01*
%TO.N,Net-(J1-Pin_2)*%
X90130000Y-82165685D02*
X90130000Y-78210000D01*
X75500000Y-84500000D02*
X77600000Y-82400000D01*
X77600000Y-82400000D02*
X89895686Y-82400000D01*
X89895686Y-82400000D02*
X90130000Y-82165685D01*
X90130000Y-78210000D02*
X88865000Y-76945000D01*
%TO.N,Net-(D2-A)*%
X89730000Y-84540000D02*
X91190000Y-86000000D01*
X88865000Y-89595000D02*
X91500000Y-86960000D01*
X85460000Y-84540000D02*
X80000000Y-90000000D01*
X89730000Y-84540000D02*
X85460000Y-84540000D01*
X91500000Y-86960000D02*
X91500000Y-86000000D01*
X91190000Y-86000000D02*
X91500000Y-86000000D01*
%TO.N,Net-(D1-A)*%
X89431206Y-91170000D02*
X85440000Y-91170000D01*
X92100000Y-88501206D02*
X89431206Y-91170000D01*
X86961206Y-72900000D02*
X92100000Y-78038794D01*
X80630000Y-75370000D02*
X80500000Y-75500000D01*
X79337258Y-90600000D02*
X73900000Y-85162742D01*
X92100000Y-78038794D02*
X92100000Y-88501206D01*
X73900000Y-83837258D02*
X75737258Y-82000000D01*
X82860000Y-90600000D02*
X79337258Y-90600000D01*
X80000000Y-72900000D02*
X86961206Y-72900000D01*
X84431206Y-75370000D02*
X80630000Y-75370000D01*
X87000000Y-77938794D02*
X84431206Y-75370000D01*
X75737258Y-82000000D02*
X87000000Y-82000000D01*
X87000000Y-82000000D02*
X87000000Y-77938794D01*
X83865000Y-89595000D02*
X82860000Y-90600000D01*
X73900000Y-85162742D02*
X73900000Y-83837258D01*
X85440000Y-91170000D02*
X83865000Y-89595000D01*
%TD*%
M02*
