%TF.GenerationSoftware,KiCad,Pcbnew,10.0.5*%
%TF.CreationDate,2026-08-28T01:33:28+05:30*%
%TF.ProjectId,Bridge_Rectifier,42726964-6765-45f5-9265-637469666965,rev?*%
%TF.SameCoordinates,Original*%
%TF.FileFunction,Legend,Bot*%
%TF.FilePolarity,Positive*%
%FSLAX46Y46*%
G04 Gerber Fmt 4.6, Leading zero omitted, Abs format (unit mm)*
G04 Created by KiCad (PCBNEW 10.0.5) date 2026-08-28 01:33:28*
%MOMM*%
%LPD*%
G01*
G04 APERTURE LIST*
%ADD10C,0.150000*%
%ADD11C,0.120000*%
G04 APERTURE END LIST*
D10*
X84579166Y-80384819D02*
X84912499Y-79908628D01*
X85150594Y-80384819D02*
X85150594Y-79384819D01*
X85150594Y-79384819D02*
X84769642Y-79384819D01*
X84769642Y-79384819D02*
X84674404Y-79432438D01*
X84674404Y-79432438D02*
X84626785Y-79480057D01*
X84626785Y-79480057D02*
X84579166Y-79575295D01*
X84579166Y-79575295D02*
X84579166Y-79718152D01*
X84579166Y-79718152D02*
X84626785Y-79813390D01*
X84626785Y-79813390D02*
X84674404Y-79861009D01*
X84674404Y-79861009D02*
X84769642Y-79908628D01*
X84769642Y-79908628D02*
X85150594Y-79908628D01*
X83626785Y-80384819D02*
X84198213Y-80384819D01*
X83912499Y-80384819D02*
X83912499Y-79384819D01*
X83912499Y-79384819D02*
X84007737Y-79527676D01*
X84007737Y-79527676D02*
X84102975Y-79622914D01*
X84102975Y-79622914D02*
X84198213Y-79670533D01*
%TO.C,D1*%
D11*
X75877500Y-73540000D02*
X78562500Y-73540000D01*
X75877500Y-75460000D02*
X75877500Y-73540000D01*
X78562500Y-75460000D02*
X75877500Y-75460000D01*
%TO.C,R1*%
X84157776Y-77977500D02*
X84667224Y-77977500D01*
X84157776Y-79022500D02*
X84667224Y-79022500D01*
%TO.C,D2*%
X70895000Y-88540000D02*
X73580000Y-88540000D01*
X70895000Y-90460000D02*
X70895000Y-88540000D01*
X73580000Y-90460000D02*
X70895000Y-90460000D01*
%TO.C,D3*%
X71500000Y-73602500D02*
X74185000Y-73602500D01*
X74185000Y-73602500D02*
X74185000Y-75522500D01*
X74185000Y-75522500D02*
X71500000Y-75522500D01*
%TO.C,J2*%
X85255000Y-81535000D02*
X85255000Y-83535000D01*
X85255000Y-85005000D02*
X85255000Y-85380000D01*
X87475000Y-81160000D02*
X85255000Y-81160000D01*
X87475000Y-81160000D02*
X87475000Y-81535000D01*
X87475000Y-81535000D02*
X88655000Y-81535000D01*
X87475000Y-83005000D02*
X87475000Y-85380000D01*
X87475000Y-85380000D02*
X85255000Y-85380000D01*
%TO.C,D4*%
X76062500Y-88540000D02*
X78747500Y-88540000D01*
X78747500Y-88540000D02*
X78747500Y-90460000D01*
X78747500Y-90460000D02*
X76062500Y-90460000D01*
%TD*%
M02*
