%TF.GenerationSoftware,KiCad,Pcbnew,10.0.5*%
%TF.CreationDate,2026-08-28T01:33:28+05:30*%
%TF.ProjectId,Bridge_Rectifier,42726964-6765-45f5-9265-637469666965,rev?*%
%TF.SameCoordinates,Original*%
%TF.FileFunction,Legend,Top*%
%TF.FilePolarity,Positive*%
%FSLAX46Y46*%
G04 Gerber Fmt 4.6, Leading zero omitted, Abs format (unit mm)*
G04 Created by KiCad (PCBNEW 10.0.5) date 2026-08-28 01:33:28*
%MOMM*%
%LPD*%
G01*
G04 APERTURE LIST*
%ADD10C,0.120000*%
G04 APERTURE END LIST*
%TO.C,T1*%
D10*
X82255000Y-77910000D02*
X82955000Y-77910000D01*
X82255000Y-88630000D02*
X82255000Y-77910000D01*
X82955000Y-88630000D02*
X82255000Y-88630000D01*
X85365000Y-88880000D02*
X85365000Y-88630000D01*
X86115000Y-77660000D02*
X86115000Y-77910000D01*
X86615000Y-77660000D02*
X86115000Y-77660000D01*
X86615000Y-77910000D02*
X86615000Y-77660000D01*
X87615000Y-88630000D02*
X87615000Y-88880000D01*
X87615000Y-88880000D02*
X85365000Y-88880000D01*
X87955000Y-77910000D02*
X84775000Y-77910000D01*
X87955000Y-88630000D02*
X84775000Y-88630000D01*
X89775000Y-88630000D02*
X90475000Y-88630000D01*
X90475000Y-77910000D02*
X89775000Y-77910000D01*
X90475000Y-88630000D02*
X90475000Y-77910000D01*
X82955000Y-76945400D02*
X82625000Y-77185400D01*
X82625000Y-76705400D01*
X82955000Y-76945400D01*
G36*
X82955000Y-76945400D02*
G01*
X82625000Y-77185400D01*
X82625000Y-76705400D01*
X82955000Y-76945400D01*
G37*
%TO.C,J1*%
X70780000Y-76880000D02*
X80820000Y-76880000D01*
X70780000Y-79200000D02*
X70780000Y-76880000D01*
X70780000Y-87120000D02*
X70780000Y-79800000D01*
X71400000Y-76880000D02*
X71400000Y-87120000D01*
X72900000Y-76880000D02*
X72900000Y-87120000D01*
X77800000Y-76880000D02*
X77800000Y-87120000D01*
X80820000Y-76880000D02*
X80820000Y-87120000D01*
X80820000Y-87120000D02*
X70780000Y-87120000D01*
X70780000Y-79500000D02*
X70170000Y-79940000D01*
X70170000Y-79060000D01*
X70780000Y-79500000D01*
G36*
X70780000Y-79500000D02*
G01*
X70170000Y-79940000D01*
X70170000Y-79060000D01*
X70780000Y-79500000D01*
G37*
%TD*%
M02*
