%TF.GenerationSoftware,KiCad,Pcbnew,10.0.5*%
%TF.CreationDate,2026-08-28T01:33:29+05:30*%
%TF.ProjectId,Bridge_Rectifier,42726964-6765-45f5-9265-637469666965,rev?*%
%TF.SameCoordinates,Original*%
%TF.FileFunction,AssemblyDrawing,Bot*%
%FSLAX46Y46*%
G04 Gerber Fmt 4.6, Leading zero omitted, Abs format (unit mm)*
G04 Created by KiCad (PCBNEW 10.0.5) date 2026-08-28 01:33:29*
%MOMM*%
%LPD*%
G01*
G04 APERTURE LIST*
%ADD10C,0.080000*%
%ADD11C,0.150000*%
%ADD12C,0.060000*%
%ADD13C,0.100000*%
G04 APERTURE END LIST*
D10*
X77931547Y-74727149D02*
X77931547Y-74227149D01*
X77931547Y-74227149D02*
X77812499Y-74227149D01*
X77812499Y-74227149D02*
X77741071Y-74250959D01*
X77741071Y-74250959D02*
X77693452Y-74298578D01*
X77693452Y-74298578D02*
X77669642Y-74346197D01*
X77669642Y-74346197D02*
X77645833Y-74441435D01*
X77645833Y-74441435D02*
X77645833Y-74512863D01*
X77645833Y-74512863D02*
X77669642Y-74608101D01*
X77669642Y-74608101D02*
X77693452Y-74655720D01*
X77693452Y-74655720D02*
X77741071Y-74703340D01*
X77741071Y-74703340D02*
X77812499Y-74727149D01*
X77812499Y-74727149D02*
X77931547Y-74727149D01*
X77169642Y-74727149D02*
X77455356Y-74727149D01*
X77312499Y-74727149D02*
X77312499Y-74227149D01*
X77312499Y-74227149D02*
X77360118Y-74298578D01*
X77360118Y-74298578D02*
X77407737Y-74346197D01*
X77407737Y-74346197D02*
X77455356Y-74370006D01*
D11*
X84102976Y-77524819D02*
X84436309Y-77048628D01*
X84674404Y-77524819D02*
X84674404Y-76524819D01*
X84674404Y-76524819D02*
X84293452Y-76524819D01*
X84293452Y-76524819D02*
X84198214Y-76572438D01*
X84198214Y-76572438D02*
X84150595Y-76620057D01*
X84150595Y-76620057D02*
X84102976Y-76715295D01*
X84102976Y-76715295D02*
X84102976Y-76858152D01*
X84102976Y-76858152D02*
X84150595Y-76953390D01*
X84150595Y-76953390D02*
X84198214Y-77001009D01*
X84198214Y-77001009D02*
X84293452Y-77048628D01*
X84293452Y-77048628D02*
X84674404Y-77048628D01*
D12*
X84479166Y-78681927D02*
X84612499Y-78491451D01*
X84707737Y-78681927D02*
X84707737Y-78281927D01*
X84707737Y-78281927D02*
X84555356Y-78281927D01*
X84555356Y-78281927D02*
X84517261Y-78300975D01*
X84517261Y-78300975D02*
X84498214Y-78320022D01*
X84498214Y-78320022D02*
X84479166Y-78358118D01*
X84479166Y-78358118D02*
X84479166Y-78415260D01*
X84479166Y-78415260D02*
X84498214Y-78453356D01*
X84498214Y-78453356D02*
X84517261Y-78472403D01*
X84517261Y-78472403D02*
X84555356Y-78491451D01*
X84555356Y-78491451D02*
X84707737Y-78491451D01*
X84098214Y-78681927D02*
X84326785Y-78681927D01*
X84212499Y-78681927D02*
X84212499Y-78281927D01*
X84212499Y-78281927D02*
X84250595Y-78339070D01*
X84250595Y-78339070D02*
X84288690Y-78377165D01*
X84288690Y-78377165D02*
X84326785Y-78396213D01*
D10*
X72949047Y-89727149D02*
X72949047Y-89227149D01*
X72949047Y-89227149D02*
X72829999Y-89227149D01*
X72829999Y-89227149D02*
X72758571Y-89250959D01*
X72758571Y-89250959D02*
X72710952Y-89298578D01*
X72710952Y-89298578D02*
X72687142Y-89346197D01*
X72687142Y-89346197D02*
X72663333Y-89441435D01*
X72663333Y-89441435D02*
X72663333Y-89512863D01*
X72663333Y-89512863D02*
X72687142Y-89608101D01*
X72687142Y-89608101D02*
X72710952Y-89655720D01*
X72710952Y-89655720D02*
X72758571Y-89703340D01*
X72758571Y-89703340D02*
X72829999Y-89727149D01*
X72829999Y-89727149D02*
X72949047Y-89727149D01*
X72472856Y-89274768D02*
X72449047Y-89250959D01*
X72449047Y-89250959D02*
X72401428Y-89227149D01*
X72401428Y-89227149D02*
X72282380Y-89227149D01*
X72282380Y-89227149D02*
X72234761Y-89250959D01*
X72234761Y-89250959D02*
X72210952Y-89274768D01*
X72210952Y-89274768D02*
X72187142Y-89322387D01*
X72187142Y-89322387D02*
X72187142Y-89370006D01*
X72187142Y-89370006D02*
X72210952Y-89441435D01*
X72210952Y-89441435D02*
X72496666Y-89727149D01*
X72496666Y-89727149D02*
X72187142Y-89727149D01*
D11*
X85819819Y-82936666D02*
X86534104Y-82936666D01*
X86534104Y-82936666D02*
X86676961Y-82889047D01*
X86676961Y-82889047D02*
X86772200Y-82793809D01*
X86772200Y-82793809D02*
X86819819Y-82650952D01*
X86819819Y-82650952D02*
X86819819Y-82555714D01*
X85915057Y-83365238D02*
X85867438Y-83412857D01*
X85867438Y-83412857D02*
X85819819Y-83508095D01*
X85819819Y-83508095D02*
X85819819Y-83746190D01*
X85819819Y-83746190D02*
X85867438Y-83841428D01*
X85867438Y-83841428D02*
X85915057Y-83889047D01*
X85915057Y-83889047D02*
X86010295Y-83936666D01*
X86010295Y-83936666D02*
X86105533Y-83936666D01*
X86105533Y-83936666D02*
X86248390Y-83889047D01*
X86248390Y-83889047D02*
X86819819Y-83317619D01*
X86819819Y-83317619D02*
X86819819Y-83936666D01*
D10*
X77431547Y-89727149D02*
X77431547Y-89227149D01*
X77431547Y-89227149D02*
X77312499Y-89227149D01*
X77312499Y-89227149D02*
X77241071Y-89250959D01*
X77241071Y-89250959D02*
X77193452Y-89298578D01*
X77193452Y-89298578D02*
X77169642Y-89346197D01*
X77169642Y-89346197D02*
X77145833Y-89441435D01*
X77145833Y-89441435D02*
X77145833Y-89512863D01*
X77145833Y-89512863D02*
X77169642Y-89608101D01*
X77169642Y-89608101D02*
X77193452Y-89655720D01*
X77193452Y-89655720D02*
X77241071Y-89703340D01*
X77241071Y-89703340D02*
X77312499Y-89727149D01*
X77312499Y-89727149D02*
X77431547Y-89727149D01*
X76717261Y-89393816D02*
X76717261Y-89727149D01*
X76836309Y-89203340D02*
X76955356Y-89560482D01*
X76955356Y-89560482D02*
X76645833Y-89560482D01*
%TO.C,D1*%
D13*
X76562500Y-73900000D02*
X78562500Y-73900000D01*
X76562500Y-74800000D02*
X76562500Y-73900000D01*
X76862500Y-75100000D02*
X76562500Y-74800000D01*
X78562500Y-73900000D02*
X78562500Y-75100000D01*
X78562500Y-75100000D02*
X76862500Y-75100000D01*
%TO.C,R1*%
X83612500Y-78087500D02*
X85212500Y-78087500D01*
X85212500Y-78912500D01*
X83612500Y-78912500D01*
X83612500Y-78087500D01*
%TO.C,D2*%
X71580000Y-88900000D02*
X73580000Y-88900000D01*
X71580000Y-89800000D02*
X71580000Y-88900000D01*
X71880000Y-90100000D02*
X71580000Y-89800000D01*
X73580000Y-88900000D02*
X73580000Y-90100000D01*
X73580000Y-90100000D02*
X71880000Y-90100000D01*
%TO.C,D3*%
X71500000Y-73962500D02*
X73200000Y-73962500D01*
X71500000Y-75162500D02*
X71500000Y-73962500D01*
X73200000Y-73962500D02*
X73500000Y-74262500D01*
X73500000Y-74262500D02*
X73500000Y-75162500D01*
X73500000Y-75162500D02*
X71500000Y-75162500D01*
%TO.C,J2*%
X84265000Y-84020000D02*
X84265000Y-84520000D01*
X84265000Y-84520000D02*
X85365000Y-84520000D01*
X85365000Y-81270000D02*
X85365000Y-85270000D01*
X85365000Y-84020000D02*
X84265000Y-84020000D01*
X85365000Y-85270000D02*
X87365000Y-85270000D01*
X86615000Y-81270000D02*
X85365000Y-81270000D01*
X87365000Y-82020000D02*
X86615000Y-81270000D01*
X87365000Y-82020000D02*
X88465000Y-82020000D01*
X87365000Y-85270000D02*
X87365000Y-82020000D01*
X88465000Y-82020000D02*
X88465000Y-82520000D01*
X88465000Y-82520000D02*
X87365000Y-82520000D01*
%TO.C,D4*%
X76062500Y-88900000D02*
X77762500Y-88900000D01*
X76062500Y-90100000D02*
X76062500Y-88900000D01*
X77762500Y-88900000D02*
X78062500Y-89200000D01*
X78062500Y-89200000D02*
X78062500Y-90100000D01*
X78062500Y-90100000D02*
X76062500Y-90100000D01*
%TD*%
M02*
